<svg xmlns="http://www.w3.org/2000/svg" xmlns:xlink="http://www.w3.org/1999/xlink" width="367.82" height="305.107" viewBox="0 0 367.82 305.107">
  <defs>
    <clipPath id="clip-path">
      <rect id="Rectángulo_869" data-name="Rectángulo 869" width="150.697" height="94.537" transform="translate(398.801 90.938)" fill="none"/>
    </clipPath>
  </defs>
  <g id="Grupo_1577" data-name="Grupo 1577" transform="translate(-349.079 -34.826)">
    <g id="Grupo_1448" data-name="Grupo 1448">
      <path id="Trazado_7440" data-name="Trazado 7440" d="M423.173,165.871c6.563,65.259,106.741,180.541,173.976,173.777s76.069-133,69.505-198.263S600.265,28.706,533.03,35.468,416.61,100.614,423.173,165.871Z" fill="#fefefe" opacity="0.64" style="isolation: isolate"/>
      <path id="Trazado_7441" data-name="Trazado 7441" d="M398.95,272.422c17.46,37.6,96.629,50,162.019,39.35s168.872-59.215,154.6-146.893c-5.557-34.126-41.719-95.334-176.731-55.065C463.9,132.163,374.832,220.49,398.95,272.422Z" fill="#fefefe" opacity="0.5" style="isolation: isolate"/>
      <path id="Trazado_7442" data-name="Trazado 7442" d="M368.921,161.5c0,65.375,117.672,136.781,182.587,136.781S686.167,226.872,686.167,161.5,658.78,51.851,562.921,101.419C505.172,131.281,368.921,96.119,368.921,161.5Z" fill="#fefefe"/>
      <path id="Trazado_7444" data-name="Trazado 7444" d="M387.689,241.561c3.73-6.94-2.654-27.384-12.988-32.938s-20.7,5.883-24.434,12.823,1.622,17.07,11.956,22.624S383.959,248.5,387.689,241.561Z" fill="#fefefe" opacity="0.5" style="isolation: isolate"/>
      <path id="Trazado_7445" data-name="Trazado 7445" d="M659.819,66.681c-2.315,4.313,2.7,17.568,9.928,21.449s13.915-3.1,16.226-7.408-1.662-10.952-8.885-14.829S662.133,62.369,659.819,66.681Z" fill="#fefefe" opacity="0.5" style="isolation: isolate"/>
    </g>
    <g id="Grupo_1499" data-name="Grupo 1499">
      <g id="Grupo_1496" data-name="Grupo 1496">
        <rect id="Rectángulo_868" data-name="Rectángulo 868" width="150.697" height="94.537" transform="translate(398.801 90.938)" fill="#f7fafb"/>
        <g id="Grupo_1491" data-name="Grupo 1491">
          <g id="Grupo_1490" data-name="Grupo 1490" clip-path="url(#clip-path)">
            <g id="Grupo_1487" data-name="Grupo 1487">
              <circle id="Elipse_583" data-name="Elipse 583" cx="38.561" cy="38.561" r="38.561" transform="translate(389.398 173.247) rotate(-86.405)" fill="#edf4f6"/>
              <path id="Trazado_8531" data-name="Trazado 8531" d="M450.289,128.219l-18.268,20.466L430.3,113.729l-1.148,23.31L414.518,120.3l14.491,19.662-1.1,22.287-18.255-17.4,18.129,19.96-2.38,48.346h9.789l-3.035-61.646Z" fill="#d7e8ef"/>
            </g>
            <g id="Grupo_1488" data-name="Grupo 1488">
              <circle id="Elipse_584" data-name="Elipse 584" cx="17.734" cy="17.734" r="17.734" transform="translate(516.293 175.893) rotate(-85.466)" fill="#edf4f6"/>
              <path id="Trazado_8532" data-name="Trazado 8532" d="M544.566,155.495l-8.4,9.413-.791-16.077-.528,10.72-6.731-7.7,6.665,9.043-.5,10.25-8.4-8,8.338,9.18-1.095,22.235h4.5l-1.4-28.351Z" fill="#d7e8ef"/>
            </g>
            <g id="Grupo_1489" data-name="Grupo 1489">
              <circle id="Elipse_585" data-name="Elipse 585" cx="11.251" cy="11.251" r="11.251" transform="translate(480.612 175.819) rotate(-67.195)" fill="#edf4f6"/>
              <path id="Trazado_8533" data-name="Trazado 8533" d="M501.177,167.194l-5.33,5.972-.5-10.2-.335,6.8-4.27-4.884,4.228,5.737-.32,6.5-5.326-5.078,5.29,5.824-.694,14.106h2.856l-.885-17.987Z" fill="#d7e8ef"/>
            </g>
          </g>
        </g>
        <g id="Grupo_1495" data-name="Grupo 1495">
          <g id="Grupo_1492" data-name="Grupo 1492">
            <path id="Trazado_8534" data-name="Trazado 8534" d="M549.8,182.019h-151v-90.4h151Zm-147.754-3.242H546.556V94.864H402.044Z" fill="#d7e8ef"/>
          </g>
          <g id="Grupo_1493" data-name="Grupo 1493">
            <rect id="Rectángulo_870" data-name="Rectángulo 870" width="4.323" height="87.155" transform="translate(472.138 93.243)" fill="#d7e8ef"/>
          </g>
          <g id="Grupo_1494" data-name="Grupo 1494">
            <rect id="Rectángulo_871" data-name="Rectángulo 871" width="147.754" height="2.162" transform="translate(400.423 135.74)" fill="#d7e8ef"/>
          </g>
          <rect id="Rectángulo_872" data-name="Rectángulo 872" width="161.937" height="6.91" transform="translate(393.331 84.712)" fill="#d7e8ef"/>
          <rect id="Rectángulo_873" data-name="Rectángulo 873" width="161.937" height="6.91" transform="translate(393.331 182.019)" fill="#d7e8ef"/>
        </g>
      </g>
      <g id="Grupo_1497" data-name="Grupo 1497">
        <rect id="Rectángulo_874" data-name="Rectángulo 874" width="32.938" height="33.426" transform="translate(599.876 85.053) rotate(90)" fill="#d7e8ef"/>
        <rect id="Rectángulo_875" data-name="Rectángulo 875" width="29.103" height="28.123" transform="translate(568.612 87.461)" fill="#fff"/>
        <rect id="Rectángulo_876" data-name="Rectángulo 876" width="21.318" height="21.168" transform="translate(572.505 90.938)" fill="#d7e8ef"/>
      </g>
      <g id="Grupo_1498" data-name="Grupo 1498">
        <rect id="Rectángulo_877" data-name="Rectángulo 877" width="32.938" height="33.426" transform="translate(599.876 128.833) rotate(90)" fill="#d7e8ef"/>
        <rect id="Rectángulo_878" data-name="Rectángulo 878" width="29.103" height="28.123" transform="translate(568.612 131.24)" fill="#fff"/>
        <rect id="Rectángulo_879" data-name="Rectángulo 879" width="21.318" height="21.168" transform="translate(572.505 134.718)" fill="#d7e8ef"/>
      </g>
    </g>
    <g id="Grupo_1540" data-name="Grupo 1540">
      <g id="Grupo_1539" data-name="Grupo 1539">
        <g id="Grupo_1500" data-name="Grupo 1500">
          <path id="Trazado_8535" data-name="Trazado 8535" d="M618.2,113.215c-2.077-.771-.787-6.637,6.282-8.228,9.557-2.193,13.856,2.851,14.721,6.674.88,3.365.6,10.515-4.8,13.943-.706.458-3.146,2.288-3.923,2.068a.376.376,0,0,1-.308.107c-1.118-3.5.1-7.94.1-11.449,0-2.827-.981-5.114-3.945-5.759-2.281-.458-3.093.313-5.18,1.629" fill="#603813"/>
        </g>
        <g id="Grupo_1502" data-name="Grupo 1502">
          <g id="Grupo_1501" data-name="Grupo 1501">
            <path id="Trazado_8536" data-name="Trazado 8536" d="M615.916,150.539c-3.193,6.436-3.8,17-3.888,19.17-.48,12.007-.023,23.544-.674,24.8-.273.42,8.131-.752,8.861-1.21,4.6-3.07-.342-33.232.091-38.089.181-1.31,2.6-11.054.216-10.734-1.664.231-2,3.453-3.547,4.205"/>
          </g>
        </g>
        <g id="Grupo_1503" data-name="Grupo 1503">
          <path id="Trazado_8537" data-name="Trazado 8537" d="M624.241,138.765c-5.543,5.94-8.826,24.665-10.023,33.4-.229,2.156-2.112,5.577-.981,7.726.8,1.354-.868.777.614.909,2.6.113,5.189.445,7.79.564,1.81,0,3.957.1,5.313-1.015,1.928-1.592,3.159-4.763,4.071-7.006,2.942-7.226,2.829-17.847.1-25.218" fill="#aaa9a9"/>
        </g>
        <g id="Grupo_1505" data-name="Grupo 1505">
          <g id="Grupo_1504" data-name="Grupo 1504">
            <path id="Trazado_8538" data-name="Trazado 8538" d="M629.966,259.561c.83,2.074-.345,6.6-.345,6.6a17.57,17.57,0,0,1-5.095.915,11.015,11.015,0,0,0,.295-1.6s-3.6,1.943-4.96,2.463a61.452,61.452,0,0,1-8.392,1.191c-3.32-.2-5.693-1.736-3.079-3.434,2.826-1.874,6.934-3.315,10.593-8.529,2.2-3.121,7.778-2.244,11.13.476"/>
          </g>
        </g>
        <g id="Grupo_1507" data-name="Grupo 1507">
          <g id="Grupo_1506" data-name="Grupo 1506">
            <path id="Trazado_8539" data-name="Trazado 8539" d="M632.974,167.785c.868,17.742-4.218,43.717-3.967,49.206.765,15.817,2.074,42.2,1.711,45.321,0,0-8.178,1.98-11.233.564-1.448-.652-3.535-.113-4.766-1.31,0,0,.717-6.561,1.05-18.612.065-2.732-.881-45.916-1.391-54.727" fill="#1a1a1a"/>
          </g>
        </g>
        <g id="Grupo_1508" data-name="Grupo 1508" opacity="0.5">
          <path id="Trazado_8540" data-name="Trazado 8540" d="M615.7,262.349c2.484-4.3,3.625-6.392,3.625-11.593-.229-5.427-1.689-46.261-.557-51,1.356-6.1.557,4.7,4.4-.276,2.5,4.519,1.594,11.951,1.594,16.927,0,5.9,0,11.549.217,17.409.216,6.109,1.8,12.884.9,18.975-.457,2.25-.47,7.551-1.153,9.337-1.357,3.416-3.089.771-9.03,0"/>
        </g>
        <path id="Trazado_8541" data-name="Trazado 8541" d="M631.31,269.951l-4.446-1.661a18.794,18.794,0,0,1,1.357-2.012c1.128-.419,5.518,1.925,4.9,1.693Z" fill="#1a1a1a"/>
        <g id="Grupo_1510" data-name="Grupo 1510">
          <g id="Grupo_1509" data-name="Grupo 1509">
            <path id="Trazado_8542" data-name="Trazado 8542" d="M636.737,262.412c.821,2.125-.329,6.618-.329,6.618a17.593,17.593,0,0,1-5.1.921,9.518,9.518,0,0,0,.285-1.611s-3.591,1.943-4.947,2.451a56.465,56.465,0,0,1-8.407,1.184c-3.306-.175-5.665-1.717-3.077-3.434,2.826-1.88,6.944-3.29,10.594-8.517,2.212-3.107,7.777-2.237,11.129.483"/>
          </g>
        </g>
        <g id="Grupo_1512" data-name="Grupo 1512">
          <g id="Grupo_1511" data-name="Grupo 1511">
            <path id="Trazado_8543" data-name="Trazado 8543" d="M639.76,170.643c.865,17.766-4.242,43.716-3.979,49.2.774,15.849,2.087,42.232,1.721,45.34,0,0-8.175,1.974-11.243.577-1.438-.665-4.095-.308-5.326-1.505,0,0-.355-7.369,0-19.432.056-2.733-3.237-45.133-2.771-55.7" fill="#1a1a1a"/>
          </g>
        </g>
        <g id="Grupo_1514" data-name="Grupo 1514">
          <g id="Grupo_1513" data-name="Grupo 1513">
            <path id="Trazado_8544" data-name="Trazado 8544" d="M636.067,134.045c-.311-.532-1.028-.9-2.717-.695-1.583.207-2.873.99-4.447,1.328-.673.113-2.142.057-2.609.759-.765,1.053.865,1.529,1.7,1.811,1.927.79,8.118,3.434,8.952.031" fill="#333"/>
          </g>
        </g>
        <g id="Grupo_1516" data-name="Grupo 1516">
          <g id="Grupo_1515" data-name="Grupo 1515">
            <path id="Trazado_8545" data-name="Trazado 8545" d="M626.51,134.8c-3.535,2.275-7.859,8.2-9.535,11.988a33.232,33.232,0,0,0-2.6,7.952,22.144,22.144,0,0,1,3.158-4.092c1.585-1.7,1.733-1.541,3.327-3.215,1.576-1.522,3.56-3.252,4.083-5.383.48-2.043,2.476-4.53,2.191-6.486" fill="#333"/>
          </g>
        </g>
        <g id="Grupo_1518" data-name="Grupo 1518">
          <g id="Grupo_1517" data-name="Grupo 1517">
            <path id="Trazado_8546" data-name="Trazado 8546" d="M622.211,141.2c-2.692,2.682-5.327,8.109-6.969,12.677-.648,1.843-3.318,10.491-2.359,13.135,7.548-2.926,7.206-16.988,10.5-22.936" fill="#1b1464"/>
          </g>
        </g>
        <g id="Grupo_1520" data-name="Grupo 1520">
          <g id="Grupo_1519" data-name="Grupo 1519">
            <path id="Trazado_8547" data-name="Trazado 8547" d="M634.538,133.35c.25-.627-.856-.952-1.345-.927a8.385,8.385,0,0,0-1.576.589c-1.288.457-2.576.545-3.841,1.046-2.739,1.141-3.719,3.867-5.051,6.292a2.57,2.57,0,0,0-.514.846c1.14.188,3.077-.79,4.117-1.172a23.027,23.027,0,0,0,3.168-1.479c2.146-1.116,3.845-2.024,4.734-4.4" fill="#ccc"/>
          </g>
        </g>
        <g id="Grupo_1522" data-name="Grupo 1522">
          <g id="Grupo_1521" data-name="Grupo 1521">
            <path id="Trazado_8548" data-name="Trazado 8548" d="M624.834,108.653c-8.655.758-8.507,11.129-7.2,16.663,2.6,11.149,13.981,3.742,15.463-3.9a20.278,20.278,0,0,0-1.607-12" fill="#c69c6d"/>
          </g>
        </g>
        <g id="Grupo_1524" data-name="Grupo 1524">
          <g id="Grupo_1523" data-name="Grupo 1523">
            <path id="Trazado_8549" data-name="Trazado 8549" d="M633.785,122.176c-1.209,2.946-1.952,5.584-.8,9.582,1.175,4.086,2.268,5.477-2,8.266-2.108,1.379-4.48,3.459-7.159,3.371-.345-1.849.717-2.707,1.15-4.793.752-3.8-.273-6.48-1.129-9.056" fill="#c69c6d"/>
          </g>
        </g>
        <g id="Grupo_1526" data-name="Grupo 1526">
          <g id="Grupo_1525" data-name="Grupo 1525">
            <path id="Trazado_8550" data-name="Trazado 8550" d="M624.479,138.627c-1.231-.195-2.5.582-2.838,2.375-.3,1.19.2,2.425,1.72,1.967" fill="#1b1464"/>
          </g>
        </g>
        <g id="Grupo_1528" data-name="Grupo 1528">
          <g id="Grupo_1527" data-name="Grupo 1527">
            <path id="Trazado_8551" data-name="Trazado 8551" d="M634.39,132.88c-1.836,1.868-4.951,3-7.482,3.641-1.78.445-1.824,1.046-2.588,2.9-.558,1.047-1.357,3.391-1.814,4.456a22.615,22.615,0,0,0,9.763-4.863c.661-.633,2.908-1.736,3.158-2.45.329-.9-.307-2.551-1.037-3.685" fill="#ccc"/>
          </g>
        </g>
        <g id="Grupo_1529" data-name="Grupo 1529">
          <path id="Trazado_8552" data-name="Trazado 8552" d="M635.531,195.948c-6.512,0-10.688.877-12.957.877-1.516,0-7.535.834-9.588-1.109-2.03-2.018.126-5.133-.1-7.727-.457-5.665,0-8.874-.241-16.688"/>
        </g>
        <g id="Grupo_1531" data-name="Grupo 1531">
          <g id="Grupo_1530" data-name="Grupo 1530">
            <path id="Trazado_8553" data-name="Trazado 8553" d="M635.518,138.063c1.106,2.086,1.47.031,4.242,4.142,1.517,2.275,2.5,8.372,2.451,11.975-.126,10.077,0,15.172,0,23.281,0,10.616-.8,12.966-.8,18.217-7.141.683-13.6-.031-18.029.245-3.889.219-8.692.9-10.879-.207-.627-.307-.755-9.758-.389-14.019.354-4,1.323-21.915,3.206-26.646,1.275-3.177,1.366-4.4,4.619-8.98" fill="#1a1a1a"/>
          </g>
        </g>
        <g id="Grupo_1533" data-name="Grupo 1533">
          <g id="Grupo_1532" data-name="Grupo 1532">
            <path id="Trazado_8554" data-name="Trazado 8554" d="M636.067,134.045c2.61,5.008,3.957,6.443,1.15,7.182-5.052,1.329-7.846,3.015-11.688,4.7a5.1,5.1,0,0,0-1.05-2.093c-1.723.871-1.563,4.756-3.3,5.634a15.641,15.641,0,0,0-6.01,5.991c2.062-6.029,3.9-10.247,9.817-14.67,2.531-1.881,11.436-4.619,11.086-6.744" fill="#333"/>
          </g>
        </g>
        <g id="Grupo_1534" data-name="Grupo 1534">
          <path id="Trazado_8555" data-name="Trazado 8555" d="M634.741,116.944c-1.072.921-1.206,4.743-3.578,3.86-1.529-.633-1.084-3.647-.947-4.945s.238-3.183-1.062-4.518c-1.275-1.316-4.208-.6-6.1.571a8.782,8.782,0,0,1-4.857,1.3,9.441,9.441,0,0,1,.821-3.8c2.1-3.352,5.258-2.794,8.767-2.443,4.311.357,5.6,3.377,7.392,6.893" fill="#603813"/>
        </g>
        <path id="Trazado_8556" data-name="Trazado 8556" d="M629.966,120.923c-.185,2.337.752,4.305,2.074,4.381,1.344.112,2.544-1.7,2.714-4.036s-.752-4.312-2.065-4.406C631.357,116.762,630.135,118.579,629.966,120.923Z" fill="#c69c6d"/>
        <g id="Grupo_1535" data-name="Grupo 1535" opacity="0.5">
          <path id="Trazado_8557" data-name="Trazado 8557" d="M629.941,176.427c3.205-2.613,8.438-11.756,11.064-19.4,1.15-3.341-3.707-13.624-9.833-11.914-5.724.84-4.7,14.382-4,25.531s1.071,19.909,2.018,20.793"/>
        </g>
        <g id="Grupo_1536" data-name="Grupo 1536">
          <path id="Trazado_8558" data-name="Trazado 8558" d="M634.584,196.249l-4.869.257.467-3.766,4.788.558Z" fill="#c69c6d"/>
          <path id="Trazado_8559" data-name="Trazado 8559" d="M630.477,196.28a7.419,7.419,0,0,0-3.068,1.648,19.038,19.038,0,0,0-2.692,3.134c.035.256,1.107.6,1.987-.289a3.2,3.2,0,0,1,3.124-1.322C630.718,199.495,630.477,196.28,630.477,196.28Z" fill="#c69c6d"/>
          <path id="Trazado_8560" data-name="Trazado 8560" d="M630.2,196.267c-.216.3-3.331,4.055-2.463,3.654,1.495-.69,1.357,1.009,1.2,2.055-.09.6.524.37,1.3.47,3.615.439,6.338.264,4.345-6.2Z" fill="#c69c6d"/>
          <path id="Trazado_8561" data-name="Trazado 8561" d="M629.245,199.231c-.034.289-.2,2.77-.545,4.688-.1.533-1.611,2.908-1.04,3.484s2.509-2.043,2.7-3.29c.216-1.253.3-2.362.479-4.48" fill="#c69c6d"/>
          <path id="Trazado_8562" data-name="Trazado 8562" d="M630.671,200.473c-.044.275-.2,2.738-.545,4.674-.116.52-1.611,2.908-1.05,3.459.558.571,2.519-2.017,2.714-3.271.215-1.247.285-2.362.5-4.461" fill="#c69c6d"/>
          <path id="Trazado_8563" data-name="Trazado 8563" d="M632.244,200.824a41.029,41.029,0,0,1-.477,4.173c-.093.5-1.438,2.6-.946,3.121.511.52,2.269-1.812,2.438-2.939.172-1.1.242-2.1.423-3.98" fill="#c69c6d"/>
          <path id="Trazado_8564" data-name="Trazado 8564" d="M633.6,201.062c-.025.225-.151,2.149-.424,3.628-.09.394-1.253,2.243-.811,2.694s1.939-1.585,2.1-2.55a35.541,35.541,0,0,0,.843-4.6" fill="#c69c6d"/>
        </g>
        <g id="Grupo_1538" data-name="Grupo 1538">
          <g id="Grupo_1537" data-name="Grupo 1537">
            <path id="Trazado_8565" data-name="Trazado 8565" d="M636.292,144.1c-4.446-2.425-6.83,2.5-7.514,7.84-.649,5.295,1.586,17.785,1.37,19.627-.082.739-1.323,17.146-2.851,24a15.99,15.99,0,0,0,9.453-.445c1.209-.426,2.428-19.207,3.033-24.076C640.729,163.418,640.181,146.215,636.292,144.1Z" fill="#1a1a1a"/>
          </g>
        </g>
      </g>
      <path id="Trazado_8566" data-name="Trazado 8566" d="M628.445,123.2s-1.185,8.238-6.855,7.607-5-8.014-5-8.014S618.58,118.831,628.445,123.2Z" fill="#17b0c7"/>
    </g>
    <g id="Grupo_1556" data-name="Grupo 1556">
      <g id="Grupo_1555" data-name="Grupo 1555">
        <path id="Trazado_8567" data-name="Trazado 8567" d="M569.492,152.507l-2.372,13.712L564.858,191.3l-4.415-.7s-1.532-21.2-1.093-24.578c.466-3.384,2.882-20.435,2.882-20.435Z" fill="#c69c6d"/>
        <g id="Grupo_1541" data-name="Grupo 1541">
          <path id="Trazado_8568" data-name="Trazado 8568" d="M564.589,189.537a6.548,6.548,0,0,1,1.92,2.713,20.562,20.562,0,0,0,1.405,3.322c-.148.238-1.5.927-2.282-1.047s-1.118-1.616-1.8-2.08C563.169,191.987,564.589,189.537,564.589,189.537Z" fill="#c69c6d"/>
          <path id="Trazado_8569" data-name="Trazado 8569" d="M564.567,189.719c.16.282,2.72,4.387,1.942,3.885-1.316-.827-1.294.946-1.294,2.031,0,1.171-.507.319-1.244.363-1.845.088-4.293.5-4.5-.777-.292-1.943-.1-2.946,1.009-5.922Z" fill="#c69c6d"/>
          <path id="Trazado_8570" data-name="Trazado 8570" d="M565.181,192.777c0,.313-.05,2.863.082,4.85.068.546,1.24,3.1.661,3.641s-2.172-2.325-2.237-3.591c-.063-1.291-.045-2.425-.063-4.587" fill="#c69c6d"/>
          <path id="Trazado_8571" data-name="Trazado 8571" d="M563.74,193.924c0,.294-.063,2.838.084,4.85.041.533,1.231,3.083.655,3.635-.579.532-2.165-2.325-2.228-3.6s-.034-2.425-.034-4.587" fill="#c69c6d"/>
          <path id="Trazado_8572" data-name="Trazado 8572" d="M562.239,194.174c.012.27-.05,2.551.075,4.324.035.47,1.093,2.752.6,3.24-.554.489-1.98-2.068-2.023-3.2-.069-1.171-.041-2.168-.022-4.105" fill="#c69c6d"/>
          <path id="Trazado_8573" data-name="Trazado 8573" d="M560.938,194.3c0,.225-.009,2.2.1,3.728.028.445.946,2.413.5,2.808-.454.432-1.676-1.736-1.733-2.751a39.454,39.454,0,0,1-.348-4.757" fill="#c69c6d"/>
        </g>
        <path id="Trazado_8574" data-name="Trazado 8574" d="M593.024,267.651l-.377,1.4S593.65,268.811,593.024,267.651Z" fill="#999"/>
        <g id="Grupo_1542" data-name="Grupo 1542">
          <path id="Trazado_8575" data-name="Trazado 8575" d="M584.808,223.647a97.349,97.349,0,0,0,0,15.334c.843,7.9,3.826,18.154.89,24.484,0,0,4.246,6.273,5.157,6.248.875-.025,2.933-6.511,2.933-6.511s.342-.119.091-1.617a56.581,56.581,0,0,1-.429-20.291,86.2,86.2,0,0,0,.861-15.95S582.1,214.748,584.808,223.647Z" fill="#c69c6d"/>
          <path id="Trazado_8576" data-name="Trazado 8576" d="M595.59,267.889c0,2.714-2.579,3.315-5.759,3.315s-5.759-.6-5.759-3.315,2.576-4.913,5.765-4.913S595.59,265.17,595.59,267.889Z" fill="#999"/>
          <path id="Trazado_8577" data-name="Trazado 8577" d="M595.59,266.679c0,2.708-2.579,3.316-5.759,3.316s-5.759-.608-5.759-3.316c0-4.317,2.735-7.225,5.925-7.225C593.171,259.454,595.59,261.654,595.59,266.679Z" fill="#ccc"/>
          <path id="Trazado_8578" data-name="Trazado 8578" d="M586.375,266.04a10.756,10.756,0,0,1,6.915,0v.772s-3.9-1.053-6.915,0Z"/>
          <path id="Trazado_8579" data-name="Trazado 8579" d="M586.375,264.605a10.67,10.67,0,0,1,6.915,0v.765s-3.9-1.059-6.915,0Z"/>
          <path id="Trazado_8580" data-name="Trazado 8580" d="M586.957,262.362c-.326-1.46-1.165-3.779,2.429-3.779s4.947.934,3.249,3.5C590.918,264.662,586.957,262.362,586.957,262.362Z" fill="#ccc"/>
          <path id="Trazado_8581" data-name="Trazado 8581" d="M586.375,262.951a10.631,10.631,0,0,1,6.915,0v.764s-3.9-1.058-6.915,0Z"/>
          <path id="Trazado_8582" data-name="Trazado 8582" d="M595.1,267.651a12.838,12.838,0,0,0-10.8,0s.648,2.306,5.53,2.344S595.1,267.651,595.1,267.651Z" fill="#e6e6e6"/>
          <path id="Trazado_8583" data-name="Trazado 8583" d="M588.741,267.168v2.219S589.364,268.9,588.741,267.168Z" fill="#999"/>
          <path id="Trazado_8584" data-name="Trazado 8584" d="M591.015,267.087l-.16,2.626A2.856,2.856,0,0,0,591.015,267.087Z" fill="#999"/>
          <path id="Trazado_8585" data-name="Trazado 8585" d="M587.162,269.042l-.286-1.391A1.244,1.244,0,0,0,587.162,269.042Z" fill="#999"/>
        </g>
        <path id="Trazado_8586" data-name="Trazado 8586" d="M584.413,262.262c.458,1.084,11.449.031,12.264.031.674,0-.961-46.793-1.087-49.783-.1-2.669,0-22.44,0-22.44l-18.4-2.927,3.165,14.213C580.359,204.514,583.884,260.989,584.413,262.262Z" fill="#736357"/>
        <path id="Trazado_8587" data-name="Trazado 8587" d="M595.612,260.526c.062-2.238-.2-36.071-6.984-35.576s-1.724,30.174-2.178,34.6C586.255,261.522,595.612,260.526,595.612,260.526Z" fill="#fff" opacity="0.1"/>
        <g id="Grupo_1543" data-name="Grupo 1543">
          <path id="Trazado_8588" data-name="Trazado 8588" d="M568.734,260.47c1.773,1.679,2.663,2.613,1.63,6.385s-15.7,7.439-17.782,5.753c-2.065-1.661-1.661-5.69,1.488-6.981a9.61,9.61,0,0,0,5.393-8.247" fill="#999"/>
          <path id="Trazado_8589" data-name="Trazado 8589" d="M570.57,224.367c-.661,9.2-1.927,25.662-1.917,29.122a11.459,11.459,0,0,0,1.36,6.235,10.454,10.454,0,0,1,.238,6.16c-.959,2.839-14.113,7.526-17.606,5.853-2.332-1.128-1.661-5.709,1.494-7.012a11.477,11.477,0,0,0,5.894-5.91c2.635-6.1-.489-29.911.091-38.114" fill="#c69c6d"/>
          <path id="Trazado_8590" data-name="Trazado 8590" d="M569.561,258.721c1.435,1.448,1.718,5.277.975,7.182-1.072,2.788-14.4,7.507-17.891,5.834-2.332-1.128-1.661-5.709,1.494-7.012s4.418-4.393,5.192-6.53c0,0,3.666,2.656,5.593,2.688A5.826,5.826,0,0,0,569.561,258.721Z" fill="#ccc"/>
          <path id="Trazado_8591" data-name="Trazado 8591" d="M554.531,264.487a3.788,3.788,0,0,1-.392.238c-3.155,1.3-3.826,5.884-1.494,7.012,1.516.727,4.868.219,8.271-.783C558.946,266.461,556.053,264.856,554.531,264.487Z" fill="#e6e6e6"/>
          <path id="Trazado_8592" data-name="Trazado 8592" d="M558.726,260.237c-.461-1.547-.858-4.242,2.059-3.653,2.932.576,5.508,1.147,3.663,5.295C562.587,266.028,558.726,260.237,558.726,260.237Z" fill="#ccc"/>
          <path id="Trazado_8593" data-name="Trazado 8593" d="M558.425,260.776s3.945,1.266,4.744,2.639l-.542.814s-1.1-1.579-4.813-2.707Z"/>
          <path id="Trazado_8594" data-name="Trazado 8594" d="M557.194,262.262s3.785,1.272,4.6,2.651l-.548.8s-.946-1.736-4.653-2.87Z"/>
          <path id="Trazado_8595" data-name="Trazado 8595" d="M556.1,263.5s3.447,1.553,4.067,3.057l-.645.727s-.639-1.378-4.139-3.133Z"/>
          <path id="Trazado_8596" data-name="Trazado 8596" d="M556.11,266.486c.645-.3-1.99,2.149-2.548,3.521C553.562,270.007,554.509,267.187,556.11,266.486Z" fill="#999"/>
          <path id="Trazado_8597" data-name="Trazado 8597" d="M557.6,267.213s-2.008,2.581-2.074,3.258C555.53,270.471,555.872,267.889,557.6,267.213Z" fill="#999"/>
        </g>
        <path id="Trazado_8598" data-name="Trazado 8598" d="M586.112,187.143c-2.548,1.842-1.185,3.735-4.049,11.875-2.895,8.266-7.241,15.485-10.023,23.319,0,0-1.392,24.891-.821,37.6.047,1.015-3.25,2.707-6.771,1.942-3.428-.739-7.859-.018-7.859-1.942-.013-14.144,1.483-39.035,2.26-41.248,1.961-5.382,7.548-28.851,11.505-39.01Z" fill="#736357"/>
        <path id="Trazado_8599" data-name="Trazado 8599" d="M560.3,267.118c.765-.444-3.478,1.924-2.964,4.625C557.341,271.743,558.949,267.908,560.3,267.118Z" fill="#999"/>
        <path id="Trazado_8600" data-name="Trazado 8600" d="M560.074,224.95c.611,1.084,9.4,17.214,6.357,30.951-1.272,5.715-8.278,1.723-8.278,1.723Z" fill="#fff" opacity="0.1"/>
        <path id="Trazado_8601" data-name="Trazado 8601" d="M594.443,154.325l4.756,11.969-.109,24.39h4.841s3.2-22.015,2.789-25.205c-.445-3.214-5.431-17.7-5.431-17.7Z" fill="#c69c6d"/>
        <path id="Trazado_8602" data-name="Trazado 8602" d="M587.465,136.69c-2.55-3.24.4-10.7.4-10.7l-5.348,5.182v0h-4.083s.423,4.162-.9,5.515c-.586.6-2.319.483-2.319.483v11.781h14.583l2.591-11.781S587.989,137.354,587.465,136.69Z" fill="#c69c6d"/>
        <path id="Trazado_8603" data-name="Trazado 8603" d="M559.268,156.374c1.865-7.821,4.575-17.616,8.658-18.6a55.774,55.774,0,0,1,7.645-.658s2.3,2.977,7.577,2.977a10.68,10.68,0,0,0,7.538-2.977,28.115,28.115,0,0,1,4.879.088c3.817.859,6.223,10.572,8.366,15.542l-9.488,4.812-.777-2.676c-.062,1.956,2.995,26.088,3.011,35.269l-29.541-.507s.583-23.683,1.263-34.122l-.054,4.26Z" fill="#4d4d4d"/>
        <path id="Trazado_8604" data-name="Trazado 8604" d="M584.357,184.793c2.908,1.323,7.8,1.717,10.572-.138,1.043-.651.41-1.554.98-2.82a68.35,68.35,0,0,1,.822,7.984l-29.657-.175s.667-15.3,1.168-26.051C569.931,172.448,575.5,181.052,584.357,184.793Z" opacity="0.2"/>
        <g id="Grupo_1544" data-name="Grupo 1544">
          <path id="Trazado_8605" data-name="Trazado 8605" d="M599.7,189.481a6.171,6.171,0,0,0-1.755,2.468,19.563,19.563,0,0,1-1.272,3.015c.144.219,1.37.846,2.071-.946s1.025-1.467,1.63-1.9S599.7,189.481,599.7,189.481Z" fill="#c69c6d"/>
          <path id="Trazado_8606" data-name="Trazado 8606" d="M599.729,189.637c-.172.263-2.482,4.005-1.78,3.56,1.21-.759,1.182.839,1.182,1.811,0,1.09.473.307,1.143.357,1.667.069,3.879.445,4.061-.7.285-1.78.126-2.694-.918-5.39Z" fill="#c69c6d"/>
          <path id="Trazado_8607" data-name="Trazado 8607" d="M599.169,192.438c0,.276.046,2.6-.092,4.4-.043.495-1.115,2.82-.579,3.315s1.961-2.106,2.03-3.265c.044-1.178.032-2.206.044-4.174" fill="#c69c6d"/>
          <path id="Trazado_8608" data-name="Trazado 8608" d="M600.481,193.472c0,.264.056,2.582-.091,4.393-.034.5-1.106,2.821-.592,3.328.529.489,1.971-2.112,2.034-3.283s.018-2.207.028-4.174" fill="#c69c6d"/>
          <path id="Trazado_8609" data-name="Trazado 8609" d="M601.838,193.7c-.006.245.057,2.319-.069,3.942-.034.432-1,2.488-.542,2.933.485.444,1.78-1.856,1.83-2.889.069-1.072.034-1.987.025-3.754" fill="#c69c6d"/>
          <path id="Trazado_8610" data-name="Trazado 8610" d="M603.007,193.817c0,.2.028,1.993-.075,3.384-.029.408-.866,2.206-.468,2.551.423.4,1.53-1.586,1.586-2.488a37.19,37.19,0,0,0,.32-4.337" fill="#c69c6d"/>
        </g>
        <g id="Grupo_1546" data-name="Grupo 1546">
          <g id="Grupo_1545" data-name="Grupo 1545" opacity="0.5">
            <path id="Trazado_8611" data-name="Trazado 8611" d="M578.438,131.175c-.1.546-.022,2.952-.131,3.522,3.951,1.642,5.586-.8,8.206-3.2.536-2.281.667-4.981,2.171-6.962l-10.929.269c.342,1.16.956,2.351,1.2,3.573C579.237,129.84,578.633,129.7,578.438,131.175Z" fill="#957552"/>
          </g>
        </g>
        <g id="Grupo_1548" data-name="Grupo 1548">
          <g id="Grupo_1547" data-name="Grupo 1547">
            <path id="Trazado_8612" data-name="Trazado 8612" d="M575.007,113.748c-1.084,2.406,1.5,1.836,3.45,3.628a6.936,6.936,0,0,1,.517-2.582c1.118.759,1.767,2.5,2.9,3.265,1.414.6,1.567-.256,2.131-.081.708.156,1.689,1.109,2.385,1.429,1.115.463-.2,3.434.933,3.6,1.7.345-2.7,6.774-.611,5.822,10.1-4.607,7.539-16.162,3.5-19.064-4.027-2.895-12.054-3.879-15.714,2.532" fill="#42210b"/>
          </g>
        </g>
        <g id="Grupo_1550" data-name="Grupo 1550">
          <g id="Grupo_1549" data-name="Grupo 1549">
            <path id="Trazado_8613" data-name="Trazado 8613" d="M579.121,113.6a31.792,31.792,0,0,1-1.961,3.647,11.627,11.627,0,0,1-2.291,2.025c-.605.42-.132,2.275-.354,3.058-1.435-2.031-.89-6.58-.125-8.441a8.308,8.308,0,0,1,7.868-5.552" fill="#42210b"/>
          </g>
        </g>
        <g id="Grupo_1552" data-name="Grupo 1552">
          <g id="Grupo_1551" data-name="Grupo 1551">
            <path id="Trazado_8614" data-name="Trazado 8614" d="M574.07,113.541c-2.275,4.713-1.516,11.875.467,15.735,4.039,8.041,11.064,2.645,13.787-3.051.131-.289,5.473-17.059-6.27-15.466-2.093.3-7.58-.727-7.984,2.782" fill="#c69c6d"/>
          </g>
        </g>
        <g id="Grupo_1553" data-name="Grupo 1553">
          <path id="Trazado_8615" data-name="Trazado 8615" d="M586.911,110.715c-.107,3.916-.022,8.071,2.052,11.286,1.654-3.3,4.265-11.6-1.015-12.226" fill="#42210b"/>
        </g>
        <path id="Trazado_8616" data-name="Trazado 8616" d="M590.8,123.925c-.58,1.736-1.836,2.888-2.754,2.569-.953-.313-1.2-1.98-.614-3.716s1.83-2.908,2.748-2.569C591.131,120.516,591.388,122.176,590.8,123.925Z" fill="#c69c6d"/>
        <g id="Grupo_1554" data-name="Grupo 1554">
          <path id="Trazado_8617" data-name="Trazado 8617" d="M589.17,111.924c-3.513,5.365-12.042.595-16.137,4.976,0-1.755,0-3.7,2.776-6.242,2.2-2,6.63-2.337,9.266-1.266" fill="#42210b"/>
        </g>
      </g>
      <path id="Trazado_8618" data-name="Trazado 8618" d="M586.336,125.531s-1.26,8.759-7.289,8.088-5.316-8.521-5.316-8.521S575.847,120.887,586.336,125.531Z" fill="#17b0c7"/>
    </g>
    <g id="Grupo_1576" data-name="Grupo 1576">
      <path id="Trazado_8619" data-name="Trazado 8619" d="M470.325,204.561l-14.743-3.374c-7.631-1.746-13.788-1.832-14.442,4.032-.416,3.721,3.173,7.636,8.016,8.744l24.838,5.684c4.842,1.108,9.105-1.01,9.52-4.732C484.168,209.052,477.955,206.307,470.325,204.561Z" fill="#b3b3b3"/>
      <g id="Grupo_1573" data-name="Grupo 1573">
        <g id="Grupo_1558" data-name="Grupo 1558">
          <g id="Grupo_1557" data-name="Grupo 1557">
            <path id="Trazado_8620" data-name="Trazado 8620" d="M469.5,203.982c1.231,3.187,7,12.138,15.331,13.848,7.258,1.478,22.12,4.495,31.091,2.816.549-3.613,8.1-15.086,8.028-18.792-.081-4.26,3.473-9.493,1.469-9.424-4.466.11-16.78.145-20.072.756-5.121.944-19.712,2.724-27.1,4.458" fill="#00a99d"/>
          </g>
        </g>
        <g id="Grupo_1560" data-name="Grupo 1560">
          <g id="Grupo_1559" data-name="Grupo 1559">
            <path id="Trazado_8621" data-name="Trazado 8621" d="M459.263,199.577c2.668.2,6.387.721,9,3.055,2.635,2.44,1.843,5.989,5.485,3.765,4.154-2.528,10.086-9.295,6.562-9.15-1.114.048-2.6.868-4.336.375-2.616-.8-3.371-2.363-5.024-3.98" fill="#c69c6d"/>
          </g>
        </g>
        <g id="Grupo_1562" data-name="Grupo 1562">
          <g id="Grupo_1561" data-name="Grupo 1561" opacity="0.2">
            <path id="Trazado_8622" data-name="Trazado 8622" d="M480.673,213.679c4.775,4.271,29.079,5.42,24.289.48-.923-.949,1.247-14.9-2.192-13.4-3.515,1.7-9.921,1.023-13.742,1.948-2.223.685-12.487,1.579-11.388,7.58"/>
          </g>
        </g>
        <g id="Grupo_1564" data-name="Grupo 1564">
          <g id="Grupo_1563" data-name="Grupo 1563">
            <path id="Trazado_8623" data-name="Trazado 8623" d="M458.273,182.5c2.793.236.936,2.349,1.567,5.094a7.682,7.682,0,0,0-2.635-.85c.121,1.433,1.4,2.923,1.509,4.363-.164,1.651-1.041,1.357-1.168,1.948-.213.756.182,2.163.094,2.977-.155,1.3,3.28,1.584,2.857,2.743-.548,1.758,8.012,1.355,5.932,2.627-8.476,5.189-18.823-1.671-19.736-6.82-.838-4.652,2.632-13.239,10.508-13.293" fill="#42210b"/>
          </g>
        </g>
        <g id="Grupo_1566" data-name="Grupo 1566">
          <g id="Grupo_1565" data-name="Grupo 1565">
            <path id="Trazado_8624" data-name="Trazado 8624" d="M456.01,186.272a32.079,32.079,0,0,0,4.419.048,12.325,12.325,0,0,0,3.051-1.032c.687-.381,2.179,1.023,3.054,1.22-1.173-2.391-5.685-4.248-7.817-4.5a8.838,8.838,0,0,0-9.236,4.462" fill="#42210b"/>
          </g>
        </g>
        <g id="Grupo_1568" data-name="Grupo 1568">
          <g id="Grupo_1567" data-name="Grupo 1567">
            <path id="Trazado_8625" data-name="Trazado 8625" d="M458.573,181.539c5.568.3,11.827,4.762,14.4,8.592,5.373,7.928-3.4,12.516-9.544,10.867-.333-.1-19.159-3.394-11.584-13.491,1.354-1.781,3.252-7.406,6.728-5.968" fill="#c69c6d"/>
          </g>
        </g>
        <path id="Trazado_8626" data-name="Trazado 8626" d="M460.572,200.089s1.321-2.476.7-3.005-8.351-.877-7.66-5.745S447.309,200.482,460.572,200.089Z" fill="#42210b"/>
        <path id="Trazado_8627" data-name="Trazado 8627" d="M459.98,201.6c1.927.341,3.646-.23,3.819-1.234.2-1.052-1.213-2.158-3.138-2.51-1.913-.384-3.636.2-3.828,1.216C456.636,200.114,458.043,201.262,459.98,201.6Z" fill="#c69c6d"/>
        <g id="Grupo_1570" data-name="Grupo 1570">
          <g id="Grupo_1569" data-name="Grupo 1569">
            <path id="Trazado_8628" data-name="Trazado 8628" d="M458.46,180.773c3.442-.159-2.028,6.75-1.358,10.011a7.825,7.825,0,0,1-1.69-2.866c.018,1.387.705,2.95.615,4.4a10.7,10.7,0,0,0-1.439-.841c-.333,1.969,1.994,4.36,2.3,6.083-2.7-.353-5.908,2.725-7.988-3.935C447.812,190.145,448.834,181.239,458.46,180.773Z" fill="#42210b"/>
          </g>
        </g>
        <path id="Trazado_8629" data-name="Trazado 8629" d="M511.277,196.059c-1.545-2.463-.622-5.293-1.9-8.911a1.365,1.365,0,0,1,1.556.35c.864,1.138.617,3.546,1.932,3.6" fill="#c69c6d"/>
        <path id="Trazado_8630" data-name="Trazado 8630" d="M511.277,196.059l2.31,1.323c2.665-3.361,3.194-6.477,2.681-8.28-.2-.7-3.335-4.958-3.552-3.331-.279,2-.628,4.444-.628,4.444" fill="#c69c6d"/>
        <g id="Grupo_1572" data-name="Grupo 1572">
          <g id="Grupo_1571" data-name="Grupo 1571">
            <path id="Trazado_8631" data-name="Trazado 8631" d="M477.86,211.308c-1.4-4.49,3-6,8.231-6.135,5.176-.124,15.29,2.034,17.087,2,.169,0,5.765-13.711,6.783-13.228,2.289,1.108,5.019,1.256,5.633,3.089.409,1.192-7.7,18.388-9.142,18.785C499.247,217.757,479.281,215.791,477.86,211.308Z" fill="#00a99d"/>
          </g>
        </g>
      </g>
      <rect id="Rectángulo_880" data-name="Rectángulo 880" width="1.504" height="30.08" transform="translate(646.05 196.85)" fill="#666"/>
      <path id="Trazado_8632" data-name="Trazado 8632" d="M642.22,231.6c0,3.428-4.21,6.235-9.366,6.235H453.57c-5.146,0-9.358-2.807-9.358-6.235v-8.09c0-3.428,4.212-6.248,9.358-6.248H632.854c5.156,0,9.366,2.82,9.366,6.248Z" fill="#ccc"/>
      <path id="Trazado_8633" data-name="Trazado 8633" d="M532,202.428c4.744.087,10.941.808,16.923,1.435,4.368.464,22.2,3.591,30.785,3.672,4.287.044,4.434-1.391,4.9-2.889.758-2.45,1.6-4.148,2.542-4.669,1.472-.8,1.215,5.665,1.033,9.883-.116,2.838-.548,5.872-3.832,4.292a13.692,13.692,0,0,0-3.694-1.2c-3.66-.432-6.505-1.66-13.3-.795-5.123.651-14.307.864-20.06-.376-3.791-.821-6.564.219-11.038.488Z" fill="#c69c6d"/>
      <path id="Trazado_8634" data-name="Trazado 8634" d="M534.177,206.883c4.738.1,10.936.815,16.923,1.448,4.371.451,22.212,3.584,30.766,3.666,4.3.031,4.459-1.385,4.92-2.889a7.306,7.306,0,0,1,3.08-4.3c1.429-.8.655,5.3.495,9.5-.132,2.852-.548,5.885-3.838,4.318a12.755,12.755,0,0,0-3.7-1.216c-3.659-.432-6.517-1.667-13.295-.8-5.119.652-14.328.877-20.059-.37-3.813-.815-6.573.22-11.051.495Z" fill="#c69c6d"/>
      <g id="Grupo_1574" data-name="Grupo 1574">
        <path id="Trazado_8635" data-name="Trazado 8635" d="M517.769,192.288c-3.68,6.467-8.831,18.08-8.074,25.581.352,3.4.3,5.483-1.716,10.766-.768,2.005,12.2,1.121,15.779,1.128,3.919,0,7.6-1,11.512-1,5.207,0,10.313,1.009,15.473,1,7.066-.013,14.108-.5,21.17-.5,18.9,0,47.721,4.274,54.694-1.8,1.8-1.554,4.017-10.058,2.52-12.014-5.672-7.369-15.794-7.106-23.076-12.119-4.432-3.045-8.941-5.771-14.093-6.6a54.017,54.017,0,0,0-8.99-.689c-4.468.012-8.612-2.169-13.078-2.043-4,0-7.987,1.228-11.979,1.008-4.657-.193-9.326-1.616-13.968-1.829-8.166-.4-14.085-5.1-21.912-6.931C519.2,185.42,519.434,189.368,517.769,192.288Z" fill="#f2f2f2"/>
      </g>
      <g id="Grupo_1575" data-name="Grupo 1575" opacity="0.7">
        <path id="Trazado_8636" data-name="Trazado 8636" d="M585.771,204.846c-9.134,0-17.766,4.494-26.894,3.322-7.316-.99-14.125-3.322-21.589-3.811a73.412,73.412,0,0,0-13.626.991c3.011-2.488,7.651-1.824,11.3-2a117.466,117.466,0,0,1,13.12-.157c9.779.827,19.088,4.48,28.889,1.824" fill="#ccc"/>
      </g>
      <rect id="Rectángulo_881" data-name="Rectángulo 881" width="4.801" height="85.07" transform="translate(641.249 191.003)" fill="#999"/>
      <rect id="Rectángulo_882" data-name="Rectángulo 882" width="4.807" height="102.106" transform="translate(438.703 173.967)" fill="#999"/>
      <rect id="Rectángulo_883" data-name="Rectángulo 883" width="203.148" height="4.167" transform="translate(441.107 237.809)" fill="#999"/>
    </g>
  </g>
</svg>
