<svg xmlns="http://www.w3.org/2000/svg" viewBox="0 0 543.45 450.84"><defs><style>.cls-1,.cls-2{fill:#fefefe;}.cls-1{opacity:0.5;}.cls-3{fill:#ff5c5d;}.cls-4,.cls-41,.cls-42{fill:#fff;}.cls-5{fill:#77c5f6;}.cls-6{fill:#84badc;}.cls-7{fill:#d1dfe7;}.cls-8{fill:#bdd2de;}.cls-9{fill:#78a1c5;}.cls-10{fill:#e8eff3;}.cls-11{fill:#d8e5f5;}.cls-12{fill:#295487;}.cls-13{fill:#416997;}.cls-14{fill:#f2b890;}.cls-15{fill:#ffcaa4;}.cls-16{fill:#dbeaf8;}.cls-17{fill:#ff3a3b;}.cls-18{fill:#2b4e76;}.cls-19{fill:#cfddea;}.cls-20{fill:#f6fbff;}.cls-21{fill:#feb684;}.cls-22{fill:#2e90bd;}.cls-23{fill:#51acd6;}.cls-24{fill:#456b91;}.cls-25{fill:#0e2954;}.cls-26{fill:#f5c09a;}.cls-27{fill:#fb6162;}.cls-28{fill:#0084be;}.cls-29{fill:#1b829d;}.cls-30{fill:#1ea1c3;}.cls-31{fill:#27426d;}.cls-32{fill:#00a4cf;}.cls-33{fill:#1bbfea;}.cls-34{fill:#e8eff2;}.cls-35{fill:#5999a8;opacity:0.1;}.cls-36{fill:#28a2db;}.cls-37{fill:#42727d;opacity:0.2;}.cls-38{fill:#d69674;}.cls-39{fill:#17b0c7;}.cls-40{fill:#00a0a6;}.cls-41{opacity:0.3;}.cls-42{opacity:0.5;}.cls-43{fill:#c0e1e3;}.cls-44{fill:#be1622;}</style></defs><g id="Capa_2" data-name="Capa 2"><g id="Capa_1-2" data-name="Capa 1"><path class="cls-1" d="M97.08,228.27C122.46,324.69,300.28,474,399.63,447.82S482.21,230,456.84,133.6,330.36-19.79,231,6.35,71.71,131.85,97.08,228.27Z"/><path class="cls-1" d="M86.05,394c35.16,52.29,157,52.09,252.62,20.55S578.15,285.49,535.86,157.25C519.4,107.33,450.55,24,257.41,116.59,150.22,168,37.49,321.77,86.05,394Z"/><path class="cls-2" d="M14.59,234.6c15.54,98.16,209.2,177.39,306.67,162s185.2-139.23,169.66-237.39S423.72,1,291.58,98.26C212,156.83-1,136.44,14.59,234.6Z"/><path class="cls-1" d="M61.81,350.35c4-11.31-10.5-40.48-27.34-46.37S4.79,317.74.83,329.05s6.5,25.24,23.34,31.12S57.85,361.66,61.81,350.35Z"/><path class="cls-1" d="M428.81,23.06c-2.45,7,8.24,25.74,20,29.85s20.16-8,22.61-15-5.1-16-16.87-20.15S431.26,16,428.81,23.06Z"/><path class="cls-3" d="M199,63.07c-2.92-14-9.57-27.38-29.82-29.83-3.52,0-24.32.56-27.24,18.11,0,.32,0,.32,0,0C139,33.8,118.18,33.24,114.67,33.24,94.42,35.69,87.77,49,84.84,63.07c-5.85,37.43,57.32,81.3,57.32,81.3S204.85,100.5,199,63.07Z"/><path class="cls-4" d="M126.22,73.25l-1,7.79a1.26,1.26,0,0,1-1.24,1.1h-4.59l-1.17,3a1.25,1.25,0,0,1-2.32,0l-1.17-3h-2.61a1.25,1.25,0,0,1-1.16-.78l-1.3-3.19-1.22,3.55a1.26,1.26,0,0,1-1.18.84H95.44a1.25,1.25,0,0,1,0-2.5h11l2-5.84a1.23,1.23,0,0,1,1.13-.84h0a1.24,1.24,0,0,1,1.16.77l2.24,5.5h2.62a1,1,0,0,1,1,.71l.51,1.73.51-1.65c.18-.48.42-.79.93-.79h4.33l2.34-19a1.25,1.25,0,0,1,1.24-1.1h.08a1.23,1.23,0,0,1,1.16,1.14L130,89.52l1.69-8.25a1.25,1.25,0,0,1,1.22-1h5.93a1,1,0,0,1,1,.77l.34,1.23,3.38-11.77a1.26,1.26,0,0,1,1.17-.88h.1a1.23,1.23,0,0,1,1.12.91l2.71,9.74h13.88a1.25,1.25,0,1,1,0,2.49H147.74a1.23,1.23,0,0,1-1.2-.91l-1.83-6.55-3.19,10.35a1.25,1.25,0,0,1-1.17.87h0a1.23,1.23,0,0,1-1.16-.79l-1.18-3h-4.06l-3.25,15.93a1.25,1.25,0,0,1-1.24,1h-.05l0-.57,0,.57a1.26,1.26,0,0,1-1.17-1.15l0-.38V98h0Z"/><rect class="cls-5" x="107.27" y="96.2" width="13.73" height="46.88"/><rect class="cls-5" x="90.69" y="112.78" width="46.88" height="13.73"/><path class="cls-6" d="M171.22,350.86V92.6c0-.75,0-1.5.11-2.24s.19-1.49.33-2.23.33-1.46.55-2.18.47-1.42.76-2.12.61-1.37,1-2a23.44,23.44,0,0,1,2.5-3.74,23.74,23.74,0,0,1,3.17-3.17,19.67,19.67,0,0,1,1.81-1.34,21,21,0,0,1,1.93-1.16c.66-.35,1.34-.67,2-1a22.25,22.25,0,0,1,2.12-.76c.72-.22,1.44-.4,2.18-.55s1.48-.25,2.23-.32a20.87,20.87,0,0,1,2.24-.12H386.81a20.87,20.87,0,0,1,2.24.12c.75.07,1.49.18,2.23.32s1.46.33,2.18.55,1.42.47,2.12.76,1.37.61,2,1a23.44,23.44,0,0,1,3.74,2.5,23.74,23.74,0,0,1,3.17,3.17A23.44,23.44,0,0,1,407,81.8c.35.66.67,1.34,1,2s.54,1.4.76,2.12.4,1.45.55,2.18.25,1.48.33,2.23.11,1.49.11,2.24V350.86c0,.75,0,1.5-.11,2.24s-.19,1.49-.33,2.23-.33,1.46-.55,2.18-.47,1.42-.76,2.12-.61,1.37-1,2a22.41,22.41,0,0,1-1.16,1.93,21.13,21.13,0,0,1-1.34,1.81,23.74,23.74,0,0,1-3.17,3.17,21.13,21.13,0,0,1-1.81,1.34c-.62.42-1.27.8-1.93,1.16s-1.34.67-2,1-1.4.54-2.12.76a23.15,23.15,0,0,1-6.65,1H194.14a23,23,0,0,1-4.47-.44,20.4,20.4,0,0,1-2.18-.54,22.25,22.25,0,0,1-2.12-.76c-.69-.29-1.37-.61-2-1s-1.31-.74-1.93-1.16a19.67,19.67,0,0,1-1.81-1.34,23.74,23.74,0,0,1-3.17-3.17,21.13,21.13,0,0,1-1.34-1.81,22.41,22.41,0,0,1-1.16-1.93c-.35-.66-.67-1.34-1-2s-.54-1.4-.76-2.12-.4-1.45-.55-2.18-.25-1.48-.33-2.23S171.22,351.61,171.22,350.86Z"/><rect class="cls-4" x="184.27" y="86.31" width="212.42" height="270.83"/><path class="cls-7" d="M290.71,67.58a6.73,6.73,0,1,1,6.73-6.73A6.73,6.73,0,0,1,290.71,67.58Zm40.61-6.73H310.94a20.24,20.24,0,0,0-40.47,0H250.1a8.81,8.81,0,0,0-8.81,8.81V95h98.84V69.66A8.82,8.82,0,0,0,331.32,60.85Z"/><rect class="cls-8" x="241.29" y="87.03" width="98.84" height="7.92"/><path class="cls-3" d="M302.53,117.28a12.06,12.06,0,1,1-12.06-12A12.07,12.07,0,0,1,302.53,117.28Z"/><rect class="cls-4" x="288.67" y="108.24" width="3.61" height="18.08"/><rect class="cls-4" x="281.43" y="115.48" width="18.08" height="3.61"/><path class="cls-7" d="M230.8,115.07H203a1.57,1.57,0,0,1,0-3.14H230.8a1.57,1.57,0,0,1,0,3.14Z"/><path class="cls-7" d="M264.74,115.07H237.33a1.57,1.57,0,0,1,0-3.14h27.41a1.57,1.57,0,0,1,0,3.14Z"/><path class="cls-7" d="M216.43,123.07H203a1.57,1.57,0,0,1,0-3.14h13.42a1.57,1.57,0,0,1,0,3.14Z"/><path class="cls-7" d="M247.56,123.07H223.38a1.57,1.57,0,0,1,0-3.14h24.18a1.57,1.57,0,0,1,0,3.14Z"/><path class="cls-7" d="M264.72,123.07H254.43a1.57,1.57,0,0,1,0-3.14h10.29a1.57,1.57,0,0,1,0,3.14Z"/><path class="cls-3" d="M290,194.36H267.48a1.57,1.57,0,1,1,0-3.14H290a1.57,1.57,0,0,1,0,3.14Z"/><path class="cls-3" d="M324,194.36H296.56a1.57,1.57,0,1,1,0-3.14H324a1.57,1.57,0,1,1,0,3.14Z"/><path class="cls-8" d="M283.51,202.35h-16a1.57,1.57,0,0,1,0-3.14h16a1.57,1.57,0,0,1,0,3.14Z"/><path class="cls-3" d="M358.2,194.36H330.41a1.57,1.57,0,0,1,0-3.14H358.2a1.57,1.57,0,1,1,0,3.14Z"/><path class="cls-8" d="M346.45,202.35h-10.8a1.57,1.57,0,0,1,0-3.14h10.8a1.57,1.57,0,1,1,0,3.14Z"/><path class="cls-8" d="M329.56,202.35h-39.1a1.57,1.57,0,1,1,0-3.14h39.1a1.57,1.57,0,1,1,0,3.14Z"/><path class="cls-8" d="M371.75,202.35H352.81a1.57,1.57,0,1,1,0-3.14h18.94a1.57,1.57,0,0,1,0,3.14Z"/><path class="cls-7" d="M344.24,123.07H316.45a1.57,1.57,0,1,1,0-3.14h27.79a1.57,1.57,0,0,1,0,3.14Z"/><path class="cls-7" d="M378.17,123.07H350.76a1.57,1.57,0,0,1,0-3.14h27.41a1.57,1.57,0,1,1,0,3.14Z"/><path class="cls-7" d="M329.86,115.07H316.45a1.57,1.57,0,1,1,0-3.14h13.41a1.57,1.57,0,0,1,0,3.14Z"/><path class="cls-7" d="M378,115.07h-41.2a1.57,1.57,0,1,1,0-3.14H378a1.57,1.57,0,0,1,0,3.14Z"/><path class="cls-9" d="M307.06,159.44H267.48a1.57,1.57,0,0,1,0-3.14h39.58a1.57,1.57,0,1,1,0,3.14Z"/><rect class="cls-10" x="203.01" y="151.59" width="49.74" height="54.95"/><path class="cls-9" d="M320.15,169.91H267.48a1.57,1.57,0,0,1,0-3.14h52.67a1.57,1.57,0,0,1,0,3.14Z"/><path class="cls-9" d="M301.83,180.37H267.48a1.57,1.57,0,1,1,0-3.14h34.35a1.57,1.57,0,0,1,0,3.14Z"/><path class="cls-8" d="M356.81,159.44h-21.1a1.57,1.57,0,1,1,0-3.14h21.1a1.57,1.57,0,1,1,0,3.14Z"/><path class="cls-8" d="M346.35,169.91H335.71a1.57,1.57,0,1,1,0-3.14h10.64a1.57,1.57,0,0,1,0,3.14Z"/><path class="cls-8" d="M341.38,180.37h-5.67a1.57,1.57,0,0,1,0-3.14h5.67a1.57,1.57,0,0,1,0,3.14Z"/><path class="cls-8" d="M380,141H203a.79.79,0,0,1,0-1.57H380a.79.79,0,1,1,0,1.57Z"/><path class="cls-8" d="M356.81,180.37h-9.06a1.57,1.57,0,0,1,0-3.14h9.06a1.57,1.57,0,0,1,0,3.14Z"/><path class="cls-8" d="M356.81,169.91h-4.87a1.57,1.57,0,1,1,0-3.14h4.87a1.57,1.57,0,1,1,0,3.14Z"/><path class="cls-3" d="M379.66,194.36H364.43a1.57,1.57,0,1,1,0-3.14h15.23a1.57,1.57,0,1,1,0,3.14Z"/><path class="cls-11" d="M262.11,315.47H216.26a.83.83,0,0,1,0-1.66h45.85a.83.83,0,1,1,0,1.66Z"/><path class="cls-12" d="M241.94,318.36c-.6,2-1.05-.09-.81-.87a12.52,12.52,0,0,1,1.69-3.13A24.59,24.59,0,0,1,241.94,318.36Zm-14.36-1.11c0,.15,0,.29,0,.44q0,2-3.21.24c-.85-2.12,1.11-4.34,2.45-5.65h0A44.27,44.27,0,0,1,227.58,317.25ZM255.76,306c-1.25,3.19-3.33-.53-4.69-.15a4.08,4.08,0,0,0-1.56.89.92.92,0,0,0-1.36-.72,23.14,23.14,0,0,0-3.08,2.77c0-.25,0-.45,0-.61a.92.92,0,0,0-1.7-.46q-4.49-.06.09-.66a.91.91,0,0,0,.7-1.66c-2.84-1.9-5.79,1-8.08,3.31,0-.62.11-1.23.16-1.84a.92.92,0,0,0-1.16-.88,33.53,33.53,0,0,0-7,3c-.11-.65-.21-1.31-.28-2-.3-2.48-.31-5,2.69-3,1,.67,1.88-.91.92-1.58-5-3.42-5.91,1.25-5.32,5.51.1.7.22,1.4.34,2.1a9.48,9.48,0,0,0-3.58,4.61c-1.09,3.4.49,7.35,4.53,5.67,2.82-1.17,2-3.8,1.61-6.24-.18-1-.37-2.08-.56-3.11a23.72,23.72,0,0,1,5.88-2.81c-.08.94-.15,1.88-.17,2.83a.92.92,0,0,0,1.56.64c.61-.53,1.59-1.65,2.68-2.69a4.23,4.23,0,0,0,.06.78c.55,3,2.95,2.05,4.75.64,0,.17,0,.34,0,.51-3.28,3.82-6.27,8.69-2.92,10.19,3.68,1.65,4.54-5.23,4.76-9.7a20.26,20.26,0,0,1,2.4-2.5v0a.92.92,0,0,0,1.52.89c1.32-1.1,1.65-2.16,3.46-.88a3.43,3.43,0,0,0,2.12.94c1.78,0,2.51-2,3-3.37C258,305.41,256.19,305,255.76,306Z"/><path class="cls-12" d="M237.22,303.25a1.46,1.46,0,0,1,.13-.64c.52-1.05-1.06-2-1.58-.92a3.66,3.66,0,0,0-.38,1.56A.92.92,0,0,0,237.22,303.25Z"/><path class="cls-5" d="M289.14,301.62a15.28,15.28,0,0,1,1.87-2.3,14.15,14.15,0,0,1,2.27-1.89,15.32,15.32,0,0,1,5.44-2.29,15.28,15.28,0,0,1,2.94-.31,16.19,16.19,0,0,1,2.95.27,15,15,0,0,1,2.84.85,15.18,15.18,0,0,1,4.92,3.24,15.26,15.26,0,0,1,1.89,2.28,14.54,14.54,0,0,1,1.41,2.6,14.73,14.73,0,0,1,.88,2.83,15.28,15.28,0,0,1,.31,2.94,16.11,16.11,0,0,1-.27,3,14.74,14.74,0,0,1-.85,2.84,14.57,14.57,0,0,1-1.38,2.62,14.19,14.19,0,0,1-1.86,2.3,14.67,14.67,0,0,1-2.28,1.89,15.25,15.25,0,0,1-2.6,1.42,15.68,15.68,0,0,1-2.83.87,15.1,15.1,0,0,1-5.89,0,15.45,15.45,0,0,1-2.84-.84,16,16,0,0,1-2.62-1.38,14.8,14.8,0,0,1-2.3-1.87,14.37,14.37,0,0,1-1.9-2.28,15.52,15.52,0,0,1-1.41-2.6A15.21,15.21,0,0,1,287,313a15.1,15.1,0,0,1,0-5.89,15.69,15.69,0,0,1,.84-2.84A16,16,0,0,1,289.14,301.62Z"/><path class="cls-5" d="M301.75,289.54a1.74,1.74,0,0,0-1.47.79l-.54.81a1.75,1.75,0,0,1-1.48.79,1.8,1.8,0,0,1-1.05-.34l-.77-.58a1.77,1.77,0,0,0-2.78,1l-.22.94a1.78,1.78,0,0,1-1.72,1.36,1.81,1.81,0,0,1-.51-.08l-.93-.27a1.78,1.78,0,0,0-2.26,1.9l.11,1a1.77,1.77,0,0,1-1.65,2l-1,.06a1.76,1.76,0,0,0-1.47,2.55l.43.87a1.77,1.77,0,0,1-.88,2.41l-.89.39a1.77,1.77,0,0,0-.51,2.91l.7.66a1.77,1.77,0,0,1,0,2.57l-.7.67a1.76,1.76,0,0,0,.51,2.9l.89.39a1.77,1.77,0,0,1,.88,2.41l-.43.87a1.77,1.77,0,0,0,1.47,2.56l1,.06a1.76,1.76,0,0,1,1.65,2l-.11,1a1.75,1.75,0,0,0,2.26,1.9l.93-.27a1.81,1.81,0,0,1,.51-.08,1.79,1.79,0,0,1,1.72,1.36l.22.94a1.77,1.77,0,0,0,2.78,1l.77-.57a1.74,1.74,0,0,1,1.05-.35,1.77,1.77,0,0,1,1.48.79l.54.81a1.77,1.77,0,0,0,3,0l.53-.81a1.8,1.8,0,0,1,1.48-.79,1.7,1.7,0,0,1,1.05.35l.78.57a1.74,1.74,0,0,0,1.05.35,1.77,1.77,0,0,0,1.73-1.36l.22-.94a1.79,1.79,0,0,1,1.72-1.36,1.81,1.81,0,0,1,.51.08l.92.27a1.81,1.81,0,0,0,.51.08,1.78,1.78,0,0,0,1.76-2l-.11-1a1.75,1.75,0,0,1,1.65-2l1-.06a1.77,1.77,0,0,0,1.48-2.56l-.43-.87a1.76,1.76,0,0,1,.88-2.41l.88-.39a1.76,1.76,0,0,0,.52-2.9l-.71-.67a1.78,1.78,0,0,1,0-2.57l.71-.66a1.77,1.77,0,0,0-.52-2.91l-.88-.39a1.76,1.76,0,0,1-.88-2.41l.43-.87a1.76,1.76,0,0,0-1.48-2.55l-1-.06a1.77,1.77,0,0,1-1.65-2l.11-1a1.77,1.77,0,0,0-1.76-2,1.84,1.84,0,0,0-.51.07l-.92.27a1.81,1.81,0,0,1-.51.08,1.78,1.78,0,0,1-1.72-1.36l-.22-.94a1.78,1.78,0,0,0-1.73-1.36,1.74,1.74,0,0,0-1.05.35l-.78.58a1.79,1.79,0,0,1-2.53-.45l-.53-.81A1.75,1.75,0,0,0,301.75,289.54Zm0,1.84.5.76a3.6,3.6,0,0,0,3,1.6,3.55,3.55,0,0,0,2.13-.7l.73-.55.21.89a3.57,3.57,0,0,0,3.48,2.75,3.5,3.5,0,0,0,1-.15l.87-.26-.1.9a3.55,3.55,0,0,0,.81,2.71,3.6,3.6,0,0,0,2.53,1.27l.9.06-.4.81a3.55,3.55,0,0,0-.16,2.82,3.59,3.59,0,0,0,1.93,2.06l.83.36-.65.63a3.57,3.57,0,0,0,0,5.19l.65.63-.83.36a3.59,3.59,0,0,0-1.93,2.06,3.55,3.55,0,0,0,.16,2.82l.4.81-.9.06a3.6,3.6,0,0,0-2.53,1.27,3.56,3.56,0,0,0-.81,2.71l.1.9-.87-.26a3.5,3.5,0,0,0-1-.15,3.57,3.57,0,0,0-3.48,2.75l-.21.88-.73-.54a3.55,3.55,0,0,0-2.13-.7,3.6,3.6,0,0,0-3,1.6l-.5.76-.5-.76a3.57,3.57,0,0,0-3-1.6,3.52,3.52,0,0,0-2.12.7l-.73.55-.21-.89a3.57,3.57,0,0,0-3.48-2.75,3.5,3.5,0,0,0-1,.15l-.87.26.1-.9a3.64,3.64,0,0,0-.81-2.71,3.6,3.6,0,0,0-2.53-1.27l-.9-.06.4-.81a3.58,3.58,0,0,0-1.78-4.88l-.83-.36.66-.63a3.57,3.57,0,0,0,0-5.19l-.66-.63.83-.36a3.58,3.58,0,0,0,1.78-4.88l-.4-.81.9-.06a3.57,3.57,0,0,0,3.34-4l-.1-.9.87.26a3.5,3.5,0,0,0,1,.15,3.57,3.57,0,0,0,3.48-2.75l.21-.88.73.54a3.52,3.52,0,0,0,2.12.7,3.57,3.57,0,0,0,3-1.6Z"/><path class="cls-8" d="M379.66,268.93H351.87a1.57,1.57,0,0,1,0-3.14h27.79a1.57,1.57,0,1,1,0,3.14Z"/><path class="cls-8" d="M345.35,268.93H317.93a1.57,1.57,0,1,1,0-3.14h27.42a1.57,1.57,0,0,1,0,3.14Z"/><path class="cls-8" d="M379.66,276.92H357.35a1.57,1.57,0,0,1,0-3.14h22.31a1.57,1.57,0,0,1,0,3.14Z"/><path class="cls-8" d="M311.49,268.93H283.7a1.57,1.57,0,1,1,0-3.14h27.79a1.57,1.57,0,0,1,0,3.14Z"/><path class="cls-8" d="M351.44,276.92H336.68a1.57,1.57,0,1,1,0-3.14h14.76a1.57,1.57,0,0,1,0,3.14Z"/><path class="cls-8" d="M289.1,276.92H267.54a1.57,1.57,0,1,1,0-3.14H289.1a1.57,1.57,0,0,1,0,3.14Z"/><path class="cls-8" d="M277.48,268.93h-10a1.57,1.57,0,0,1,0-3.14h10a1.57,1.57,0,0,1,0,3.14Z"/><path class="cls-8" d="M330.71,276.92H295.54a1.57,1.57,0,1,1,0-3.14h35.17a1.57,1.57,0,0,1,0,3.14Z"/><path class="cls-9" d="M230.8,284.63H203a1.57,1.57,0,0,1,0-3.14H230.8a1.57,1.57,0,0,1,0,3.14Z"/><path class="cls-9" d="M247,268.93h-27.8a1.57,1.57,0,1,1,0-3.14H247a1.57,1.57,0,1,1,0,3.14Z"/><path class="cls-3" d="M219.4,276.92H203.07a1.57,1.57,0,0,1,0-3.14H219.4a1.57,1.57,0,1,1,0,3.14Z"/><path class="cls-9" d="M213,268.93H203a1.57,1.57,0,0,1,0-3.14h10a1.57,1.57,0,1,1,0,3.14Z"/><path class="cls-3" d="M237.46,276.92H225.84a1.57,1.57,0,1,1,0-3.14h11.62a1.57,1.57,0,1,1,0,3.14Z"/><path class="cls-8" d="M373.56,159.44h-2.78a1.57,1.57,0,0,1,0-3.14h2.78a1.57,1.57,0,1,1,0,3.14Z"/><path class="cls-8" d="M381.41,169.91H370.78a1.57,1.57,0,0,1,0-3.14h10.63a1.57,1.57,0,0,1,0,3.14Z"/><path class="cls-8" d="M379.06,180.37h-8.28a1.57,1.57,0,0,1,0-3.14h8.28a1.57,1.57,0,0,1,0,3.14Z"/><polygon class="cls-13" points="237.14 166.47 230.43 177.17 230.56 190.66 243.43 193.11 237.14 166.47"/><polygon class="cls-13" points="217.98 168.43 212.53 192.76 225.53 200.53 224.69 171.58 217.98 168.43"/><path class="cls-8" d="M246.79,196.26v-.21c-.95-6.29-4.79-5.46-14.27-9.93l-8.74.14c-8.67,3.85-14,5.24-14.12,10.84l-1,9.44h39.08Z"/><path class="cls-14" d="M235,188.67c-1.57-1.15-2.62-4.61-2.73-6.29h-8.7c-.11,1.68-1.16,5.14-2.73,6.29,1.65,2.89,5.31,6,7,6.27v0l0,0,.05,0v0C229.66,194.63,233.32,191.56,235,188.67Z"/><path class="cls-15" d="M236,172.34c.12-2.35.59-4.65-.35-6.4a9.29,9.29,0,0,0-7.65-4.43h-.08a9.31,9.31,0,0,0-7.65,4.43c-.94,1.75-.46,4.05-.34,6.4-.58.16-.92.57-.92,1.7,0,1.67.75,4.32,1.92,4.69.15.41.32.8.5,1.19l0,.06a14.08,14.08,0,0,0,1.35,2.22c.24.31.48.61.73.89a7,7,0,0,0,4.37,2.4H228a7,7,0,0,0,4.37-2.4c.25-.28.5-.58.74-.89a14.87,14.87,0,0,0,1.35-2.22l0-.06c.18-.39.35-.78.5-1.19,1.18-.37,1.93-3,1.93-4.69C236.93,172.91,236.59,172.5,236,172.34Z"/><path class="cls-13" d="M235.07,162.87a8.61,8.61,0,0,0-7.66-2c-2.06-.37-5.75.4-7.44,2.54-2.72,3.46-2.62,10.12-2.62,10.12l3.46-.47s1-4.27,4.79-5.74a2.66,2.66,0,0,0,.89-.57c2.18,1,5.18,1.44,6.52,2.11,2.1,1.05,2.06,4.09,2.06,4.09l1.79-.52S239,166.32,235.07,162.87Z"/><path class="cls-16" d="M232.74,407.65a7.49,7.49,0,0,1-7.46-7.47V345.53h14.93v54.65A7.49,7.49,0,0,1,232.74,407.65Z"/><path class="cls-16" d="M255.9,407.65a7.5,7.5,0,0,1-7.47-7.47V345.53h14.94v54.65A7.49,7.49,0,0,1,255.9,407.65Z"/><path class="cls-16" d="M279.06,408a7.49,7.49,0,0,1-7.47-7.47V345.92h14.94v54.65A7.49,7.49,0,0,1,279.06,408Z"/><path class="cls-16" d="M302.22,407.65a7.49,7.49,0,0,1-7.47-7.47V345.53h14.94v54.65A7.49,7.49,0,0,1,302.22,407.65Z"/><path class="cls-17" d="M302.22,405.08a6.67,6.67,0,0,1-6.66-6.65V362.65h13.32v35.78A6.67,6.67,0,0,1,302.22,405.08Z"/><path class="cls-18" d="M294.81,345v-3.2a2,2,0,0,1,.58-1.41,2,2,0,0,1,1.4-.58h11.89a2,2,0,0,1,.76.15,2,2,0,0,1,1.08,1.08,2,2,0,0,1,.15.76V345a2,2,0,0,1-.58,1.4,2,2,0,0,1-1.41.58H296.79a2,2,0,0,1-.76-.15,2,2,0,0,1-1.07-1.07A2,2,0,0,1,294.81,345Z"/><path class="cls-3" d="M301,362.65h-5.45v35.78A6.69,6.69,0,0,0,301,405Z"/><rect class="cls-19" x="295.56" y="346.95" width="13.32" height="15.69"/><rect class="cls-20" x="295.56" y="346.95" width="5.44" height="15.69"/><path class="cls-21" d="M279.06,405.08a6.67,6.67,0,0,1-6.66-6.65V382.68h13.32v15.75A6.67,6.67,0,0,1,279.06,405.08Z"/><path class="cls-22" d="M271.65,345v-3.2a2,2,0,0,1,.58-1.41,2.12,2.12,0,0,1,.64-.43,2,2,0,0,1,.77-.15h11.88a2,2,0,0,1,.76.15,2,2,0,0,1,.65.43,2.16,2.16,0,0,1,.43.65,2,2,0,0,1,.15.76V345a2,2,0,0,1-.58,1.4,1.89,1.89,0,0,1-.65.43,2,2,0,0,1-.76.15H273.64a2,2,0,0,1-.77-.15,2,2,0,0,1-.64-.43,1.85,1.85,0,0,1-.43-.64A2,2,0,0,1,271.65,345Z"/><path class="cls-15" d="M277.85,382.68H272.4v15.75a6.69,6.69,0,0,0,5.45,6.54Z"/><rect class="cls-19" x="272.4" y="346.95" width="13.32" height="9.84"/><rect class="cls-20" x="272.4" y="346.95" width="5.44" height="9.84"/><path class="cls-17" d="M255.9,405.08a6.67,6.67,0,0,1-6.65-6.65V360.27h13.31v38.16A6.67,6.67,0,0,1,255.9,405.08Z"/><path class="cls-18" d="M248.49,345v-3.2a2,2,0,0,1,.58-1.41,2.12,2.12,0,0,1,.64-.43,2,2,0,0,1,.77-.15h11.88a1.94,1.94,0,0,1,.76.15,2,2,0,0,1,.65.43,2.16,2.16,0,0,1,.43.65,2,2,0,0,1,.15.76V345a2,2,0,0,1-.58,1.4,1.89,1.89,0,0,1-.65.43,1.94,1.94,0,0,1-.76.15H250.48a2,2,0,0,1-.77-.15,2,2,0,0,1-.64-.43,1.85,1.85,0,0,1-.43-.64A2,2,0,0,1,248.49,345Z"/><path class="cls-3" d="M254.69,360.27h-5.44v38.16a6.68,6.68,0,0,0,5.44,6.54Z"/><rect class="cls-19" x="249.25" y="346.95" width="13.32" height="13.32"/><rect class="cls-20" x="249.25" y="346.95" width="5.44" height="13.32"/><path class="cls-17" d="M232.74,405.08a6.67,6.67,0,0,1-6.65-6.65V366.64H239.4v31.79A6.67,6.67,0,0,1,232.74,405.08Z"/><path class="cls-22" d="M225.33,345v-3.2a2,2,0,0,1,.58-1.41,2,2,0,0,1,.65-.43,1.94,1.94,0,0,1,.76-.15H239.2a1.94,1.94,0,0,1,.76.15,2,2,0,0,1,.65.43,2,2,0,0,1,.58,1.41V345a2,2,0,0,1-.15.76,1.85,1.85,0,0,1-.43.64,1.89,1.89,0,0,1-.65.43,1.94,1.94,0,0,1-.76.15H227.32a1.94,1.94,0,0,1-.76-.15,1.89,1.89,0,0,1-.65-.43,1.85,1.85,0,0,1-.43-.64A2,2,0,0,1,225.33,345Z"/><path class="cls-3" d="M231.53,366.64h-5.44v31.79a6.68,6.68,0,0,0,5.44,6.54Z"/><rect class="cls-19" x="226.09" y="346.95" width="13.32" height="19.69"/><rect class="cls-20" x="226.09" y="346.95" width="5.44" height="19.69"/><rect class="cls-17" x="272.4" y="356.8" width="13.32" height="25.88"/><rect class="cls-3" x="272.4" y="356.8" width="5.44" height="25.88"/><path class="cls-7" d="M294.12,402.42V407a8.11,8.11,0,1,0,16.21,0v-4.56Z"/><path class="cls-7" d="M271,402.42V407a8.11,8.11,0,1,0,16.21,0v-4.56Z"/><path class="cls-7" d="M247.8,402.42V407A8.11,8.11,0,1,0,264,407v-4.56Z"/><path class="cls-7" d="M224.64,402.42V407a8.11,8.11,0,1,0,16.21,0v-4.56Z"/><path class="cls-7" d="M220.8,405.4V400a2,2,0,0,1,.57-1.38,2,2,0,0,1,.64-.43,1.93,1.93,0,0,1,.75-.15h89.45a1.93,1.93,0,0,1,.75.15,2.06,2.06,0,0,1,1.06,1.06,1.93,1.93,0,0,1,.15.75v5.42a1.93,1.93,0,0,1-.15.75,2,2,0,0,1-1.06,1.06,1.93,1.93,0,0,1-.75.15H222.76a1.93,1.93,0,0,1-.75-.15,1.88,1.88,0,0,1-1.06-1.06A1.93,1.93,0,0,1,220.8,405.4Z"/><path class="cls-7" d="M217.63,415.63V400a1.93,1.93,0,0,1,.15-.75,2.06,2.06,0,0,1,1.06-1.06,1.93,1.93,0,0,1,.75-.15H221a1.93,1.93,0,0,1,.75.15,2,2,0,0,1,1.06,1.06,1.93,1.93,0,0,1,.15.75v15.65a1.93,1.93,0,0,1-.15.75,1.88,1.88,0,0,1-1.06,1.06,1.93,1.93,0,0,1-.75.15h-1.41a2,2,0,0,1-1.38-.57,2,2,0,0,1-.43-.64A1.93,1.93,0,0,1,217.63,415.63Z"/><path class="cls-7" d="M311.62,415.63V400a2,2,0,0,1,.57-1.38,2,2,0,0,1,.64-.43,1.93,1.93,0,0,1,.75-.15H315a1.93,1.93,0,0,1,.75.15,2.06,2.06,0,0,1,1.06,1.06,1.93,1.93,0,0,1,.15.75v15.65a1.93,1.93,0,0,1-.15.75,2,2,0,0,1-1.06,1.06,1.93,1.93,0,0,1-.75.15h-1.41a1.93,1.93,0,0,1-.75-.15,1.88,1.88,0,0,1-1.06-1.06A1.93,1.93,0,0,1,311.62,415.63Z"/><path class="cls-23" d="M228.81,339.78h-3.24a1.27,1.27,0,0,0-1.27,1.28v4.62a1.27,1.27,0,0,0,1.27,1.27h3.24Z"/><path class="cls-24" d="M252,339.78h-3.24a1.27,1.27,0,0,0-1.27,1.28v4.62a1.27,1.27,0,0,0,1.27,1.27H252Z"/><path class="cls-23" d="M275.13,339.78h-3.24a1.27,1.27,0,0,0-1.27,1.28v4.62a1.27,1.27,0,0,0,1.27,1.27h3.24Z"/><path class="cls-24" d="M298.29,339.78h-3.24a1.28,1.28,0,0,0-1.28,1.28v4.62a1.27,1.27,0,0,0,1.28,1.27h3.24Z"/><rect class="cls-3" x="203.01" y="249.42" width="176.95" height="2.62"/><rect class="cls-25" x="370.5" y="197.87" width="118.32" height="9.77" transform="translate(-20.24 355.44) rotate(-44.01)"/><path class="cls-25" d="M478,162.82s6.7-5.42,2.78-9.48-9.57,2.45-9.57,2.45Z"/><path class="cls-25" d="M390.5,247.37l-10,3.69a1,1,0,0,1-.58-.25.69.69,0,0,1-.2-.61l4-9.86s1.86.25,4.18,2.76A11.68,11.68,0,0,1,390.5,247.37Z"/><path class="cls-26" d="M444.39,202.5a1.17,1.17,0,0,0,1-.33l34.76-34.74a1.15,1.15,0,0,0,0-1.6l-5.87-6.14a1.15,1.15,0,0,0-1.66,1.58l5.1,5.33L461,183.25c-1.61.69-11.22,5.21-17.52,17.59a1.15,1.15,0,0,0,.35,1.45A1.3,1.3,0,0,0,444.39,202.5Z"/><rect class="cls-26" x="471.73" y="155.59" width="3.39" height="9.77" transform="translate(21.42 373.97) rotate(-44.01)"/><polygon class="cls-26" points="383.71 240.34 384.96 239.13 391.79 246.12 390.5 247.37 383.71 240.34"/><path class="cls-3" d="M378.67,250.56a1.31,1.31,0,1,0,1.46-1.13A1.31,1.31,0,0,0,378.67,250.56Z"/><path class="cls-3" d="M222.82,240.3a9.88,9.88,0,0,1-4.1-4.1,13.21,13.21,0,0,1-1.43-6.31,13,13,0,0,1,1.43-6.27,9.88,9.88,0,0,1,4.1-4.05,13.32,13.32,0,0,1,6.31-1.41,13.63,13.63,0,0,1,5.75,1.14,11.63,11.63,0,0,1,4.18,3.23l-3.5,3a7.32,7.32,0,0,0-2.62-2.22,8.18,8.18,0,0,0-3.69-.8,7.09,7.09,0,0,0-5.3,2,7.4,7.4,0,0,0-1.93,5.43,7.66,7.66,0,0,0,1.95,5.52,6.94,6.94,0,0,0,5.28,2,8.18,8.18,0,0,0,3.69-.8,7.32,7.32,0,0,0,2.62-2.22l3.5,3a11.69,11.69,0,0,1-4.16,3.2,13.78,13.78,0,0,1-5.77,1.11A13.21,13.21,0,0,1,222.82,240.3Z"/><path class="cls-3" d="M256.57,236.55a6.58,6.58,0,0,0,2.59-2.64,8.09,8.09,0,0,0,.93-3.95,8.32,8.32,0,0,0-.9-3.91,6.49,6.49,0,0,0-2.56-2.68,7.46,7.46,0,0,0-3.87-1,7.56,7.56,0,0,0-3.78.93,6.63,6.63,0,0,0-2.59,2.66,8.9,8.9,0,0,0,0,7.86,6.64,6.64,0,0,0,2.56,2.67,7.5,7.5,0,0,0,3.84,1A7.68,7.68,0,0,0,256.57,236.55Zm-10.08,3.71a10.44,10.44,0,0,1-4.25-4.13,12.4,12.4,0,0,1-1.51-6.17,12.55,12.55,0,0,1,1.47-6.13,10.29,10.29,0,0,1,4.19-4.18,14.28,14.28,0,0,1,12.64,0,10.57,10.57,0,0,1,4.26,4.15,12.27,12.27,0,0,1,1.53,6.19,12.47,12.47,0,0,1-1.48,6.11,10.44,10.44,0,0,1-4.22,4.16,14.17,14.17,0,0,1-12.63,0Z"/><polygon class="cls-3" points="274.85 241.5 264.72 218.61 269.67 218.61 276 233.85 282.27 218.61 287.32 218.61 277.16 241.5 274.85 241.5"/><rect class="cls-3" x="289.86" y="218.61" width="4.63" height="22.67"/><path class="cls-3" d="M312.77,235.13a8,8,0,0,0,1.72-5.46,7.2,7.2,0,0,0-1.67-5.08,6.35,6.35,0,0,0-4.89-1.8H303.5V237.1h4.56A6,6,0,0,0,312.77,235.13Zm3.46-13.72q2.92,2.79,2.92,8.26t-2.83,8.54c-1.88,2-4.62,3.07-8.19,3.07h-9.07V218.61h8.87Q313.3,218.61,316.23,221.41Z"/><rect class="cls-3" x="321.56" y="228.09" width="10.39" height="4.02"/><polygon class="cls-3" points="333.43 220.34 340.95 218.51 343.14 218.51 343.14 241.28 338.57 241.28 338.57 222.98 334.36 223.91 333.43 220.34"/><path class="cls-3" d="M359.59,228.9a3.31,3.31,0,0,0,1.33-2.74,3.77,3.77,0,0,0-.6-2,4.36,4.36,0,0,0-1.72-1.56,5.42,5.42,0,0,0-2.6-.6,4.55,4.55,0,0,0-3.3,1.15,3.88,3.88,0,0,0-1.17,2.9,3.41,3.41,0,0,0,1.35,2.85,5.39,5.39,0,0,0,3.41,1.05A5.28,5.28,0,0,0,359.59,228.9Zm3.64-7.86c1.68,1.91,2.51,4.71,2.51,8.37,0,4.1-.89,7.17-2.67,9.23a9.14,9.14,0,0,1-7.3,3.09,11,11,0,0,1-4.5-.84,6.52,6.52,0,0,1-2.81-2.23,5.13,5.13,0,0,1-.92-3v-.42h4.28a2.59,2.59,0,0,0,1.06,2,5.66,5.66,0,0,0,6.85-1,8.2,8.2,0,0,0,1.54-4.82,6.92,6.92,0,0,1-2.42,1.42,9.72,9.72,0,0,1-3.2.51,10.07,10.07,0,0,1-6.16-1.8,6.29,6.29,0,0,1-2.43-5.4,7.86,7.86,0,0,1,1.13-4.29,7.11,7.11,0,0,1,3.12-2.71,10.87,10.87,0,0,1,4.59-.91Q360.73,218.16,363.23,221Z"/><path class="cls-17" d="M379.26,391.59c.78-.87,2.78-3.08,4.08-3h.15c-.61-.69-1.2-1.33-1.89-2a11.07,11.07,0,0,0-1.51-1.11c-.46-.31-.89-.66-1.33-1a35.6,35.6,0,0,0-3.18-2.24c-1-.63-1.91-2.18-3.13-2.1a1.29,1.29,0,0,1,0,.6A23.59,23.59,0,0,1,371,384.4c-.68,1.45-1.35,2.91-2,4.37a18.87,18.87,0,0,1-2.07,3.86,11.22,11.22,0,0,1-3.12,2.74c-1.22.72-2.67.93-3.89,1.63-3.18,1.8.66,5.13,2.21,6.44a23.86,23.86,0,0,0,4.08,2.74c1.09.58,3.26,1.88,4.43.9s.77-3.28.9-4.49a10.9,10.9,0,0,1,1.4-4.29C374.54,395.55,377.19,393.92,379.26,391.59Z"/><path class="cls-17" d="M408.63,397.83c.11-1.17.4-4.13,1.46-4.88l.14-.08c-.91-.19-1.77-.35-2.7-.46a11.8,11.8,0,0,0-1.88,0c-.55,0-1.11,0-1.66,0a33.86,33.86,0,0,0-3.9.1c-1.2.11-2.83-.62-3.76.18a1.33,1.33,0,0,1,.35.47,22.69,22.69,0,0,1,1,3.82c.32,1.57.65,3.14,1,4.72a19.2,19.2,0,0,1,.64,4.33,11.11,11.11,0,0,1-.87,4.06c-.56,1.31-1.59,2.34-2.16,3.63-1.47,3.34,3.59,3.72,5.62,3.85a23.71,23.71,0,0,0,4.91-.23c1.22-.18,3.73-.44,4.09-1.91.32-1.31-1.34-3.1-1.95-4.15a10.69,10.69,0,0,1-1.43-4.28C407.21,403.82,408.36,400.93,408.63,397.83Z"/><path class="cls-17" d="M436.05,385.55c-.61-1-2.13-3.57-1.71-4.8l.06-.14a26.6,26.6,0,0,0-2.45,1.22,11.73,11.73,0,0,0-1.51,1.11c-.43.35-.89.66-1.35,1A32.38,32.38,0,0,0,426,386.3c-.91.8-2.65,1.18-2.93,2.37a1.4,1.4,0,0,1,.57.18,24.16,24.16,0,0,1,3.09,2.46l3.58,3.22a19.34,19.34,0,0,1,3.08,3.12,11.25,11.25,0,0,1,1.69,3.79c.33,1.38.11,2.83.42,4.2.78,3.57,5.09.88,6.8-.22a23.67,23.67,0,0,0,3.83-3.09c.87-.86,2.75-2.56,2.16-4-.52-1.24-2.91-1.7-4-2.19a10.82,10.82,0,0,1-3.68-2.6C438.44,391.22,437.66,388.21,436.05,385.55Z"/><path class="cls-17" d="M451.15,359.44c-1.08-.46-3.81-1.66-4.18-2.9,0-.06,0-.11,0-.15a26.39,26.39,0,0,0-1.28,2.41,12.42,12.42,0,0,0-.57,1.79c-.15.54-.35,1.05-.54,1.58a34,34,0,0,0-1.11,3.73c-.27,1.18-1.47,2.5-1,3.63a1.28,1.28,0,0,1,.56-.18,22.74,22.74,0,0,1,3.95.2l4.79.53a19.15,19.15,0,0,1,4.32.74,11.23,11.23,0,0,1,3.58,2.09c1.07.93,1.74,2.24,2.78,3.17,2.72,2.45,4.66-2.25,5.41-4.14a24.31,24.31,0,0,0,1.31-4.74c.21-1.21.74-3.68-.55-4.48s-3.36.32-4.55.57a10.71,10.71,0,0,1-4.51,0C456.4,362.66,454,360.67,451.15,359.44Z"/><path class="cls-17" d="M447.47,329.46c-1.14.27-4.05.91-5.09.13l-.11-.11a24.91,24.91,0,0,0,.39,2.71,10.92,10.92,0,0,0,.59,1.78c.19.52.34,1.06.5,1.59a31.33,31.33,0,0,0,1.3,3.67c.47,1.12.29,2.89,1.33,3.53a1.5,1.5,0,0,1,.35-.49,23.42,23.42,0,0,1,3.3-2.16l4.19-2.4a19.11,19.11,0,0,1,3.92-1.95,11,11,0,0,1,4.12-.42c1.42.12,2.73.78,4.12.92,3.64.37,2.43-4.57,1.93-6.53a23.41,23.41,0,0,0-1.74-4.6c-.55-1.1-1.57-3.41-3.09-3.3-1.34.11-2.53,2.24-3.34,3.14a10.55,10.55,0,0,1-3.62,2.69C453.61,329,450.51,328.76,447.47,329.46Z"/><path class="cls-17" d="M427.15,307.5c-.76.89-2.74,3.12-4,3.1H423a27.25,27.25,0,0,0,1.92,2,11.61,11.61,0,0,0,1.52,1.08c.47.31.9.66,1.35,1a32,32,0,0,0,3.21,2.2c1,.62,1.94,2.16,3.16,2.05a1.35,1.35,0,0,1,0-.59,24,24,0,0,1,1.4-3.7c.65-1.47,1.3-2.93,2-4.4a18.86,18.86,0,0,1,2-3.89,11,11,0,0,1,3.08-2.78c1.22-.74,2.66-1,3.87-1.69,3.15-1.85-.74-5.12-2.3-6.41a24.25,24.25,0,0,0-4.12-2.68c-1.09-.57-3.28-1.83-4.44-.84s-.72,3.3-.84,4.51a10.6,10.6,0,0,1-1.34,4.3C431.81,303.47,429.19,305.14,427.15,307.5Z"/><path class="cls-17" d="M397.8,301.72c-.12,1.16-.44,4.12-1.51,4.86l-.14.07a27.1,27.1,0,0,0,2.69.5,11.8,11.8,0,0,0,1.88,0c.56,0,1.11,0,1.67,0a33.66,33.66,0,0,0,3.89-.05c1.21-.1,2.83.64,3.77-.15a1.19,1.19,0,0,1-.35-.48,22.59,22.59,0,0,1-1-3.82l-.93-4.73a19.31,19.31,0,0,1-.6-4.34,11.12,11.12,0,0,1,.92-4.05c.57-1.3,1.61-2.32,2.19-3.61,1.51-3.33-3.55-3.76-5.58-3.9a23,23,0,0,0-4.91.17c-1.22.17-3.73.4-4.11,1.87-.33,1.31,1.31,3.12,1.91,4.17a10.73,10.73,0,0,1,1.39,4.29C399.29,295.74,398.1,298.61,397.8,301.72Z"/><path class="cls-17" d="M371,314.12c.6,1,2.1,3.58,1.68,4.81l-.06.14c.85-.38,1.63-.75,2.45-1.2a11.83,11.83,0,0,0,1.52-1.11c.44-.35.9-.65,1.36-1a35.65,35.65,0,0,0,3.1-2.36c.91-.8,2.66-1.17,2.94-2.36a1.26,1.26,0,0,1-.57-.18,22.67,22.67,0,0,1-3.07-2.48q-1.77-1.64-3.56-3.25a19.69,19.69,0,0,1-3.06-3.13,11.34,11.34,0,0,1-1.67-3.8c-.32-1.39-.09-2.83-.38-4.21-.77-3.57-5.09-.91-6.81.17a24.17,24.17,0,0,0-3.84,3.07c-.89.85-2.77,2.54-2.2,3.94s2.91,1.73,4,2.22a10.84,10.84,0,0,1,3.66,2.62C368.66,308.43,369.42,311.44,371,314.12Z"/><path class="cls-17" d="M356.3,339.82c1.07.47,3.78,1.71,4.14,3a.5.5,0,0,1,0,.16c.48-.8.91-1.56,1.32-2.4a12.42,12.42,0,0,0,.6-1.78c.16-.54.36-1.05.56-1.57a34.15,34.15,0,0,0,1.17-3.72c.29-1.17,1.5-2.48,1.05-3.62a1.21,1.21,0,0,1-.56.18,22.8,22.8,0,0,1-3.95-.26l-4.78-.6a19,19,0,0,1-4.3-.8,11.08,11.08,0,0,1-3.56-2.15c-1.06-1-1.7-2.26-2.73-3.21-2.69-2.48-4.69,2.18-5.47,4.06a23.44,23.44,0,0,0-1.38,4.72c-.22,1.21-.8,3.67.48,4.49s3.37-.27,4.56-.5a10.71,10.71,0,0,1,4.51,0C351.1,336.52,353.46,338.55,356.3,339.82Z"/><path class="cls-17" d="M359.52,369.29c1.15-.23,4.07-.8,5.09,0l.11.11c-.07-.93-.16-1.79-.32-2.72a12.43,12.43,0,0,0-.54-1.8c-.18-.52-.32-1.06-.46-1.6a34,34,0,0,0-1.21-3.7c-.45-1.13-.22-2.9-1.25-3.56a1.27,1.27,0,0,1-.35.48,24.12,24.12,0,0,1-3.36,2.08L353,360.88a18.6,18.6,0,0,1-4,1.84,11.05,11.05,0,0,1-4.13.33c-1.42-.16-2.7-.86-4.1-1-3.62-.46-2.54,4.5-2.08,6.48a23.21,23.21,0,0,0,1.62,4.64c.51,1.12,1.48,3.45,3,3.37,1.34-.06,2.58-2.16,3.42-3.05a10.56,10.56,0,0,1,3.68-2.59C353.37,369.64,356.46,369.92,359.52,369.29Z"/><path class="cls-27" d="M404.43,305.1c1.46,0,2.91.07,4.36.21s2.89.36,4.32.64,2.84.64,4.24,1.06,2.76.92,4.11,1.47,2.66,1.18,3.94,1.87,2.54,1.43,3.75,2.24,2.38,1.68,3.5,2.6,2.21,1.9,3.24,2.93,2,2.11,2.93,3.24,1.79,2.29,2.6,3.5a45.39,45.39,0,0,1,4.11,7.7,41.8,41.8,0,0,1,1.47,4.11,43.59,43.59,0,0,1,1.06,4.23c.28,1.43.5,2.87.64,4.32s.22,2.9.22,4.36-.08,2.91-.22,4.36-.36,2.89-.64,4.31-.64,2.84-1.06,4.24-.91,2.76-1.47,4.11-1.18,2.66-1.87,3.94a41.7,41.7,0,0,1-2.24,3.75q-1.21,1.81-2.6,3.5c-.93,1.13-1.9,2.21-2.93,3.24a42.82,42.82,0,0,1-3.24,2.93,42.27,42.27,0,0,1-3.5,2.6q-1.81,1.21-3.75,2.25c-1.28.68-2.6,1.3-3.94,1.86s-2.72,1.05-4.11,1.47-2.81.78-4.24,1.06a44.44,44.44,0,0,1-17.35,0c-1.43-.28-2.84-.64-4.24-1.06s-2.76-.91-4.11-1.47-2.66-1.18-3.94-1.86-2.54-1.44-3.75-2.25a42.27,42.27,0,0,1-3.5-2.6A42.82,42.82,0,0,1,373,381c-1-1-2-2.11-2.93-3.24s-1.79-2.29-2.6-3.5a41.7,41.7,0,0,1-2.24-3.75c-.69-1.28-1.31-2.6-1.87-3.94s-1-2.72-1.47-4.11-.78-2.81-1.06-4.24a41.45,41.45,0,0,1-.64-4.31c-.14-1.45-.22-2.91-.22-4.36s.08-2.91.22-4.36a42,42,0,0,1,.64-4.32,43.59,43.59,0,0,1,1.06-4.23,41.8,41.8,0,0,1,1.47-4.11,45.39,45.39,0,0,1,4.11-7.7q1.21-1.82,2.6-3.5c.93-1.13,1.9-2.21,2.93-3.24s2.11-2,3.24-2.93,2.29-1.79,3.5-2.6,2.46-1.55,3.75-2.24,2.6-1.31,3.94-1.87,2.72-1.05,4.11-1.47,2.81-.77,4.24-1.06,2.87-.5,4.31-.64S403,305.1,404.43,305.1Z"/><path class="cls-17" d="M435.06,317.32a43.66,43.66,0,1,1-71.69,49.39,44.49,44.49,0,1,0,71.69-49.39Z"/><path class="cls-27" d="M381.46,297.94a11.35,11.35,0,0,1,1.79,2.89,15.78,15.78,0,0,1,.84,4.27c.13,1,.28,2.23.4,3.2a9,9,0,0,1,.21,2.38c.4.28.47-.95,1-.89a9.29,9.29,0,0,0,1.58.07,11.5,11.5,0,0,0,3.14-.49,9.15,9.15,0,0,0,3-1.7l1-.81c.31-.27,1.14.29,1.23-.14-.3-.05-1-1.28-1.18-1.73a38.85,38.85,0,0,0-1.9-3.41c-2.87-5.17-1.65-8.51-1.68-8.32.53-1.83,1.67-4.12,0-5.68-1.21-1.14-3.71-1-5.21-.8a12.88,12.88,0,0,0-6.91,2.78c-1.4,1.19-2.23,2.59-1.19,4.12S380.24,296.47,381.46,297.94Z"/><path class="cls-15" d="M383.62,288.26c.33-.1.66-.19,1-.26s.65-.12,1-.16.62-.06.92-.07a5.55,5.55,0,0,1,.83,0,4.43,4.43,0,0,1,.72.13,2.51,2.51,0,0,1,.57.22,1.69,1.69,0,0,1,.41.31,1,1,0,0,1,.22.38,1.08,1.08,0,0,1,0,.44,1.74,1.74,0,0,1-.17.48,2.53,2.53,0,0,1-.35.5,5.05,5.05,0,0,1-.52.51,7.44,7.44,0,0,1-.68.49c-.25.16-.52.31-.8.46s-.59.28-.9.4-.64.24-1,.34-.66.18-1,.25-.65.13-1,.17-.63.06-.92.06a5.69,5.69,0,0,1-.84,0,3.59,3.59,0,0,1-.71-.13,2.8,2.8,0,0,1-.58-.22,1.58,1.58,0,0,1-.4-.31,1,1,0,0,1-.22-.38,1.07,1.07,0,0,1,0-.44,1.46,1.46,0,0,1,.17-.48,2.41,2.41,0,0,1,.35-.5,4.21,4.21,0,0,1,.52-.51,8,8,0,0,1,.68-.49,7.59,7.59,0,0,1,.8-.45c.29-.15.59-.28.9-.41S383.29,288.36,383.62,288.26Z"/><path class="cls-17" d="M394.46,305a38.85,38.85,0,0,0-1.9-3.41c-2.87-5.17-1.65-8.51-1.68-8.32.53-1.83,1.67-4.12,0-5.68a3.65,3.65,0,0,0-1.8-.82,4.75,4.75,0,0,1,.6.31,2,2,0,0,1,.91,2.21,3.71,3.71,0,0,1-1.31,2,8.81,8.81,0,0,1-3.65,2.07l-.85.21c-.31.07-.61.14-1,.2l-.93.11c-.91.05.14.64.37.75a8.52,8.52,0,0,0,2.08.26c1,0,2.14-.27,3,.27a2.65,2.65,0,0,1,1,1.56c1.18,3.37,1.71,8,3.61,10.72a20.36,20.36,0,0,0,2.61,3c.27.26.56.51.85.76s.58.54.88.82a9.69,9.69,0,0,0,2.18,1.52.65.65,0,0,0,.23.09.44.44,0,0,0,.3-.07.26.26,0,0,0,.05-.25,5,5,0,0,0-.64-1l-.5-.7c-.38-.53-.75-1.06-1.12-1.6-.75-1.09-1.5-2.19-2.23-3.3-.27-.4-.53-.8-.79-1.2A4.21,4.21,0,0,1,394.46,305Z"/><path class="cls-27" d="M353.74,320.05a11.44,11.44,0,0,1,3.19,1.17,16.2,16.2,0,0,1,3.29,2.84c.7.68,1.6,1.59,2.29,2.28a25.65,25.65,0,0,1,2.71,3.15,6.77,6.77,0,0,0,2-.89c.46-.27.72-2,1.13-2.31.82-.68-.17-1.39.43-2.27s3.2-1.18,3.45-2.32c.09-.41-2.88-2.2-2.79-2.61s4.24.61,4.05.22a32.58,32.58,0,0,1-5.16-1.73c-1.34-.68-3.79-1.59-3.6-1.51-5.45-2.3-6.54-5.68-6.45-5.51-.72-1.77-1.23-4.27-3.48-4.48-1.66-.16-3.57,1.46-4.61,2.58a12.88,12.88,0,0,0-3.72,6.44c-.36,1.81-.15,3.42,1.6,4S351.87,319.64,353.74,320.05Z"/><path class="cls-15" d="M348.27,316.62c-1-.69-.45-3.17,1.2-5.52s3.8-3.71,4.79-3,.45,3.17-1.2,5.52S349.27,317.32,348.27,316.62Z"/><path class="cls-17" d="M368.32,317.58c-1.34-.68-3.79-1.59-3.6-1.51-5.45-2.3-6.54-5.68-6.45-5.51-.72-1.77-1.23-4.27-3.49-4.48a3.53,3.53,0,0,0-1.92.46,3.57,3.57,0,0,1,.66-.12,2,2,0,0,1,2.08,1.18,3.68,3.68,0,0,1,.22,2.39,8.89,8.89,0,0,1-1.6,3.89c-.18.24-.35.46-.53.68a8.78,8.78,0,0,1-.64.75l-.66.67c-.69.59.5.42.75.36a8.4,8.4,0,0,0,1.8-1.09c.77-.58,1.51-1.52,2.53-1.63a2.66,2.66,0,0,1,1.77.6c3,1.92,7,5,10.1,6.21a12.48,12.48,0,0,0,4.09.92c.85.1,1.71.16,2.57.19a11,11,0,0,0,2.81-.11c.15,0,.33-.1.36-.25a.27.27,0,0,0-.12-.26,4,4,0,0,0-1-.29l-1-.27C373.91,319.43,368.63,317.74,368.32,317.58Z"/><path class="cls-27" d="M348.05,354.37a10.79,10.79,0,0,1,3.31-.77,15.71,15.71,0,0,1,4.31.57l3.17.65a26.29,26.29,0,0,1,4,1.16,7.07,7.07,0,0,0,1.18-1.84c.23-.48-.48-2-.32-2.55.31-1-.9-1.08-.89-2.14s2-2.74,1.62-3.83c-.15-.39-3.62-.26-3.77-.65s3.89-1.81,3.51-2a33.5,33.5,0,0,1-5.26,1.37c-1.49.17-4,.74-3.84.71-5.82,1.05-8.58-1.17-8.42-1.08-1.56-1.09-3.36-2.9-5.36-1.84-1.48.78-2.18,3.18-2.44,4.68a12.88,12.88,0,0,0,.41,7.43c.68,1.71,1.74,2.94,3.52,2.45S346.27,355,348.05,354.37Z"/><path class="cls-15" d="M339.57,349.21c0-.35,0-.68.08-1a9.81,9.81,0,0,1,.16-1,7.89,7.89,0,0,1,.23-.9,7.05,7.05,0,0,1,.3-.78,3.13,3.13,0,0,1,.35-.63,2.37,2.37,0,0,1,.39-.47,1.51,1.51,0,0,1,.42-.29,1,1,0,0,1,.43-.08,1,1,0,0,1,.43.11,1.4,1.4,0,0,1,.4.31,2.85,2.85,0,0,1,.37.49,6.8,6.8,0,0,1,.31.66,7.59,7.59,0,0,1,.24.8c.07.29.13.59.18.91s.07.64.09,1,0,.67,0,1,0,.68-.07,1-.09.66-.16,1-.14.61-.23.89a7.05,7.05,0,0,1-.3.78,5.41,5.41,0,0,1-.35.64,3.18,3.18,0,0,1-.4.47,1.4,1.4,0,0,1-.42.28.91.91,0,0,1-.85,0,1.43,1.43,0,0,1-.41-.31,2.83,2.83,0,0,1-.36-.49,4.06,4.06,0,0,1-.31-.66,6.88,6.88,0,0,1-.25-.8,8,8,0,0,1-.17-.9c-.05-.32-.08-.65-.1-1S339.56,349.55,339.57,349.21Z"/><path class="cls-17" d="M358.9,344.31c-1.49.17-4,.74-3.84.71-5.82,1.05-8.58-1.17-8.42-1.08-1.56-1.09-3.36-2.9-5.36-1.84a3.51,3.51,0,0,0-1.36,1.44,4.54,4.54,0,0,1,.48-.47,2,2,0,0,1,2.39-.15,3.68,3.68,0,0,1,1.5,1.89,8.91,8.91,0,0,1,.79,4.12c0,.3-.05.59-.08.87a9,9,0,0,1-.12,1c0,.16-.17.83-.19.91-.25.88.65.08.83-.11a8.09,8.09,0,0,0,.91-1.89c.33-.91.43-2.1,1.23-2.75a2.68,2.68,0,0,1,1.81-.47c3.56,0,8.82.88,11.92-.2l.41-.14a34.79,34.79,0,0,0,4.4-1.87,24.41,24.41,0,0,0,3.73-2.4.8.8,0,0,0,.26-.29.28.28,0,0,0-.12-.34.45.45,0,0,0-.23,0c-.8.22-1.59.51-2.39.74-1.17.35-2.35.68-3.53,1s-2.23.61-3.35.9A12,12,0,0,1,358.9,344.31Z"/><path class="cls-27" d="M360,386.85a11.18,11.18,0,0,1,2.24-2.56,16.45,16.45,0,0,1,3.84-2c.89-.41,2.06-.92,3-1.31a52.69,52.69,0,0,1,5.78-2c.15-.47-1.88-1.09-2-1.6s-1.58-1.38-1.75-1.89c-.33-1-1.36-.35-2-1.23s.06-3.41-.92-4.05c-.35-.23-3.09,1.89-3.44,1.66s2.11-3.74,1.67-3.7c.05.3-3.11,3.85-3.48,4.19-1.11,1-2.85,2.95-2.71,2.8-4.12,4.25-7.66,4-7.47,4-1.91,0-4.43-.4-5.44,1.63-.74,1.49.08,3.85.74,5.22a12.86,12.86,0,0,0,4.66,5.8c1.55,1,3.13,1.38,4.29-.05S359,388.43,360,386.85Z"/><path class="cls-15" d="M349,382a1.13,1.13,0,0,1,.41-.16,1.77,1.77,0,0,1,.51,0,3,3,0,0,1,.58.19,3.8,3.8,0,0,1,.64.36,6.83,6.83,0,0,1,.67.5c.22.19.44.4.67.64s.43.48.64.74.41.54.6.82.37.58.53.87a9.17,9.17,0,0,1,.44.89,8.38,8.38,0,0,1,.33.86,5.46,5.46,0,0,1,.22.81,4.66,4.66,0,0,1,.08.72,2.36,2.36,0,0,1-.05.61,1.7,1.7,0,0,1-.17.48,1.18,1.18,0,0,1-.31.32.92.92,0,0,1-.41.15,1.43,1.43,0,0,1-.5,0,2.12,2.12,0,0,1-.59-.19,5.09,5.09,0,0,1-.63-.35,7,7,0,0,1-.67-.51c-.22-.19-.45-.4-.67-.63s-.44-.48-.65-.75-.41-.53-.6-.82-.36-.57-.53-.87a8.9,8.9,0,0,1-.43-.88,8.51,8.51,0,0,1-.34-.86,6.93,6.93,0,0,1-.21-.81,3.88,3.88,0,0,1-.08-.73,2.4,2.4,0,0,1,.05-.61,1.31,1.31,0,0,1,.17-.47A.93.93,0,0,1,349,382Z"/><path class="cls-17" d="M363,372.36c-1.11,1-2.85,2.95-2.71,2.8-4.12,4.25-7.66,4-7.47,4-1.9,0-4.43-.4-5.44,1.63a3.53,3.53,0,0,0-.26,2,3.42,3.42,0,0,1,.12-.66,2,2,0,0,1,1.85-1.51,3.71,3.71,0,0,1,2.32.66,8.87,8.87,0,0,1,3,2.9c.16.25.3.5.44.74s.32.55.47.87c.07.15.35.78.38.86.31.85.58-.32.61-.58A7.83,7.83,0,0,0,356,384c-.27-.94-.87-2-.6-2.95a2.65,2.65,0,0,1,1.2-1.44c2.88-2.1,7.12-4,9.2-6.56l.15-.19a20.14,20.14,0,0,0,2.74-4.59c.29-.66.74-1.6,1-2.29.09-.3.53-1.51.69-2a.82.82,0,0,0,.06-.26.24.24,0,0,0-.12-.22.26.26,0,0,0-.3.05c-.08.08-.53.84-.73,1.09s-.39.51-.59.76c-.75,1-1.52,1.93-2.29,2.89L364.12,371A11.11,11.11,0,0,1,363,372.36Z"/><path class="cls-27" d="M391,403.46a11.07,11.07,0,0,1,.28-3.39,16.07,16.07,0,0,1,1.86-3.93c.48-.86,1.11-2,1.59-2.81a68.35,68.35,0,0,1,4-5.72c-.17-.46-2.31.14-2.69-.22s-1.81-.5-2.25-.81c-.87-.61-1.93-.17-2.94-.51a8.22,8.22,0,0,0-3.15-.87c-.42,0-1.36,3.36-1.78,3.39s-.53-4.26-.86-4a34.75,34.75,0,0,1-.29,5.44c-.3,1.47-.54,4.07-.51,3.86-.77,5.87-3.73,7.83-3.6,7.69-1.51,1.16-3.79,2.32-3.39,4.55.29,1.64,2.36,3,3.71,3.75a12.8,12.8,0,0,0,7.2,1.88c1.84-.13,3.33-.76,3.42-2.61S391.13,405.36,391,403.46Z"/><path class="cls-15" d="M379.36,406.14a.85.85,0,0,1,.23-.37,1.49,1.49,0,0,1,.42-.29,2.81,2.81,0,0,1,.58-.2,3.94,3.94,0,0,1,.73-.09,5.74,5.74,0,0,1,.83,0c.3,0,.6.06.92.12a8.72,8.72,0,0,1,1,.21,8.35,8.35,0,0,1,1,.3,9.9,9.9,0,0,1,.95.38c.3.14.6.29.88.45s.54.32.78.49a7.39,7.39,0,0,1,.65.52,6,6,0,0,1,.5.53,2.29,2.29,0,0,1,.32.52,1.62,1.62,0,0,1,.15.49,1.27,1.27,0,0,1-.05.44,1.07,1.07,0,0,1-.24.37,1.47,1.47,0,0,1-.42.28,2.32,2.32,0,0,1-.58.2,5,5,0,0,1-.72.1,8,8,0,0,1-.84,0c-.29,0-.6-.06-.92-.11s-.63-.13-1-.22a9,9,0,0,1-1-.3,9.71,9.71,0,0,1-.94-.38c-.31-.14-.6-.29-.88-.44s-.54-.33-.78-.5a6.07,6.07,0,0,1-.66-.52,4.87,4.87,0,0,1-.5-.53,3.33,3.33,0,0,1-.32-.52,1.35,1.35,0,0,1-.14-.49A.88.88,0,0,1,379.36,406.14Z"/><path class="cls-17" d="M384.78,390.06c-.3,1.47-.54,4.08-.51,3.87-.77,5.86-3.73,7.82-3.6,7.68-1.51,1.16-3.79,2.32-3.39,4.55a3.49,3.49,0,0,0,1,1.73,4.49,4.49,0,0,1-.3-.6,2,2,0,0,1,.59-2.32,3.71,3.71,0,0,1,2.25-.85,8.93,8.93,0,0,1,4.17.51l.8.33c.3.14.58.25.9.42l.81.46c.76.5.27-.6.15-.82a8.8,8.8,0,0,0-1.52-1.45c-.78-.59-1.88-1.05-2.25-2a2.63,2.63,0,0,1,.11-1.87c1.05-3.41,3.47-8.35,3.47-11.64a35.73,35.73,0,0,0-.21-4,21,21,0,0,0-.51-2.85c-.09-.37-.65-2.56-.93-3.24l-.06-.15a.61.61,0,0,0-.13-.22.25.25,0,0,0-.24-.09.25.25,0,0,0-.18.18,6.44,6.44,0,0,0,0,.88c0,.31,0,.61,0,.92,0,.79,0,1.57,0,2.36s-.05,1.8-.08,2.69-.07,1.71-.11,2.57c0,.66-.06,1.32-.1,2,0,.32,0,.65-.07,1Z"/><path class="cls-27" d="M426.29,401.75a11,11,0,0,1-2-2.73,16.31,16.31,0,0,1-1.21-4.18c-.21-1-.46-2.21-.66-3.16-.11-.53-1.09-7.65-.72-9,.74-2.78-2.67-.38-3.06-.39s-1.95.89-2.48,1c-1.06.12-1,1.12-2,1.53s-2.42.5-3.24,1.32c-.3.29-3.11,1-3.4,1.32s1.9,3.73,1.85,4.16a33.77,33.77,0,0,1,3.37,4.28c.75,1.3,2.3,3.41,2.18,3.23,3.3,4.91,2.37,8.34,2.39,8.15-.37,1.87-1.32,4.24.46,5.65,1.3,1,3.78.73,5.26.37a12.89,12.89,0,0,0,6.64-3.36c1.3-1.31,2-2.77.84-4.21S427.62,403.11,426.29,401.75Z"/><path class="cls-15" d="M423.33,407.5a9.9,9.9,0,0,1,1-.34c.32-.09.64-.18.95-.24a7.83,7.83,0,0,1,.91-.15,8.26,8.26,0,0,1,.84,0,5.17,5.17,0,0,1,.72.07,3,3,0,0,1,.59.17,1.68,1.68,0,0,1,.43.28.9.9,0,0,1,.25.36,1,1,0,0,1,.07.43,1.33,1.33,0,0,1-.13.49,2.37,2.37,0,0,1-.3.53,4.84,4.84,0,0,1-.48.55,5.91,5.91,0,0,1-.64.55,7.75,7.75,0,0,1-.76.52c-.27.17-.56.33-.86.48s-.61.29-.93.42-.64.24-1,.33a8.91,8.91,0,0,1-.95.25,8.2,8.2,0,0,1-.91.15,8.39,8.39,0,0,1-.84,0,5.48,5.48,0,0,1-.73-.07,2.32,2.32,0,0,1-.58-.18,1.32,1.32,0,0,1-.43-.27.81.81,0,0,1-.25-.36.89.89,0,0,1-.07-.43,1.53,1.53,0,0,1,.12-.49,3.37,3.37,0,0,1,.31-.54,3.88,3.88,0,0,1,.48-.54,6.89,6.89,0,0,1,.63-.55c.24-.18.49-.35.76-.52s.56-.33.87-.48S423,407.63,423.33,407.5Z"/><path class="cls-17" d="M412.73,395.83c.75,1.3,2.3,3.41,2.18,3.23,3.3,4.91,2.37,8.34,2.39,8.15-.37,1.87-1.32,4.24.46,5.65a3.45,3.45,0,0,0,1.86.67,4.75,4.75,0,0,1-.62-.26,2,2,0,0,1-1.09-2.12A3.67,3.67,0,0,1,419,409a8.91,8.91,0,0,1,3.47-2.38l.82-.28c.31-.09.6-.19.95-.27l.91-.19c.9-.13-.19-.63-.43-.72a8.48,8.48,0,0,0-2.1-.08c-1,.07-2.1.45-3,0a2.6,2.6,0,0,1-1.15-1.47c-1.47-3.26-2.64-7.68-4.51-10.37a34.23,34.23,0,0,0-5.43-6.21,18.1,18.1,0,0,0-4.37-2.81.47.47,0,0,0-.46.13c-.36.52,1.26,1.93,1.51,2.19,1.26,1.26,3.94,4.79,5.1,6.23.76,1,1.53,1.89,2.26,2.86A1.43,1.43,0,0,1,412.73,395.83Z"/><path class="cls-27" d="M451.31,377.47a11.21,11.21,0,0,1-3.2-1.14,16.27,16.27,0,0,1-3.32-2.82l-2.31-2.27c-.38-.37-3.67-3.68-3.86-4.66-.49,0-1.29.79-1.74,1.06s-1.13,2-1.54,2.37c-.81.69-.1,1.12-.69,2s-2.77,1.28-3,2.42c-.09.41-1.88,1.82-2,2.23s1.68,1.29,1.88,1.68a33.79,33.79,0,0,1,5.17,1.7c1.34.67,3.8,1.57,3.6,1.49,5.47,2.26,6.59,5.63,6.49,5.47.73,1.76,1.26,4.26,3.52,4.45,1.66.15,3.55-1.49,4.58-2.61a12.84,12.84,0,0,0,3.68-6.46c.35-1.81.13-3.42-1.63-4S453.17,377.87,451.31,377.47Z"/><path class="cls-15" d="M452,383.91c.19-.29.4-.56.61-.82s.44-.5.66-.73.45-.44.68-.63a6.66,6.66,0,0,1,.67-.49,5.26,5.26,0,0,1,.65-.35,3.81,3.81,0,0,1,.58-.18,1.77,1.77,0,0,1,.51,0,1,1,0,0,1,.41.17.89.89,0,0,1,.29.32,1.44,1.44,0,0,1,.17.48,2.38,2.38,0,0,1,0,.61,4.72,4.72,0,0,1-.09.72,7.16,7.16,0,0,1-.23.81,8.36,8.36,0,0,1-.34.85c-.14.3-.29.59-.46.88s-.35.58-.54.86-.4.55-.61.81-.44.51-.66.74-.45.43-.68.62a5.9,5.9,0,0,1-.68.5,4.44,4.44,0,0,1-.64.34,2.54,2.54,0,0,1-.58.18,1.47,1.47,0,0,1-.51,0,.93.93,0,0,1-.41-.16,1,1,0,0,1-.3-.32,2.08,2.08,0,0,1-.17-.48,3,3,0,0,1,0-.61,5,5,0,0,1,.09-.73,7.66,7.66,0,0,1,.23-.8,8.51,8.51,0,0,1,.34-.86c.14-.29.29-.58.46-.87A7.73,7.73,0,0,1,452,383.91Z"/><path class="cls-17" d="M436.74,380c1.34.67,3.8,1.57,3.6,1.49,5.47,2.26,6.59,5.63,6.49,5.47.73,1.76,1.26,4.26,3.52,4.45a3.55,3.55,0,0,0,1.92-.47,3.92,3.92,0,0,1-.66.13,2,2,0,0,1-2.09-1.17,3.64,3.64,0,0,1-.23-2.4,8.7,8.7,0,0,1,1.57-3.89c.18-.24.35-.47.53-.69s.39-.49.63-.75l.66-.67c.68-.6-.51-.42-.76-.36a8.65,8.65,0,0,0-1.79,1.1c-.77.59-1.5,1.53-2.52,1.65a2.69,2.69,0,0,1-1.78-.59c-3-1.9-7.85-5.71-11-6.64a27.67,27.67,0,0,0-6.05-1.24c-1-.07-3.58-.12-3.71.38a.46.46,0,0,0,.22.47,4.62,4.62,0,0,0,1.26.45l1.22.36,2.78.88q2.54.79,5,1.63A9.24,9.24,0,0,1,436.74,380Z"/><path class="cls-27" d="M460.83,344.09a11.42,11.42,0,0,1-3.28.9,15.78,15.78,0,0,1-4.33-.39l-3.19-.52c-.53-.09-5.37-1.15-5.63-1.76-.38.32.15,2.22-.06,2.7s-.58,2.05-.72,2.56a6.87,6.87,0,0,0-.1,2.48c0,1.17-.89,4.32-.43,5.39.17.38,5.37-1.83,5.54-1.45s-3.82,2-3.43,2.18a34.11,34.11,0,0,1,5.21-1.6c1.48-.23,4-.91,3.8-.86,5.77-1.3,8.63.8,8.45.72,1.61,1,3.49,2.76,5.45,1.62,1.43-.84,2-3.27,2.24-4.78a12.88,12.88,0,0,0-.73-7.4c-.75-1.68-1.86-2.87-3.62-2.31S462.58,343.34,460.83,344.09Z"/><path class="cls-15" d="M467.26,343.69a.94.94,0,0,1,.43.1,1.76,1.76,0,0,1,.42.29,2.77,2.77,0,0,1,.38.48,4.89,4.89,0,0,1,.34.65,7.08,7.08,0,0,1,.28.78q.12.43.21.9c.06.32.1.64.14,1s0,.67.05,1,0,.68,0,1-.07.67-.12,1-.12.62-.19.91a7.29,7.29,0,0,1-.27.79,4.38,4.38,0,0,1-.33.65,2.73,2.73,0,0,1-.37.49,1.59,1.59,0,0,1-.41.3,1.08,1.08,0,0,1-.43.1.92.92,0,0,1-.42-.1,1.38,1.38,0,0,1-.42-.29,2.77,2.77,0,0,1-.38-.48,4.26,4.26,0,0,1-.34-.64,5.63,5.63,0,0,1-.28-.79,5.93,5.93,0,0,1-.21-.9c-.06-.31-.11-.64-.14-1s-.05-.68-.05-1,0-.68,0-1,.06-.66.12-1a7.94,7.94,0,0,1,.19-.9,6.62,6.62,0,0,1,.27-.79,4.51,4.51,0,0,1,.32-.66,2.37,2.37,0,0,1,.38-.48,1.44,1.44,0,0,1,.41-.3A1.09,1.09,0,0,1,467.26,343.69Z"/><path class="cls-17" d="M450.41,354.58c1.48-.23,4-.91,3.8-.86,5.77-1.3,8.63.8,8.45.72,1.61,1,3.49,2.76,5.45,1.62a3.61,3.61,0,0,0,1.29-1.5,4,4,0,0,1-.46.49,2,2,0,0,1-2.38.25,3.72,3.72,0,0,1-1.58-1.82,9,9,0,0,1-1-4.09c0-.3,0-.59,0-.87s0-.63.08-1c0-.16.13-.84.15-.92.21-.89-.65-.05-.82.14a8.08,8.08,0,0,0-.83,1.93c-.29.92-.35,2.12-1.11,2.8a2.61,2.61,0,0,1-1.79.54c-3.56.19-8.2-.63-11.3.46a30.09,30.09,0,0,0-4.63,2,28.54,28.54,0,0,0-4.1,2.49,4.32,4.32,0,0,0-.86.67.54.54,0,0,0-.11.26.36.36,0,0,0,.28.32c.51.16,1.1-.37,1.57-.5s1-.35,1.51-.52c1.23-.41,2.46-.82,3.69-1.21,1-.33,2-.66,3.09-1A10,10,0,0,1,450.41,354.58Z"/><path class="cls-27" d="M445,312a11.14,11.14,0,0,1-2.12,2.66,16,16,0,0,1-3.74,2.23c-.87.45-2,1-2.89,1.45a24.23,24.23,0,0,1-3.84,1.56,7.11,7.11,0,0,0,.21,2.18c.12.52,1.64,1.3,1.83,1.8.39,1,1.38.29,2,1.13s.1,3.41,1.11,4c.36.22,3-2,3.36-1.81s-1.93,3.83-1.5,3.77c-.06-.3,2.92-4,3.28-4.35,1.06-1.06,2.71-3.09,2.57-2.93,3.91-4.44,7.46-4.41,7.27-4.38,1.9-.12,4.44.19,5.35-1.88.68-1.53-.26-3.85-1-5.19a12.82,12.82,0,0,0-4.93-5.57c-1.6-.92-3.19-1.23-4.29.26S446,310.39,445,312Z"/><path class="cls-15" d="M450,307.93a.94.94,0,0,1,.41-.17,1.19,1.19,0,0,1,.5,0,3,3,0,0,1,.6.16,4.86,4.86,0,0,1,.65.32q.33.21.69.48c.23.18.46.38.7.6s.46.46.68.71.43.52.64.79.39.56.57.85a8.13,8.13,0,0,1,.48.86c.14.29.27.57.37.84a6,6,0,0,1,.25.8,3.38,3.38,0,0,1,.12.72,2.43,2.43,0,0,1,0,.61,1.41,1.41,0,0,1-.15.49,1,1,0,0,1-.28.33.94.94,0,0,1-.41.17,1.23,1.23,0,0,1-.51,0,3.08,3.08,0,0,1-.59-.16A4.86,4.86,0,0,1,454,316a7.18,7.18,0,0,1-.69-.48c-.23-.18-.47-.38-.7-.6s-.46-.46-.68-.71-.44-.52-.64-.79-.39-.56-.57-.85a8.13,8.13,0,0,1-.48-.86,6.73,6.73,0,0,1-.37-.84,8.19,8.19,0,0,1-.26-.8,4.07,4.07,0,0,1-.11-.72,3.05,3.05,0,0,1,0-.61,1.66,1.66,0,0,1,.16-.49A1.12,1.12,0,0,1,450,307.93Z"/><path class="cls-17" d="M442.72,326.64c1.06-1.06,2.71-3.09,2.57-2.93,3.91-4.44,7.46-4.41,7.27-4.38,1.9-.12,4.44.19,5.36-1.88a3.69,3.69,0,0,0,.17-2,4,4,0,0,1-.1.66,2,2,0,0,1-1.78,1.6,3.66,3.66,0,0,1-2.34-.55,8.94,8.94,0,0,1-3.18-2.75c-.17-.25-.33-.48-.48-.72s-.34-.53-.51-.85c-.07-.14-.38-.75-.41-.83-.36-.84-.57.34-.59.6a8.56,8.56,0,0,0,.46,2.05c.31.92,1,1.92.75,2.92a2.71,2.71,0,0,1-1.13,1.49c-2.78,2.24-7.19,4.19-8.88,7-.76,1.24-1.49,2.49-2.16,3.79a24.25,24.25,0,0,0-1.39,3.38l-.42,1.29a1.17,1.17,0,0,0-.08.36.38.38,0,0,0,.17.31.35.35,0,0,0,.33,0,3.09,3.09,0,0,0,.73-.94l.73-1,1.69-2.34c.95-1.3,1.89-2.59,2.88-3.86A3.47,3.47,0,0,1,442.72,326.64Z"/><path class="cls-27" d="M415.89,293.2a11.33,11.33,0,0,1-.12,3.39,16.46,16.46,0,0,1-1.68,4c-.44.88-1,2-1.46,2.88a25.53,25.53,0,0,1-2.16,3.55,6.94,6.94,0,0,0,1.46,1.62c.41.35,2.1.07,2.55.36.9.56,1.27-.59,2.3-.3s2.11,2.68,3.27,2.56c.42,0,1.2-3.42,1.62-3.46s.72,4.23,1,3.92a33.18,33.18,0,0,1,.05-5.44c.23-1.48.34-4.1.32-3.89.5-5.89,3.37-8,3.24-7.84,1.46-1.23,3.68-2.49,3.18-4.7-.36-1.63-2.49-2.94-3.88-3.58a12.86,12.86,0,0,0-7.27-1.54c-1.83.21-3.3.91-3.3,2.76S415.71,291.3,415.89,293.2Z"/><path class="cls-15" d="M417.46,286.94a1,1,0,0,1,.22-.38,1.84,1.84,0,0,1,.4-.31,3.52,3.52,0,0,1,.58-.22,4.51,4.51,0,0,1,.71-.13q.39,0,.84,0c.29,0,.6,0,.92.07s.64.1,1,.17.66.16,1,.26l1,.33c.31.13.61.26.9.41s.55.3.8.46a6.11,6.11,0,0,1,.67.49,4.33,4.33,0,0,1,.53.51,3,3,0,0,1,.35.5,1.69,1.69,0,0,1,.16.48,1.07,1.07,0,0,1,0,.44.92.92,0,0,1-.22.38,1.84,1.84,0,0,1-.4.31,2.8,2.8,0,0,1-.58.22,4.51,4.51,0,0,1-.71.13q-.39,0-.84,0c-.29,0-.6,0-.92-.07s-.64-.1-1-.17-.66-.16-1-.26l-1-.33c-.31-.13-.61-.26-.9-.41a8.8,8.8,0,0,1-.8-.46,6.11,6.11,0,0,1-.67-.49,4.33,4.33,0,0,1-.53-.51,3,3,0,0,1-.35-.5,1.51,1.51,0,0,1-.16-.48A1.08,1.08,0,0,1,417.46,286.94Z"/><path class="cls-17" d="M422.76,306.3c.23-1.48.34-4.1.32-3.89.5-5.89,3.37-8,3.24-7.84,1.46-1.23,3.68-2.49,3.18-4.7a3.56,3.56,0,0,0-1-1.69,5.93,5.93,0,0,1,.32.59,2,2,0,0,1-.48,2.35,3.7,3.7,0,0,1-2.21.94,8.83,8.83,0,0,1-4.19-.31c-.28-.1-.55-.19-.82-.3s-.58-.22-.91-.37c-.14-.08-.76-.38-.83-.43-.78-.46-.25.61-.11.84a8.68,8.68,0,0,0,1.59,1.37c.79.55,1.92,1,2.33,1.9a2.62,2.62,0,0,1,0,1.87c-.9,3.45-3,7.63-3,10.91a21.41,21.41,0,0,0,1.19,7c.12.33.3.63.4.95a10.18,10.18,0,0,0,.57,1.51.83.83,0,0,0,.2.31.35.35,0,0,0,.35.07c.17-.09.17-.32.16-.51-.16-2-.19-4.1-.23-6.14,0-1.44-.14-2.91-.05-4.35C422.75,306.36,422.76,306.33,422.76,306.3Z"/><path class="cls-27" d="M370.68,315.71c-.22-2.71,1.51-5.49,3.63-7a9.26,9.26,0,0,1,4-1.67,6.67,6.67,0,0,1,5.6,1.83,5.22,5.22,0,0,1,1.4,3.79c0,1.25-.89,2.91-.43,3.57a9.47,9.47,0,0,0,2.21,2.34,23.26,23.26,0,0,0,3.63,1.93c.86.29,1.51.49,1.63,1.09s-1.54,2.41-4.32,5.55a11.93,11.93,0,0,1-3.86,2.67c-1.15.53-2.58.86-3.57.06a6.92,6.92,0,0,1-.81-2.72,16.9,16.9,0,0,0-1.19-5.37c-.11-.26-.65-1.12-1.36-1.13a8,8,0,0,1-4.84-1.5A4.65,4.65,0,0,1,370.68,315.71Z"/><path class="cls-15" d="M374.59,309.91a8.07,8.07,0,0,1,1-.71,7.91,7.91,0,0,1,1.08-.56,8.62,8.62,0,0,1,1.12-.37,7.08,7.08,0,0,1,1.09-.18,5.14,5.14,0,0,1,1,0,4.51,4.51,0,0,1,.93.22,3.58,3.58,0,0,1,.8.42,2.94,2.94,0,0,1,.63.59,2.9,2.9,0,0,1,.44.74,3.48,3.48,0,0,1,.23.87,4.38,4.38,0,0,1,0,1,5.31,5.31,0,0,1-.2,1,6,6,0,0,1-.42,1,8.12,8.12,0,0,1-.6,1,7.62,7.62,0,0,1-.78.94,10.51,10.51,0,0,1-.91.85,9.82,9.82,0,0,1-1,.71A8.57,8.57,0,0,1,378,318a8.09,8.09,0,0,1-1.11.38,7.41,7.41,0,0,1-1.1.18,5.85,5.85,0,0,1-1,0,4.78,4.78,0,0,1-.94-.23,3.12,3.12,0,0,1-.79-.41,3.22,3.22,0,0,1-.63-.59,2.93,2.93,0,0,1-.45-.74,3.48,3.48,0,0,1-.23-.87,4.39,4.39,0,0,1,0-1,4.83,4.83,0,0,1,.2-1,6.69,6.69,0,0,1,.41-1,8,8,0,0,1,.6-1,9.82,9.82,0,0,1,.78-.95A8.19,8.19,0,0,1,374.59,309.91Z"/><path class="cls-17" d="M393.52,321.54c0-.11-.16-.17-.27-.22-1.15-.44-2.3-.88-3.43-1.41a13.4,13.4,0,0,1-3.7-2.54,3.91,3.91,0,0,1-1-1.32,2,2,0,0,1-.11-.4,6.8,6.8,0,0,1,.29-2.37,3.72,3.72,0,0,0,.08-.67,5.61,5.61,0,0,0-1.34-4,6.42,6.42,0,0,0-5.53-1.7,9.66,9.66,0,0,0-3.22,1.13c2.81-1.28,6.94-1.29,8.48,1.69a.61.61,0,0,0,.07.14,5.47,5.47,0,0,1,.3,2.09,7.39,7.39,0,0,1-.6,2.16,9.17,9.17,0,0,1-1.15,2,7.46,7.46,0,0,1-1.64,1.63l-.41.26a2.14,2.14,0,0,0-.41.25.13.13,0,0,0-.05.11s.05.07.09.08a.74.74,0,0,0,.33,0,2.49,2.49,0,0,0,.37-.09c1.21-.35,2.14-1.8,3.52-1.54a2.41,2.41,0,0,1,1.37,1c.54.63,1,1.35,1.53,2a6.63,6.63,0,0,0,2.79,2,6,6,0,0,0,2.56.21,7.2,7.2,0,0,0,.78-.16,1,1,0,0,0,.24-.11A.26.26,0,0,0,393.52,321.54Z"/><path class="cls-27" d="M395.73,303.51c1.38-2.35,4.4-3.63,7-3.68a9.25,9.25,0,0,1,4.26.95,6.66,6.66,0,0,1,3.51,4.72,5.18,5.18,0,0,1-1,3.91c-.75,1-2.4,1.86-2.4,2.67a9.42,9.42,0,0,0,.45,3.18,23.11,23.11,0,0,0,1.86,3.67c.54.73.95,1.27.71,1.84s-2.66,1.08-6.73,2.05a12.14,12.14,0,0,1-4.69,0c-1.25-.24-2.61-.8-3-2a7.17,7.17,0,0,1,.9-2.69,16.71,16.71,0,0,0,2.12-5.08,1.91,1.91,0,0,0-.46-1.71,8,8,0,0,1-3.09-4A4.65,4.65,0,0,1,395.73,303.51Z"/><path class="cls-15" d="M402.26,301a8.69,8.69,0,0,1,1.25,0,8.21,8.21,0,0,1,1.21.18,6.89,6.89,0,0,1,1.12.33,7.12,7.12,0,0,1,1,.48,4.85,4.85,0,0,1,.83.62,3.94,3.94,0,0,1,.64.72,3.31,3.31,0,0,1,.41.79,3,3,0,0,1,.11,1.71,3.28,3.28,0,0,1-.31.84,4,4,0,0,1-.54.8,5.1,5.1,0,0,1-.75.71,7.12,7.12,0,0,1-.93.61,6.92,6.92,0,0,1-1.07.47,8.91,8.91,0,0,1-1.18.33,9.84,9.84,0,0,1-1.23.16,10.43,10.43,0,0,1-1.25,0,8.2,8.2,0,0,1-1.21-.17,9.71,9.71,0,0,1-1.12-.33,6.19,6.19,0,0,1-1-.49,4.81,4.81,0,0,1-.83-.61,3.94,3.94,0,0,1-.64-.72,3.19,3.19,0,0,1-.41-.8,3,3,0,0,1-.11-1.7,3.49,3.49,0,0,1,.31-.85,4,4,0,0,1,.54-.79,5.15,5.15,0,0,1,.75-.72,6.18,6.18,0,0,1,.93-.6,6.92,6.92,0,0,1,1.07-.47,7.61,7.61,0,0,1,1.18-.33A8.27,8.27,0,0,1,402.26,301Z"/><path class="cls-17" d="M411,321.42c0-.11,0-.23-.09-.33-.68-1-1.37-2-2-3.13a13.45,13.45,0,0,1-1.56-4.21,3.68,3.68,0,0,1-.09-1.68,1.64,1.64,0,0,1,.14-.39,6.58,6.58,0,0,1,1.6-1.77,4.23,4.23,0,0,0,.45-.5,5.63,5.63,0,0,0,1.2-4,6.49,6.49,0,0,0-3.54-4.58,10.5,10.5,0,0,0-3.29-.93c3,.58,6.42,2.94,6,6.27l0,.16a5.39,5.39,0,0,1-.95,1.88,7.26,7.26,0,0,1-1.74,1.42,9.39,9.39,0,0,1-2.1,1,7.32,7.32,0,0,1-2.28.38,3.85,3.85,0,0,1-.48,0,2.63,2.63,0,0,0-.48,0s-.09,0-.11.06a.11.11,0,0,0,0,.12.82.82,0,0,0,.26.2l.35.15c1.19.41,2.79-.24,3.77.77a2.37,2.37,0,0,1,.56,1.58c.08.83,0,1.66.12,2.49a6.55,6.55,0,0,0,1.11,3.25,5.84,5.84,0,0,0,2,1.65,4.71,4.71,0,0,0,.73.31.58.58,0,0,0,.26.05A.22.22,0,0,0,411,321.42Z"/><path class="cls-27" d="M425.56,306.85c2.56-.93,5.7,0,7.76,1.67A9.12,9.12,0,0,1,436,312a6.65,6.65,0,0,1-.31,5.88,5.24,5.24,0,0,1-3.3,2.34c-1.21.28-3-.11-3.55.51a9.4,9.4,0,0,0-1.69,2.74,24,24,0,0,0-.93,4c-.05.91-.07,1.59-.62,1.86s-2.73-.86-6.49-2.73a11.91,11.91,0,0,1-3.57-3c-.81-1-1.5-2.28-1-3.43.19-.43,1.53-1.09,2.41-1.5a16.51,16.51,0,0,0,4.88-2.54c.23-.18.91-.92.74-1.6a8.06,8.06,0,0,1,.2-5.07A4.6,4.6,0,0,1,425.56,306.85Z"/><path class="cls-15" d="M424.45,308.89a2.94,2.94,0,0,1,.6-.62,3.31,3.31,0,0,1,.78-.45,4.29,4.29,0,0,1,.92-.27,5.77,5.77,0,0,1,1-.06,7,7,0,0,1,1.1.12,7.66,7.66,0,0,1,1.13.33,7.86,7.86,0,0,1,1.11.5,9,9,0,0,1,1.06.67,8,8,0,0,1,.95.8,8.75,8.75,0,0,1,.82.91,7.46,7.46,0,0,1,.65,1,6.45,6.45,0,0,1,.46,1,5.52,5.52,0,0,1,.25,1,4.43,4.43,0,0,1,0,1,3.34,3.34,0,0,1-.59,1.64,2.94,2.94,0,0,1-.61.61,3.31,3.31,0,0,1-.78.45,4.29,4.29,0,0,1-.92.27,5,5,0,0,1-1,.07,6,6,0,0,1-1.1-.13,9.57,9.57,0,0,1-1.13-.32,7.92,7.92,0,0,1-1.11-.51,8.93,8.93,0,0,1-1.06-.66,12.17,12.17,0,0,1-.95-.8,8.13,8.13,0,0,1-1.47-1.89,7,7,0,0,1-.46-1,5.37,5.37,0,0,1-.24-1,3.89,3.89,0,0,1,0-1,3.63,3.63,0,0,1,.19-.88A2.93,2.93,0,0,1,424.45,308.89Z"/><path class="cls-17" d="M425.86,330.41a.35.35,0,0,0,.14-.31c.14-1.23.26-2.46.47-3.68a13.84,13.84,0,0,1,1.5-4.24,3.74,3.74,0,0,1,1-1.34,1.86,1.86,0,0,1,.35-.22,6.8,6.8,0,0,1,2.37-.33,3.74,3.74,0,0,0,.66-.09,5.65,5.65,0,0,0,3.5-2.33,6.48,6.48,0,0,0,.21-5.79,10.24,10.24,0,0,0-1.93-2.82c2,2.39,3.05,6.37.57,8.64l-.12.1a5.49,5.49,0,0,1-1.94.83,7,7,0,0,1-2.24,0,9.2,9.2,0,0,1-2.25-.58,7.44,7.44,0,0,1-2-1.17l-.36-.32a2.2,2.2,0,0,0-.35-.33.15.15,0,0,0-.11,0,.13.13,0,0,0-.06.12.88.88,0,0,0,.07.32,2.68,2.68,0,0,0,.18.33c.65,1.08,2.29,1.6,2.4,3a2.43,2.43,0,0,1-.58,1.58c-.47.69-1.06,1.28-1.51,2a6.66,6.66,0,0,0-1.22,3.21,5.9,5.9,0,0,0,.46,2.53,7.86,7.86,0,0,0,.36.71.87.87,0,0,0,.17.21A.25.25,0,0,0,425.86,330.41Z"/><path class="cls-27" d="M446.48,327.38c2.54,1,4.3,3.73,4.79,6.32a9.33,9.33,0,0,1-.23,4.36,6.67,6.67,0,0,1-4.07,4.25,5.19,5.19,0,0,1-4-.37c-1.11-.57-2.23-2.06-3-1.93a9.93,9.93,0,0,0-3.07,1,23.58,23.58,0,0,0-3.3,2.44c-.63.65-1.1,1.15-1.69,1s-1.51-2.44-3.14-6.3a11.73,11.73,0,0,1-.74-4.63c0-1.27.34-2.7,1.49-3.25a7.09,7.09,0,0,1,2.8.44,16.56,16.56,0,0,0,5.36,1.25c.28,0,1.29-.11,1.6-.74a8,8,0,0,1,3.45-3.71A4.6,4.6,0,0,1,446.48,327.38Z"/><path class="cls-15" d="M444.3,328.2a3.1,3.1,0,0,1,.86-.07,3.48,3.48,0,0,1,.89.16,4.81,4.81,0,0,1,.87.4,6.63,6.63,0,0,1,.83.62,8.49,8.49,0,0,1,.75.82,7.52,7.52,0,0,1,.64,1,8.06,8.06,0,0,1,.52,1.11,7.8,7.8,0,0,1,.36,1.19,8.55,8.55,0,0,1,.24,2.45,7.21,7.21,0,0,1-.15,1.16,6,6,0,0,1-.31,1.07,5.27,5.27,0,0,1-.46.92,4.08,4.08,0,0,1-.61.75,4,4,0,0,1-.71.54,3.18,3.18,0,0,1-1.67.39,3.42,3.42,0,0,1-.88-.17,4.06,4.06,0,0,1-.88-.4,5.2,5.2,0,0,1-.82-.62,5.81,5.81,0,0,1-.75-.81,8.32,8.32,0,0,1-.65-1,8.06,8.06,0,0,1-.52-1.11,9.61,9.61,0,0,1-.36-1.19,8.75,8.75,0,0,1-.2-1.23,8.32,8.32,0,0,1,0-1.22,7.48,7.48,0,0,1,.14-1.17,6.87,6.87,0,0,1,.31-1.06,5,5,0,0,1,.47-.92,4.49,4.49,0,0,1,.6-.75,3.08,3.08,0,0,1,.72-.54A3.26,3.26,0,0,1,444.3,328.2Z"/><path class="cls-17" d="M431.36,345.46c.11,0,.22-.06.31-.15.9-.85,1.79-1.69,2.75-2.48a13.73,13.73,0,0,1,3.89-2.24,3.81,3.81,0,0,1,1.64-.37,3.07,3.07,0,0,1,.42.07,6.9,6.9,0,0,1,2,1.29,3.33,3.33,0,0,0,.56.36,5.58,5.58,0,0,0,4.17.51A6.44,6.44,0,0,0,451,338.2a10,10,0,0,0,.37-3.4c-.06,3.1-1.83,6.82-5.19,6.92h-.16a5.23,5.23,0,0,1-2-.63,7.56,7.56,0,0,1-1.68-1.47,9.34,9.34,0,0,1-1.33-1.91,7.28,7.28,0,0,1-.75-2.19c0-.15,0-.31-.07-.48a1.87,1.87,0,0,0,0-.47.2.2,0,0,0-.08-.1.13.13,0,0,0-.11,0,.83.83,0,0,0-.16.29,2.45,2.45,0,0,0-.08.37c-.21,1.24.69,2.71-.14,3.84a2.37,2.37,0,0,1-1.46.82c-.81.22-1.64.29-2.44.53a6.57,6.57,0,0,0-3,1.64,5.87,5.87,0,0,0-1.3,2.22,6.66,6.66,0,0,0-.19.77.82.82,0,0,0,0,.27A.24.24,0,0,0,431.36,345.46Z"/><path class="cls-27" d="M449.67,357.62c1.64,2.16,1.67,5.44.71,7.9a9.19,9.19,0,0,1-2.5,3.56,6.63,6.63,0,0,1-5.71,1.45,5.16,5.16,0,0,1-3.22-2.44c-.63-1.08-.8-2.94-1.55-3.24a9.28,9.28,0,0,0-3.11-.8,23.53,23.53,0,0,0-4.1.31c-.88.22-1.54.4-2,0s0-2.87.68-7a11.88,11.88,0,0,1,1.83-4.32c.69-1.06,1.72-2.11,3-2,.46.06,1.49,1.14,2.14,1.86a16.86,16.86,0,0,0,3.89,3.9,1.89,1.89,0,0,0,1.75.23,7.92,7.92,0,0,1,4.89-1.32A4.59,4.59,0,0,1,449.67,357.62Z"/><path class="cls-15" d="M441.18,361.78a8.94,8.94,0,0,1,1.1-2.2,8.5,8.5,0,0,1,.74-.92,7,7,0,0,1,.83-.73,4.6,4.6,0,0,1,.89-.54,4,4,0,0,1,.9-.31,3.51,3.51,0,0,1,.9-.08,3,3,0,0,1,.85.16,2.94,2.94,0,0,1,.77.39,3.44,3.44,0,0,1,.66.61,4.44,4.44,0,0,1,.53.8,5.58,5.58,0,0,1,.37,1,5.39,5.39,0,0,1,.2,1.09,7.56,7.56,0,0,1,0,1.17,8.33,8.33,0,0,1-.15,1.21,8.63,8.63,0,0,1-.32,1.21,8.22,8.22,0,0,1-.48,1.15,7.83,7.83,0,0,1-.62,1.05,8.37,8.37,0,0,1-.74.91,6.38,6.38,0,0,1-.83.74,5.41,5.41,0,0,1-.88.53,4.08,4.08,0,0,1-.91.31,3,3,0,0,1-.89.08,2.67,2.67,0,0,1-.85-.16,2.79,2.79,0,0,1-.77-.39,3.44,3.44,0,0,1-.66-.61,3.48,3.48,0,0,1-.53-.8,5.82,5.82,0,0,1-.38-1,7.51,7.51,0,0,1-.2-1.09,7.69,7.69,0,0,1,0-1.18,8.51,8.51,0,0,1,.15-1.21A9.63,9.63,0,0,1,441.18,361.78Z"/><path class="cls-17" d="M427.26,364.93a.4.4,0,0,0,.34,0c1.22-.24,2.42-.49,3.66-.65a13.82,13.82,0,0,1,4.49.16,4,4,0,0,1,1.58.56,2.8,2.8,0,0,1,.31.28,6.7,6.7,0,0,1,1,2.16,4.85,4.85,0,0,0,.29.61,5.61,5.61,0,0,0,3.27,2.64,6.46,6.46,0,0,0,5.58-1.52,10.25,10.25,0,0,0,2.12-2.69c-1.7,2.59-5.17,4.81-8.07,3.12l-.14-.09a5.28,5.28,0,0,1-1.37-1.6,7.27,7.27,0,0,1-.65-2.14,9.52,9.52,0,0,1-.12-2.32,7.66,7.66,0,0,1,.52-2.26c.07-.15.13-.29.21-.44a2.14,2.14,0,0,0,.21-.43.17.17,0,0,0,0-.12.12.12,0,0,0-.13,0,.92.92,0,0,0-.29.16l-.26.26c-.84,1-.85,2.67-2.15,3.19a2.43,2.43,0,0,1-1.68-.08c-.79-.25-1.54-.63-2.35-.85a6.67,6.67,0,0,0-3.43-.21,6,6,0,0,0-2.28,1.2,5.83,5.83,0,0,0-.56.55.7.7,0,0,0-.15.23A.25.25,0,0,0,427.26,364.93Z"/><path class="cls-27" d="M435.34,381.42c.47,2.68-1,5.61-3,7.36a9.27,9.27,0,0,1-3.86,2,6.66,6.66,0,0,1-5.74-1.31,5.27,5.27,0,0,1-1.75-3.65c-.07-1.24.63-3,.1-3.59a9.4,9.4,0,0,0-2.41-2.13,24.43,24.43,0,0,0-3.79-1.59c-.88-.2-1.55-.34-1.73-.93s1.32-2.55,3.8-5.93a12,12,0,0,1,3.59-3c1.1-.63,2.5-1.09,3.55-.38a6.83,6.83,0,0,1,1.06,2.62,17,17,0,0,0,1.68,5.25c.14.25.75,1,1.46,1a7.89,7.89,0,0,1,4.95,1A4.62,4.62,0,0,1,435.34,381.42Z"/><path class="cls-15" d="M425.89,381.25a8,8,0,0,1,.95-.8,9.35,9.35,0,0,1,1-.65,8.38,8.38,0,0,1,1.07-.48A7.48,7.48,0,0,1,430,379a5.2,5.2,0,0,1,1-.07,4.19,4.19,0,0,1,.95.13,3.61,3.61,0,0,1,.83.34,3.26,3.26,0,0,1,.68.53,3.22,3.22,0,0,1,.51.7,3.31,3.31,0,0,1,.31.85,4.19,4.19,0,0,1,.11,1,5.31,5.31,0,0,1-.11,1,6.38,6.38,0,0,1-.32,1.06,6.79,6.79,0,0,1-.5,1.06,9.5,9.5,0,0,1-.69,1,9.19,9.19,0,0,1-1.79,1.73,8.49,8.49,0,0,1-1,.65,7.8,7.8,0,0,1-1.07.48,7.15,7.15,0,0,1-1.08.28,6,6,0,0,1-1,.07,4.19,4.19,0,0,1-.95-.14,3.78,3.78,0,0,1-.83-.33,3.54,3.54,0,0,1-.68-.53,3.22,3.22,0,0,1-.51-.7,3.31,3.31,0,0,1-.31-.85,3.69,3.69,0,0,1-.1-1,5.28,5.28,0,0,1,.1-1,6.11,6.11,0,0,1,.32-1.06,7.91,7.91,0,0,1,.51-1.06,8.5,8.5,0,0,1,.68-1A9.28,9.28,0,0,1,425.89,381.25Z"/><path class="cls-17" d="M412.06,377.71a.37.37,0,0,0,.29.2c1.19.34,2.37.66,3.54,1.08a13.64,13.64,0,0,1,3.92,2.2,3.65,3.65,0,0,1,1.16,1.22,2.26,2.26,0,0,1,.15.39,6.58,6.58,0,0,1-.08,2.38,5,5,0,0,0,0,.67,5.61,5.61,0,0,0,1.71,3.84,6.4,6.4,0,0,0,5.66,1.19,10,10,0,0,0,3.11-1.42c-2.69,1.53-6.8,1.93-8.6-.91l-.09-.13a5.36,5.36,0,0,1-.49-2.05,7.62,7.62,0,0,1,.4-2.21,9.4,9.4,0,0,1,1-2.12,7.42,7.42,0,0,1,1.49-1.77l.38-.3a2.07,2.07,0,0,0,.38-.28.12.12,0,0,0,0-.11c0-.05-.05-.07-.1-.08a.92.92,0,0,0-.33,0l-.35.11c-1.18.46-2,2-3.37,1.86a2.35,2.35,0,0,1-1.45-.84c-.6-.58-1.09-1.26-1.71-1.82a6.55,6.55,0,0,0-3-1.75,5.87,5.87,0,0,0-2.57,0,5.11,5.11,0,0,0-.76.23.65.65,0,0,0-.23.13A.25.25,0,0,0,412.06,377.71Z"/><path class="cls-27" d="M410.21,394.3c-1.18,2.45-4.08,4-6.7,4.25a9.23,9.23,0,0,1-4.32-.61,6.66,6.66,0,0,1-3.9-4.41,5.22,5.22,0,0,1,.71-4c.67-1.06,2.24-2.06,2.18-2.86a9.58,9.58,0,0,0-.72-3.14,23.69,23.69,0,0,0-2.15-3.5c-.6-.68-1.06-1.18-.86-1.77S397,377,401,375.69a11.89,11.89,0,0,1,4.68-.35c1.26.13,2.66.58,3.11,1.76a7.09,7.09,0,0,1-.68,2.75,16.71,16.71,0,0,0-1.69,5.24,1.87,1.87,0,0,0,.6,1.66,7.94,7.94,0,0,1,3.4,3.75A4.6,4.6,0,0,1,410.21,394.3Z"/><path class="cls-15" d="M402.63,388.65a10.53,10.53,0,0,1,1.24-.1,9.74,9.74,0,0,1,1.22.08,7.1,7.1,0,0,1,1.15.24,6.79,6.79,0,0,1,1,.4,5.91,5.91,0,0,1,.88.54,4.33,4.33,0,0,1,.69.66,3.29,3.29,0,0,1,.48.77,3,3,0,0,1,.24.82,3.17,3.17,0,0,1,0,.87,3.35,3.35,0,0,1-.24.86,3.94,3.94,0,0,1-.48.84,4.88,4.88,0,0,1-.68.77,6.64,6.64,0,0,1-.88.68,6.77,6.77,0,0,1-1,.56,7.51,7.51,0,0,1-1.15.42,8.15,8.15,0,0,1-1.21.27,8.76,8.76,0,0,1-1.25.09,8.24,8.24,0,0,1-1.22-.07,7,7,0,0,1-1.14-.24,6.41,6.41,0,0,1-1-.4,5.91,5.91,0,0,1-.88-.54,4,4,0,0,1-.69-.66,3.29,3.29,0,0,1-.48-.77,3.38,3.38,0,0,1-.25-.82,3.17,3.17,0,0,1,0-.87,3.35,3.35,0,0,1,.24-.86,4.37,4.37,0,0,1,.47-.84,5.52,5.52,0,0,1,.69-.77,6,6,0,0,1,.88-.68,6.77,6.77,0,0,1,1-.56,7.39,7.39,0,0,1,1.14-.42A8.58,8.58,0,0,1,402.63,388.65Z"/><path class="cls-17" d="M393.47,377.71a.41.41,0,0,0,.12.32c.77,1,1.54,1.93,2.24,3a13.78,13.78,0,0,1,1.91,4.07,3.83,3.83,0,0,1,.23,1.67,2.62,2.62,0,0,1-.11.4,6.71,6.71,0,0,1-1.45,1.9,3.56,3.56,0,0,0-.41.53,5.61,5.61,0,0,0-.86,4.11,6.41,6.41,0,0,0,3.91,4.27,9.84,9.84,0,0,0,3.35.66c-3.08-.32-6.64-2.4-6.46-5.76a.77.77,0,0,1,0-.15,5.4,5.4,0,0,1,.79-2,7.23,7.23,0,0,1,1.62-1.55,9.18,9.18,0,0,1,2-1.17,7.23,7.23,0,0,1,2.24-.56l.48,0a2.57,2.57,0,0,0,.48,0s.09,0,.1-.07,0-.09,0-.12a1,1,0,0,0-.27-.18l-.36-.11c-1.23-.32-2.76.46-3.82-.46a2.38,2.38,0,0,1-.69-1.53c-.15-.82-.15-1.65-.32-2.48a6.66,6.66,0,0,0-1.38-3.14,5.9,5.9,0,0,0-2.11-1.48,6,6,0,0,0-.75-.26.59.59,0,0,0-.26,0A.24.24,0,0,0,393.47,377.71Z"/><path class="cls-27" d="M383.14,389.58c-2.4,1.29-5.64.81-7.92-.52a9.17,9.17,0,0,1-3.13-3,6.64,6.64,0,0,1-.55-5.86,5.21,5.21,0,0,1,2.92-2.8c1.16-.46,3-.34,3.44-1a9.47,9.47,0,0,0,1.28-3,23.17,23.17,0,0,0,.32-4.1c-.08-.9-.15-1.58.35-1.93s2.83.46,6.82,1.75a12.16,12.16,0,0,1,4,2.48c.94.85,1.81,2,1.47,3.26-.12.44-1.35,1.29-2.17,1.82a17,17,0,0,0-4.45,3.23,1.89,1.89,0,0,0-.5,1.7,8,8,0,0,1,.55,5A4.61,4.61,0,0,1,383.14,389.58Z"/><path class="cls-15" d="M372.67,381.47a2.88,2.88,0,0,1,.5-.7,3.25,3.25,0,0,1,.71-.56,3.85,3.85,0,0,1,.87-.4,5.49,5.49,0,0,1,1-.22,6.8,6.8,0,0,1,1.11,0,7.84,7.84,0,0,1,1.16.15,9.9,9.9,0,0,1,1.18.34,8.27,8.27,0,0,1,1.14.51,8.85,8.85,0,0,1,1.06.65,7.94,7.94,0,0,1,.94.78,7.22,7.22,0,0,1,.79.87,6.68,6.68,0,0,1,.6.93,6.45,6.45,0,0,1,.39,1,4.54,4.54,0,0,1,.17.94,3.82,3.82,0,0,1-.07.9,2.79,2.79,0,0,1-.29.81,2.88,2.88,0,0,1-.5.7,3.58,3.58,0,0,1-.71.56,4.35,4.35,0,0,1-.87.4,6.46,6.46,0,0,1-1,.22,7,7,0,0,1-2.27-.13,8.37,8.37,0,0,1-2.32-.84,8.85,8.85,0,0,1-1.06-.65,7.94,7.94,0,0,1-.94-.78,8.06,8.06,0,0,1-.79-.87,6.68,6.68,0,0,1-.6-.93,6.45,6.45,0,0,1-.39-1,4.54,4.54,0,0,1-.17-.94,3.82,3.82,0,0,1,.07-.9A2.79,2.79,0,0,1,372.67,381.47Z"/><path class="cls-17" d="M379.4,366.32a.38.38,0,0,0-.09.33c.05,1.23.1,2.46.07,3.7a13.82,13.82,0,0,1-.86,4.41,3.8,3.8,0,0,1-.8,1.48,1.64,1.64,0,0,1-.33.26,6.46,6.46,0,0,1-2.29.68,5.17,5.17,0,0,0-.64.19,5.64,5.64,0,0,0-3.12,2.81,6.44,6.44,0,0,0,.64,5.76,9.86,9.86,0,0,0,2.32,2.5c-2.3-2.07-3.95-5.85-1.82-8.45l.1-.12a5.23,5.23,0,0,1,1.8-1.11,7.17,7.17,0,0,1,2.22-.3,9,9,0,0,1,2.31.24,7.25,7.25,0,0,1,2.14.87l.41.26a2.14,2.14,0,0,0,.39.28s.08,0,.12,0a.14.14,0,0,0,0-.12.84.84,0,0,0-.12-.31,2.32,2.32,0,0,0-.22-.3c-.8-1-2.5-1.26-2.81-2.63a2.38,2.38,0,0,1,.34-1.64c.36-.75.85-1.42,1.2-2.19a6.68,6.68,0,0,0,.74-3.35,6.05,6.05,0,0,0-.83-2.44,5.87,5.87,0,0,0-.46-.65.8.8,0,0,0-.19-.18A.24.24,0,0,0,379.4,366.32Z"/><path class="cls-27" d="M362.71,370.51c-2.66-.58-4.81-3.06-5.68-5.54a9.31,9.31,0,0,1-.41-4.35,6.68,6.68,0,0,1,3.39-4.81,5.2,5.2,0,0,1,4-.23c1.18.41,2.52,1.71,3.28,1.46a9.5,9.5,0,0,0,2.89-1.42,23.4,23.4,0,0,0,2.91-2.9c.53-.74.91-1.31,1.52-1.25s1.85,2.19,4,5.76a11.89,11.89,0,0,1,1.42,4.47c.16,1.26.05,2.73-1,3.44a7,7,0,0,1-2.83,0,16.64,16.64,0,0,0-5.49-.44c-.28,0-1.26.29-1.48,1a8,8,0,0,1-2.85,4.19A4.66,4.66,0,0,1,362.71,370.51Z"/><path class="cls-15" d="M360,357.53a3,3,0,0,1,.84-.2,3.4,3.4,0,0,1,.9,0,3.87,3.87,0,0,1,.92.27,4.47,4.47,0,0,1,.91.49,6.92,6.92,0,0,1,.87.69,7.32,7.32,0,0,1,.78.88,8.1,8.1,0,0,1,.68,1,9,9,0,0,1,.53,1.13,8.58,8.58,0,0,1,.39,1.18,8.77,8.77,0,0,1,.21,1.21,7.69,7.69,0,0,1,0,1.17,6.48,6.48,0,0,1-.15,1.1,4.91,4.91,0,0,1-.33,1,4,4,0,0,1-.48.83,3.82,3.82,0,0,1-.63.64,3.11,3.11,0,0,1-.75.43,3,3,0,0,1-.84.2,3.42,3.42,0,0,1-.9,0,4,4,0,0,1-.92-.27,4.75,4.75,0,0,1-.91-.49,6.92,6.92,0,0,1-.87-.69,9.58,9.58,0,0,1-.78-.88,8,8,0,0,1-.67-1,8.34,8.34,0,0,1-.54-1.13,8.52,8.52,0,0,1-.38-1.18,8.77,8.77,0,0,1-.21-1.21,7.69,7.69,0,0,1,0-1.17,5.61,5.61,0,0,1,.14-1.1,4.91,4.91,0,0,1,.33-1,4.19,4.19,0,0,1,.48-.83,3.48,3.48,0,0,1,.63-.64A3.54,3.54,0,0,1,360,357.53Z"/><path class="cls-17" d="M375,350.39a.36.36,0,0,0-.29.19c-.77,1-1.52,1.94-2.35,2.86a14,14,0,0,1-3.52,2.8,3.88,3.88,0,0,1-1.57.6,2,2,0,0,1-.42,0,6.39,6.39,0,0,1-2.18-1,4.72,4.72,0,0,0-.61-.27,5.6,5.6,0,0,0-4.2.12,6.45,6.45,0,0,0-3.26,4.78,10.35,10.35,0,0,0,.14,3.42c-.39-3.07.8-7,4.11-7.61l.16,0a5.28,5.28,0,0,1,2.08.33A7,7,0,0,1,365,357.8a9.43,9.43,0,0,1,1.6,1.68,7.68,7.68,0,0,1,1.06,2,4.19,4.19,0,0,1,.14.47,1.83,1.83,0,0,0,.12.46.1.1,0,0,0,.19,0,.72.72,0,0,0,.11-.31,2.31,2.31,0,0,0,0-.37c0-1.27-1.09-2.58-.44-3.82a2.4,2.4,0,0,1,1.33-1c.77-.33,1.58-.53,2.34-.88a6.64,6.64,0,0,0,2.74-2.08,5.74,5.74,0,0,0,.95-2.38,4.33,4.33,0,0,0,.07-.8.58.58,0,0,0,0-.26A.24.24,0,0,0,375,350.39Z"/><path class="cls-27" d="M357.13,342.54c-1.77-2.07-2-5.34-1.18-7.84a9.36,9.36,0,0,1,2.3-3.71,6.67,6.67,0,0,1,5.62-1.78,5.21,5.21,0,0,1,3.35,2.26c.69,1,1,2.88,1.73,3.15a9.58,9.58,0,0,0,3.16.61,22.28,22.28,0,0,0,4.07-.55c.87-.27,1.52-.48,2-.07s.15,2.86-.27,7a11.79,11.79,0,0,1-1.58,4.42c-.62,1.1-1.6,2.21-2.86,2.13-.47,0-1.56-1.05-2.25-1.73a16.94,16.94,0,0,0-4.1-3.67,1.93,1.93,0,0,0-1.76-.12,8,8,0,0,1-4.81,1.6A4.6,4.6,0,0,1,357.13,342.54Z"/><path class="cls-15" d="M356.91,335.55a9.53,9.53,0,0,1,.41-1.17,8.61,8.61,0,0,1,.56-1.09,7.45,7.45,0,0,1,.69-1,5.75,5.75,0,0,1,.78-.78,5.19,5.19,0,0,1,.85-.59,4,4,0,0,1,.89-.36,3,3,0,0,1,.89-.13,2.78,2.78,0,0,1,.86.11,3,3,0,0,1,.79.34,3.74,3.74,0,0,1,.69.57,4.09,4.09,0,0,1,.58.77,5.36,5.36,0,0,1,.42.94,6.09,6.09,0,0,1,.27,1.08,8.93,8.93,0,0,1,.1,1.17,9,9,0,0,1-.33,2.44,9.58,9.58,0,0,1-.42,1.17,8,8,0,0,1-.56,1.09,8.51,8.51,0,0,1-.68.95,5.9,5.9,0,0,1-.79.79,5.12,5.12,0,0,1-.85.58,4.53,4.53,0,0,1-.89.37,3.83,3.83,0,0,1-.89.13,3.48,3.48,0,0,1-.85-.11,3.28,3.28,0,0,1-.79-.35,3.13,3.13,0,0,1-.7-.57,4.16,4.16,0,0,1-.57-.77,5.39,5.39,0,0,1-.43-.94,6.09,6.09,0,0,1-.27-1.08,7.4,7.4,0,0,1-.09-1.17,7.28,7.28,0,0,1,.08-1.22A7.55,7.55,0,0,1,356.91,335.55Z"/><path class="cls-17" d="M379.07,334a.37.37,0,0,0-.34,0c-1.2.31-2.39.63-3.61.86a13.81,13.81,0,0,1-4.49.09,3.8,3.8,0,0,1-1.62-.47,1.92,1.92,0,0,1-.32-.26,6.67,6.67,0,0,1-1.15-2.09,4.83,4.83,0,0,0-.32-.59,5.61,5.61,0,0,0-3.41-2.45,6.48,6.48,0,0,0-5.49,1.84,10.21,10.21,0,0,0-2,2.81c1.54-2.69,4.89-5.11,7.88-3.58l.14.08a5.17,5.17,0,0,1,1.46,1.52,7,7,0,0,1,.77,2.1,9,9,0,0,1,.25,2.31,7.09,7.09,0,0,1-.39,2.28c-.05.15-.11.3-.17.45a1.89,1.89,0,0,0-.19.44.13.13,0,0,0,0,.12.1.1,0,0,0,.12,0,.75.75,0,0,0,.28-.18,2.26,2.26,0,0,0,.25-.28c.78-1,.69-2.71,2-3.3a2.37,2.37,0,0,1,1.68,0c.81.2,1.57.54,2.4.71a6.54,6.54,0,0,0,3.43,0,6,6,0,0,0,2.21-1.32,5.88,5.88,0,0,0,.53-.59.79.79,0,0,0,.14-.23A.25.25,0,0,0,379.07,334Z"/><path class="cls-27" d="M373.52,337.68a7.51,7.51,0,0,1,1.39-7.82,7.59,7.59,0,0,1,3.41-2.59,8.37,8.37,0,0,1,6.69.87,7,7,0,0,1,2.84,3.8c.43,1.31.16,3.19.9,3.8.2.16.37.38.59.53a4.75,4.75,0,0,0,1,.43,20.2,20.2,0,0,0,2.42.56,8.2,8.2,0,0,0,2.47.13,1.06,1.06,0,0,1,.71.09.7.7,0,0,1,.25.58,1.69,1.69,0,0,1-.12.48c0,.12,0,.23-.08.36a5.5,5.5,0,0,1-.16.58,7.08,7.08,0,0,1-1.24,1.9l-3.28,3.94a11.1,11.1,0,0,1-2.17,2.16,1.54,1.54,0,0,1-1.47.3c-.55-.24-.72-.85-1-1.32s-.4-.77-.62-1.14a11.24,11.24,0,0,0-1.7-2.42c-.61-.6-1-1.51-1.95-1.74a4.75,4.75,0,0,0-1.25,0c-.92.08-2.84.61-4.72-.38A6.63,6.63,0,0,1,373.52,337.68Z"/><path class="cls-15" d="M383.39,329c2.32,1.71,2.52,5.34.46,8.11s-5.42,3.77-7.74,2.06-2.73-5.48-.66-8.25S381.07,327.33,383.39,329Z"/><path class="cls-17" d="M395.26,338.3l.1-.05a1.17,1.17,0,0,0,.42-.34.48.48,0,0,0,.05-.52,22.54,22.54,0,0,1-3.67-.31c-1.23-.24-2.91-.74-3.56-1.91a7.06,7.06,0,0,1-.58-2.52,4.86,4.86,0,0,0-.17-.71,7.6,7.6,0,0,0-2.84-4,8.07,8.07,0,0,0-6.58-.75,8.38,8.38,0,0,0-2.76,1.89c2.5-1.82,6.72-2.78,9.47.08l.13.13a6.8,6.8,0,0,1,1,2.22,7.52,7.52,0,0,1,.18,2.35,8.45,8.45,0,0,1-.45,2.31,6.13,6.13,0,0,1-1.13,2,3.61,3.61,0,0,1-.33.35,2.12,2.12,0,0,0-.34.33.13.13,0,0,0,0,.12.19.19,0,0,0,.13.07.81.81,0,0,0,.35,0,2.28,2.28,0,0,0,.36-.15c1.15-.57,1.59-2.24,3.15-2.21a2.55,2.55,0,0,1,1.62.75,7.33,7.33,0,0,0,1.68,1.09A4.47,4.47,0,0,0,395.26,338.3Z"/><path class="cls-27" d="M431.52,362a7.53,7.53,0,0,1-1.36,7.83,7.65,7.65,0,0,1-3.4,2.6,8.35,8.35,0,0,1-6.7-.84,7.07,7.07,0,0,1-2.85-3.79c-.43-1.31-.17-3.19-.91-3.79a7.23,7.23,0,0,0-.59-.53,4.35,4.35,0,0,0-1-.42,18.44,18.44,0,0,0-2.42-.56,8.53,8.53,0,0,0-2.47-.12,1.06,1.06,0,0,1-.71-.09.64.64,0,0,1-.25-.57,2,2,0,0,1,.11-.48c0-.12.05-.24.08-.36s.09-.4.16-.59a7.37,7.37,0,0,1,1.23-1.9l3.27-4a11.28,11.28,0,0,1,2.15-2.16,1.55,1.55,0,0,1,1.47-.31c.56.24.73.85,1,1.32s.4.77.62,1.14a11.58,11.58,0,0,0,1.71,2.41c.62.6,1.05,1.5,2,1.73a4.84,4.84,0,0,0,1.26,0c.92-.09,2.83-.62,4.71.36A6.68,6.68,0,0,1,431.52,362Z"/><path class="cls-15" d="M421.68,370.67c-2.32-1.7-2.54-5.33-.48-8.11s5.4-3.79,7.72-2.09,2.75,5.47.69,8.25S424,372.37,421.68,370.67Z"/><path class="cls-17" d="M409.78,361.46l-.1.05a1.33,1.33,0,0,0-.43.35.49.49,0,0,0,0,.52,21.54,21.54,0,0,1,3.67.29c1.23.24,2.91.72,3.56,1.89a7.14,7.14,0,0,1,.6,2.52,4.57,4.57,0,0,0,.17.71,7.52,7.52,0,0,0,2.86,4,8,8,0,0,0,6.58.72,8.12,8.12,0,0,0,2.75-1.9c-2.49,1.83-6.7,2.81-9.47,0l-.13-.14a7.09,7.09,0,0,1-1-2.21,7.27,7.27,0,0,1-.18-2.36,8.36,8.36,0,0,1,.43-2.3,6.24,6.24,0,0,1,1.12-2l.33-.35a1.77,1.77,0,0,0,.34-.33.13.13,0,0,0,0-.12.16.16,0,0,0-.14-.07.82.82,0,0,0-.35,0l-.36.15c-1.15.58-1.57,2.25-3.13,2.22a2.56,2.56,0,0,1-1.64-.74,6.89,6.89,0,0,0-1.68-1.08A4.41,4.41,0,0,0,409.78,361.46Z"/><path class="cls-27" d="M418.5,321.88a7.54,7.54,0,0,1,7.73,1.85,7.72,7.72,0,0,1,2.38,3.56,8.41,8.41,0,0,1-1.26,6.63,7.1,7.1,0,0,1-4,2.61c-1.33.35-3.19,0-3.84.67a5.92,5.92,0,0,0-.56.56,4,4,0,0,0-.49,1,17.48,17.48,0,0,0-.71,2.37,8.56,8.56,0,0,0-.28,2.47,1,1,0,0,1-.13.7.66.66,0,0,1-.59.21,2,2,0,0,1-.47-.14c-.12-.05-.23-.06-.35-.1a5.71,5.71,0,0,1-.58-.21,7.08,7.08,0,0,1-1.82-1.34l-3.74-3.51a11,11,0,0,1-2-2.29,1.55,1.55,0,0,1-.21-1.48c.28-.55.89-.68,1.38-.89s.79-.35,1.17-.55a11.71,11.71,0,0,0,2.52-1.55c.63-.58,1.56-1,1.84-1.85a4.37,4.37,0,0,0,.05-1.25c0-.93-.45-2.87.66-4.68A6.63,6.63,0,0,1,418.5,321.88Z"/><path class="cls-15" d="M426.54,332.25c-1.85,2.21-5.48,2.2-8.12,0s-3.44-5.63-1.6-7.84,5.64-2.4,8.28-.17S428.38,330,426.54,332.25Z"/><path class="cls-17" d="M416.59,343.54a.54.54,0,0,1,.05.11,1.28,1.28,0,0,0,.32.44.48.48,0,0,0,.52.08,22.31,22.31,0,0,1,.51-3.64c.32-1.22.92-2.86,2.12-3.44a7.4,7.4,0,0,1,2.55-.44,4.51,4.51,0,0,0,.72-.12,7.65,7.65,0,0,0,4.18-2.6,8.09,8.09,0,0,0,1.13-6.52,8.21,8.21,0,0,0-1.72-2.87c1.67,2.6,2.38,6.87-.63,9.45l-.15.12a7.14,7.14,0,0,1-2.27.9,7.49,7.49,0,0,1-2.36,0,8.22,8.22,0,0,1-2.28-.58,6.06,6.06,0,0,1-1.9-1.24,3.61,3.61,0,0,1-.33-.35,1.74,1.74,0,0,0-.31-.36.12.12,0,0,0-.12,0,.16.16,0,0,0-.07.13.82.82,0,0,0,0,.35,3,3,0,0,0,.13.36c.5,1.19,2.15,1.72,2,3.28a2.64,2.64,0,0,1-.84,1.58,6.92,6.92,0,0,0-1.19,1.61A4.45,4.45,0,0,0,416.59,343.54Z"/><path class="cls-27" d="M391.63,323.21a7.52,7.52,0,0,1,5.73-5.49,7.6,7.6,0,0,1,4.28-.08,8.37,8.37,0,0,1,4.9,4.65,7.08,7.08,0,0,1,0,4.74c-.43,1.31-1.76,2.67-1.52,3.59.07.26.08.54.17.78a4.42,4.42,0,0,0,.59,1,20.6,20.6,0,0,0,1.62,1.88,8.47,8.47,0,0,0,1.92,1.56,1,1,0,0,1,.52.49.68.68,0,0,1-.14.61,2,2,0,0,1-.38.32,3.08,3.08,0,0,0-.27.24,5.85,5.85,0,0,1-.49.38,7.19,7.19,0,0,1-2.11.8l-5,1.25a11.06,11.06,0,0,1-3,.47,1.56,1.56,0,0,1-1.36-.63,2.29,2.29,0,0,1,0-1.63c.07-.43.13-.86.17-1.29a11.2,11.2,0,0,0,.05-2.95c-.13-.85.05-1.84-.55-2.56a4.3,4.3,0,0,0-1-.71c-.79-.48-2.65-1.18-3.58-3.09A6.59,6.59,0,0,1,391.63,323.21Z"/><path class="cls-15" d="M404.69,322.06c.87,2.75-1.11,5.8-4.41,6.82s-6.6-.15-7.46-2.9,1-6,4.33-7.05S403.83,319.31,404.69,322.06Z"/><path class="cls-17" d="M408.82,336.54h.11a1.14,1.14,0,0,0,.55,0,.47.47,0,0,0,.34-.39,22,22,0,0,1-2.78-2.4c-.86-.93-1.91-2.32-1.75-3.64a7.4,7.4,0,0,1,1-2.39,4.51,4.51,0,0,0,.29-.67,7.6,7.6,0,0,0,.07-4.92,8.08,8.08,0,0,0-4.88-4.48,8.18,8.18,0,0,0-3.34-.1c3.09,0,7.06,1.71,7.61,5.65,0,.06,0,.12,0,.18a6.93,6.93,0,0,1-.48,2.4,7.16,7.16,0,0,1-1.24,2,8.12,8.12,0,0,1-1.72,1.6,5.91,5.91,0,0,1-2.08.93,3.73,3.73,0,0,1-.46.09,1.84,1.84,0,0,0-.47.06s-.08,0-.09.09,0,.1.07.14a.73.73,0,0,0,.31.17,2.49,2.49,0,0,0,.37.09c1.27.22,2.61-.87,3.84.08a2.52,2.52,0,0,1,.88,1.56,7.29,7.29,0,0,0,.71,1.87A4.47,4.47,0,0,0,408.82,336.54Z"/><path class="cls-27" d="M413.18,377.41a7.52,7.52,0,0,1-6.86,4,7.61,7.61,0,0,1-4.18-.92,8.37,8.37,0,0,1-3.67-5.66,7.07,7.07,0,0,1,1-4.62c.72-1.18,2.33-2.19,2.31-3.14a7.18,7.18,0,0,0,0-.8,4.47,4.47,0,0,0-.35-1.07,20,20,0,0,0-1.13-2.21,8.75,8.75,0,0,0-1.51-2,1,1,0,0,1-.39-.59.66.66,0,0,1,.28-.56,1.42,1.42,0,0,1,.44-.23c.11,0,.21-.12.32-.17a4,4,0,0,1,.56-.25,7.08,7.08,0,0,1,2.24-.29l5.13-.06a11.14,11.14,0,0,1,3.05.25,1.53,1.53,0,0,1,1.18.93c.18.58-.18,1.1-.38,1.59s-.33.8-.47,1.21a11.57,11.57,0,0,0-.74,2.86c-.06.85-.47,1.77-.05,2.61a4.32,4.32,0,0,0,.83.93c.66.65,2.31,1.76,2.77,3.84A6.68,6.68,0,0,1,413.18,377.41Z"/><path class="cls-15" d="M400.21,375.49c-.2-2.87,2.43-5.38,5.88-5.6s6.38,1.68,6.58,4.56-2.41,5.63-5.86,5.85S400.41,378.37,400.21,375.49Z"/><path class="cls-17" d="M399.57,360.46l-.11,0a1.26,1.26,0,0,0-.54-.1.51.51,0,0,0-.43.3,22.39,22.39,0,0,1,2.15,3c.62,1.1,1.32,2.7.85,3.95a7,7,0,0,1-1.54,2.08,5.26,5.26,0,0,0-.43.59,7.63,7.63,0,0,0-1.21,4.76,8.09,8.09,0,0,0,3.69,5.5,8.23,8.23,0,0,0,3.23.87c-3-.72-6.47-3.31-6.08-7.26a1.1,1.1,0,0,1,0-.18,6.92,6.92,0,0,1,1-2.22,7.15,7.15,0,0,1,1.68-1.66,8.31,8.31,0,0,1,2-1.16,6.18,6.18,0,0,1,2.24-.42,3.59,3.59,0,0,1,.47,0,1.87,1.87,0,0,0,.47,0s.09,0,.11-.06a.17.17,0,0,0,0-.15.85.85,0,0,0-.25-.25l-.35-.17c-1.18-.51-2.74.25-3.72-1a2.6,2.6,0,0,1-.49-1.73,7.32,7.32,0,0,0-.25-2A4.49,4.49,0,0,0,399.57,360.46Z"/><path class="cls-27" d="M433.12,339.43a7.52,7.52,0,0,1,4.88,6.26,7.62,7.62,0,0,1-.35,4.27,8.43,8.43,0,0,1-5.12,4.4,7.14,7.14,0,0,1-4.73-.44c-1.26-.55-2.47-2-3.42-1.87a6.82,6.82,0,0,0-.79.09,4.35,4.35,0,0,0-1,.49,18.85,18.85,0,0,0-2,1.41,8.34,8.34,0,0,0-1.75,1.76,1.16,1.16,0,0,1-.54.47.66.66,0,0,1-.59-.21,1.8,1.8,0,0,1-.28-.4c-.07-.11-.15-.2-.22-.3a4,4,0,0,1-.32-.52,6.91,6.91,0,0,1-.59-2.19c-.24-1.69-.49-3.38-.74-5.07a11.15,11.15,0,0,1-.15-3.05,1.54,1.54,0,0,1,.76-1.3,2.33,2.33,0,0,1,1.62.17c.42.11.84.22,1.27.3a11,11,0,0,0,2.93.35c.86-.05,1.82.23,2.6-.29a4.63,4.63,0,0,0,.81-.95c.55-.74,1.44-2.52,3.43-3.25A6.67,6.67,0,0,1,433.12,339.43Z"/><path class="cls-15" d="M432.94,352.55c-2.82.57-5.66-1.7-6.34-5.09s.83-6.55,3.65-7.13,5.9,1.64,6.57,5S435.76,352,432.94,352.55Z"/><path class="cls-17" d="M418.12,355.18l0,.11a1.28,1.28,0,0,0,0,.55.53.53,0,0,0,.36.38,22,22,0,0,1,2.67-2.53c1-.75,2.5-1.67,3.81-1.37a7.42,7.42,0,0,1,2.26,1.25,4.36,4.36,0,0,0,.64.35,7.57,7.57,0,0,0,4.89.57,8,8,0,0,0,4.95-4.39,8.17,8.17,0,0,0,.44-3.31c-.32,3.07-2.42,6.85-6.39,7h-.18a6.85,6.85,0,0,1-2.34-.71,7.44,7.44,0,0,1-1.87-1.45,7.93,7.93,0,0,1-1.41-1.87,5.93,5.93,0,0,1-.72-2.16c0-.16,0-.31,0-.47a1.55,1.55,0,0,0,0-.48s0-.08-.07-.09a.17.17,0,0,0-.14.05.83.83,0,0,0-.21.29,2.32,2.32,0,0,0-.13.37c-.34,1.23.61,2.68-.46,3.81a2.53,2.53,0,0,1-1.65.71,7.16,7.16,0,0,0-1.93.52A4.47,4.47,0,0,0,418.12,355.18Z"/><path class="cls-27" d="M375.11,359a7.51,7.51,0,0,1-4.05-6.83A7.64,7.64,0,0,1,372,348a8.39,8.39,0,0,1,5.64-3.71,7.09,7.09,0,0,1,4.63,1c1.18.71,2.2,2.31,3.16,2.29.26,0,.54,0,.79,0a5.27,5.27,0,0,0,1.08-.36,18.27,18.27,0,0,0,2.19-1.15,8.31,8.31,0,0,0,2-1.52,1.07,1.07,0,0,1,.6-.39.68.68,0,0,1,.56.27,2,2,0,0,1,.22.44,3.3,3.3,0,0,0,.18.32,5.69,5.69,0,0,1,.26.56,7.38,7.38,0,0,1,.3,2.24l.09,5.13a11.57,11.57,0,0,1-.23,3,1.54,1.54,0,0,1-.92,1.18,2.32,2.32,0,0,1-1.6-.37c-.39-.16-.8-.32-1.21-.46a11.54,11.54,0,0,0-2.86-.72c-.86,0-1.78-.46-2.62,0a4.65,4.65,0,0,0-.92.85c-.65.66-1.75,2.31-3.82,2.78A6.58,6.58,0,0,1,375.11,359Z"/><path class="cls-15" d="M377,346c2.88-.22,5.4,2.4,5.64,5.84s-1.64,6.4-4.52,6.61-5.64-2.37-5.88-5.82S374.08,346.24,377,346Z"/><path class="cls-17" d="M392,345.29a.42.42,0,0,0,0-.1,1.15,1.15,0,0,0,.1-.54.5.5,0,0,0-.3-.43,22.35,22.35,0,0,1-3,2.17c-1.1.62-2.69,1.34-4,.87a7.12,7.12,0,0,1-2.09-1.52,4.25,4.25,0,0,0-.59-.43,7.52,7.52,0,0,0-4.77-1.18,8,8,0,0,0-5.47,3.72,8.26,8.26,0,0,0-.86,3.24c.71-3,3.27-6.49,7.22-6.13l.19,0a7.05,7.05,0,0,1,2.23,1,7.52,7.52,0,0,1,1.67,1.66,8.31,8.31,0,0,1,1.16,2,6.15,6.15,0,0,1,.44,2.23c0,.16,0,.32,0,.48a1.5,1.5,0,0,0,0,.47.1.1,0,0,0,.06.1.16.16,0,0,0,.15,0,.85.85,0,0,0,.24-.26,2.26,2.26,0,0,0,.17-.35c.5-1.18-.26-2.73.94-3.72a2.56,2.56,0,0,1,1.73-.5,7.39,7.39,0,0,0,2-.27A4.44,4.44,0,0,0,392,345.29Z"/><path class="cls-27" d="M387.45,375.55a7.53,7.53,0,0,1-7.1-3.56,7.63,7.63,0,0,1-1.51-4,8.42,8.42,0,0,1,2.75-6.17,7.1,7.1,0,0,1,4.45-1.63c1.38,0,3.1.76,3.89.23.22-.15.48-.26.68-.42a4.64,4.64,0,0,0,.71-.88,18.34,18.34,0,0,0,1.23-2.15,8.48,8.48,0,0,0,.83-2.34,1.06,1.06,0,0,1,.29-.65.65.65,0,0,1,.62-.07,1.82,1.82,0,0,1,.43.24,2,2,0,0,0,.32.18c.17.11.36.21.51.33a4.27,4.27,0,0,1,1.66,2.29,5.49,5.49,0,0,1-.07,1.76,29.43,29.43,0,0,1-1.73,6.3,5.5,5.5,0,0,1-1.32,2.29,2.74,2.74,0,0,0-1.07,1.88c-.18.91-.22,2.89-1.71,4.41A6.58,6.58,0,0,1,387.45,375.55Z"/><path class="cls-15" d="M382,363.63c2.3-1.74,5.84-.89,7.9,1.88s2.07,6.27-.24,8-6,1.05-8.09-1.73S379.69,365.36,382,363.63Z"/><path class="cls-17" d="M394.25,354.9a.52.52,0,0,1,0-.11,1.28,1.28,0,0,0-.21-.51.53.53,0,0,0-.49-.2,21.55,21.55,0,0,1-1.33,3.43c-.59,1.12-1.54,2.58-2.85,2.87a6.94,6.94,0,0,1-2.58-.16,4.41,4.41,0,0,0-.73,0,7.58,7.58,0,0,0-4.66,1.58,8.06,8.06,0,0,0-2.59,6.09,8.47,8.47,0,0,0,1,3.19c-1-2.92-.75-7.23,2.78-9.06l.16-.08a6.75,6.75,0,0,1,2.42-.36,7.39,7.39,0,0,1,2.31.5,8.08,8.08,0,0,1,2.08,1.09,6.12,6.12,0,0,1,1.57,1.64,4.49,4.49,0,0,1,.24.42,1.88,1.88,0,0,0,.22.42s.06.06.11.05.08-.06.1-.11a.87.87,0,0,0,.07-.35,2.32,2.32,0,0,0-.05-.38c-.21-1.27-1.69-2.17-1.21-3.65a2.56,2.56,0,0,1,1.18-1.35,7.22,7.22,0,0,0,1.52-1.29A4.45,4.45,0,0,0,394.25,354.9Z"/><path class="cls-17" d="M405,340.62a8.29,8.29,0,0,1,1.72.17,8.62,8.62,0,0,1,1.64.5,8.51,8.51,0,0,1,1.52.81,8.21,8.21,0,0,1,1.33,1.09,8.73,8.73,0,0,1,1.1,1.33,8.87,8.87,0,0,1,.81,1.52,9.25,9.25,0,0,1,.5,1.65,8.69,8.69,0,0,1,0,3.42,9.25,9.25,0,0,1-.5,1.65,8.51,8.51,0,0,1-.81,1.52,8.73,8.73,0,0,1-1.1,1.33,8.21,8.21,0,0,1-1.33,1.09,9.25,9.25,0,0,1-1.52.82,8.59,8.59,0,0,1-1.64.49,8.74,8.74,0,0,1-3.43,0,8.47,8.47,0,0,1-1.65-.49,9.68,9.68,0,0,1-1.52-.82,8.71,8.71,0,0,1-2.42-2.42,8.83,8.83,0,0,1-1.31-3.17,8.69,8.69,0,0,1,0-3.42,8.5,8.5,0,0,1,.5-1.65,8.87,8.87,0,0,1,.81-1.52,8.71,8.71,0,0,1,2.42-2.42,8.87,8.87,0,0,1,1.52-.81,8.5,8.5,0,0,1,1.65-.5A8.27,8.27,0,0,1,405,340.62Z"/><path class="cls-27" d="M404.44,340a7.82,7.82,0,0,1,1.6.16,8.26,8.26,0,0,1,3,1.23,8.14,8.14,0,0,1,2.27,2.26,8.42,8.42,0,0,1,.76,1.42,8.3,8.3,0,0,1,.47,1.54,8.7,8.7,0,0,1,.16,1.61,8.59,8.59,0,0,1-.16,1.6,8.3,8.3,0,0,1-.47,1.54,8.42,8.42,0,0,1-.76,1.42,8.7,8.7,0,0,1-1,1.25,8.19,8.19,0,0,1-1.25,1,8,8,0,0,1-3,1.22,8.08,8.08,0,0,1-3.2,0,8,8,0,0,1-3-1.22,8.19,8.19,0,0,1-1.25-1,8.7,8.7,0,0,1-1-1.25,8.42,8.42,0,0,1-.76-1.42,8.3,8.3,0,0,1-.47-1.54,8.59,8.59,0,0,1-.16-1.6,8.7,8.7,0,0,1,.16-1.61,8.3,8.3,0,0,1,.47-1.54,8.42,8.42,0,0,1,.76-1.42,8.14,8.14,0,0,1,2.27-2.26,8.26,8.26,0,0,1,3-1.23A7.82,7.82,0,0,1,404.44,340Z"/><path class="cls-15" d="M397.91,347.14a6.87,6.87,0,0,1,.33-1.26,6.56,6.56,0,0,1,.57-1.16,6.8,6.8,0,0,1,1.76-1.89,6.28,6.28,0,0,1,1.12-.65,5.59,5.59,0,0,1,1.23-.42,6.91,6.91,0,0,1,1.29-.18,7,7,0,0,1,1.29.08,6.18,6.18,0,0,1,1.26.34,6.56,6.56,0,0,1,1.16.57,6.49,6.49,0,0,1,1,.78,6.16,6.16,0,0,1,.86,1,6.54,6.54,0,0,1,.65,1.12,6.37,6.37,0,0,1,.42,1.23,6.92,6.92,0,0,1,.18,1.28,7,7,0,0,1-.09,1.3,6.77,6.77,0,0,1-.33,1.25,6.33,6.33,0,0,1-.57,1.17,6.55,6.55,0,0,1-.79,1,6.63,6.63,0,0,1-1,.86,7,7,0,0,1-1.12.65,6.87,6.87,0,0,1-1.23.42,6.16,6.16,0,0,1-1.28.17,6.27,6.27,0,0,1-1.3-.08,6.57,6.57,0,0,1-1.25-.33,6.33,6.33,0,0,1-1.17-.57,6.55,6.55,0,0,1-1-.79,7.19,7.19,0,0,1-.86-1,7,7,0,0,1-.65-1.13,6.51,6.51,0,0,1-.42-1.22,6.73,6.73,0,0,1-.09-2.58Z"/><path class="cls-15" d="M66.22,391.05c0,1.37-.5,7.85-.67,9.28a34,34,0,0,1-1.38,5.73c.68,1.69,2.71,1.7,4.53,1.79l10.21.5c-.35-2-1.2-3-1.69-4.92-1.6-6.43-.17-12.95.4-19.9-1.92-.21-3.57-.14-5.5-.25-1.33-.07-6.12-3.52-6.06-2.09C66.18,384,66.16,388.92,66.22,391.05Z"/><path class="cls-15" d="M86.78,393.66c.22,1.08.53,3.37.62,4.46s.51,5.1.52,6.32c0,2.11-.34.34,0,2.42a.81.81,0,0,0,.21.5.88.88,0,0,0,.53.16,49.06,49.06,0,0,0,13.67-1.13c-.92-1.1-1.09-2.53-1.92-3.7-1.83-2.57-3.68-12.53-4.71-19.21-.12-.74-8.83,1.27-9.59,1.57s-1.55-.73-1.51.05a27.6,27.6,0,0,0,1,3.46C86.1,390.24,86.44,392,86.78,393.66Z"/><path class="cls-15" d="M106.69,298.22a8.55,8.55,0,0,1-.35,4.58c-.14.47-.61,1.33-.8,1.78-1.06,2.56-1.21,4-2.51,6.66a3,3,0,0,1-.56.83,2.51,2.51,0,0,1-1.49.6,6.92,6.92,0,0,1-1.73.41,1.45,1.45,0,0,1-1.12-.91,3.79,3.79,0,0,1-.2-1.42c-.06-6.48-.12-13.05,1.71-19.26,1.17.13,2.36,0,3.54.17a2.77,2.77,0,0,1,1.45.4,2.87,2.87,0,0,1,.84,1.3A33.29,33.29,0,0,1,106.69,298.22Z"/><path class="cls-28" d="M106.4,293.91c-3.7,0-4.54.52-6.93.31-.76-11.63-2.89-23.49-.24-34.86.42,1.09,4,2,4.69,1.31C102.85,279.36,105.62,285.18,106.4,293.91Z"/><path class="cls-29" d="M70.92,406.56a7.17,7.17,0,0,0,5.82-2.95c.19-.27.39-.58.71-.66a1.24,1.24,0,0,1,.94.28A35.21,35.21,0,0,0,84,406.68c2.4,1,5.52,2.83,8.08,3.19a8,8,0,0,1,2.75,1.28,2.48,2.48,0,0,1,1.07,1.19c.55,1,.43.59.36,1.72A3.43,3.43,0,0,1,94.65,417a5.2,5.2,0,0,1-1.81.21c-1.77.08-20.41.3-24.17.27l-5.52-.05c-1.1,0-1.44-.85-1.58-1.84a19.62,19.62,0,0,1-.15-3.43,18.89,18.89,0,0,1,1.5-6.58,4.47,4.47,0,0,1,1.67-2.21C65.2,405.56,68.92,406.56,70.92,406.56Z"/><path class="cls-30" d="M93.31,406.51a10.5,10.5,0,0,0,5.51-3.09,3.5,3.5,0,0,1,1-.8,2.28,2.28,0,0,1,2.11.24,9.49,9.49,0,0,1,1.67,1.44c2.55,2.41,5.9,3.76,9.17,5,1.87.74,7.26,2.36,7.81,2.65a2.63,2.63,0,0,1,1.31,2.51,2.24,2.24,0,0,1-.89,2,3.6,3.6,0,0,1-2.22.77c-10.86.33-21.76.44-32.62,0a.86.86,0,0,1-.65-.22.79.79,0,0,1-.13-.4,28.27,28.27,0,0,1,.08-9c.24-1.39.68-2.9,2-3.65a2.82,2.82,0,0,0,2.11,2.14A6.68,6.68,0,0,0,93.31,406.51Z"/><path class="cls-25" d="M68,362.55a64.25,64.25,0,0,0-3.09,22.09,83.14,83.14,0,0,1,13.26,1.26c1.1-8.23,2.21-16.52,4.87-24.39,1.18-3.51,2.67-6.91,4-10.37,3-7.91,6.43-15.78,6.88-24.23a47.9,47.9,0,0,0-4.84-24.65,1.85,1.85,0,0,0-.74-.89,1.89,1.89,0,0,0-1.18-.06,49.69,49.69,0,0,1-9.85,1.21c-1.11,0-1-.54-1.38.48-.22.63.29,2.16.37,2.84.21,1.78.37,3.57.5,5.36.49,7.2-.23,14.41-.77,21.62C75.22,343.78,70.17,356,68,362.55Z"/><path class="cls-31" d="M72.93,297.79c4.57,8.3,4.94,9.72,5.7,13,1.21,5.33,5.6,26.6,5.48,30.14a86.81,86.81,0,0,1-1.6,11.3,89.52,89.52,0,0,0,1.1,34.4,121.44,121.44,0,0,1,13.19-1.45c-1-8-.64-13.95-.6-19.83,0-4.88,3-15.95,3.38-17.85A165.32,165.32,0,0,0,102.91,327c1.45-16.3-.57-32.69-2.59-48.93a74.22,74.22,0,0,0-20.77-3c-1.2,0-3.35-.39-4.45.17s-1.85,2.58-2.33,3.6a22,22,0,0,0-2.08,9A19.86,19.86,0,0,0,72.93,297.79Z"/><path class="cls-32" d="M76.76,218.9c-2,2.22-3,6.22-3.09,9.18a30.43,30.43,0,0,0,.71,7.84q1,5.13,2.08,10.26a82.2,82.2,0,0,1,1.27,14.44c-.22,8.62-3.14,12-5.78,19,13,3.09,22.32,1.72,29.59,4.75.94-2.32,1.87-25.14,3.43-29.95a12.86,12.86,0,0,1,1.77-3.58c.8-1.09,1.82-2,2.53-3.14a11.55,11.55,0,0,0,1.6-6.13c-.09-3.71-3.25-6.92-5-9.9a69.68,69.68,0,0,1-3.94-8.13C100,219,94.29,216,89.62,214.7S80.12,215.09,76.76,218.9Z"/><path class="cls-33" d="M86.86,209.7a13.3,13.3,0,0,0-1.33,2.47,11.21,11.21,0,0,1-1.92,2.48c4.93,0,10.69,5.06,12.69,7.42,1.75,2.08,2.58,4.13,3.88,6.52,1.09-.91,1.45-3,1.51-5a13.29,13.29,0,0,1,1.25,3.75,7.15,7.15,0,0,0,.8-2.82c.47-3.47-3.08-7.49-3.82-8.41-2.11-2.59-2.12-2.77-4.9-4.63C93,210.09,88.75,207.42,86.86,209.7Z"/><path class="cls-15" d="M131.07,266.05a21,21,0,0,1,4.94.46,48.84,48.84,0,0,1,6.1,1.91,5,5,0,0,1,1.43,1.93c.34.71-4,2.78-4.35,2.94a14.1,14.1,0,0,1-5.51,1.12,19.09,19.09,0,0,1-2.69.3,54,54,0,0,1-6-.81c-1.77-.54-3.56-.57-5.17-1.34a7.49,7.49,0,0,1-2.5-1.9,2.47,2.47,0,0,1-.72-1.56,3,3,0,0,1,1.27-2.08,5.15,5.15,0,0,1,3.48-1.23,13.62,13.62,0,0,1,1.34.28,16.28,16.28,0,0,0,3.52.58C127.85,266.78,129.85,266.11,131.07,266.05Z"/><path class="cls-33" d="M85.83,218.58a9.33,9.33,0,0,0-7.41.8,8,8,0,0,0-3.24,6,16.47,16.47,0,0,0,.34,4.64q1.35,7.92,2.68,15.84c.61,3.63,1.23,7.26,2.06,10.84.45,1.91.95,3.81,1.52,5.69A8.4,8.4,0,0,0,83,265.1c1.1,1.49,3,2.15,4.76,2.61,1.16.31,2.34.56,3.51.82l5,1c2,.39,3.92.76,5.89,1.13s4.11.77,6.16,1.13,3.88.69,5.82,1c1.62.27,3.24.53,4.87.77a17.87,17.87,0,0,0,2.18.31c.39,0,.9-.39,1.24-.57-.44-.14-1-.23-1.46-.38-.14,0-.2-.51-.22-.67l-.06-.55a17.17,17.17,0,0,1-.08-2.15,10.61,10.61,0,0,1,.28-2.09c.07-.3.36-1.75.68-1.66s.43.07.7.13a3.77,3.77,0,0,0,.4.1,1,1,0,0,0-.41-.53,4,4,0,0,0-1-.33c-1.39-.35-2.78-.72-4.17-1.08l-5.65-1.49-5.53-1.45c-1.27-.33-2.54-.67-3.81-1l-7.54-1.86c-.43-.11-2.13-.54-2.16-1.7-.17-6.78-.72-22.2-1.28-27.32C90.83,226.77,90.45,220,85.83,218.58Z"/><path class="cls-15" d="M117.68,201.3c-.88,1-2.1,1.72-2.81,2.89a4.33,4.33,0,0,0-.65,3.6c.17.62.35,1.08.49,1.69s.1,1.21-.41,1.48c-.7.36-1.51,0-2.16.53s-.71,2.11-1.19,2.75-1,.66-1.61,1-1,1.17-1.57,1.58c-1.28.9-3.09.29-4.31-.68s-1.53-1.67-2.94-2.34c-.2.71-.58,2.7-1,4.51a104.37,104.37,0,0,0-10.94-7.3,24.19,24.19,0,0,0,1.17-7.18c-.06-1.44.33-2.85.23-4.29-.21-3.05.27-6.73,1.92-9.31A7.3,7.3,0,0,1,94,188c2.83-2.13,6.64-2.34,10.17-2.1a27.48,27.48,0,0,1,10,2.29c1.4.66,2.79,1.34,3.48,2.76s1.69,3.39,1.7,5.06A7.65,7.65,0,0,1,117.68,201.3Z"/><path class="cls-12" d="M113.69,185.08a20.21,20.21,0,0,0-11.09-3.87c-6.56-.25-9.85,4.59-11.19,7.38-2.7,5.66-1.29,12.85-4.14,18.55-1.83,3.66-6.24,6.36-8.77,8.54-10.07,8.7-5.12,16.48-4.62,34.45.06,2,3.23,1.75,3.55,1.75a134,134,0,0,0-2.91-15.24A30,30,0,0,1,74.05,225c.81-4.73,5.51-9.52,11.87-10,4.52-.36,12.6-2.31,16.34-7.54.56-.77,2.43-4.1,2.7-4.41,3.51-4.19,11.91.94,13.69-8.26a8.7,8.7,0,0,1-1,6.53C124.73,193.4,115.41,186.31,113.69,185.08Z"/><path class="cls-32" d="M436.43,67.09A7.86,7.86,0,1,1,444.29,75,7.86,7.86,0,0,1,436.43,67.09Z"/><path class="cls-8" d="M444.33,74.21A7.19,7.19,0,1,1,451.51,67,7.18,7.18,0,0,1,444.33,74.21Zm-.13-16.44a9.36,9.36,0,1,0,9.36,9.35A9.35,9.35,0,0,0,444.2,57.77Z"/><path class="cls-4" d="M444.42,70.56a3.75,3.75,0,1,1,3.74-3.74A3.75,3.75,0,0,1,444.42,70.56Zm0-9.34a5.6,5.6,0,1,0,5.59,5.6A5.6,5.6,0,0,0,444.42,61.22Z"/><path class="cls-4" d="M447.57,66.82a3.15,3.15,0,1,1-3.15-3.16A3.15,3.15,0,0,1,447.57,66.82Z"/><path class="cls-12" d="M389.39,75.17c-.32-.92-1.79-.73-3-.21-1,.41-.47,1.52-.25,2.45a102.23,102.23,0,0,0,4.08,12.66c1.6,3.54,5.32,9.38,13.57,9,5.69-.29,8.81-2.51,11.59-8.83A90.19,90.19,0,0,0,420.23,76c0-.62-.19-1-1-1.21s-1.64-.37-1.9.12-3.7,12.79-5.57,15.88S408,96,403.65,95.94s-8.73-1.32-11.52-11C389.82,77,389.39,75.17,389.39,75.17Z"/><path class="cls-8" d="M387.86,73.39c-1.35-4.77-3.4-12.69-3.4-19.65q0-.66,0-1.29c.33-8.1,3.85-10.87,6.19-11.35a15.61,15.61,0,0,1,3.16-.28c1.9,0,3.84.22,5.23.34L399.2,40h0c-1.37-.12-3.36-.34-5.36-.34a17,17,0,0,0-3.47.31c-3.15.67-6.87,4.09-7.2,12.44,0,.43,0,.88,0,1.33,0,7.24,1.71,14.43,3.3,20Z"/><path class="cls-32" d="M397.56,41.93c-.2-.09-.29-.46-.27-1.1s.08-1.48.4-1.61a7.66,7.66,0,0,1,2.81-.58,2.07,2.07,0,0,1,2.23,1.9,2,2,0,0,1-2.21,2.34A4.84,4.84,0,0,1,397.56,41.93Z"/><path class="cls-8" d="M423.75,52.6c-.12-8.34-3.76-11.83-6.9-12.56a16.9,16.9,0,0,0-3.46-.37c-2,0-4,.14-5.37.24l.1,1.16c1.4-.1,3.35-.28,5.24-.25a16.19,16.19,0,0,1,3.16.34c2.32.53,5.77,3.36,5.92,11.46,0,.42,0,.85,0,1.29-.16,7-2.51,14.89-4,19.6.3,0,1.3.3,1.62.36,1.44-4.83,3.52-12.79,3.7-19.93C423.76,53.49,423.76,53,423.75,52.6Z"/><path class="cls-32" d="M410.21,41.76c.2-.09.28-.47.23-1.11s-.14-1.47-.47-1.59a7.65,7.65,0,0,0-2.83-.47,2.08,2.08,0,0,0-2.15,2,2,2,0,0,0,2.31,2.24A4.83,4.83,0,0,0,410.21,41.76Z"/><path class="cls-12" d="M443.71,111.7q-.18.57-.42,1.14a19.64,19.64,0,0,1-12.51,4.74,13.45,13.45,0,0,1-7.36-2,11.64,11.64,0,0,1-4.74-6.4,17.4,17.4,0,0,1-.92-5.37,11.84,11.84,0,0,1,4.16-9.25,15.11,15.11,0,0,1,9.85-3.43h0a18,18,0,0,1,3.4.33c5.18,1,9.55,6.39,9.56,13.87A21.45,21.45,0,0,1,443.71,111.7Zm4.4-37.18-2.6.57c2.05,5.5,4.42,12.78,4.41,20.3a30.34,30.34,0,0,1-1.9,10.86,14.67,14.67,0,0,1-.83,1.8,21.36,21.36,0,0,0,.18-2.74c0-8.49-5-15.13-11.7-16.46a20.7,20.7,0,0,0-3.9-.38,17.7,17.7,0,0,0-11.56,4.07,14.47,14.47,0,0,0-5.08,11.25,20,20,0,0,0,1,6.19,14.35,14.35,0,0,0,5.82,7.79,16.06,16.06,0,0,0,8.79,2.44,21.9,21.9,0,0,0,8.63-1.86,22.71,22.71,0,0,1-3.69,2.9,25.08,25.08,0,0,1-13.13,4A18.19,18.19,0,0,1,416,124c-6.07-2.39-8.9-6.12-10.41-9.89a16.66,16.66,0,0,1-.86-7.66c.12-.33,2.44-6.44,2.52-6.64a16.45,16.45,0,0,1-3.44.59,14.54,14.54,0,0,1-5-.58l2.71,6.64h0a26,26,0,0,0,1.61,8.62c1.68,4.31,5.18,8.76,11.9,11.37a20.67,20.67,0,0,0,7.51,1.35,27.61,27.61,0,0,0,14.55-4.37,22.13,22.13,0,0,0,8.32-9,19.22,19.22,0,0,0,5-7.25,32.81,32.81,0,0,0,2.08-11.8C452.55,87.5,450.16,80.07,448.11,74.52Z"/><path class="cls-34" d="M130,209.62a4.54,4.54,0,0,1,6.2,1.72l.06.1,2.18,3.87c.37.64.76,1.27,1.13,1.9l1.13,1.89,1.17,1.86c.4.61.77,1.25,1.18,1.85l1.21,1.81c.4.61.82,1.19,1.24,1.78s.82,1.19,1.25,1.76l1.28,1.71c.43.56.88,1.11,1.31,1.66s.89,1.08,1.34,1.61l0,0,.6-1a38.28,38.28,0,0,0,3.21-7.47,64.16,64.16,0,0,0,2.08-8.54c.26-1.46.48-2.95.65-4.43.09-.74.17-1.48.23-2.2,0-.37.06-.73.08-1.08l0-.51v-.38h0v0a11.69,11.69,0,0,1,.17-1.42A10.88,10.88,0,1,1,179.15,210l-.05.26,0,.25-.05.21-.08.39-.16.74c-.11.48-.22,1-.34,1.42-.23.93-.48,1.85-.74,2.76q-.76,2.73-1.7,5.4a83.34,83.34,0,0,1-4.46,10.59c-.88,1.74-1.86,3.47-2.94,5.17a49.29,49.29,0,0,1-3.64,5c-.67.82-1.39,1.61-2.15,2.4s-1.58,1.53-2.44,2.26a28.48,28.48,0,0,1-2.74,2.07,26.16,26.16,0,0,1-3.05,1.78l-.67.34a7.2,7.2,0,0,1-8.06-1.12l-.16-.15-.08-.07,0,0,0,0-.17-.17-.16-.17-.15-.16-.52-.59-.46-.56c-.16-.19-.31-.37-.44-.55-.28-.36-.57-.72-.82-1.08l-.76-1.07c-.25-.35-.48-.71-.72-1.06s-.47-.71-.68-1.07c-.44-.71-.9-1.41-1.3-2.12s-.84-1.42-1.21-2.14-.78-1.42-1.15-2.13l-1.08-2.15c-.37-.71-.69-1.43-1-2.15s-.69-1.43-1-2.16l-.95-2.16c-.32-.72-.6-1.45-.9-2.17l-.89-2.17-.84-2.19c-.27-.72-.56-1.45-.83-2.18l-1.55-4.38A4.55,4.55,0,0,1,130,209.62Z"/><path class="cls-35" d="M133.37,223.32c3.74,5.79,6.81,12.75,12.7,16.7a9.83,9.83,0,0,0,7.67,1.42c3.35-.74,5.64-3.65,6.66-6.77,1.25-3.85.46-7.86.76-11.79a65.15,65.15,0,0,1,2-7.37,41.62,41.62,0,0,0,1.93-10,6.62,6.62,0,0,0-3.36-6A10.88,10.88,0,0,1,179.15,210l-.05.26,0,.25,0,.21-.08.39-.16.74c-.11.48-.22,1-.34,1.42-.23.93-.48,1.85-.74,2.76q-.76,2.73-1.7,5.4a83.34,83.34,0,0,1-4.46,10.59c-.89,1.74-1.86,3.47-2.94,5.17a50.87,50.87,0,0,1-3.64,5c-.67.82-1.39,1.62-2.15,2.4s-1.58,1.53-2.44,2.26a28.48,28.48,0,0,1-2.74,2.07,26.16,26.16,0,0,1-3.05,1.78l-.67.34a7.19,7.19,0,0,1-8.06-1.12l-.16-.15-.08-.07,0,0,0,0-.17-.17-.16-.17-.15-.16-.53-.59-.46-.56c-.15-.18-.3-.37-.43-.55-.28-.36-.57-.72-.82-1.08l-.76-1.07c-.25-.35-.48-.71-.72-1.06s-.47-.71-.69-1.07c-.43-.71-.89-1.41-1.29-2.12s-.84-1.42-1.21-2.14-.78-1.42-1.15-2.13l-1.08-2.15c-.37-.71-.69-1.43-1-2.15s-.68-1.43-1-2.16l-.95-2.16c-.32-.72-.6-1.45-.91-2.17l-.89-2.17-.83-2.19c-.28-.72-.56-1.45-.83-2.18l-1.55-4.38a4.48,4.48,0,0,1-.19-2.32A61.21,61.21,0,0,0,133.37,223.32Z"/><path class="cls-36" d="M157.43,411.51a36,36,0,0,0,7.73-5.34l9.53.11s3.57,8.13,1.34,11.06H154.29S153.73,413.17,157.43,411.51Z"/><path class="cls-37" d="M170.74,413a6.89,6.89,0,0,0,.14-6.79l3.81,0s3.57,8.13,1.34,11.06h-9.21A14.18,14.18,0,0,0,170.74,413Z"/><path class="cls-36" d="M191.89,411.51a19.48,19.48,0,0,0,6.48-5.35l10.78.12s3.58,8.13,1.35,11.07H188.76S188.19,413.17,191.89,411.51Z"/><path class="cls-37" d="M204.92,411.33a7.59,7.59,0,0,0-.57-5.1l4.8,0s3.58,8.13,1.35,11.07h-9.35A10.76,10.76,0,0,0,204.92,411.33Z"/><path class="cls-34" d="M199.71,199c8.34,3.58,10.57,12.42,9.45,20.11l-9.61,41.61-33.19,2.39s-6.44-35-6.61-40.67-2.09-12.69-.65-16.62C165,189.66,184.16,192.34,199.71,199Z"/><path class="cls-34" d="M184.94,299.53c-2.54,7.08-9,56.28-7.49,88.41.62,13.08-2.76,18.34-2.76,18.34l-9.53-.11s-5.43,0-7.8-35.16a449.82,449.82,0,0,1,3.06-86.73C166.44,269.15,184.94,299.53,184.94,299.53Z"/><path class="cls-34" d="M199.35,259c11.28,19.72,8.48,42.2,8.16,44.44-.21,11.83-1.15,23.86-1.07,34.77.15,18.55,4.62,36,4.79,51.25.15,13.53-2.08,16.87-2.08,16.87l-10-.12c-8.69-8.26-17.93-75.92-20.71-97.75-10.93,1.58-20.75,2.93-20.75,2.93s3.41-45.76,8.71-53.61C173,247.93,199.35,259,199.35,259Z"/><path class="cls-35" d="M182.54,257.28c5.68-8.16,7.9-18.42,8.43-27.71a35,35,0,0,0,10.36-8.52c2.62-3.26,5-6.78,5.17-11.12a10.41,10.41,0,0,0-1.6-5.6,21.31,21.31,0,0,0-1.4-1.88l-.63-.82-.15-.23a9.65,9.65,0,0,0-1.44-1.6c7.05,4,8.93,12.16,7.88,19.34l-9.61,41.61-30,10C171.14,269.91,181.46,258.84,182.54,257.28Z"/><path class="cls-35" d="M166.52,404.62a7,7,0,0,0,4.09-2,6.82,6.82,0,0,0,1.84-3.15,90.19,90.19,0,0,0,1.38-17c-1.41-36.13,6.18-80.45,6.83-81.62.27-.48.55-.95.84-1.42-.66,8.85-.89,17.74-.92,26.62-2.19,18.61-4,43.15-3.13,61.88.62,13.08-2.76,18.34-2.76,18.34l-9.53-.11s-.76,0-1.83-1.83A7.63,7.63,0,0,0,166.52,404.62Z"/><path class="cls-35" d="M202.38,279.92c-1.55-5.43-4.49-11.29-9.85-13.65a19.58,19.58,0,0,0,4.65-8.15c1.36.5,2.17.83,2.17.83,11.28,19.72,8.48,42.2,8.16,44.44-.21,11.83-1.15,23.86-1.07,34.77.15,18.55,4.62,36,4.79,51.25.15,13.53-2.08,16.87-2.08,16.87l-10-.12c-1.87-1.78-3.76-6.3-5.61-12.53a7.32,7.32,0,0,0,7.42,2.49c3.14-.71,5.09-3.85,5.24-6.89.34-6.86-1-13.66-1.92-20.44a78.17,78.17,0,0,1-.7-10.14c0-3.08.17-6.16.32-9.24.76-15.77,1.89-31.56,1.31-47.35C204.9,294.69,204.41,287,202.38,279.92Z"/><path class="cls-34" d="M178.72,154.48c8.43,0,16.84,1.69,17.26,17.87.52,19.86-7.65,27.2-7.65,27.2s-6.5,3.67-16.89-2.06c-4.83-2.66-5.53-24.52-5.21-28.91C166.81,160.65,167,154.44,178.72,154.48Z"/><path class="cls-35" d="M167.61,170.21a27.33,27.33,0,0,0,6-1c1,0,2-.09,3-.16a28.92,28.92,0,0,0,7.34-1.17,9.76,9.76,0,0,0,4.84-3.27c1.46-1.88,2.31-4.74,1.38-7.07l-.2-.48c3.42,2.38,5.8,6.87,6,15.28.52,19.86-7.65,27.2-7.65,27.2s-6.5,3.67-16.89-2.06c-4.39-2.42-5.36-20.64-5.27-27.27C166.65,170.23,167.13,170.23,167.61,170.21Z"/><path class="cls-38" d="M185,170s2.4,5.42,1,10.6-4.08,11.49-9.18,11.9-8.54-5.21-9-8.73.11-13.88.11-13.88C173.11,163.1,185,170,185,170Z"/><path class="cls-39" d="M186.08,180.58s-1.85,12.83-10.68,11.85S167.61,180,167.61,180,170.71,173.78,186.08,180.58Z"/><path class="cls-40" d="M200.34,257.48l.85,2c-5.34,2.24-11.55,2.95-17.32,2.95a84.06,84.06,0,0,1-18.77-2.16l.18-2.23C165.49,258.13,186.41,263.31,200.34,257.48Z"/><path class="cls-40" d="M192.14,194.37l.9,2a30,30,0,0,1-12.44,2.8A25.5,25.5,0,0,1,168.16,196a7.91,7.91,0,0,0,.65-2.17C170.72,195,179.93,199.86,192.14,194.37Z"/><path class="cls-40" d="M170.19,222.69c.27-15.3,3.83-25.38,4-25.8l2.07.75c0,.1-3.59,10.15-3.85,25.09,0,1.88-.12,4.36-.22,7.24-.62,17.45-2.54,50,4,63.64H175c-6.75-14.13-5.69-46.08-5.07-63.72C170.07,227,170.16,224.55,170.19,222.69Z"/><path class="cls-34" d="M162.13,273.94c1.15-1,31.11-19.76,31.15-19.85s-3.59-32.55-4.41-38.55a10.33,10.33,0,0,1,18.95-7.2c2.33,3.75,1.67,9,1.74,13.2.11,6.6.05,26.87-.13,33.47-.15,5.57-4.24,9.27-7.77,12C192,274.55,176.15,280.09,164,280.9,159.92,281.17,159,276.56,162.13,273.94Z"/><path class="cls-35" d="M177.87,276a43.35,43.35,0,0,0,11-5.22c3-2,5.64-4.43,8.46-6.64a34.66,34.66,0,0,0,7.58-7.52A12.5,12.5,0,0,0,207,250c.07-1.88,1.63-33-.44-43.22a9.63,9.63,0,0,1,1.23,1.59c2.33,3.75,1.67,9,1.74,13.2.11,6.6,0,26.87-.13,33.47-.15,5.57-4.24,9.27-7.77,12C192,274.55,176.15,280.09,164,280.9a3.66,3.66,0,0,1-2.68-.78,6.68,6.68,0,0,0,1.45-.25C165,279.22,175.61,276.7,177.87,276Z"/><path class="cls-41" d="M187.57,194.48s-5.66,5.15-13.28,4.59-7.68-4.24-7.68-4.24l-1.15-25.5,24.29.24Z"/><path class="cls-4" d="M167.16,194.81s.22,3.21,7.17,3.71c6.6.49,11.76-3.51,12.71-4.31l2.11-24.1L166,169.88Zm-1.7-26h0l24.29.25a.55.55,0,0,1,.55.6l-2.18,24.91a.59.59,0,0,1-.18.36,20.1,20.1,0,0,1-12.48,4.78c-.4,0-.8,0-1.21,0-8-.59-8.19-4.61-8.19-4.77l-1.15-25.5a.55.55,0,0,1,.55-.58Z"/><path class="cls-42" d="M169,177.44c-.48,4.29-1.16,8.55-1.75,12.83-.2,1.47-.41,2.94-.61,4.41l-1.14-25.35,4.32,0C169.52,172.06,169.27,174.75,169,177.44Z"/><path class="cls-42" d="M185.15,169.52l4.6,0-2.18,24.91a20.36,20.36,0,0,1-5.94,3.47q.5-3.63,1-7.26C183.61,183.66,184.52,176.6,185.15,169.52Z"/><path class="cls-43" d="M195.42,166l.41,3.3s-17.45,1.54-31.35.7l.11-3.54S177.86,166.5,195.42,166Z"/><path class="cls-36" d="M150.41,276.27h9.49l1.51,2.62c1.65,8.43-7.59,6.61-7.59,6.61L150,288.9l-3.66-1.35a58.44,58.44,0,0,1-1.1-6.1C145.2,280.25,150.41,276.27,150.41,276.27Z"/><path class="cls-37" d="M151.59,283.78c.06-.26.13-.52.2-.78,0,0,0-.05,0-.07l.12-.12,0,0,.23-.08c1.26-.33,2.57-.42,3.86-.64a13.46,13.46,0,0,0,4.71-1.78,8.86,8.86,0,0,0,.77-.55c.89,7.47-7.72,5.77-7.72,5.77l-2.71,2.38a6.4,6.4,0,0,0,.42-2.24Q151.53,284.71,151.59,283.78Z"/><path class="cls-36" d="M164,277a4.64,4.64,0,0,1,0,3.88l-2.44.39-6.9-5,7.16-1.7A4.33,4.33,0,0,1,164,277Z"/><path class="cls-36" d="M124.47,195.24a3.61,3.61,0,0,1-1.71-1.2c-.48-.8-.07-1.23-.07-1.23s3.79-.44,5,.2,4.4,4.78,4.58,5.15c1.19,2.43,1.73,10.67,1.73,10.67l.85,2,.21.48a3.76,3.76,0,0,1-1.37,4.69l-.05,0a3.76,3.76,0,0,1-5.68-2.14l-.48-1.73a10.59,10.59,0,0,1-2.94-3.13c-.27-.83-1.81-5-1.81-5s1.11-1.8,1.8-2.69A46.77,46.77,0,0,1,128,198l-1.41-2.35Z"/><path class="cls-37" d="M125.6,206.65a8.37,8.37,0,0,0,3.6,2.19,7.41,7.41,0,0,0,3.4.22,9.35,9.35,0,0,0,1.38-.28v.05l.85,2,.21.48a3.76,3.76,0,0,1-1.37,4.69l-.05,0a3.76,3.76,0,0,1-5.68-2.14l-.48-1.73a10.59,10.59,0,0,1-2.94-3.13c-.27-.83-1.81-5-1.81-5s.32-.51.72-1.12A9.77,9.77,0,0,0,125.6,206.65Z"/><path class="cls-36" d="M120.64,194.82s1.82-.12,2-.12,3.35,1.11,3.35,1.11l2.5,2.35-1.68,2.72-3.43-3.38-1.47-.48s-1.43-.36-1.66-1A1.07,1.07,0,0,1,120.64,194.82Z"/><path class="cls-36" d="M120.26,197.39c.22-.06,2.88-.13,2.88-.13l2.22,1.49,1,2-1.8.61-2.22-1.91s-1.62,0-2.07-.08a1,1,0,0,1-.89-1.15C119.53,197.35,120,197.45,120.26,197.39Z"/><path class="cls-36" d="M120.86,200.13a3.56,3.56,0,0,1,1.69.1,13.65,13.65,0,0,1,2.08,1.56L122.72,204a17.65,17.65,0,0,0-1-1.8c-.25-.29-1.25-.22-1.59-.48a1.1,1.1,0,0,1-.47-1.3A4.88,4.88,0,0,1,120.86,200.13Z"/><path class="cls-43" d="M127.47,187.35l-.69,15.58a1.73,1.73,0,1,1-3.46-.15l.69-15.59Z"/><path class="cls-40" d="M124.25,184.88l3.27.17a.44.44,0,0,1,.42.46l-.07,1.67a.44.44,0,0,1-.46.42l-3.32-.18a.44.44,0,0,1-.41-.46l.12-1.66A.44.44,0,0,1,124.25,184.88Z"/><path class="cls-44" d="M126.37,192.23,126,202.89a.91.91,0,0,1-.91.87h0a.91.91,0,0,1-.87-.95l.42-10.75Z"/><path class="cls-36" d="M125.82,197.38c.17.19,4.09,3.67,4.29,3.73s.69,1.78,1.37,2.69a7.07,7.07,0,0,1,.8,3c.39,2.09-5.37-1.06-5.46-1.78a30.39,30.39,0,0,0-.34-3.27,9.79,9.79,0,0,0-2.22-2.17,2.46,2.46,0,0,1-.67-2.88C124.18,196,125.65,197.2,125.82,197.38Z"/></g></g></svg>