<svg xmlns="http://www.w3.org/2000/svg" width="478.981" height="411.243" viewBox="0 0 478.981 411.243">
  <g id="Grupo_1887" data-name="Grupo 1887" transform="translate(-1295.054 7964.216)">
    <g id="Grupo_1885" data-name="Grupo 1885" transform="matrix(-0.998, -0.07, 0.07, -0.998, 1762.187, -7546.414)" opacity="0.58">
      <path id="Trazado_7440" data-name="Trazado 7440" d="M.751,222.639C9.146,139.168,137.28-8.285,223.278.364s97.3,170.125,88.9,253.6S227.263,398.084,141.265,389.435-7.643,306.109.751,222.639Z" transform="translate(94.019 0)" fill="#fefefe" opacity="0.26" style="isolation: isolate"/>
      <path id="Trazado_7441" data-name="Trazado 7441" d="M5.147,55.016C27.48,6.929,128.742-8.934,212.38,4.685s216,75.74,197.737,187.885C403.01,236.222,356.756,314.509,184.067,263,88.222,234.416-25.7,121.439,5.147,55.016Z" transform="translate(58.64 31.339)" fill="#fefefe" opacity="0.34" style="isolation: isolate"/>
      <path id="Trazado_7442" data-name="Trazado 7442" d="M0,174.953C0,91.333,150.51,0,233.54,0S405.779,91.333,405.779,174.953,370.748,315.2,248.138,251.8C174.274,213.6,0,258.574,0,174.953Z" transform="translate(25.378 53.283)" fill="#cfeef6" opacity="0.28" style="isolation: isolate"/>
      <path id="Trazado_7444" data-name="Trazado 7444" d="M49.384,7.723c4.771,8.877-3.394,35.025-16.612,42.129S6.29,42.329,1.519,33.452,3.593,11.618,16.811,4.515,44.612-1.152,49.384,7.723Z" transform="translate(0 118.105)" fill="#fefefe" opacity="0.5" style="isolation: isolate"/>
      <path id="Trazado_7445" data-name="Trazado 7445" d="M.729,28.884c-2.96-5.517,3.459-22.474,12.7-27.434s17.8,3.96,20.759,9.475S32.056,24.932,22.818,29.891,3.689,34.4.729,28.884Z" transform="translate(396.727 320.628)" fill="#fefefe" opacity="0.5" style="isolation: isolate"/>
    </g>
    <g id="Grupo_1886" data-name="Grupo 1886" transform="translate(-37.667 -10906.352)">
      <ellipse id="Elipse_604" data-name="Elipse 604" cx="225.5" cy="6.57" rx="225.5" ry="6.57" transform="translate(1335 3228.171)" fill="#333"/>
      <g id="Grupo_1779" data-name="Grupo 1779" transform="translate(1343.59 3060.484)">
        <circle id="Elipse_605" data-name="Elipse 605" cx="23.577" cy="23.577" r="23.577" transform="translate(234.661 127.305)" fill="#242424"/>
        <circle id="Elipse_606" data-name="Elipse 606" cx="23.577" cy="23.577" r="23.577" transform="translate(9.664 150.882) rotate(-45)" fill="#242424"/>
        <path id="Trazado_7806" data-name="Trazado 7806" d="M1365.994,3197.424a13.944,13.944,0,0,0,.495,3.762,11.794,11.794,0,0,0,3.482,5.633c2.849,2.593,6.985,3.953,11.592,3.953h51.064v.595h283.031c9.642,0,17.46-6.191,17.46-15.833v-31.785c0-.994-.008-1.991-.028-2.984-.016-1.077-.04-2.154-.08-3.231,0-.16-.008-.319-.016-.479-.032-1.057-.08-2.114-.132-3.171,0-.032,0-.06,0-.092-.008-.128-.012-.251-.02-.379q-.227-4.26-.65-8.509l-.024-.267q-.162-1.616-.351-3.232-.275-2.339-.606-4.667-.227-1.6-.479-3.191-.2-1.245-.411-2.489-.563-3.243-1.233-6.467l-7.85-37.732-.251-1.2-1.568-7.543a22.145,22.145,0,0,0-21.685-17.635H1505.2a66.172,66.172,0,0,0-50.533,23.448l-4.859,5.748-.73.861-14.106,16.686-28.9,34.178-1.432,1.7-.73.862-14.771,11.117-3.224,2.425a49.984,49.984,0,0,0-11.991,12.929,48.545,48.545,0,0,0-3.507,6.458c-.471,1.037-.9,2.094-1.3,3.163a49.784,49.784,0,0,0-3,13.882Q1365.994,3195.673,1365.994,3197.424Z" transform="translate(-1365.934 -3060.484)" fill="#535151"/>
        <path id="Trazado_7807" data-name="Trazado 7807" d="M1866.214,3249.679h68.149a6.1,6.1,0,0,0,6.107-6.1v-29.152a6.106,6.106,0,0,0-6.107-6.1H1905.8a34.044,34.044,0,0,0-25.989,12.059l-2.29,2.708-15.266,18.054A5.187,5.187,0,0,0,1866.214,3249.679Z" transform="translate(-1722.803 -3167.061)" fill="#fff"/>
        <path id="Trazado_7808" data-name="Trazado 7808" d="M2223.472,3214.423v29.152a6.1,6.1,0,0,0,6.1,6.1h43.269a6.1,6.1,0,0,0,6.107-6.1v-29.152a6.1,6.1,0,0,0-6.107-6.1h-43.269c-.06,0-.119,0-.179,0A6.1,6.1,0,0,0,2223.472,3214.423Z" transform="translate(-1984.103 -3167.061)" fill="#e1e1e1"/>
        <path id="Trazado_7809" data-name="Trazado 7809" d="M2493.834,3538.667v19.056h36.811c9.641,0,15.551-5.557,15.551-17.46v-1.6Z" transform="translate(-2179.011 -3405.214)" fill="#363535"/>
        <g id="Grupo_1772" data-name="Grupo 1772" transform="translate(118.514 132.855)">
          <rect id="Rectángulo_815" data-name="Rectángulo 815" width="168.076" height="1.197" fill="#3e3e3e"/>
        </g>
        <path id="Trazado_7810" data-name="Trazado 7810" d="M1365.994,3481.442a13.947,13.947,0,0,0,.495,3.762,11.794,11.794,0,0,0,3.482,5.633h76.267c2.155-31.544,3.452-37.456-5.545-33.4-63.939,28.847-66.773-2.988-66.773-2.988a48.57,48.57,0,0,0-3.507,6.458c-.471,1.037-.9,2.094-1.3,3.163a49.791,49.791,0,0,0-3,13.882Q1365.994,3479.69,1365.994,3481.442Z" transform="translate(-1365.934 -3344.502)" fill="#434141"/>
        <path id="Trazado_7811" data-name="Trazado 7811" d="M1365.779,3542.154c0,10.108,5.88,15.569,14.48,15.569h60.279v-19.056H1365.9Q1365.779,3540.4,1365.779,3542.154Z" transform="translate(-1365.779 -3405.214)" fill="#363535"/>
        <rect id="Rectángulo_816" data-name="Rectángulo 816" width="158.254" height="8.73" transform="translate(281.815 152.509) rotate(180)" fill="#454444"/>
        <path id="Trazado_7812" data-name="Trazado 7812" d="M2363.257,3519c0,.546.012,1.089.04,1.627h63.5c.028-.539.04-1.081.04-1.627a31.789,31.789,0,0,0-63.578,0Z" transform="translate(-2084.877 -3368.119)" fill="#292929"/>
        <path id="Trazado_7813" data-name="Trazado 7813" d="M1592.044,3519c0,.546.012,1.089.04,1.627h63.5c.028-.539.04-1.081.04-1.627a31.789,31.789,0,0,0-63.577,0Z" transform="translate(-1528.897 -3368.119)" fill="#292929"/>
        <g id="Grupo_1773" data-name="Grupo 1773" transform="translate(286.59 127.305)">
          <circle id="Elipse_607" data-name="Elipse 607" cx="23.577" cy="23.577" r="23.577" fill="#454444"/>
          <circle id="Elipse_608" data-name="Elipse 608" cx="14.293" cy="14.293" r="14.293" transform="translate(9.284 9.285)" fill="#545353"/>
          <circle id="Elipse_609" data-name="Elipse 609" cx="4.548" cy="4.548" r="4.548" transform="translate(21.835 20.378) rotate(-57.11)" fill="#828181"/>
        </g>
        <g id="Grupo_1774" data-name="Grupo 1774" transform="translate(71.36 127.305)">
          <circle id="Elipse_610" data-name="Elipse 610" cx="23.577" cy="23.577" r="23.577" fill="#454444"/>
          <circle id="Elipse_611" data-name="Elipse 611" cx="14.293" cy="14.293" r="14.293" transform="translate(9.284 9.285)" fill="#545353"/>
          <circle id="Elipse_612" data-name="Elipse 612" cx="4.548" cy="4.548" r="4.548" transform="translate(22.229 21.601) rotate(-68.574)" fill="#828181"/>
        </g>
        <path id="Trazado_7814" data-name="Trazado 7814" d="M1509.585,3262.151h39.32a9.971,9.971,0,0,0,7.619-3.535l3.925-4.643,7.276-8.6,11.612-13.734a2.225,2.225,0,0,0-1.7-3.662h-39.153Z" transform="translate(-1469.451 -3181.229)" fill="#e1e1e1"/>
        <g id="Grupo_1775" data-name="Grupo 1775" transform="translate(81.939 25.179)">
          <path id="Trazado_7815" data-name="Trazado 7815" d="M1659.475,3223.539a.591.591,0,0,0,.5.275.564.564,0,0,0,.323-.1c3.076-1.971,5.078-3.06,5.1-3.071a1.091,1.091,0,0,0,.092-.06c.024-.024.052-.048.076-.076l53.118-61.232a22.341,22.341,0,0,1,16.587-7.38h197.47l-.252-1.2H1735.271a23.532,23.532,0,0,0-17.48,7.787l-53.059,61.156c-.438.244-2.345,1.313-5.078,3.068A.6.6,0,0,0,1659.475,3223.539Z" transform="translate(-1659.379 -3150.703)" fill="#3d3d3d"/>
        </g>
        <path id="Trazado_7816" data-name="Trazado 7816" d="M1381.831,3438.529l6.466,2.206c3.682,0,5.828-1.229,6.135-5.214.016-.2.028-.407.04-.63.156-3.048-.068-8.692-2.094-11.484a50,50,0,0,0-10.547,15.123Z" transform="translate(-1377.351 -3322.121)" fill="#fff"/>
        <path id="Rectángulo_817" data-name="Rectángulo 817" d="M0,0H0A6.961,6.961,0,0,1,6.961,6.961V9.293A6.961,6.961,0,0,1,0,16.254H0a0,0,0,0,1,0,0V0A0,0,0,0,1,0,0Z" transform="translate(367.185 116.408) rotate(180)" fill="#ff8787"/>
        <g id="Grupo_1776" data-name="Grupo 1776" transform="translate(48.053 102.866)">
          <path id="Trazado_7817" data-name="Trazado 7817" d="M1541.059,3448.007l14.145-1.436,14.667-1.249a2.573,2.573,0,0,0,2.5-3.187l-2.381-9.713a4.4,4.4,0,0,0-4.277-3.354h-1.452s-18.194,2.685-23.715,10.659c-.431.622-.806,1.2-1.133,1.743a22.207,22.207,0,0,0-1.177,2.207A3.081,3.081,0,0,0,1541.059,3448.007Z" transform="translate(-1537.961 -3429.067)" fill="#fff"/>
          <path id="Trazado_7818" data-name="Trazado 7818" d="M1541.059,3448.336s10.615-.71,14.145-1.037c3.674-.341,14.667-1.648,14.667-1.648a2.572,2.572,0,0,0,2.5-3.187l-2.381-9.713a4.41,4.41,0,0,0-3.223-3.227c.922,3.6-.3,9.231-6.335,12.111-7.064,3.371-17.181,2.976-21.018.164a22.151,22.151,0,0,0-1.177,2.206A3.081,3.081,0,0,0,1541.059,3448.336Z" transform="translate(-1537.961 -3429.396)" fill="#d1d1d1"/>
        </g>
        <path id="Trazado_7819" data-name="Trazado 7819" d="M1381.831,3450.853l6.466,2.206c3.682,0,5.828-1.229,6.135-5.213.016-.2.028-.407.04-.631-3.059.519-6-1.851-6.367-6.713A49.6,49.6,0,0,0,1381.831,3450.853Z" transform="translate(-1377.351 -3334.444)" fill="#d1d1d1"/>
        <rect id="Rectángulo_818" data-name="Rectángulo 818" width="16.106" height="2.154" transform="translate(210.741 91.162) rotate(180)" fill="#4d4d4d"/>
        <path id="Trazado_7820" data-name="Trazado 7820" d="M2244.7,3208.324l13.419,41.355h21.414l-13.419-41.359h-21.234C2244.817,3208.32,2244.758,3208.32,2244.7,3208.324Z" transform="translate(-1999.406 -3167.061)" fill="#fff"/>
        <g id="Grupo_1777" data-name="Grupo 1777" transform="translate(154.716 41.259)">
          <path id="Trazado_7821" data-name="Trazado 7821" d="M1986.727,3209.732l12.96,39.947h25.3a6.109,6.109,0,0,0,5.968-4.8l-11.864-36.556h-22.67A33.9,33.9,0,0,0,1986.727,3209.732Z" transform="translate(-1968.146 -3208.32)" fill="#e1e1e1"/>
          <path id="Trazado_7822" data-name="Trazado 7822" d="M1920.148,3241.171l8.628,26.591H1938.9l-11.149-34.357a33.973,33.973,0,0,0-5.313,5.058Z" transform="translate(-1920.148 -3226.405)" fill="#e1e1e1"/>
        </g>
        <g id="Grupo_1778" data-name="Grupo 1778" transform="translate(83.148 46.744)">
          <path id="Trazado_7823" data-name="Trazado 7823" d="M1663.71,3227.973l7.85,26,7.276-8.6-5.648-17.4Z" transform="translate(-1663.71 -3227.973)" fill="#fff"/>
        </g>
      </g>
      <g id="Grupo_1883" data-name="Grupo 1883" transform="translate(1504.753 3070.832)">
        <g id="Grupo_1807" data-name="Grupo 1807" transform="translate(22.429 5.075)">
          <g id="Grupo_1780" data-name="Grupo 1780" transform="translate(41.031 23.553)">
            <path id="Trazado_7824" data-name="Trazado 7824" d="M2174.68,3202.113s-1.281,1.683-.68,2.521-1.817,1.021-1.817,1.021a27.914,27.914,0,0,1-1.546-2.45c.011-.171.4-1.584.4-1.584l1.992-1.423,1.311-.062Z" transform="translate(-2170.637 -3200.136)" fill="#fff"/>
          </g>
          <g id="Grupo_1781" data-name="Grupo 1781" transform="translate(39.014 24.477)">
            <path id="Trazado_7825" data-name="Trazado 7825" d="M2167.858,3205.16l-1.529-1.71s-2.9,1.868-2.918,1.995a12.244,12.244,0,0,0,2.6,1C2166.332,3206.478,2167.858,3205.16,2167.858,3205.16Z" transform="translate(-2163.411 -3203.45)" fill="#fff"/>
          </g>
          <g id="Grupo_1782" data-name="Grupo 1782" transform="translate(39.874 26.761)">
            <path id="Trazado_7826" data-name="Trazado 7826" d="M2166.627,3211.633l.032.157-.024.121-.093.061s-.042-.082-.047-.1,0-.123,0-.14a.385.385,0,0,1,.029-.092Z" transform="translate(-2166.491 -3211.633)" fill="#ec545b"/>
          </g>
          <g id="Grupo_1784" data-name="Grupo 1784" transform="translate(8.327 27.244)">
            <g id="Grupo_1783" data-name="Grupo 1783">
              <path id="Trazado_7827" data-name="Trazado 7827" d="M2069.666,3240.38c-12.428,17.454-16.212,17.909-16.212,17.909,2.251,2.942,25.917,3.8,25.917,3.8,4.112-4.4,13.052-35.364,13.052-35.364a43.319,43.319,0,0,0-4.388-8.73c-1.6-2.609-2.926-4.632-2.926-4.632C2085.281,3217.019,2082.838,3221.878,2069.666,3240.38Z" transform="translate(-2053.454 -3213.363)" fill="#fff"/>
            </g>
          </g>
          <g id="Grupo_1785" data-name="Grupo 1785" transform="translate(32.846 24.195)">
            <path id="Trazado_7828" data-name="Trazado 7828" d="M2141.309,3202.85l.878,15.512,5.448,15.829.25.3.208.25,9.136,10.961s2.654-21.713,2.414-26.812c-.159-3.354-.64-6.847-4-10.536a26.861,26.861,0,0,0-5.421-4.427c-.2-.129-.406-.258-.617-.388q-.887-.548-1.885-1.1l-.694,1.926Z" transform="translate(-2141.309 -3202.437)" fill="#fff"/>
          </g>
          <g id="Grupo_1799" data-name="Grupo 1799" transform="translate(32.636)">
            <g id="Grupo_1787" data-name="Grupo 1787" transform="translate(3.325 9.476)">
              <g id="Grupo_1786" data-name="Grupo 1786">
                <path id="Trazado_7829" data-name="Trazado 7829" d="M2161.823,3149.7l-3.438,3.763s-.005,0,0,0l-5.914,6.474a12.861,12.861,0,0,1,2.256,1.15,9.382,9.382,0,0,1,3.846,4.366l9.325-10.208Z" transform="translate(-2152.469 -3149.699)" fill="#ec545b"/>
              </g>
            </g>
            <g id="Grupo_1790" data-name="Grupo 1790" transform="translate(5.275 4.346)">
              <g id="Grupo_1788" data-name="Grupo 1788">
                <path id="Trazado_7830" data-name="Trazado 7830" d="M2177.656,3138c-3.761,8.569-7.81,15.148-11.42,14.137s-5.392-3.852-6.78-11.227l.926-6.284,7.186-2.834,5.128-.473Z" transform="translate(-2159.456 -3131.316)" fill="#ecaf99"/>
              </g>
              <g id="Grupo_1789" data-name="Grupo 1789" transform="translate(3.38 5.002)">
                <path id="Trazado_7831" data-name="Trazado 7831" d="M2175.553,3151.811c.2-2.595-1.832-3.243-3.029-1.864s-1.4,3.975.13,4.313S2175.553,3151.811,2175.553,3151.811Z" transform="translate(-2171.566 -3149.24)" fill="#ec545b"/>
              </g>
            </g>
            <g id="Grupo_1791" data-name="Grupo 1791" transform="translate(6.203 13.732)">
              <path id="Trazado_7832" data-name="Trazado 7832" d="M2162.783,3169.073c.556,3.346,2.519,6.338,4.623,7.55,0,0,.007,0,.009,0a3.28,3.28,0,0,0,3.037.326c.027-.013.054-.024.081-.039a2.784,2.784,0,0,0,.5-.309c2.874-2.2,5.691-7.454,5.764-7.588a0,0,0,0,1,0,0,12,12,0,0,1-7.156-4.067c-.482.352-1.006.707-1.544,1.053-.018.012-.036.025-.055.037C2165.534,3167.651,2162.783,3169.073,2162.783,3169.073Z" transform="translate(-2162.783 -3164.947)" fill="#65c7d0"/>
            </g>
            <g id="Grupo_1792" data-name="Grupo 1792" transform="translate(6.201 13.743)">
              <path id="Trazado_7833" data-name="Trazado 7833" d="M2164.009,3169.1a20.346,20.346,0,0,1,1.47-4.111s-2.808,2.751-2.7,4.115C2162.873,3170.341,2164.009,3169.1,2164.009,3169.1Z" transform="translate(-2162.773 -3164.986)" fill="#2f6c99"/>
            </g>
            <g id="Grupo_1793" data-name="Grupo 1793" transform="translate(10.836 17.8)">
              <path id="Trazado_7834" data-name="Trazado 7834" d="M2184.961,3181.028l-5.579,6.107a3.535,3.535,0,0,0,4.36.615,5.607,5.607,0,0,0,.555-.311l0,0a7.308,7.308,0,0,0,.841-.625c2.125-1.821,3.578-7.131,3.62-7.286a.007.007,0,0,1,0,0Z" transform="translate(-2179.382 -3179.522)" fill="#65c7d0"/>
            </g>
            <g id="Grupo_1794" data-name="Grupo 1794" transform="translate(6.061 13.978)">
              <path id="Trazado_7835" data-name="Trazado 7835" d="M2163.252,3167.823a17.343,17.343,0,0,0-.98,1.81l.143.076c.556,3.346,2.519,6.337,4.624,7.551,0,0,.006,0,.009,0a3.536,3.536,0,0,0,4.36.615,5.543,5.543,0,0,0,.555-.312h0a3.234,3.234,0,0,1-1.8-.014,4.679,4.679,0,0,1-2.149-1.349c-.091-.095-.182-.2-.273-.3-2.067-2.44,1.029-8.606,1.029-8.606l-1.045-.657-1.283-.806A17.636,17.636,0,0,0,2163.252,3167.823Z" transform="translate(-2162.272 -3165.83)" fill="#59b0b8"/>
            </g>
            <g id="Grupo_1795" data-name="Grupo 1795">
              <path id="Trazado_7836" data-name="Trazado 7836" d="M2143.566,3127.555a27.459,27.459,0,0,1,.014,3.281c0,.06-.007.119-.01.177-.062,1.2-.175,2.351-.284,3.281-.148,1.266-.286,2.124-.286,2.124l-2.444,6.876,8.5-1.047,2.336-1.091c-3.344-3.44,1.1-10.172,4.065-12.271s5.966,1.023,7.4.474c6.466-5.536-2.519-11.749-9.521-13.441C2147.519,3114.513,2143.142,3121.879,2143.566,3127.555Z" transform="translate(-2140.556 -3115.743)" fill="#fff"/>
            </g>
            <g id="Grupo_1798" data-name="Grupo 1798" transform="translate(16.177 14.084)">
              <g id="Grupo_1796" data-name="Grupo 1796" transform="translate(3.352 1.325)">
                <path id="Trazado_7837" data-name="Trazado 7837" d="M2210.617,3171.241c-.116.213-.114.437,0,.5s.306-.057.422-.27.114-.437,0-.5S2210.732,3171.029,2210.617,3171.241Z" transform="translate(-2210.531 -3170.954)" fill="#616161"/>
              </g>
              <g id="Grupo_1797" data-name="Grupo 1797">
                <path id="Trazado_7838" data-name="Trazado 7838" d="M2198.606,3166.495c-.116.213-.114.437,0,.5s.306-.058.422-.271.114-.437,0-.5S2198.722,3166.282,2198.606,3166.495Z" transform="translate(-2198.521 -3166.208)" fill="#616161"/>
              </g>
            </g>
          </g>
          <g id="Grupo_1800" data-name="Grupo 1800" transform="translate(0 22.622)">
            <path id="Trazado_7839" data-name="Trazado 7839" d="M2063.575,3201.315l-3.943-4.515s-6.637,4.105-7.736,3.254-13.373,7.876-13.373,7.876-9.26,13.821-9.823,14.832-3.893,8.516-3.893,8.516l-1.188,5.355,2.856,4.89,11.479,4.929s8.516-6.947,8.463-7.971,11.107-20.747,12.082-21.186,6.939-5.808,6.939-5.808Z" transform="translate(-2023.618 -3196.801)" fill="#fff"/>
          </g>
          <path id="Trazado_7840" data-name="Trazado 7840" d="M2091.589,3169.822c-3.579,8.123-12.826,2.828-18.733,11.22a26.128,26.128,0,0,0-4.184,18.01l12.446,3.126,10.772-6.617,3.054-7.276.944-5.27.114-10.432Z" transform="translate(-2055.929 -3154.729)" fill="#fff"/>
          <g id="Grupo_1805" data-name="Grupo 1805" transform="translate(5.03 54.158)">
            <g id="Grupo_1801" data-name="Grupo 1801" transform="translate(10.533 16.86)">
              <path id="Trazado_7841" data-name="Trazado 7841" d="M2105.706,3371.911l12.068,44.111-16.958,2.11-15.786-32.728-5.648-15.195,13.389,6.036Z" transform="translate(-2079.381 -3370.21)" fill="#fcfcfc"/>
            </g>
            <path id="Trazado_7842" data-name="Trazado 7842" d="M2185.683,3642.213h0a3.332,3.332,0,0,0-.3-1.164c-.273-.6-5.922-1.271-8.858-4.119-2.787-2.7-2.163-8.975-3.887-7.863-.554.357-.988-.637-1.6-.725a7.871,7.871,0,0,0-3.432.927s-.218,3.925-.189,8.055h0v.012c0,.189,0,.38.006.57-.044,4.684-2.371,9.084,6.813,7.1C2181.412,3643.449,2186.05,3646.051,2185.683,3642.213Z" transform="translate(-2132.108 -3539.427)" fill="#357aad"/>
            <path id="Trazado_7843" data-name="Trazado 7843" d="M2067.428,3640.432h0a3.312,3.312,0,0,0-.186-1.187c-.215-.623-5.775-1.825-8.429-4.937-2.519-2.955-1.3-9.14-3.126-8.2-.585.3-.924-.727-1.525-.873a7.874,7.874,0,0,0-3.5.6s-.588,3.887-.95,8h0v.012c-.017.189-.032.379-.048.569-.487,4.659-3.219,8.819,6.111,7.708C2063.059,3641.259,2067.43,3644.287,2067.428,3640.432Z" transform="translate(-2046.883 -3537.16)" fill="#2f6c99"/>
            <g id="Grupo_1802" data-name="Grupo 1802" transform="translate(31.837 59.192)">
              <path id="Trazado_7844" data-name="Trazado 7844" d="M2172.806,3525.373l-.152,29.22a3.376,3.376,0,0,1-3.718,3.3l-10.6-1.078a1.717,1.717,0,0,1-1.542-1.657l-1.08-29.615,7.132-3.647Z" transform="translate(-2155.718 -3521.894)" fill="#fcfcfc"/>
            </g>
            <g id="Grupo_1803" data-name="Grupo 1803">
              <path id="Trazado_7845" data-name="Trazado 7845" d="M2042.093,3365.621l17.749,3.561,4.853-41.041-2.724-4.3-8.9-14.044-6.372,2.734-4.674,2.006-.04,1.522-.227,9.706-.114,4.979v.039Z" transform="translate(-2041.641 -3309.799)" fill="#fff"/>
            </g>
            <g id="Grupo_1804" data-name="Grupo 1804" transform="translate(1.027 42.6)">
              <path id="Trazado_7846" data-name="Trazado 7846" d="M2069.537,3469.781l-3.59,17.6-2.956,14.5-1.807,8.855a3.374,3.374,0,0,1-3.805,3.2l-10.563-1.361a1.719,1.719,0,0,1-1.5-1.7l.044-4.811.259-28.23.088-9.8,8.018-5.589Z" transform="translate(-2045.32 -3462.441)" fill="#fff"/>
            </g>
            <path id="Trazado_7847" data-name="Trazado 7847" d="M2064.954,3517.194a13.868,13.868,0,0,0-2.017-5.844c-3.977-6.917-11.576-6.1-17.2-1.963l-.259,28.23c5.968.714,13.168,1.157,16.9-3.243.259-.3.5-.619.73-.937Z" transform="translate(-2044.406 -3451.398)" fill="#e8e8e8"/>
          </g>
          <g id="Grupo_1806" data-name="Grupo 1806" transform="translate(34.63 55.355)">
            <path id="Trazado_7848" data-name="Trazado 7848" d="M2184.886,3328.055a17.94,17.94,0,0,0-3.235,2.489s-12.521,1.66-22.378.156h0c-.977-.147-1.927-.327-2.836-.542-4.552-1.077-8.078-3.052-8.728-6.506l9.877-5.549c.694-.179,3.035.523,2.529.016l-1.32-4.029s12.9,6.625,20.647,10.834c1.628.882,3.028,1.66,4.029,2.246C2184.128,3327.557,2184.618,3327.86,2184.886,3328.055Z" transform="translate(-2147.704 -3314.09)" fill="#fff"/>
          </g>
          <path id="Trazado_7849" data-name="Trazado 7849" d="M2195.528,3366.716c-4.763.7-16.762,1.592-17.739-5.481a6.882,6.882,0,0,1,.036-2.369,3.326,3.326,0,0,1,.235-.722c.383-.833-.2,1.436,1,1.459,2.776.056,6.324-2.688,9.037-3.386,4.316-1.113,8.541-2.409,12.964-3.307,1.628.882,3.028,1.66,4.029,2.246l.124-.024c.858-.167,1.727-.331,2.6-.482C2211.264,3361.635,2201.06,3365.911,2195.528,3366.716Z" transform="translate(-2134.701 -3286.72)" fill="#ededed"/>
          <path id="Trazado_7850" data-name="Trazado 7850" d="M2135.5,3284.462s-6.008-1.8-7.9-15.971,8.216-11.68,8.216-11.68l6.089,7.348,5.53,13.18-3.505,5.916Z" transform="translate(-2098.406 -3217.319)" fill="#fff"/>
        </g>
        <g id="Grupo_1843" data-name="Grupo 1843" transform="translate(174.694 0)">
          <g id="Grupo_1808" data-name="Grupo 1808" transform="translate(28.955 21.012)">
            <path id="Trazado_7851" data-name="Trazado 7851" d="M2673.791,3174.429s.329,2.089-.6,2.542,1.116,1.76,1.116,1.76a27.988,27.988,0,0,0,2.522-1.423c.072-.156.4-1.583.4-1.583l-1.079-2.2-1.125-.676Z" transform="translate(-2672.954 -3172.851)" fill="#fff"/>
          </g>
          <g id="Grupo_1809" data-name="Grupo 1809" transform="translate(30.9 23.154)">
            <path id="Trazado_7852" data-name="Trazado 7852" d="M2679.923,3181.3l2.157-.781s1.666,3.019,1.623,3.141a12.228,12.228,0,0,1-2.768-.352A8.18,8.18,0,0,1,2679.923,3181.3Z" transform="translate(-2679.923 -3180.523)" fill="#fff"/>
          </g>
          <g id="Grupo_1810" data-name="Grupo 1810" transform="translate(33.527 26.076)">
            <path id="Trazado_7853" data-name="Trazado 7853" d="M2689.477,3191l-.1.123-.037.118.053.1.087-.061c.011-.009.06-.108.07-.122a.406.406,0,0,0,.017-.094Z" transform="translate(-2689.337 -3190.996)" fill="#ec545b"/>
          </g>
          <g id="Grupo_1812" data-name="Grupo 1812" transform="translate(41.852 25.209)">
            <g id="Grupo_1811" data-name="Grupo 1811">
              <path id="Trazado_7854" data-name="Trazado 7854" d="M2740.362,3241.342s-11.688,2.038-14.445,1.74l-.636-12.008-6.116-43.187c2.23.171,4.3.322,6.471.492a24.126,24.126,0,0,1,9.511,2.542l-.15,17.63v0l-.015,1.855.882,5.05Z" transform="translate(-2719.166 -3187.887)" fill="#fff"/>
            </g>
          </g>
          <g id="Grupo_1814" data-name="Grupo 1814" transform="translate(20.686 26.514)">
            <g id="Grupo_1813" data-name="Grupo 1813">
              <path id="Trazado_7855" data-name="Trazado 7855" d="M2656.889,3223.674c2.667,21.26,5.783,23.456,5.783,23.456-3.377,1.523-14.242,1.715-14.242,1.715-1.536-5.819-5.1-47.983-5.1-47.983a43.314,43.314,0,0,1,8-5.605c2.647-1.539,4.773-2.692,4.773-2.692C2654.218,3195.7,2654.065,3201.138,2656.889,3223.674Z" transform="translate(-2643.327 -3192.564)" fill="#fff"/>
            </g>
          </g>
          <g id="Grupo_1816" data-name="Grupo 1816" transform="translate(33.52 23.522)">
            <g id="Grupo_1815" data-name="Grupo 1815">
              <path id="Trazado_7856" data-name="Trazado 7856" d="M2697.484,3182.238l.1.836a12.4,12.4,0,0,0-2.646-.426,8.525,8.525,0,0,0-5.522,1.405l-.1-.875a9.381,9.381,0,0,1,5.667-1.316A12.87,12.87,0,0,1,2697.484,3182.238Z" transform="translate(-2689.312 -3181.844)" fill="#ec545b"/>
            </g>
          </g>
          <g id="Grupo_1817" data-name="Grupo 1817" transform="translate(20.374 154.646)">
            <path id="Trazado_7857" data-name="Trazado 7857" d="M2660.534,3653.112a12.33,12.33,0,0,0,3.577-1.43,51.6,51.6,0,0,1,.026,10.194,1.326,1.326,0,0,1-1.177,1.287l-3.73.057a1.26,1.26,0,0,1-1.162-1.009c-.171-.6-.774-.253-1.119-.354-.651-.191-3.63,1.454-10.962,1.565-4.859.074-3.766-2.555-3.45-3.163s7.176-1.448,10.669-4.382c3.316-2.785,3.016-4.228,5.148-3.167A3.724,3.724,0,0,0,2660.534,3653.112Z" transform="translate(-2642.207 -3651.682)" fill="#2f6c99"/>
          </g>
          <g id="Grupo_1818" data-name="Grupo 1818" transform="translate(17.334 24.044)">
            <path id="Trazado_7858" data-name="Trazado 7858" d="M2651.982,3184.712l-2.626,14.552-7.2,14.414-.281.258-.235.216-10.31,9.471s-.179-20.736.635-25.523a14.323,14.323,0,0,1,5.162-9.559,27.471,27.471,0,0,1,5.883-3.66c.215-.1.432-.205.657-.308q.942-.433,2-.86l.471,1.882Z" transform="translate(-2631.316 -3183.713)" fill="#fff"/>
          </g>
          <g id="Grupo_1834" data-name="Grupo 1834" transform="translate(19.836)">
            <g id="Grupo_1820" data-name="Grupo 1820" transform="translate(4.741 9.356)">
              <g id="Grupo_1819" data-name="Grupo 1819">
                <path id="Trazado_7859" data-name="Trazado 7859" d="M2664.158,3131.083l2.781,4.27s.006,0,0,0l4.786,7.347a12.881,12.881,0,0,0-2.413.769,9.385,9.385,0,0,0-4.5,3.685l-7.547-11.584Z" transform="translate(-2657.266 -3131.083)" fill="#ec545b"/>
              </g>
            </g>
            <g id="Grupo_1823" data-name="Grupo 1823" transform="translate(0.729 3.348)">
              <g id="Grupo_1821" data-name="Grupo 1821">
                <path id="Trazado_7860" data-name="Trazado 7860" d="M2642.892,3115.343c2.323,9.066,5.251,16.214,8.978,15.8s5.945-2.927,8.51-9.979l.105-6.351-6.632-3.961-4.984-1.3Z" transform="translate(-2642.892 -3109.556)" fill="#ec545b"/>
              </g>
              <g id="Grupo_1822" data-name="Grupo 1822" transform="translate(10.545 6.132)">
                <path id="Trazado_7861" data-name="Trazado 7861" d="M2680.676,3133.82c.218-2.594,2.333-2.9,3.291-1.349s.739,4.15-.828,4.235S2680.676,3133.82,2680.676,3133.82Z" transform="translate(-2680.676 -3131.527)" fill="#ec545b"/>
              </g>
            </g>
            <g id="Grupo_1824" data-name="Grupo 1824" transform="translate(2.848 13.493)">
              <path id="Trazado_7862" data-name="Trazado 7862" d="M2664.3,3151.092c-1.091,3.211-3.513,5.846-5.786,6.7,0,0-.007,0-.01,0a3.276,3.276,0,0,1-3.05-.17c-.024-.017-.05-.032-.073-.051a2.811,2.811,0,0,1-.44-.385c-2.48-2.635-4.407-8.278-4.457-8.423a0,0,0,0,0,0,0,12,12,0,0,0,7.721-2.854c.419.425.879.86,1.353,1.289.015.015.031.031.048.045C2661.815,3149.243,2664.3,3151.092,2664.3,3151.092Z" transform="translate(-2650.483 -3145.909)" fill="#65c7d0"/>
            </g>
            <g id="Grupo_1825" data-name="Grupo 1825" transform="translate(14.664 14.177)">
              <path id="Trazado_7863" data-name="Trazado 7863" d="M2693.608,3152.655a20.314,20.314,0,0,0-.784-4.3s2.325,3.17,2,4.5C2694.528,3154.066,2693.608,3152.655,2693.608,3152.655Z" transform="translate(-2692.824 -3148.36)" fill="#2f6c99"/>
            </g>
            <g id="Grupo_1826" data-name="Grupo 1826" transform="translate(2.848 16.347)">
              <path id="Trazado_7864" data-name="Trazado 7864" d="M2653.989,3158.237l4.515,6.93a3.535,3.535,0,0,1-4.4-.1,5.766,5.766,0,0,1-.5-.4l0,0a7.156,7.156,0,0,1-.729-.753c-1.8-2.141-2.375-7.617-2.39-7.777a.005.005,0,0,0,0,0Z" transform="translate(-2650.483 -3156.135)" fill="#65c7d0"/>
            </g>
            <g id="Grupo_1827" data-name="Grupo 1827" transform="translate(1.175 11.154)" opacity="0.66">
              <path id="Trazado_7865" data-name="Trazado 7865" d="M2654.678,3137.569l-1.59.149a20.928,20.928,0,0,0-8.3.536c-1,2.315.784,6.3,1.9,6.074.876-.175.428-1,1.781-1.345s2.335,1.525,4.114-.114c.748-.689,1.645-1.8,1.308-3Z" transform="translate(-2644.491 -3137.529)" fill="#fff"/>
            </g>
            <g id="Grupo_1828" data-name="Grupo 1828" transform="translate(5.968 14.195)">
              <path id="Trazado_7866" data-name="Trazado 7866" d="M2671.839,3150.907a17.328,17.328,0,0,1,.674,1.945l-.153.052c-1.091,3.211-3.514,5.846-5.786,6.7,0,0-.007,0-.01,0a3.535,3.535,0,0,1-4.4-.1,5.638,5.638,0,0,1-.5-.4v0a3.221,3.221,0,0,0,1.777.279,4.677,4.677,0,0,0,2.339-.983c.1-.078.211-.164.319-.255,2.436-2.073.379-8.66.379-8.66l1.138-.478,1.4-.587A17.635,17.635,0,0,1,2671.839,3150.907Z" transform="translate(-2661.663 -3148.423)" fill="#59b0b8"/>
            </g>
            <g id="Grupo_1829" data-name="Grupo 1829" transform="translate(0.771 10.739)">
              <path id="Trazado_7867" data-name="Trazado 7867" d="M2651.3,3142.484a2.469,2.469,0,0,1-2.584.05,1.923,1.923,0,0,0-1.2-.236,1.165,1.165,0,0,0-.873.634,1.278,1.278,0,0,1-.929.715c-.3.06-.763-.011-1.3-.681-.961-1.189-1.883-3.99-1.038-5.943l.078-.178.188-.049a21.343,21.343,0,0,1,8.42-.553l2.154-.2-.958,2.772c.234,1.052-.266,2.183-1.453,3.277A3.822,3.822,0,0,1,2651.3,3142.484Zm-4.726-.649a2.467,2.467,0,0,1,.743-.311,2.616,2.616,0,0,1,1.7.271,1.719,1.719,0,0,0,2.238-.293c.7-.642,1.47-1.615,1.193-2.6l-.033-.12.632-1.831-1.028.1-.054-.01a20.693,20.693,0,0,0-7.933.48,6.107,6.107,0,0,0,1,4.946c.288.357.477.409.526.4.221-.044.27-.125.4-.342A1.882,1.882,0,0,1,2646.574,3141.835Z" transform="translate(-2643.041 -3136.041)" fill="#fff"/>
            </g>
            <g id="Grupo_1830" data-name="Grupo 1830">
              <path id="Trazado_7868" data-name="Trazado 7868" d="M2661.075,3110.788a27.354,27.354,0,0,0-.546,3.235c-.007.06-.012.119-.019.176-.132,1.19-.208,2.348-.252,3.284-.059,1.272-.062,2.142-.062,2.142l1.3,7.182-8.217-2.412-2.128-1.455c3.857-2.853.565-10.215-2.022-12.767s-6.053.042-7.378-.732c-5.483-6.511,5.728-12.991,11.575-11.719S2662.414,3105.255,2661.075,3110.788Z" transform="translate(-2640.279 -3097.561)" fill="#fff"/>
            </g>
            <g id="Grupo_1833" data-name="Grupo 1833" transform="translate(3.283 13.262)">
              <g id="Grupo_1831" data-name="Grupo 1831" transform="translate(0 0.764)">
                <path id="Trazado_7869" data-name="Trazado 7869" d="M2652.54,3148.16c.079.229.042.45-.085.494s-.293-.106-.373-.335-.042-.449.085-.494S2652.46,3147.931,2652.54,3148.16Z" transform="translate(-2652.041 -3147.817)" fill="#616161"/>
              </g>
              <g id="Grupo_1832" data-name="Grupo 1832" transform="translate(3.522)">
                <path id="Trazado_7870" data-name="Trazado 7870" d="M2665.161,3145.423c.079.229.042.45-.084.494s-.293-.106-.373-.334-.042-.45.085-.494S2665.081,3145.194,2665.161,3145.423Z" transform="translate(-2664.662 -3145.08)" fill="#616161"/>
              </g>
            </g>
          </g>
          <g id="Grupo_1835" data-name="Grupo 1835" transform="translate(27.074 24.326)">
            <path id="Trazado_7871" data-name="Trazado 7871" d="M2672.675,3186.831l5.612-2.106s3.9,6.762,5.268,6.533,8.041,13.275,8.041,13.275,1.6,16.558,1.616,17.715-.61,9.345-.61,9.345l-1.493,5.278-4.833,2.952-12.443-1.1s-4.2-10.154-3.673-11.03.058-23.533-.592-24.381-3.356-8.4-3.356-8.4Z" transform="translate(-2666.214 -3184.725)" fill="#fff"/>
          </g>
          <g id="Grupo_1836" data-name="Grupo 1836" transform="translate(25.572 64.748)">
            <path id="Trazado_7872" data-name="Trazado 7872" d="M2660.834,3344.112l.039,45.732,16.912-2.454,6.56-35.74,1.424-16.147-10.45-5.94Z" transform="translate(-2660.834 -3329.563)" fill="#fff"/>
          </g>
          <g id="Grupo_1837" data-name="Grupo 1837" transform="translate(25.611 120.064)">
            <path id="Trazado_7873" data-name="Trazado 7873" d="M2660.974,3532.732l4.631,28.851a3.376,3.376,0,0,0,4.179,2.689l10.305-2.689a1.717,1.717,0,0,0,1.27-1.875l-3.473-29.43-7.607-2.511Z" transform="translate(-2660.974 -3527.767)" fill="#fff"/>
          </g>
          <g id="Grupo_1838" data-name="Grupo 1838" transform="translate(62.809 141.555)">
            <path id="Trazado_7874" data-name="Trazado 7874" d="M2802.658,3604.982c1.152-1.055,4.589,2.231,4.589,2.231a51.617,51.617,0,0,1,5.768,8.406,1.327,1.327,0,0,1-.247,1.727l-3.049,2.149a1.261,1.261,0,0,1-1.528-.179c-.482-.4-.782.227-1.124.338-.645.209-2.179,3.247-8.173,7.472-3.973,2.8-4.55.012-4.633-.667s5.111-5.241,6.343-9.634c1.169-4.17-.857-6.337,1.5-6.664C2802.864,3610.056,2802.1,3605.489,2802.658,3604.982Z" transform="translate(-2794.26 -3604.773)" fill="#2f6c99"/>
          </g>
          <g id="Grupo_1839" data-name="Grupo 1839" transform="translate(40.986 62.29)">
            <path id="Trazado_7875" data-name="Trazado 7875" d="M2742.631,3375.04l-17.253,5.481-9.313-40.264,2.237-4.57,7.315-14.934,6.633,2.021,4.865,1.482.206,1.509,1.287,9.623.658,4.937,0,.038Z" transform="translate(-2716.065 -3320.753)" fill="#fff"/>
          </g>
          <g id="Grupo_1840" data-name="Grupo 1840" transform="translate(50.298 112.644)">
            <path id="Trazado_7876" data-name="Trazado 7876" d="M2749.432,3510.593l13.676,26.918a3.376,3.376,0,0,0,4.768,1.4l9.129-5.487a1.716,1.716,0,0,0,.689-2.156l-12.8-30.087-6.843,2.568Z" transform="translate(-2749.432 -3501.182)" fill="#fff"/>
          </g>
          <path id="Trazado_7877" data-name="Trazado 7877" d="M2745.641,3336.954a182.712,182.712,0,0,0-19.82.539l6.247-8.93,4.366-2.66,2.848-1.562,4.866,1.482,1.4-2.9Z" transform="translate(-2682.112 -3260.03)" fill="#f5f5f5"/>
          <g id="Grupo_1841" data-name="Grupo 1841" transform="translate(50.48 27.638)">
            <path id="Trazado_7878" data-name="Trazado 7878" d="M2760.486,3196.592s9.163,7.948,13.846,28.362c.81,3.528-13.974,5.059-13.974,5.059l-10.273-15.924Z" transform="translate(-2750.084 -3196.592)" fill="#fff"/>
          </g>
          <g id="Grupo_1842" data-name="Grupo 1842" transform="translate(0 51.913)">
            <path id="Trazado_7879" data-name="Trazado 7879" d="M2587.424,3283.574s-16.553,18.186-18.219,20.968a11.149,11.149,0,0,0,3.589,3.1s30.979-8.541,28.568-19.59L2590.1,3286.8c-.709.1-2.593,1.666-2.323,1Z" transform="translate(-2569.205 -3283.574)" fill="#fff"/>
          </g>
          <path id="Trazado_7880" data-name="Trazado 7880" d="M2701.525,3156.548c1.338,5.985,18.586,2.745,25.375,16.8l-4.606,9.349-15.813-2.3-7.382-4.747-1.669-7.8-.285-7.474Z" transform="translate(-2661.439 -3140.085)" fill="#fff"/>
        </g>
        <g id="Grupo_1866" data-name="Grupo 1866" transform="translate(0 53.486)">
          <g id="Grupo_1861" data-name="Grupo 1861" transform="translate(0 12.273)">
            <g id="Grupo_1844" data-name="Grupo 1844" transform="translate(8.914 32.541)">
              <path id="Rectángulo_819" data-name="Rectángulo 819" d="M0,0H198.308a0,0,0,0,1,0,0V0a11.517,11.517,0,0,1-11.517,11.517H11.517A11.517,11.517,0,0,1,0,0V0A0,0,0,0,1,0,0Z" fill="#ebebeb"/>
            </g>
            <g id="Grupo_1845" data-name="Grupo 1845" transform="translate(59.581 31.252)">
              <path id="Trazado_7881" data-name="Trazado 7881" d="M2206.143,3495.346l-.027.027c-.021.019-.042.039-.064.057l-.006,0-.018.015-.02.015a.039.039,0,0,1-.011.008l0,0a.132.132,0,0,1-.029.021l-.039.027c-.022.014-.045.029-.068.041a.055.055,0,0,1-.021.011.254.254,0,0,1-.042.022h0c-.029.015-.058.027-.088.04a1.29,1.29,0,0,1-.48.092.882.882,0,0,1-.114-.006h-.015a.789.789,0,0,1-.108-.016h0a.02.02,0,0,1-.01,0,.879.879,0,0,1-.1-.021l-.016,0c-.04-.011-.079-.026-.117-.041-.021-.01-.043-.018-.065-.029l-.009,0a.809.809,0,0,1-.081-.042.2.2,0,0,1-.031-.018l-.016-.01a.667.667,0,0,1-.068-.046.73.73,0,0,1-.071-.054c-.029-.022-.056-.048-.084-.074l-.014-.016s0,0,0,0l-36.758-37.373-8.23-8.369-2.206-2.244a1.278,1.278,0,0,1-.367-.858v0a.412.412,0,0,1,0-.042,1.288,1.288,0,0,1,2.206-.9l.889.9,11.326,11.516,34.066,34.638.918.934A1.289,1.289,0,0,1,2206.143,3495.346Z" transform="translate(-2156.737 -3445.162)" fill="#bdbdbd"/>
            </g>
            <g id="Grupo_1846" data-name="Grupo 1846" transform="translate(59.579 31.39)">
              <path id="Trazado_7882" data-name="Trazado 7882" d="M2159.308,3446.945v58.47a1.289,1.289,0,0,1-2.577,0v-58.47c0-.031,0-.061,0-.092v0a.4.4,0,0,0,0-.042,1.289,1.289,0,0,1,2.564,0A1.257,1.257,0,0,1,2159.308,3446.945Z" transform="translate(-2156.731 -3445.657)" fill="#bdbdbd"/>
            </g>
            <g id="Grupo_1847" data-name="Grupo 1847" transform="translate(106.779 31.253)">
              <path id="Trazado_7883" data-name="Trazado 7883" d="M2375.631,3446.454a.342.342,0,0,1,0,.055,1.279,1.279,0,0,1-.366.849l-2.208,2.245-8.229,8.367-36.762,37.378-.028.027c-.021.02-.042.039-.064.057l-.007,0-.017.015-.02.014a.039.039,0,0,1-.011.008l0,0a.137.137,0,0,1-.029.021.373.373,0,0,1-.039.027.624.624,0,0,1-.067.041.058.058,0,0,1-.021.012.222.222,0,0,1-.042.022s0,0,0,0c-.029.014-.058.027-.088.04a1.29,1.29,0,0,1-.48.092.884.884,0,0,1-.114-.006h-.014a.787.787,0,0,1-.108-.016h0a.02.02,0,0,1-.01,0,.867.867,0,0,1-.1-.021l-.016,0c-.04-.011-.079-.026-.117-.041-.021-.01-.044-.017-.065-.029l-.01,0a.739.739,0,0,1-.08-.042.149.149,0,0,1-.031-.018l-.016-.01a.7.7,0,0,1-.068-.047.631.631,0,0,1-.071-.053c-.029-.022-.056-.048-.084-.074l-.014-.016s0,0,0,0a1.286,1.286,0,0,1,0-1.8l.92-.934,34.064-34.638,11.326-11.517.889-.9a1.288,1.288,0,0,1,2.207.9Z" transform="translate(-2325.854 -3445.166)" fill="#bdbdbd"/>
            </g>
            <g id="Grupo_1848" data-name="Grupo 1848" transform="translate(153.978 31.39)">
              <path id="Trazado_7884" data-name="Trazado 7884" d="M2497.554,3446.945v58.47a1.288,1.288,0,0,1-2.577,0v-58.47a1.258,1.258,0,0,1,.006-.137,1.289,1.289,0,0,1,2.564,0c0,.018,0,.037,0,.055S2497.554,3446.918,2497.554,3446.945Z" transform="translate(-2494.977 -3445.657)" fill="#bdbdbd"/>
            </g>
            <g id="Grupo_1849" data-name="Grupo 1849" transform="translate(51.91 79.153)">
              <path id="Trazado_7885" data-name="Trazado 7885" d="M2239.955,3620.021H2130.861a1.611,1.611,0,0,1,0-3.222h109.095a1.611,1.611,0,0,1,0,3.222Z" transform="translate(-2129.25 -3616.799)" fill="#a1a1a1"/>
            </g>
            <g id="Grupo_1850" data-name="Grupo 1850" transform="translate(59.579 32.541)">
              <path id="Trazado_7886" data-name="Trazado 7886" d="M2171.154,3461.3h-3.616l-8.23-8.369v8.369h-2.577V3449.92c0-.031,0-.061,0-.092v0a.349.349,0,0,1,0-.042h3.1Z" transform="translate(-2156.731 -3449.783)" fill="#a1a1a1"/>
              <path id="Trazado_7887" data-name="Trazado 7887" d="M2466.954,3449.838c0,.027,0,.055,0,.082V3461.3h-2.577v-8.368l-8.229,8.368h-3.616l11.326-11.516h3.1A.348.348,0,0,1,2466.954,3449.838Z" transform="translate(-2369.98 -3449.783)" fill="#a1a1a1"/>
            </g>
            <g id="Grupo_1853" data-name="Grupo 1853" transform="translate(55.836 87.225)">
              <g id="Grupo_1851" data-name="Grupo 1851">
                <circle id="Elipse_613" data-name="Elipse 613" cx="5.032" cy="5.032" r="5.032" fill="#595959"/>
              </g>
              <g id="Grupo_1852" data-name="Grupo 1852" transform="translate(2.652 2.652)">
                <circle id="Elipse_614" data-name="Elipse 614" cx="2.38" cy="2.38" r="2.38" fill="gray"/>
              </g>
            </g>
            <g id="Grupo_1856" data-name="Grupo 1856" transform="translate(150.235 87.225)">
              <g id="Grupo_1854" data-name="Grupo 1854">
                <circle id="Elipse_615" data-name="Elipse 615" cx="5.032" cy="5.032" r="5.032" fill="#595959"/>
              </g>
              <g id="Grupo_1855" data-name="Grupo 1855" transform="translate(2.652 2.652)">
                <circle id="Elipse_616" data-name="Elipse 616" cx="2.38" cy="2.38" r="2.38" fill="gray"/>
              </g>
            </g>
            <g id="Grupo_1857" data-name="Grupo 1857" transform="translate(3.514 19.433)">
              <path id="Trazado_7888" data-name="Trazado 7888" d="M2109.975,3402.814l8.48,13.076H1955.842v-2.87a10.2,10.2,0,0,1,10.205-10.206Z" transform="translate(-1955.842 -3402.814)" fill="#65c7d0"/>
            </g>
            <path id="Trazado_7889" data-name="Trazado 7889" d="M1982.52,3402.866c-1.622,1.283-1.993,3.247-3.008,4.918-1.057,1.74-2.694,1.888-4.53,2.446-.986.3-1.975.387-2.4,1.393-.638,1.519.81,2.988,2.156,3.589,3.589,1.6,7.223-.074,10.639-1.084,2.546-.753,4.2-1.117,3.4-4.146-.493-1.844-2.653-3.155-4-4.5C1983.976,3404.693,1982.97,3403.318,1982.52,3402.866Z" transform="translate(-1964.285 -3383.419)" fill="#59b0b8"/>
            <g id="Grupo_1858" data-name="Grupo 1858" transform="translate(157.647)">
              <path id="Trazado_7890" data-name="Trazado 7890" d="M2562.4,3339.169l1.187,2.613-50.051,22.738-5.408-11.9,40.76-18.517A10.206,10.206,0,0,1,2562.4,3339.169Z" transform="translate(-2508.124 -3333.182)" fill="#65c7d0"/>
            </g>
            <g id="Grupo_1859" data-name="Grupo 1859" transform="translate(0 7.078)">
              <path id="Trazado_7891" data-name="Trazado 7891" d="M2157.442,3365.357l-38.937,14.429-9.311,3.909-.674.28-.072.032-6.179,2.593a3.524,3.524,0,0,1-1.372.275H1945.109a1.86,1.86,0,0,1-1.859-1.858v-3.371a1.861,1.861,0,0,1,1.859-1.859h155.074l3.993-1.671,1.1-.463,49.308-18.784.115-.048a3.545,3.545,0,0,1,2.741,6.538Z" transform="translate(-1943.25 -3358.544)" fill="#c9c9c9"/>
            </g>
            <g id="Grupo_1860" data-name="Grupo 1860" transform="translate(154.104 28.321)">
              <path id="Trazado_7892" data-name="Trazado 7892" d="M2553.945,3441.747H2498.97a3.543,3.543,0,1,1,0-7.087h54.974a3.543,3.543,0,1,1,0,7.087Z" transform="translate(-2495.427 -3434.66)" fill="#c9c9c9"/>
            </g>
          </g>
          <path id="Trazado_7893" data-name="Trazado 7893" d="M2534.056,3340.706c.012,3.306.547,6.146-3.231,7.4-2.925.967-3.85-1.061-6.74.013-4.156,1.544-4.334,2.788-10.671,4.8-2.352.748-6.629,1.4-9.037,2.2-3.045,1.005-5.978,8.079-7.41,4.48-1.473-3.7,2.452-5.574,5.138-7.211,2.271-1.384,4.239-3.132,6.615-4.369,3.057-1.59,6.331-2.689,9.381-4.285,4.055-2.122,8.062-4.813,12.842-4.32C2531.819,3339.5,2536.51,3339.351,2534.056,3340.706Z" transform="translate(-2342.202 -3325.356)" fill="#59b0b8"/>
          <g id="Grupo_1864" data-name="Grupo 1864" transform="translate(36.922)">
            <path id="Trazado_7894" data-name="Trazado 7894" d="M2556.136,3348.519s-11.319,4.832-13.807,6.185,0-.734,0-.734l-3.82-6.957,10.03-3.184Z" transform="translate(-2409.304 -3328.585)" fill="#ec9778"/>
            <path id="Trazado_7895" data-name="Trazado 7895" d="M2157.348,3355.593s-59.178,9.508-81.8,14.4l1.036,7.188s33.02-.826,43.638-1.915,47.843-3.04,47.843-3.04l4.491-11.274-7.984-4.831Z" transform="translate(-2075.548 -3337.066)" fill="#4b5779"/>
            <g id="Grupo_1863" data-name="Grupo 1863" transform="translate(133.025)">
              <g id="Grupo_1862" data-name="Grupo 1862">
                <path id="Trazado_7896" data-name="Trazado 7896" d="M2566.9,3302.4c-8.417,2.122-15.058,4.812-14.688,8.27s2.693,5.524,9.224,7.929l5.89.12,3.7-6.136,1.222-4.618Z" transform="translate(-2552.197 -3298.72)" fill="#ec9778"/>
                <path id="Trazado_7897" data-name="Trazado 7897" d="M2578.148,3307.373c2.973-1.417,3.357-2.575,5.272-3.222.581-3.7,2.018-2.436,1.79-9.278s4.059-6.3,4.2-4.475c.066.881,1.965,3.133,4.84,5.669s1.512,8.865-1.584,10.351a1.876,1.876,0,0,1-.043.244s0,0,0,.008C2590.706,3312.47,2581.676,3309.175,2578.148,3307.373Z" transform="translate(-2570.906 -3289.208)" fill="#804632"/>
                <path id="Trazado_7898" data-name="Trazado 7898" d="M2589.035,3337.413c2.405.212,2.685,2.174,1.239,3.057s-3.851.671-3.925-.782S2589.035,3337.413,2589.035,3337.413Z" transform="translate(-2576.817 -3323.96)" fill="#ec9778"/>
              </g>
            </g>
          </g>
          <path id="Trazado_7899" data-name="Trazado 7899" d="M2508.256,3390.82c1.615-.344,5.051-2.593,6.547-3.531,1.658-1.041,2.577-1.422,3.253-3.038.753-1.8,1.733-3.213.89-5.264-1.665-4.042-8.4-.66-9.99,1.727a6.986,6.986,0,0,0-1.129,4.227,8.769,8.769,0,0,0,1.588,2.97C2509.813,3388.538,2507.85,3390.351,2508.256,3390.82Z" transform="translate(-2350.234 -3352.576)" fill="#59b0b8"/>
          <path id="Trazado_7900" data-name="Trazado 7900" d="M2483.448,3348.3c-8.357,11.509-23.67,9.6-23.67,9.6l-4.675-.359c-.61-1.484-1.093-2.749-1.169-2.98-.144-.439-2.421-8.493-3.354-12.454a42.34,42.34,0,0,0,10.344-2.825,16.846,16.846,0,0,1,17.351,2.446C2478.565,3346.633,2483.448,3348.3,2483.448,3348.3Z" transform="translate(-2308.991 -3324.304)" fill="#275a80"/>
          <path id="Trazado_7901" data-name="Trazado 7901" d="M2491.609,3370.838c5.314-.631,7.18,2.248,7.18,4.47s-.861,6.4-11.316,7.995c-9.177,1.4-5.917-11.557-5.917-11.557Z" transform="translate(-2330.918 -3347.993)" fill="#1d425e"/>
          <path id="Trazado_7902" data-name="Trazado 7902" d="M2149.055,3335.09l-.012,27.137H2005.688c-.606-1.245-1.137-6.949-.619-9,1.763-6.949,5.258-16.458,16.255-11.7,7.129,3.083,11.357,3.295,22.818,3.758,3.04.124,6.039.112,9.075-.024q1.526-.066,3.071-.18h0a196.849,196.849,0,0,0,24.194-3.53l.124-.024c.857-.167,1.727-.331,2.6-.482,13.551-2.366,29.032-2.92,33.448-4.272C2132.572,3331.9,2149.725,3335.014,2149.055,3335.09Z" transform="translate(-1987.665 -3321.528)" fill="#fff"/>
          <g id="Grupo_1865" data-name="Grupo 1865" transform="translate(64.798 24.472)">
            <path id="Trazado_7903" data-name="Trazado 7903" d="M2260.682,3397.374a1.289,1.289,0,0,1-1.289-1.289v-8.275a8.349,8.349,0,0,0-8.34-8.34h-64.705a8.349,8.349,0,0,0-8.34,8.34v8.275a1.289,1.289,0,0,1-2.577,0v-8.275a10.93,10.93,0,0,1,10.917-10.917h64.705a10.929,10.929,0,0,1,10.917,10.917v8.275A1.289,1.289,0,0,1,2260.682,3397.374Z" transform="translate(-2175.432 -3376.893)" fill="#8c8c8c"/>
          </g>
          <path id="Trazado_7904" data-name="Trazado 7904" d="M2509.045,3337.8c2.339.84,2.46,2.829,2.173,4.965s-1.2,8.788-1.031,10.56-1.154,11.614-1.154,11.614l-3.731-8.2-1.092-10.262v-5.208Z" transform="translate(-2347.656 -3324.24)" fill="#fff"/>
          <path id="Trazado_7905" data-name="Trazado 7905" d="M2334.757,3434.655c-1.388,1.711-3.646,2.712-5.573,3.722-2.126,1.112-3.77,2.374-5.516,3.366h-13.81a53.269,53.269,0,0,0-5.6-2.026,107.91,107.91,0,0,1-12.64-4.039c1.376-.239,3.792-.178,4.921-1.023Z" transform="translate(-2194.391 -3394.063)" fill="#b3b3b3"/>
          <path id="Trazado_7906" data-name="Trazado 7906" d="M2269.125,3413.872c7.276.928,21.794,3.587,26.041,3.8,9,.451,16.658-4.016,23.36-3.908s-8.679-6.878-8.679-6.878l-20.042-1.211s-7.468,1.529-8.425,1.211S2269.125,3413.872,2269.125,3413.872Z" transform="translate(-2178.178 -3373.17)" fill="#fff"/>
        </g>
        <g id="Grupo_1874" data-name="Grupo 1874" transform="translate(210.333 53.684)">
          <g id="Grupo_1867" data-name="Grupo 1867" transform="translate(8.633)">
            <path id="Trazado_7907" data-name="Trazado 7907" d="M2745.744,3289.919s-15.524,20.346-17.9,22.548c0,0,.763,2.794,2.3,4.027,0,0,31.506-15.1,28-24.984l-7.676-1.453c-.71-.1-2.956.871-2.51.31Z" transform="translate(-2727.84 -3289.919)" fill="#fff"/>
          </g>
          <g id="Grupo_1872" data-name="Grupo 1872" transform="translate(0 17.194)">
            <g id="Grupo_1868" data-name="Grupo 1868" transform="translate(0 4.167)">
              <path id="Trazado_7908" data-name="Trazado 7908" d="M2697.8,3370.814c-2.219-2.937.162-5.381,2-3.916s.144,2.691.144,2.691Z" transform="translate(-2696.905 -3366.46)" fill="#275a80"/>
            </g>
            <g id="Grupo_1870" data-name="Grupo 1870" transform="translate(0.524)">
              <g id="Grupo_1869" data-name="Grupo 1869">
                <path id="Trazado_7909" data-name="Trazado 7909" d="M2708.562,3361.279l-.012.008h0c-3.954,2.635-5.705,2.706-8.2.366-1.229-1.152-3.469-4.539,1.625-6.014-1.562-.27-2.45-1.211-2.058-1.784.876-1.281,5.709.059,5.709.059l1.6.459h0l4.764-2.845,2.625,7.169C2712.326,3359.687,2710.235,3360.583,2708.562,3361.279Z" transform="translate(-2698.782 -3351.528)" fill="#2f6c99"/>
              </g>
            </g>
            <g id="Grupo_1871" data-name="Grupo 1871" transform="translate(0.043 5.491)">
              <path id="Trazado_7910" data-name="Trazado 7910" d="M2697.119,3371.2a1.211,1.211,0,0,0,.995.332c.623-.074.539,2.659.539,2.659l.2,1.386S2696.68,3373.608,2697.119,3371.2Z" transform="translate(-2697.06 -3371.202)" fill="#2f6c99"/>
            </g>
          </g>
          <g id="Grupo_1873" data-name="Grupo 1873" transform="translate(13.725 11.365)">
            <path id="Trazado_7911" data-name="Trazado 7911" d="M2748.711,3343.64c1.581.824,10.564-6.841,10.564-6.841l-.182-3.4-6.007-2.751s-6.965,3.908-7,5.829S2747.521,3341.976,2748.711,3343.64Z" transform="translate(-2746.084 -3330.643)" fill="#fff"/>
          </g>
        </g>
        <path id="Trazado_7912" data-name="Trazado 7912" d="M2095.645,3319.065c.761,1.422-1.8,3.65-1.025,5.065,2.377,1.236,6.836,3.936,9.828,5.13a39.9,39.9,0,0,0,10.631,2.65c1.155.117,4.319,1.025,5.035.131.456-.57.065-2.96-.292-3.61-.825-1.5-2.723-1.928-4.045-2.806a30.139,30.139,0,0,1-6.808-6.273,21.139,21.139,0,0,0-2.974-3.837,17.665,17.665,0,0,1-3.405-3.181c-.993-1.444-1.646-2.98-3.2-3.981-5.061-3.266-7.014,2.637-6.051,6.881C2093.865,3317.541,2096.6,3318.874,2095.645,3319.065Z" transform="translate(-2051.282 -3248.843)" fill="#d9d9d9"/>
        <g id="Grupo_1882" data-name="Grupo 1882" transform="translate(41.743 50.846)">
          <g id="Grupo_1875" data-name="Grupo 1875">
            <path id="Trazado_7913" data-name="Trazado 7913" d="M2106.063,3281.346s9.871,23.612,11.616,26.345c0,0-1.445,2.51-3.243,3.314,0,0-26.659-22.584-20.764-31.254l7.794.536c.712.083,2.64,1.59,2.351.935Z" transform="translate(-2092.821 -3279.75)" fill="#fff"/>
          </g>
          <g id="Grupo_1880" data-name="Grupo 1880" transform="translate(16.933 21.472)">
            <g id="Grupo_1876" data-name="Grupo 1876" transform="translate(12.44 7.012)">
              <path id="Trazado_7914" data-name="Trazado 7914" d="M2200.237,3386.292c2.89-2.28,1.2-5.248-.945-4.295s-.82,2.567-.82,2.567Z" transform="translate(-2198.067 -3381.814)" fill="#59b0b8"/>
            </g>
            <g id="Grupo_1878" data-name="Grupo 1878">
              <g id="Grupo_1877" data-name="Grupo 1877">
                <path id="Trazado_7915" data-name="Trazado 7915" d="M2158.69,3366.988l.01.011h0c3.159,3.55,4.835,4.062,7.842,2.43,1.481-.8,4.5-3.514-.051-6.23,1.58.134,2.677-.552,2.443-1.206-.524-1.46-5.539-1.387-5.539-1.387l-1.66.04h0l-3.889-3.958-4.354,6.271C2155.451,3364.495,2157.248,3365.89,2158.69,3366.988Z" transform="translate(-2153.493 -3356.688)" fill="#65c7d0"/>
              </g>
            </g>
            <g id="Grupo_1879" data-name="Grupo 1879" transform="translate(13.365 8.759)">
              <path id="Trazado_7916" data-name="Trazado 7916" d="M2204.162,3388.073a1.211,1.211,0,0,1-1.046.07c-.584-.229-1.194,2.436-1.194,2.436l-.54,1.291S2203.978,3390.512,2204.162,3388.073Z" transform="translate(-2201.382 -3388.073)" fill="#65c7d0"/>
            </g>
          </g>
          <g id="Grupo_1881" data-name="Grupo 1881" transform="translate(2.8 5.785)">
            <path id="Trazado_7917" data-name="Trazado 7917" d="M2116.986,3322.436c-1.738.4-14.132-13.408-14.132-13.408l2.973-8.55,10.214,8.277s5.75,5.543,5.3,7.411S2118.558,3321.127,2116.986,3322.436Z" transform="translate(-2102.854 -3300.478)" fill="#fff"/>
          </g>
        </g>
      </g>
    </g>
  </g>
</svg>
