<svg xmlns="http://www.w3.org/2000/svg" viewBox="0 0 543.45 450.84"><defs><style>.cls-1{isolation:isolate;}.cls-2,.cls-3{fill:#fefefe;}.cls-2{opacity:0.5;}.cls-4{fill:#5999a8;}.cls-26,.cls-4{opacity:0.1;}.cls-5{fill:#fff;}.cls-6{fill:#dce8ef;}.cls-7{fill:#1c5161;}.cls-8{fill:#6eb0c3;}.cls-11,.cls-9{fill:#fffffc;}.cls-9{opacity:0.6;}.cls-10{fill:#30c1c7;}.cls-12{fill:#e6e6e6;}.cls-13{fill:#b3d8e3;}.cls-14{fill:#f0f9fb;}.cls-15{fill:#e6edff;mix-blend-mode:multiply;}.cls-16{opacity:0.07;}.cls-17{fill:#cfd6d9;}.cls-18{fill:#ce9013;}.cls-19{fill:#e5ebee;}.cls-20{fill:#122b38;}.cls-21,.cls-42{opacity:0.2;}.cls-22{fill:#235670;}.cls-23{fill:#eff3f4;}.cls-24{opacity:0.03;}.cls-25{fill:#f8bda1;}.cls-27{fill:#f7f8f9;}.cls-28{opacity:0.05;}.cls-29{fill:#00758a;}.cls-30{fill:#888887;}.cls-31{fill:#e6e7e8;}.cls-32{fill:#7f8285;}.cls-33{fill:#6c6e71;}.cls-34{fill:#009da6;}.cls-35{fill:#58c0c6;}.cls-36{fill:#0098a0;}.cls-37{fill:#0f92bf;}.cls-38{fill:#e09a63;}.cls-39{fill:#593b24;}.cls-40{fill:#12799e;}.cls-41{fill:#79cdd1;}.cls-42{fill:#1d1d1b;}.cls-43,.cls-50,.cls-51{fill:#eaeef0;}.cls-44,.cls-47{fill:#d6dce2;}.cls-45{fill:#ccd3db;}.cls-46{fill:#db9165;}.cls-47,.cls-48,.cls-51{opacity:0.5;}.cls-48{fill:#6791af;}.cls-49{fill:#1c547a;}.cls-50{opacity:0.3;}.cls-52{fill:#0082a3;}.cls-53{fill:#00808a;}.cls-54{fill:#006c80;}.cls-55{fill:#302929;}.cls-56{fill:#855f49;}</style></defs><g class="cls-1"><g id="Capa_2" data-name="Capa 2"><g id="Capa_1-2" data-name="Capa 1"><path class="cls-2" d="M97.08,228.27C122.46,324.69,300.28,474,399.63,447.82S482.21,230,456.84,133.6,330.36-19.79,231,6.35,71.71,131.85,97.08,228.27Z"/><path class="cls-2" d="M86.05,394c35.16,52.29,157,52.09,252.62,20.55S578.15,285.49,535.86,157.25C519.4,107.33,450.55,24,257.41,116.59,150.22,168,37.49,321.77,86.05,394Z"/><path class="cls-3" d="M14.59,234.6c15.54,98.16,209.2,177.39,306.67,162s185.2-139.23,169.66-237.39S423.72,1,291.58,98.26C212,156.83-1,136.44,14.59,234.6Z"/><path class="cls-2" d="M61.81,350.35c4-11.31-10.5-40.48-27.34-46.37S4.79,317.74.83,329.05s6.5,25.24,23.34,31.12S57.85,361.66,61.81,350.35Z"/><path class="cls-2" d="M428.81,23.06c-2.45,7,8.24,25.74,20,29.85s20.16-8,22.61-15-5.1-16-16.87-20.15S431.26,16,428.81,23.06Z"/><path class="cls-4" d="M245.16,201.4l-.14-.05a6.81,6.81,0,0,0,1.13.54l-.57-.3Z"/><path class="cls-5" d="M50.06,40.4a8.15,8.15,0,1,0,8.15,8.15A8.16,8.16,0,0,0,50.06,40.4Zm0,13.34a5.19,5.19,0,1,1,5.19-5.19A5.2,5.2,0,0,1,50.06,53.74Z"/><rect class="cls-6" x="83.7" y="40.48" width="4.94" height="296.87"/><rect class="cls-5" x="82.13" y="40.48" width="8.08" height="15.5"/><rect class="cls-5" x="48.98" y="40.48" width="74.39" height="2.96"/><path class="cls-5" d="M123.37,40.4a8.15,8.15,0,1,0,8.15,8.15A8.16,8.16,0,0,0,123.37,40.4Zm0,13.34a5.19,5.19,0,1,1,5.18-5.19A5.2,5.2,0,0,1,123.37,53.74Z"/><path class="cls-5" d="M119.16,343.66l-32.92-5.13v6.76L123,348.14v-1.2C123,345.36,121.4,344,119.16,343.66Z"/><path class="cls-5" d="M118.49,349.31a4.52,4.52,0,0,0,4.51,4.52v-7h-4.51Z"/><path class="cls-7" d="M124.68,348.66a4.65,4.65,0,1,0,4.65,4.65A4.65,4.65,0,0,0,124.68,348.66Z"/><path class="cls-8" d="M124.68,350.34a3,3,0,1,0,3,3A3,3,0,0,0,124.68,350.34Z"/><path class="cls-5" d="M49.34,346.94v1.2l36.77-2.85v-6.76l-32.92,5.13C50.94,344,49.34,345.36,49.34,346.94Z"/><path class="cls-5" d="M49.34,353.83a4.52,4.52,0,0,0,4.52-4.52v-2.52H49.34Z"/><path class="cls-7" d="M47.67,348.66a4.65,4.65,0,1,0,4.64,4.65A4.65,4.65,0,0,0,47.67,348.66Z"/><circle class="cls-8" cx="47.67" cy="353.31" r="2.96" transform="translate(-306.96 389.93) rotate(-88.21)"/><rect class="cls-5" x="80.92" y="321.42" width="10.37" height="23.49" rx="2.79"/><rect class="cls-5" x="83.14" y="340.69" width="5.93" height="10.29"/><rect class="cls-8" x="83.93" y="348.66" width="4.36" height="8.13"/><path class="cls-7" d="M88.29,348.66v9.26a2.18,2.18,0,0,0,2-2.31V351A2.19,2.19,0,0,0,88.29,348.66Z"/><path class="cls-7" d="M81.9,351v4.63a2.18,2.18,0,0,0,2,2.31v-9.26A2.19,2.19,0,0,0,81.9,351Z"/><path class="cls-9" d="M132.53,61h-2.67a1.64,1.64,0,0,1-.86-.26,10.45,10.45,0,0,0-10.62,0,1.63,1.63,0,0,1-.85.26h-2.68a1.77,1.77,0,0,0-1.7,1.84V95.94a1.77,1.77,0,0,0,1.7,1.84h3a1.63,1.63,0,0,1,.9.29,9.5,9.5,0,0,0,10,0,1.6,1.6,0,0,1,.89-.29h2.95a1.78,1.78,0,0,0,1.71-1.84V62.82A1.78,1.78,0,0,0,132.53,61Zm-7.08,2.72h-3.51a1.16,1.16,0,0,1,0-2.31h3.51a1.16,1.16,0,0,1,0,2.31Z"/><path class="cls-10" d="M115.89,94.81h1.91a4.3,4.3,0,0,1,2.3.7,6.89,6.89,0,0,0,7.18,0,4.33,4.33,0,0,1,2.3-.7h1.91V77.73h-15.6Z"/><rect class="cls-11" x="122.28" y="96.52" width="2.04" height="5.57"/><rect class="cls-9" x="121.55" y="102.09" width="3.5" height="9.86"/><rect class="cls-11" x="121.98" y="51.45" width="2.88" height="12.26"/><path class="cls-9" d="M128.34,62.58a3,3,0,0,1-2.89,3.1h-3.51a3,3,0,0,1-2.9-3.1,3.28,3.28,0,0,1-1.51.38H115V87.44c3.72-9.2,10.44-17,16.72-24.48h-1.84A3.29,3.29,0,0,1,128.34,62.58Z"/><path class="cls-11" d="M115.71,182l-15.65-9.05c-8.09-4.67-15.26-7.18-18.83-1.8-2.27,3.42.06,8.6,5.2,11.57l26.36,15.23c5.13,3,11.14,2.61,13.4-.81C129.76,191.75,123.8,186.66,115.71,182Z"/><rect class="cls-11" x="97.61" y="286.35" width="15.93" height="40"/><rect class="cls-11" x="365.27" y="286.35" width="15.93" height="44.29"/><rect class="cls-11" x="100.3" y="286.35" width="280.9" height="27.85"/><path class="cls-5" d="M97.61,345.69a15.92,15.92,0,0,0,15.93-15.92v-7H97.61Z"/><circle class="cls-7" cx="94.76" cy="344.23" r="13.12" transform="matrix(0.03, -1, 1, 0.03, -252.45, 427.43)"/><path class="cls-8" d="M94.76,335.75a8.48,8.48,0,1,0,8.48,8.48A8.48,8.48,0,0,0,94.76,335.75Z"/><path class="cls-5" d="M365.29,345.69a15.92,15.92,0,0,0,15.93-15.92v-7H365.29Z"/><circle class="cls-7" cx="362.44" cy="344.23" r="13.12" transform="translate(11.03 699.72) rotate(-88.85)"/><path class="cls-8" d="M362.44,335.75a8.48,8.48,0,1,0,8.48,8.48A8.48,8.48,0,0,0,362.44,335.75Z"/><rect class="cls-12" x="113.54" y="276.22" width="251.73" height="10.13"/><path class="cls-13" d="M395.11,231.51H164.75L73.83,170.78a12.33,12.33,0,1,0-13.7,20.5l98.57,65.94H394c6.81,0,13.49-6.56,13.49-13.37A12.34,12.34,0,0,0,395.11,231.51Z"/><polygon class="cls-11" points="70.64 212.44 114.57 271.83 119.59 268.26 75.67 208.87 70.64 212.44"/><path class="cls-11" d="M415.93,257H158.49L53.11,186.55a6.94,6.94,0,1,0-7.71,11.53l108.88,72.74H415.93a6.94,6.94,0,0,0,0-13.87Z"/><path class="cls-11" d="M422.86,202.23a5.38,5.38,0,0,0-5.38,5.38v68.61h10.77V207.61A5.38,5.38,0,0,0,422.86,202.23Z"/><path class="cls-13" d="M371.16,202.33H201.32v54.89H407.87V239A36.72,36.72,0,0,0,371.16,202.33Z"/><path class="cls-14" d="M188.89,196.83v60.39h47.69q-.29-30.2-.92-60.39Z"/><path class="cls-15" d="M255.3,263.88V228.09a18.76,18.76,0,0,0-18.73-18.74H50.26a18.72,18.72,0,0,0-15.95,9V149.46a7.49,7.49,0,0,0-15,0V276.22H428.25V263.88ZM37.7,228.09a12.58,12.58,0,0,1,12.56-12.57H236.57a12.59,12.59,0,0,1,12.57,12.57V260.8H37.7Z"/><ellipse class="cls-16" cx="169.97" cy="402.12" rx="43.78" ry="3.28"/><ellipse class="cls-16" cx="234.57" cy="393.27" rx="43.78" ry="3.28"/><ellipse class="cls-16" cx="349.23" cy="395.72" rx="43.78" ry="3.28"/><ellipse class="cls-16" cx="435.91" cy="388.28" rx="43.78" ry="3.28"/><polygon class="cls-17" points="238.57 290.69 270.4 289.63 257.32 250.37 238.57 290.69"/><path class="cls-18" d="M260.94,120.19l-4.85-.23c-6.61-.2-11.34,2.17-11.55,8.8l5.65,19.82c3.36.06-.83,2.19,2.53,2.14,6.27-.09,10.48.31,11.82.27,0,0,8.42-5.08,8.09-14.63C272.18,123.39,267.55,120.4,260.94,120.19Z"/><path class="cls-19" d="M260.7,380.54s-5.14,7-6.5,7.18c-8,1-6.16,6.5-6.16,6.5h9.07c5.81,0,9.66,0,14.53,0a1.89,1.89,0,0,0,1.74-1.85,35,35,0,0,0-1.74-11.32Z"/><path class="cls-20" d="M282.76,254.49a72.26,72.26,0,0,0-3-20.3c-15.63.3-31.24.53-46.8-1l-5.13,35.47s-7.64,45.85-8.72,51.82-4.61,60.53-4.61,60.53l12,.51S231,359.8,233,346.34c1-6.84,1.47-23.27,2.4-25.82,2.05-5.69,17.19-46.77,19.41-52.8,1.9,18.59,5.1,50.49,5.1,53.16,0,3.8.54,59.66.54,59.66l11.37.85c4.53-31.38,6.58-52.92,6-58.88-.16-1.62-.54-14.65-.54-14.65S282.84,258.29,282.76,254.49Z"/><path class="cls-21" d="M282.76,254.49a72.26,72.26,0,0,0-3-20.3c-15.63.3-31.24.53-46.8-1L231.72,242c8.62-.69,17.59-.29,25.66,2,5.05,1.41,10.13,3.93,12.83,8.64s3.31,10.54,3.45,15.94c.14,5.19-.4,10.35-.57,15.53-.26,7.71-.09,15.43-.3,23.14a375.14,375.14,0,0,1-4.85,51.28c-1.31,7.84-3.51,15.47-7.5,22v.05l11.37.85c4.53-31.38,6.58-52.92,6-58.88-.16-1.62-.54-14.65-.54-14.65S282.84,258.29,282.76,254.49Z"/><path class="cls-21" d="M232.27,305.49c-2,5.9-2.79,11.87-3.6,18-5.66,42.93-14.14,57.55-14.14,57.55l12,.51S231,359.8,233,346.34c1-6.84,1.47-23.27,2.4-25.82,2.05-5.69,17.19-46.77,19.41-52.8.6,5.85.34-7.53.17-7.6C253.48,259.57,234,300.28,232.27,305.49Z"/><path class="cls-22" d="M283.78,160.63s-23.64-10-48.35-.11l1.07,15s-2.51,8.52-3,11.2c-1.47,7.77,1.37,10.74,1.37,10.74l-3.57,45.37,50.28-2.56s-4.28-20.69-3.57-36.15C278.28,197.86,283.78,160.63,283.78,160.63Z"/><path class="cls-23" d="M233.72,204l2-8.75,3.78-36.12s-7.69,1.37-9.06,5.65c-1.06,3.3-6,14.36-9.27,40-.81,6.29-.28,7.69,2.47,9.06s15.41,2.77,32.82-.86l-4.53-3.81Z"/><path class="cls-24" d="M235.71,195.21l2.11-20.11a106,106,0,0,0-3.51,15.3v-.05c-.41,2.87-1,5.71-1.43,8.59a21.49,21.49,0,0,0-.13,4c.06.29.13.58.21.86l.08.23c.07.14.16.27.24.4l.3.29.46.28.29.15.29.1c.33.11.66.2,1,.28,1.22.29,2.48.48,3.73.65s2.52.31,3.79.43L233.72,204Z"/><path class="cls-24" d="M221.16,204.72c-.81,6.29-.28,7.69,2.47,9.06,1,.52,3.46,1,7,1.29a14,14,0,0,1-1.68-.48,12.24,12.24,0,0,1-4.09-2.26,7.62,7.62,0,0,1-2.49-5.39,20.46,20.46,0,0,1,.3-4.35,23.31,23.31,0,0,1,.11-3.14c.37-3.74,1.25-7.4,1.76-11.13l-.18,1.33a115.51,115.51,0,0,1,7-26.62,5,5,0,0,0-1,1.71C229.37,168,224.44,179.1,221.16,204.72Z"/><path class="cls-23" d="M249.19,184.64c-2.78-17.64-.52-28.35-1.35-28.15a88.3,88.3,0,0,0-13,4.09l1.2,15s-2.5,8.52-3,11.2c-1.47,7.77,1.37,10.74,1.37,10.74L221,294.86l21.5,1.38C242.26,286.48,250.77,194.67,249.19,184.64Z"/><path class="cls-23" d="M278,204.17c.29-6.31,5.79-43.54,5.79-43.54a66.62,66.62,0,0,0-16.64-4c-2.39-.28-9.87,27.58-9.85,37.36s-.61,10.68-1.68,20.47c-1,9.05-2.76,72.69-2.55,81.76l33.87-3.72s-2.06-25.17-4.65-48.88C280.42,226.65,277.69,210.62,278,204.17Z"/><path class="cls-16" d="M278,204.17c.15-3.36,1.78-15.48,3.28-26.08-1.49,2.21-6.69-1-7.85.68-4.2,6-3.16,18.83-10.8,20.75-3.49.87-8.37.06-11.91,0-4.14-.08-8.28-.13-12.41-.36-1.35-.08-2.46-1.1-3.45-1.63l-.22,2.77a11,11,0,0,1,1.52.16c8.18,1.44,24.39,6,32.32,3.22,9.84-3.46,8.33,8.24-2,8.78-13.85.73-23.33,3.5-34.67,2.92l-.18,2.37c4.94-1.22,21.75-.94,23.65-.57,7.38,1.46,11.7,2.63,16.72,9.06,2.73,2,14.93,66.3,14.93,66.3s-2.12-25.6-4.73-49.64C280.4,226.29,277.7,210.49,278,204.17Z"/><path class="cls-23" d="M283.21,160.52c-7.14-1.1-8,9.88-8,9.88l-7.13,32.67-24.68-4.38c-3,2.74-2.22,7.05-2.22,7.05s19.11,9.26,25.52,10.79c9.54,2.26,12.45-2.26,12.45-2.26,10.43-18.12,9.79-39.2,10.07-45.79S283.21,160.52,283.21,160.52Z"/><path class="cls-24" d="M288.88,166.58a108.14,108.14,0,0,1-3.21,19.09c-1.24,4.77-2.79,9.5-4.38,14.16-1.35,3.93-3.17,7.8-6.87,10-4.65,2.78-10.51,2.09-15.52.94-5.59-1.27-10.86-3.59-16.33-5.26a5,5,0,0,1-1.45-.72,9.19,9.19,0,0,0,.09.93s19.11,9.26,25.52,10.79c9.54,2.26,12.45-2.26,12.45-2.26,10.43-18.12,9.79-39.2,10.07-45.79a8.35,8.35,0,0,0-.32-2.75C288.92,166,288.9,166.3,288.88,166.58Z"/><path class="cls-25" d="M252.27,144.27l-.47,15a6.7,6.7,0,0,0,6.48,6.92c3.7.11,7.48-5.53,7.6-9.23l-1.75-12.31Z"/><path class="cls-26" d="M252.27,144.27l-.29,9.35c.69,1.84,2.63,2.12,5.55,1.63,3.31-.56,5.13-1.79,7.52-4.1l-.92-6.5Z"/><path class="cls-25" d="M255.27,130.45c-4.43-.14-8.45-.63-8.45-.63l-.38,10c-.2,6.21,2.89,14.11,8.43,13.56,11.33-1.11,13.85-4.44,14-10.66l.43-13.59S259,130.57,255.27,130.45Z"/><path class="cls-27" d="M252,153.4l-4.92,3.67c-.3,10.2,5.39,12.69,5.39,12.69l3.81-3.95C251.41,163.71,252,153.4,252,153.4Z"/><path class="cls-27" d="M256.19,165.81l3.55,4.18s7-2.33,10.25-12.94l-4.68-3.9S261.73,164,256.19,165.81Z"/><path class="cls-19" d="M214.7,380.54s-10.52,7.15-14,7.52c-8,.85-6.55,6.16-6.55,6.16s27.68,0,32.55,0a1.89,1.89,0,0,0,1.74-1.85,35,35,0,0,0-1.74-11.32Z"/><path class="cls-22" d="M248,394.22h9.07c5.81,0,9.66,0,14.53,0a1.89,1.89,0,0,0,1.74-1.85,1.2,1.2,0,0,0,0-.19H247.9A4.93,4.93,0,0,0,248,394.22Z"/><path class="cls-22" d="M194.12,394.22s27.68,0,32.55,0a1.89,1.89,0,0,0,1.74-1.85v-.19H194.14A4.5,4.5,0,0,0,194.12,394.22Z"/><path class="cls-28" d="M236.5,175.57s-3.83,7.26-4.33,8.72c-2.66,7.84-.77,10.39-.35,11.48s-1.35,7.53-1.35,7.53l4.2-3.5.18-2.29s-2.49-4.42-1.66-8.78S236.5,175.57,236.5,175.57Z"/><path class="cls-29" d="M233.25,198.45c-2.71,2.64-2.78,4.85-2.78,4.85l10.66,1.58a9.58,9.58,0,0,1,.78-3.72,6.54,6.54,0,0,1,1.24-1.85l-5.79-1.9A5.24,5.24,0,0,0,233.25,198.45Z"/><path class="cls-29" d="M273.74,190.94a11.93,11.93,0,0,0-2.37,1,15.27,15.27,0,0,0,1.73-1.55c.41-.52,0-1.45,0-1.45a45,45,0,0,0-4,2.08c-.81.58-2.77,2.31-2.77,2.31s-1.37,2.63-1.72,3.55-2.05,5.27-2.05,5.27l5.58.94,1-3a35.25,35.25,0,0,0,4.53-2.14c.93-.69,0-1.61,0-1.61l-1.9.52L268.78,198l2.42-1.39s4.09-1.84,4.33-2.13.17-.58.17-1.1a1.32,1.32,0,0,0-.23-.8,2.71,2.71,0,0,0,.75-.81,1.17,1.17,0,0,0-.29-1.1C275.76,190.54,274.49,190.83,273.74,190.94Z"/><path class="cls-5" d="M263.79,142.08l4.11-4.46c0-.33-.07-1-.07-1.1l-4.53,4.56c-2.19-1-10.21-4.15-16.87-.25,0,0-.1,7.44,2.67,10.51,2.12,2.36,5.4,5.38,14.37.33h0l.28-.17.14-.07h0c.23-.15.5-.32.65-.44a51.72,51.72,0,0,0,3.94-4.78,11.78,11.78,0,0,1,.17-1.17l-4.91,5.2A38.71,38.71,0,0,1,263.79,142.08Z"/><path class="cls-28" d="M263.55,146.74a11.86,11.86,0,0,1-9.13,1.25,10.61,10.61,0,0,1-7.08-7.64c-.31.14-.61.31-.91.48,0,0-.1,7.44,2.67,10.51,2.12,2.36,5.4,5.38,14.37.33h0l.28-.17.14-.07h0c.23-.15-.15-1.19-.15-1.19C263.66,149.41,263.56,148.19,263.55,146.74Z"/><path class="cls-30" d="M248.36,174l-.64.2a31.64,31.64,0,0,1,1.24,7c.24,3.67-.07,9-2.94,13.45a1.18,1.18,0,0,1-.79.52c-1.89.42-5.46-1.71-5.5-1.74l-.36.55c.16.09,3.85,2.3,6,1.82a1.86,1.86,0,0,0,1.22-.81c3-4.63,3.28-10.08,3-13.85A32,32,0,0,0,248.36,174Z"/><path class="cls-30" d="M239.81,193l-1.08-.64a.71.71,0,0,0-.95.22.63.63,0,0,0,.23.9l1.08.64a.71.71,0,0,0,.95-.22A.63.63,0,0,0,239.81,193Z"/><path class="cls-30" d="M240.46,195.1a1.23,1.23,0,0,1-.8-.52c-2.87-4.47-3.18-9.78-2.93-13.45a31,31,0,0,1,1.24-7l-.65-.2a32,32,0,0,0-1.27,7.12c-.25,3.77.07,9.22,3,13.85a1.82,1.82,0,0,0,1.21.81c2.16.48,5.85-1.73,6-1.82l-.36-.55S242.34,195.52,240.46,195.1Z"/><path class="cls-30" d="M247,192.4l-1.08.64a.65.65,0,0,0-.23.9.71.71,0,0,0,1,.22l1.09-.64a.64.64,0,0,0,.22-.9A.71.71,0,0,0,247,192.4Z"/><path class="cls-20" d="M242.76,170.06c-3.49,0-6.33,2.26-6.33,6h1.38a5,5,0,0,1,9.89,0h1.39C249.09,172.32,246.25,170.06,242.76,170.06Z"/><path class="cls-20" d="M243,162.63a25.54,25.54,0,0,0-.95,7.72l1-.06a24.6,24.6,0,0,1,.92-7.4,13.51,13.51,0,0,1,5.23-7.43l.94-.48c0-.37,1.42-1.09,1.49-1.45C246.6,154.89,244.33,158.45,243,162.63Z"/><path class="cls-20" d="M265.2,152.29l.09,1c2.74,1.57,4.6,4.54,5.53,8.88a31.1,31.1,0,0,1,.53,8.65l1.17.11a31.8,31.8,0,0,0-.54-9C270.76,156.3,269,154.53,265.2,152.29Z"/><path class="cls-31" d="M271.94,170.89a3.19,3.19,0,1,0,3.36,3.19A3.29,3.29,0,0,0,271.94,170.89Z"/><path class="cls-32" d="M271.94,171.94a2.15,2.15,0,1,0,2.38,2.14A2.28,2.28,0,0,0,271.94,171.94Zm0,3.84a1.71,1.71,0,1,1,1.93-1.7A1.82,1.82,0,0,1,271.94,175.78Z"/><path class="cls-33" d="M271.94,170.49a3.59,3.59,0,1,0,3.78,3.59A3.7,3.7,0,0,0,271.94,170.49Zm0,6.38a2.79,2.79,0,1,1,2.95-2.79A2.87,2.87,0,0,1,271.94,176.87Z"/><path class="cls-26" d="M268.72,175.83a3.75,3.75,0,0,0,3.22,1.76,3.62,3.62,0,0,0,3.71-3.51,3.43,3.43,0,0,0-.5-1.76A7.51,7.51,0,0,1,268.72,175.83Z"/><path class="cls-25" d="M269,136.71c-1.29-.36-2.3,1.65-2.3,1.65s-2.58,5.14.4,5.64S270.86,137.24,269,136.71Z"/><path class="cls-34" d="M261.73,115.83c-4.76-.23-9,1-14.36,3.38-2.08.91-7.33,13.27-1.06,15.78,0,0-.77-4.41,6.74-4.64,6.17-.18,8.61,0,10.91.92s5,11.47,3.71,17.13l-.94.89s1.34.6,3.6-.95c6-4.07,6.25-13.21,6-20.3S266.49,116.06,261.73,115.83Z"/><path class="cls-26" d="M246.31,135s-.59-3.44,4.43-4.4a25.41,25.41,0,0,1-4-10.92C244.49,122.12,240.57,132.69,246.31,135Z"/><path class="cls-26" d="M268,144a17.78,17.78,0,0,1-.3,4.38l-.94.89s1.34.6,3.6-.95a11.74,11.74,0,0,0,4.08-5.08A13.93,13.93,0,0,1,268,144Z"/><path class="cls-5" d="M154.23,393.62,148,390.24l-10.43-1.88s-3.61,5.9-2.58,12.57h26.24A9.67,9.67,0,0,0,154.23,393.62Z"/><path class="cls-5" d="M200.37,394.26l-14.78-5.87H176a21.3,21.3,0,0,0-2.48,12.51h34.42S207.42,395,200.37,394.26Z"/><path class="cls-35" d="M202.76,394.78l-7.43-3A67.22,67.22,0,0,1,184,392.84a56.51,56.51,0,0,1-10.61-1.09,25,25,0,0,0-1,8.15,2.16,2.16,0,0,0,2.14,2.09h33.61a2.19,2.19,0,0,0,1.77-3.43C208.71,396.9,206.6,395.18,202.76,394.78Z"/><path class="cls-36" d="M157.75,247.5c-5.36-.59-10.71-1.33-16.09-1.66-.43,0-.87,0-1.31-.05,0,3.25-.08,7.6-.08,13.3,0,19.42.1,58.58.1,58.58l-4.18,72.53,11.76,0,11-63,8.49-52.07,5.82,52.07,1.62,62.59,13.75-.54,2.18-68,.37-73a9.2,9.2,0,0,1-1.79.18C178.79,248.55,168.33,248.67,157.75,247.5Z"/><path class="cls-26" d="M157.75,247.5c-5.36-.59-10.71-1.33-16.09-1.66-.43,0-.87,0-1.31-.05,0,3.25-.08,7.6-.08,13.3,0,19.42.1,58.58.1,58.58l-4.18,72.53h4.33c1-9.54,2.41-19,3.79-28.52,2.51-17.19,2.31-34.48,2.72-51.8.19-8.25.75-16.44,1.47-24.65.51-5.95.84-12.3,4.1-17.51,7.26-11.6,25.15-11.05,36.86-14.59a9.48,9.48,0,0,1,1.73-.35l0-4.47a9.2,9.2,0,0,1-1.79.18C178.79,248.55,168.33,248.67,157.75,247.5Z"/><path class="cls-26" d="M183.32,343c-.08-11.81-.68-23.05-3.49-34.57a146.53,146.53,0,0,0-11.32-31.25c-.07-.15-.13-.3-.2-.46s-.31-.49-.44-.74c-.09.08-.19.14-.28.23l5.7,51,1.62,62.59,11.37-.45c-.65-3.47-1.27-6.9-1.61-10.26C183.44,367.17,183.4,355,183.32,343Z"/><path class="cls-37" d="M187.58,217.13s4-5.65,2.95-12.26c-1.48-8.89,6.56-25.6,3.12-34.4-4.05-10.35-5.36-10.16-8.64-11.74-28.4-13.69-51.09,2.08-52.73,3.94a12.39,12.39,0,0,0-2.58,8.21c2.58,21.32,5.27,29.9,7.68,39.34a49.2,49.2,0,0,0,4.13,11.06c.72-.53.9.35.06.1l-.06-.1c-1.09.81-3.45,4.92-5.32,21.49-2.59,22.86-3.1,57.22-3.1,57.22,18,5.95,66.74-2.69,66.74-2.69s-2.71-34.9-7.91-62.21C190.9,229.69,188.31,221.54,187.58,217.13Z"/><path class="cls-37" d="M141.51,221.28l.06.1C142.41,221.63,142.23,220.75,141.51,221.28Z"/><path class="cls-26" d="M167.54,252.79a3.73,3.73,0,0,0,.23-.5h0c-.06.15-.13.29-.2.44Z"/><path class="cls-26" d="M189.9,243.33l0,0a5.14,5.14,0,0,0-.5-.58C189.58,243,189.8,243.23,189.9,243.33Z"/><path class="cls-35" d="M156.86,393.62l-4-1.43a67.63,67.63,0,0,1-10.49.87c-5.14,0-7.36-.87-7.36-.87-.77,2.28-1.92,4.72-1.7,8.24a2.18,2.18,0,0,0,2.17,2h26.64a2.18,2.18,0,0,0,1.91-3.24A11.63,11.63,0,0,0,156.86,393.62Z"/><path class="cls-26" d="M185.68,217.59l-.39.12c-7.3,1.76-14.83,1.45-22.24,2.33-1.8.27-3.57.67-5.36,1a64.61,64.61,0,0,1-6.79.73,60.52,60.52,0,0,1-9.33-.34c-1.32.93-3.46,4.39-5.38,21.39-2.59,22.86-3.1,57.22-3.1,57.22A30.81,30.81,0,0,0,137.3,301c.15-7.29.29-14.57.53-21.86.2-6.13.55-12.25.83-18.37.12-2.83.11-5.67.22-8.5a76.3,76.3,0,0,1,1.26-12c.36-1.79,2.83-13.44,11.89-14.57,3.75-.46,7.46-1.32,11.26-1.28,4.44-1.29,9.39-1.62,13.78-2.15a38.24,38.24,0,0,0,7.63-2c1.12-.4,2.21-.78,3.31-1.11-.16-.7-.29-1.35-.4-1.95C187,217.41,186.33,217.51,185.68,217.59Z"/><path class="cls-26" d="M183.46,194.52c-16.45,2.35-33.18,4.63-49.8,3,1.23,6.64,5,18,5.43,18.22s.72.39,1.08.57l.56.19A15.65,15.65,0,0,0,143,217a23.88,23.88,0,0,0,4.63-.06,61.11,61.11,0,0,0,6.39-1.51,20,20,0,0,0,2-.64h0c1-.54.36-.15,0,0l-.17.08c.27-.14.56-.24.83-.37,1.24-.56,2.46-1.19,3.7-1.76,3.08-1.43,6.06-3,9.46-2.71,20.11,1.47,20.51-.87,21.55-.95.18-1.12.06-.63-.17-2-.58-3.48.2-8.49,1.15-13.84Z"/><path class="cls-26" d="M182.11,181.84c-.64-.21,3.7,10.68,3.18,10.37-4.86-1.91-24.81-2.15-31.42-1.43-1.06.11-4.53-6.46-5.77-9.38a8.57,8.57,0,0,1-.29,1.53c-.59,2.12-9.71,23.06-12.47,24.41,0,.28.25.95.5,1.77,3.59-1.53,7.68-2,11.52-2.47,2.19-.3,4.37-.64,6.57-.8s4.29-.22,6.44-.29c7.75-.23,15.48,0,23.23.23,1.77.05,3.55.05,5.34.09-.29-3.05.51-7.06,1.59-11.37C190,194.34,182.28,181.89,182.11,181.84Z"/><path class="cls-29" d="M182.11,190.71l-32.74,5.1s-3.4-28.17-5.69-30.54l-.19-.2c-1.12.62-2.26,1.21-3.42,1.78-2,1-4,1.89-6.08,2.8l-.24.25c-.26.28-.51.56-.75.85s-.33.48-.36.51a10.81,10.81,0,0,0-.94,1.7,4.15,4.15,0,0,1-2.38,1.94c.14,15.59,7.75,39.25,13.2,39.1,1,0,15.85-7.31,27.57-11.77,2.6-1,7-3.64,9.2-4.18a19,19,0,0,0,6.25.37c1.69-.24,6.77-1,6.77-1C190.22,192.41,182.11,190.71,182.11,190.71Z"/><path class="cls-28" d="M179.78,196.68c-.78.06-17.81,7.11-18.62,7.41-1.64.6-11.87,4.74-13.49,5.28-2.38.79-5.36.91-7.26-1-.91-.93-3.17-4.93-3.36-6.6-.9-2.13,7.93-5,9.94-6.33.28-.18-8.41-2.18-8.09-2.28,1.11-2.3,3.66-3.88,5.88-5a15.2,15.2,0,0,1,3.43-1.19c-1.2-8.48-3.09-20.22-4.53-21.71l-.19-.2c-1.12.62-2.26,1.21-3.42,1.78-2,1-4,1.89-6.08,2.8l-.24.25c-.26.28-.51.56-.75.85s-.33.48-.36.51a10.81,10.81,0,0,0-.94,1.7,4.15,4.15,0,0,1-2.38,1.94c.14,15.59,7.75,39.25,13.2,39.1,1,0,15.85-7.31,27.57-11.77,2.6-1,7-3.64,9.2-4.18a19,19,0,0,0,6.25.37l.78-.12C184.7,198,181.43,196.55,179.78,196.68Z"/><path class="cls-38" d="M172.51,120.77l-28,2.17,1.67,9.37c2.66,14.16,11,18.25,18.18,17.69s9.73-7.46,9.33-13.47Z"/><path class="cls-38" d="M167.08,139.43l-15.54,1.21,1.16,14.2a7.79,7.79,0,1,0,15.53-1.2Z"/><path class="cls-39" d="M170,110.73l-15,1.16s-12.47-.71-11.57,11l.79,10.2s2.54,8.26,7.93,14l-1.92-8.48s-3.46,1.46-5.12-5.9c-.58-2.58.18-3.14,1-3.2,1.11-.09,2.21,1.84,2.21,1.84l.88-.21.4-3.84a3.94,3.94,0,0,1,3.8-4.45l19.12-2S174,114.17,170,110.73Z"/><path class="cls-26" d="M153.22,146.81c9.27,9.38,14.76,3.7,14.76,3.7l-.18-1.4C162.53,151.6,153.22,146.81,153.22,146.81Z"/><path class="cls-37" d="M190.53,163.51c-2.28,6.85-4.48,24.5-4.48,24.5l5.81,8.71-16.69,3.22L159,206.8s26.75,4.22,40.71,2.48c2.92-.36,8.11-2.45,6.29-11.73C202.48,179.58,190.53,163.51,190.53,163.51Z"/><path class="cls-26" d="M187,181.48c-.55,3.76-.9,6.53-.9,6.53l2.29,3.43c-.06-1.25-.19-2.5-.34-3.73C187.7,185.63,187.33,183.55,187,181.48Z"/><path class="cls-26" d="M203.3,187.84c.07.5.14,1,.19,1.5s.11,1.25.13,1.89.24,1,.32,1.53c.54,3.15.58,6.19-.84,9.13a13.26,13.26,0,0,1-5.66,5.51,23,23,0,0,1-8.14,2.28,75.22,75.22,0,0,0,10.41-.4c2.92-.36,8.11-2.45,6.29-11.73A68.84,68.84,0,0,0,203.3,187.84Z"/><path class="cls-26" d="M159,206.8s3.8.6,9.28,1.26a53.94,53.94,0,0,1,11.17-7.59,49.78,49.78,0,0,1,5.51-2.42l-9.79,1.89Z"/><polygon class="cls-26" points="162.06 207.08 175.17 199.94 159 206.8 162.06 207.08"/><path class="cls-5" d="M156.2,133.71l-7-3.17-1,.64,7.14,4.18.88,9.82c-1.32-.74-4.8-3.21-6.07-6.67l-.89.11a13.48,13.48,0,0,0,7.08,7.89c6.2,5,11.16,3.75,13.71,1.52,5.81-5.11,3.28-15.86,3.28-15.86C166.88,129,158.78,132.39,156.2,133.71Z"/><path class="cls-28" d="M163.51,142.75a10.65,10.65,0,0,1-6.31-6.38,9.4,9.4,0,0,1-.66-2.83l-.34.17-7-3.17-1,.64,7.14,4.18.88,9.82c-1.32-.74-4.8-3.21-6.07-6.67l-.89.11a13.48,13.48,0,0,0,7.08,7.89c6.2,5,11.16,3.75,13.71,1.52,2.91-2.56,3.73-6.54,3.82-9.86C172,141.83,167.71,144.24,163.51,142.75Z"/><path class="cls-34" d="M164,107.63c-3.52-.94-15.72,1.26-20.61,5.27-3.46,2.84-3.06,10.67-3.08,12.83-.13,13.2,8,16.61,8,16.52s-1.21-12.61,3.27-15.45c10.52-6.67,21.24-3.81,21.23-2.73,0,.13,0,.13,0,.13a13.48,13.48,0,0,0,1-8C172.77,110.73,167,108.41,164,107.63Z"/><path class="cls-26" d="M148.32,125a13.87,13.87,0,0,1-3.65-9,11.11,11.11,0,0,1,.93-4.63,14.23,14.23,0,0,0-2.22,1.46c-3.46,2.84-3.06,10.67-3.08,12.83-.13,13.2,8,16.61,8,16.52s-1.08-11.24,2.57-14.89A15.61,15.61,0,0,1,148.32,125Z"/><path class="cls-37" d="M151.54,192.84c-3.86-4.88-5.65-27.77-5.65-27.77h-15.1c-8.64,34.87,8.57,50.34,10.82,50.34,16.21,0,37.68-17.36,37.68-17.36.55-2.42-2.35-6.54-2.35-6.54C166.71,190.49,151.54,192.84,151.54,192.84Z"/><path class="cls-26" d="M156,210.63a14.18,14.18,0,0,1-1.64.18,13.81,13.81,0,0,1-6-1.3,21.52,21.52,0,0,1-5.06-2.19,20.14,20.14,0,0,1-6-5.85,33.52,33.52,0,0,1-4-7.94,45.39,45.39,0,0,1-2.25-8.41,48.35,48.35,0,0,1-.79-9.68c0-1,.11-2.08.23-3.12a27.7,27.7,0,0,1,1.11-6.61l.21-.64h-1c-8.64,34.87,8.57,50.34,10.82,50.34,5.63,0,11.9-2.1,17.69-4.84C158.21,210.64,157.11,210.66,156,210.63Z"/><path class="cls-5" d="M168,150.51s-1.42,5.93-7.16,5.77a10.42,10.42,0,0,1-8.42-5.16l-.86,3.07s.21,8.12,9.57,8.3,7.8-8.76,7.8-8.76Z"/><path class="cls-40" d="M157.14,220.61a72.63,72.63,0,0,1-16.17-.72l-.26,2a47.68,47.68,0,0,0,16.43,1.19c5.68-.63,30.75-4.08,30.75-4.08l-.31-1.9S165,219.92,157.14,220.61Z"/><path class="cls-36" d="M152.73,391.54c-11.15,2.44-17.41.06-17.47,0a.65.65,0,0,0-.85.36.66.66,0,0,0,.37.86,24.13,24.13,0,0,0,8.31,1.17,46.81,46.81,0,0,0,9.92-1.14.66.66,0,0,0,.5-.78A.67.67,0,0,0,152.73,391.54Z"/><path class="cls-36" d="M196,391c-14.3,2.45-22.34,0-22.42,0a.75.75,0,0,0-.93.49.74.74,0,0,0,.49.93,38.2,38.2,0,0,0,10.51,1.16,74.92,74.92,0,0,0,12.6-1.14A.74.74,0,1,0,196,391Z"/><path class="cls-41" d="M137.3,398.89c.22.89.8,1.25,1.41-.59a6.1,6.1,0,0,0,.08-3.45S137.07,398,137.3,398.89Z"/><path class="cls-41" d="M141.81,395.24s.4,3.57,1.09,4.17,1.38.57.82-1.29A6.16,6.16,0,0,0,141.81,395.24Z"/><path class="cls-41" d="M175.32,398.2c.27.88.87,1.21,1.38-.66a6.08,6.08,0,0,0-.09-3.45S175.05,397.32,175.32,398.2Z"/><path class="cls-41" d="M194,394.07s1.58,3.21,2.44,3.54,1.49.07.33-1.49A6,6,0,0,0,194,394.07Z"/><path class="cls-41" d="M192.91,399.15c.4.84,1,1.08,1.27-.85a6.06,6.06,0,0,0-.6-3.4S192.52,398.32,192.91,399.15Z"/><path class="cls-29" d="M394.77,245.89s-6.53.31-7,.86-3,3.89-3.11,6.69c-.05,1.69-.74,13.16-.74,13.16s.71.93,1.83-.12,1.87-4.39,1.91-5.39,1.71-2.13,2,3.1c.05.84-.94,3.43-2.74,7.55a3.2,3.2,0,0,0,0,2,1.06,1.06,0,0,0,1.11.83.79.79,0,0,0,.57-.22c.08-.09.67-1.07.67-1.07,1.77-.18,7.19-5.77,7.5-6.75,1.19-3.76.25-12.93-.77-17.08C395.77,248.51,394.77,245.89,394.77,245.89Z"/><path class="cls-26" d="M394.77,245.89s-6.53.31-7,.86a21.32,21.32,0,0,0-2,3.05,6.09,6.09,0,0,1,7.53,2.52c2.37,4.45,3.38,9.63,1.43,14.44a28.17,28.17,0,0,1-2.11,4.22,21.83,21.83,0,0,0,4.08-4.49c1.19-3.76.25-12.93-.77-17.08C395.77,248.51,394.77,245.89,394.77,245.89Z"/><path class="cls-42" d="M392.52,266.93a1,1,0,0,0-.27.31l-3.66,7.07,4.25-6.81S393.15,266.49,392.52,266.93Z"/><path class="cls-5" d="M328.66,375.54s-2,8.1-3.51,9.27-5.59,3.9-5.59,9.16h22s1,0,1-8.38c0-4.49-2.17-10-2.17-10Z"/><path class="cls-26" d="M325.15,384.81c-1.55,1.17-5.59,3.9-5.59,9.16h4.1a4.16,4.16,0,0,1,0-1.83c.83-3.23.48-5.34,5-6.77-.13-.64,2.23-7.37,2.24-9.14a3.94,3.94,0,0,1,.07-.69h-2.32S326.71,383.64,325.15,384.81Z"/><path class="cls-5" d="M376.68,384.81c-1.56-1.17-3.7-9.27-3.7-9.27H361.51s-2.18,5.56-2.18,10c0,8.38,1,8.38,1,8.38h22C382.27,388.71,378.24,386,376.68,384.81Z"/><path class="cls-26" d="M362.89,385.66a29,29,0,0,1,1.11-10.1v0h-2.5s-2.18,5.56-2.18,10c0,8.38,1,8.38,1,8.38h4.95c-.11-.09-.22-.18-.32-.28C362.87,391.74,363,388.29,362.89,385.66Z"/><rect class="cls-43" x="319.56" y="393.96" width="22.07" height="2.13"/><rect class="cls-43" x="360.2" y="393.96" width="22.07" height="2.13"/><path class="cls-43" d="M396.72,204.92c-.52-9-.34-17.86-2.07-26.74-.83-4.27-3.1-7.66-4.24-11.86q-.8-2.92-1.77-5.79a19.27,19.27,0,0,0-1.88-4.52,8.46,8.46,0,0,0-8.29-3.56,8.35,8.35,0,0,0-6.76,6.16,8.1,8.1,0,0,0,.19,4.47c1.24,3.85,2.16,7.83,3.07,11.77q1.5,6.56,2.64,13.18c1.57,9.05,2.63,18.14,3.59,27.27.3,2.89.55,5.79,1,8.67.32,2.13.67,4.26,1,6.38.68,4.15,1.39,6.86,2.08,11,.09.54.16,1.08.25,1.62a5.5,5.5,0,0,0,2.48,3.8,5.21,5.21,0,0,0,4.44.64,6.65,6.65,0,0,0,3-3,8.52,8.52,0,0,0,1.25-3.73c0-1,.07-2,.11-3.05.12-2.81.25-4.2.33-7,.11-3.75,1-7.34.9-11.09C398,215.06,397,209.38,396.72,204.92Z"/><path class="cls-44" d="M396.72,204.92c-.52-9-.34-17.86-2.07-26.74-.83-4.27-3.1-7.66-4.24-11.86q-.8-2.92-1.77-5.79a19.27,19.27,0,0,0-1.88-4.52,8.37,8.37,0,0,0-2.5-2.39c.08.12.16.25.23.38a6.56,6.56,0,0,1,.63,4.5,12.82,12.82,0,0,0,0,2,21.73,21.73,0,0,0,1.2,3.93c2,4.45,5.05,8.63,5.85,13.49,1.75,10.52-2.32,10-.86,20.1a45.87,45.87,0,0,1,2,4.63,25.55,25.55,0,0,1,1,5.28c.26,2.72,0,5.46,0,8.19,0,4.95.38,9.93,0,14.88a21.27,21.27,0,0,1-1.82,7.74,6,6,0,0,1-4.24,4.17,5.84,5.84,0,0,1-2.65.11,5.49,5.49,0,0,0,2.48,3.79,5.21,5.21,0,0,0,4.44.64,6.65,6.65,0,0,0,3-3,8.52,8.52,0,0,0,1.25-3.73c0-1,.07-2,.11-3.05.12-2.81.25-4.2.33-7,.11-3.75,1-7.34.9-11.09C398,215.06,397,209.38,396.72,204.92Z"/><path class="cls-45" d="M384,153.63a5.36,5.36,0,0,1,.92.48,8.77,8.77,0,0,0-.95-.64Z"/><path class="cls-46" d="M361.05,110.24l-8.53-3.49H349.7l-8.54,3.49-4.05,5.55.64,8.36-.15-.31v0c-.18-.31-.66-1-1.28-1-.25,0,1.18,10.27,1.18,10.27.07.17.66,1.62,1.78,1.62h0a.9.9,0,0,0,.23,0c0,.14.07.28.1.41.37,1.51.66,2.77.84,3.56a7.92,7.92,0,0,0,.95,2.3c.53.84,1.4.18,2.6,1.72a7.4,7.4,0,0,0,5,3.06h4.28a7.37,7.37,0,0,0,5-3.06c1.2-1.54,2.08-.88,2.6-1.72a7.41,7.41,0,0,0,.95-2.3c.18-.79.48-2.05.84-3.56,0-.13.07-.27.1-.41a1,1,0,0,0,.24,0c1.11,0,1.85-11.16,1.68-10.85v0l-.15.31.64-8.36Z"/><path class="cls-43" d="M387.15,156.64a16.77,16.77,0,0,0-3.09-3.69,29.38,29.38,0,0,0-10.87-6.06L351,140.76v-.12l-.18.06-.17-.06v.12l-22.45,6.12a31.42,31.42,0,0,0-11.6,6.91c-1.79,1.65-2.38,3.51-2.17,4.75.53,3.2,8.23,19.13,8.23,19.13l1.72,39.69-2.95,16.7a59.45,59.45,0,0,0-.91,10.49c0,6.6.07,20.34.39,46.86.05,3.77-1.43,9.72-1.36,13.06,0,1.39,3.88,20,3.91,21.32,0,1.57-1.74,4.37-1.69,5.85,1.66,49,7.27,44.78,7.27,44.78h11.67c3-6.76,4.49-20.15,5.89-30.36.51-3.73,1.66-5.1,1.95-8.32.31-3.54-1.13-7.91-1-11.44,0-1.73,1.1-4.68,1.15-6.36,0-1.14-.92-2.4-.89-3.51.18-8.25,1-14.71,1.44-19.62,1.23-14.8.27-17.48,1-19.81h1.5c.43,2.6.64,10,1.4,19,.56,6.76.06,20,.87,33.91.11,1.77,1.25,3.69,1.37,5.47.14,2.22-.75,4.3-.59,6.48,1.24,16.9,4.08,32.21,7,34.52h10.81s5.42-5,7-46.22c.06-1.65,1.42-4.27,1.46-6,0-1.6-1.09-5.29-1.06-7a13.06,13.06,0,0,0,1.33-5.09c-1.91-31.54-1.31-56-.85-66.82a45.73,45.73,0,0,0-1.22-12.5l-3.84-16,3.24-39.06S386.62,159.84,387.15,156.64Z"/><path class="cls-44" d="M384.94,153.79a31.42,31.42,0,0,0-11.6-6.91l-8.7-2.37c0,.2,0,.41,0,.62s0,.38,0,.57a5.29,5.29,0,0,1,.85.44,22.75,22.75,0,0,0,2.88,1.54c2.47,1,5,1.83,7.37,3a20.94,20.94,0,0,1,6.6,5.3,25.18,25.18,0,0,1,3.65,6,21.27,21.27,0,0,0,1.16-3.46C387.32,157.3,386.73,155.44,384.94,153.79Z"/><path class="cls-44" d="M328.15,359.66a48,48,0,0,1-1.91-12.49c-.17-3.93,0-7.86.19-11.77s.71-8,.31-11.92c-.4-2.48-1-4.93-1.62-7.38s-1-4.63-1.76-6.87c-1-2.83-1.63-5.79-.69-8.74a13.32,13.32,0,0,1,1.85-3.74,24.31,24.31,0,0,0,1.51-2.28c.07-.22.13-.45.18-.67a12.93,12.93,0,0,0,0-1.76c-.36-2.06-.93-4.07-1.24-6.14a59.47,59.47,0,0,1-.38-8.85c0-9.92-.08-19.85-.63-29.75a63.64,63.64,0,0,1-.24-6.9c.08-1.41.24-2.82.45-4.23-.68.1.26-14.26.26-17.44,0-.47-2.94,15.47-3.68,19.5a11.6,11.6,0,0,0-.18,1.86c0,3.28,0,15.91.39,51.32.05,3.77-1.43,9.72-1.36,13.06,0,1.39,3.88,20,3.91,21.32,0,1.57-1.74,4.37-1.69,5.85,1.66,49,7.27,44.78,7.27,44.78h11.67c.35-.8.68-1.69,1-2.65a18.84,18.84,0,0,1-7-3.64C331.45,367.53,329.41,363.57,328.15,359.66Z"/><path class="cls-44" d="M367.77,373.9a5.44,5.44,0,0,1-3.31-1.85c-4-4.72-4.7-10.87-5.21-16.82q-.72-8.43-1-16.88c-.22-7.09-.29-14.17-.66-21.25,0-.6-.07-1.19-.11-1.78a22.76,22.76,0,0,1-.36-3.18,29.36,29.36,0,0,1-.27-5.12l-.56-9.79c-.14-6.74-.06-13.52-.82-20.23-.28-.56-.57-1.11-.89-1.65s-.65-1-1-1.55l-.19-.28-.14-.17c-.4-.48-.82-1-1.25-1.41-.61,1.67-1.07,3.38-1.62,5.06h1.35c.43,2.6.64,10,1.4,19,.56,6.76.06,20,.87,33.91.11,1.77,1.25,3.69,1.37,5.47.14,2.22-.75,4.3-.59,6.48,1.24,16.9,4.08,32.21,7,34.52h10.81a1,1,0,0,0,.14-.16,5.9,5.9,0,0,1-2.91-.75A9.61,9.61,0,0,1,367.77,373.9Z"/><path class="cls-47" d="M335,312.08c3.55,7.62,13.1,19.2,11.38,14.12S335,312.08,335,312.08Z"/><path class="cls-47" d="M345.05,338c1.57,0-4.51-12.43-7.39-17.07C337.66,320.93,342.5,338,345.05,338Z"/><path class="cls-47" d="M327.71,213.89c-3,.13,5.92,18.85,12.84,25.57C340.55,239.46,330.76,213.75,327.71,213.89Z"/><path class="cls-47" d="M325.24,230.69c-2-.29,1.72,5.85,9.63,8.77C334.87,239.46,327.29,231,325.24,230.69Z"/><path class="cls-44" d="M363.44,176.87c-.32,1.76,8.16,6.44,11.38,7.31C379.62,185.49,363.77,175.12,363.44,176.87Z"/><path class="cls-44" d="M374.82,171.32c-2.64-1.46-.43,4.19,2.33,10.52C377.15,181.84,377.45,172.78,374.82,171.32Z"/><path class="cls-5" d="M351.1,137v-.12l-.38.06-.39-.06V137l-7,1L341.79,147l.91.75a12.58,12.58,0,0,0,15.67.24l1.27-1L358.1,138Z"/><path class="cls-29" d="M357.64,128.93c-2,0-4,0-4.63-.64a5.34,5.34,0,0,0-2.23-1.47c-.7,0-1.41.58-2.39,1.47-.65.6-2.63.64-4.63.64s-4.39,2.31-4.1,6.43,2.48,7.12,10.73,7H351c8.25.13,10.46-3,10.74-7S359.64,128.93,357.64,128.93Z"/><path class="cls-43" d="M350.84,139.13h-.25c-5.79-.13-11.87-4.68-11.87-4.68l-3.85,11.4,15.38,4.46v.27l.47-.14.46.14v-.27l15.38-4.46-3.85-11.4S356.63,139,350.84,139.13Z"/><path class="cls-48" d="M362.68,119.22a6.72,6.72,0,0,0-3.59-1H342.31a6.72,6.72,0,0,0-3.59,1c-2.59,1.61-1.74,11.69,5.87,11.91,3,.09,3.93-2.39,4.84-4.13a1.42,1.42,0,0,1,2.53,0c.92,1.74,1.84,4.22,4.84,4.13C364.41,130.91,365.26,120.83,362.68,119.22Z"/><path class="cls-49" d="M363,118.72a7.34,7.34,0,0,0-3.84-1.11H342.26a7.34,7.34,0,0,0-3.84,1.11c-1.47.91-2,3.79-1.27,6.7,1,3.84,3.77,6.2,7.43,6.3h.17c2.94,0,4.09-2.27,4.93-3.93l.26-.52a.85.85,0,0,1,1.51,0l.27.52c.85,1.69,2,4,5.1,3.92,3.66-.1,6.43-2.46,7.42-6.3C365,122.51,364.45,119.63,363,118.72Zm.14,6.4a6.68,6.68,0,0,1-6.33,5.42c-2.35.06-3.21-1.64-4.05-3.29l-.27-.53a2,2,0,0,0-3.55,0l-.27.53c-.83,1.65-1.69,3.36-4,3.29a6.69,6.69,0,0,1-6.34-5.42c-.65-2.54-.14-4.84.75-5.39a6.23,6.23,0,0,1,3.34-.94H359a6.28,6.28,0,0,1,3.35.94C363.27,120.28,363.78,122.58,363.12,125.12Z"/><path class="cls-43" d="M365.45,134.6c.64-11.47,4.78-32.89-14.15-33.42H351c-21.47,0-15.19,25.64-14.89,33.15.17,4.16-3.27,11.1-3.27,11.1,2.76,7,16.84,10.37,18.26,10.19,1.42.18,14.57-3.34,17.37-10.35C368.51,145.27,365.22,138.75,365.45,134.6ZM356.84,141c-2.52,1.58-7.74,3.3-11.71,0-7.16-6-8.12-17.55-7.63-22.25.26-2.62,9.76-5.74,13.28-5.7,5.22.07,13.12,2.49,13.38,5.11C364.65,122.89,363.42,136.9,356.84,141Z"/><path class="cls-45" d="M365.45,134.6c.55-9.81,3.65-26.89-7.3-32a32.7,32.7,0,0,1,4.58,13.69,2.89,2.89,0,0,1,1.43,1.87,40,40,0,0,1-1,11.77c-.06,2.17-.13,4.35-.16,6.52,0,3.87-.67,7.78-3.38,10.69a12.51,12.51,0,0,1-13,3,23.48,23.48,0,0,1-10.46-7.6,20.21,20.21,0,0,1-1.32-1.8,48,48,0,0,1-1.95,4.69c2.75,7,16.83,10.37,18.25,10.19,1.42.18,14.57-3.34,17.37-10.35C368.51,145.27,365.22,138.75,365.45,134.6Z"/><path class="cls-50" d="M362.72,112.09h-24.2a2,2,0,0,0-2,2v27.05a3.53,3.53,0,0,0,3.53,3.53h21.22a3.54,3.54,0,0,0,3.54-3.53V114.13A2.05,2.05,0,0,0,362.72,112.09Z"/><path class="cls-51" d="M340.31,112.39c0-.1,0-.2,0-.3H338.5a2,2,0,0,0-2,2.07v27a3.53,3.53,0,0,0,3.49,3.58h.6a7.8,7.8,0,0,1-.26-2Z"/><path class="cls-51" d="M351.23,144.71h7.84V112.09h-7.84Z"/><rect class="cls-52" x="334.56" y="112.09" width="32.4" height="2.01"/><path class="cls-29" d="M349.12,255.48c0,.74.42,20.83.69,21.52h1.49c.26-.67,1-20.9,1-21.62V153.52h-3.19Z"/><path class="cls-29" d="M351.26,153.82c-1.77-.45-12.26-3.34-17.41-9.9l-2.7,2.23c6.37,8.13,19.08,11.08,19.62,11.21l.26.06.27,0c11.86-1.11,19.08-11,19.38-11.46l-2.8-2.11C367.82,143.91,361.37,152.72,351.26,153.82Z"/><path class="cls-29" d="M324.21,215.55c0,.93-.16,3.08-.17,3.17,6.42,2.12,14.32,3.19,23.24,3.19,3.81,0,7.85-.2,12.09-.59a154.78,154.78,0,0,0,16.68-2.48c-.06-.28-.29-2.21-.32-2.88C367.53,217.6,342.08,221.82,324.21,215.55Z"/><rect class="cls-29" x="349.43" y="101.18" width="3.47" height="10.93"/><polygon class="cls-43" points="386.42 245.43 386.42 249 395.9 249.12 395.31 244.96 386.42 245.43"/><path class="cls-47" d="M370.42,327.8s-1,1.67,1.32,8.06c.74,2,6.25,4.93,6.25,4.93S369.32,323.81,370.42,327.8Z"/><path class="cls-47" d="M379.33,327.25c-2.57-1.5-8.91-5.54-8.91-5.54C373.27,328.44,377.46,327.1,379.33,327.25Z"/><path class="cls-47" d="M380,327.45a1.27,1.27,0,0,0-.67-.2C380.33,327.83,380.75,328,380,327.45Z"/><path class="cls-35" d="M342.32,382.67c-.21.28-3.71.92-5.74,1.39-3,.7-10.27-.39-9.82-2.17,0,0-5,3.38-6.09,4.74s-3.86,8.86-1.11,9.46,24.23,0,24.23,0,1.86-1.75,1.51-5.62C345.06,387.82,342.41,382.55,342.32,382.67Z"/><path class="cls-41" d="M322.39,387.35c-.17,1,.29,1.68,1.75,0a6.93,6.93,0,0,0,1.62-3.6S322.55,386.31,322.39,387.35Z"/><path class="cls-41" d="M338,390.43c.25,1.12,1,1.58,1.77-.71a7.63,7.63,0,0,0,.18-4.3S337.71,389.31,338,390.43Z"/><path class="cls-41" d="M340.7,385.22c0,1,1.51,5.38,2.12,4.41S340.7,383,340.7,385.22Z"/><path class="cls-36" d="M342.12,381.89c-.44-.25-5.36,1.74-9.41,1.49a9.38,9.38,0,0,1-5.8-2c-1.09-.31-.8.92-.8.92a6.8,6.8,0,0,0,4.53,2.17,31.69,31.69,0,0,0,11.86-1.57C342.75,382.76,342.56,382.13,342.12,381.89Z"/><path class="cls-28" d="M343,393.2a14.84,14.84,0,0,1-6.13,1.6,24.49,24.49,0,0,1-5.4-.41,21.85,21.85,0,0,1-3.29-.78,6.21,6.21,0,0,1-4.25-7.47,5.8,5.8,0,0,1,2.71-3.56l-.39-.32a40.47,40.47,0,0,0-5.54,4.37c-1.08,1.36-3.86,8.86-1.11,9.46s24.23,0,24.23,0a6.59,6.59,0,0,0,1.55-4.76A8.33,8.33,0,0,1,343,393.2Z"/><path class="cls-35" d="M375.84,383.4a37.4,37.4,0,0,1-7.89,1.36c-2.54.13-8.62-1.82-8.62-1.82a21.83,21.83,0,0,0-.93,5.39c.12,1.84-.39,7.64,1.8,7.76s22.62,0,23.22,0C385.11,396.09,384.25,386.63,375.84,383.4Z"/><path class="cls-36" d="M375.46,382.91a42.71,42.71,0,0,1-7.74,1.36c-3.13.33-7.75-1.47-8.39-1.33s-.3,1.12-.3,1.12,6.14,1.88,8.68,1.74,8.42-1.78,8.68-2.2S376.5,382.37,375.46,382.91Z"/><path class="cls-41" d="M362.57,386.66s-1.21,3.4-1,4.24S363.54,386.18,362.57,386.66Z"/><path class="cls-41" d="M364,387.36a.18.18,0,0,0-.35.07c.09,1.76.19,3.41.53,3.55s.79-1,.36-2.05C364.34,388.47,364.14,387.88,364,387.36Z"/><path class="cls-28" d="M382,394.79c-3.68-.13-7.41,0-11.09.19a12.32,12.32,0,0,1-6.13-1.14,9.86,9.86,0,0,1-4.59-5.92,5.23,5.23,0,0,1,.19-3.82,5.27,5.27,0,0,1-1.26-.3,18,18,0,0,0-.69,4.53c.12,1.84-.39,7.64,1.8,7.76s22.62,0,23.22,0c.42,0,.72-.68.81-1.72A5.47,5.47,0,0,1,382,394.79Z"/><path class="cls-43" d="M307.54,170.83c-4.17,15.47-20.63,36-2.14,46,4.19,2.26,12-4.93,12-4.93l3.73-16.29,6-13.55-7.41-31S311.71,155.37,307.54,170.83Z"/><path class="cls-44" d="M324.91,179.34c0,.23.07.46.11.68C325,179.67,324.88,179.11,324.91,179.34Z"/><path class="cls-44" d="M322.87,177.44c-.17.25-.33.51-.49.77a37,37,0,0,0-1.74,3.44c-.07.16-.13.32-.19.47s-.2.5-.29.74c-.29.75-.56,1.5-.84,2.25-.45,1.25-.9,2.51-1.38,3.76a87.42,87.42,0,0,1-4.11,9.42c-1.4,2.68-2.93,5.29-4.29,8a5.85,5.85,0,0,1-5.88,2.82c-2.12-.29-4.47-2-4.9-4.22A51,51,0,0,1,298,196c-2.3,8.29-1.76,15.89,7.45,20.85,4.19,2.26,12-4.93,12-4.93l3.73-16.29,2.43-5.48c-.26-1.58-.5-3.15-.69-4.73A30.81,30.81,0,0,1,322.87,177.44Z"/><path class="cls-29" d="M304.51,207.09c-.12,1.67.61,3,.73,4.94a4.92,4.92,0,0,0,1.2,3.27c.49.6,1.34,2.42,1.94,3s2.35,1.18,2.51,1.44,4,.46,4.66,0a24.82,24.82,0,0,0,2.4-2.23l-9.57-13.25S304.63,205.42,304.51,207.09Z"/><path class="cls-22" d="M340.55,196.42a.76.76,0,0,0-.64-.4l-38-2.19a.77.77,0,0,0-.67,1.22l18.16,25.57a.77.77,0,0,0,.58.32l33.6,2.21a.77.77,0,0,0,.73-1.14Z"/><path class="cls-29" d="M316,205.49a67.94,67.94,0,0,0-9.52,1.5,1.69,1.69,0,0,0,.41,3.34,1.48,1.48,0,0,0,.41-.05,63.76,63.76,0,0,1,9-1.41,1.7,1.7,0,0,0-.29-3.38Z"/><path class="cls-29" d="M320.61,206.86l-10.56,3.43a1.57,1.57,0,0,0,.49,3.07,1.61,1.61,0,0,0,.48-.08l10.57-3.43a1.57,1.57,0,1,0-1-3Z"/><path class="cls-29" d="M323,209l-10.71,3.88a1.57,1.57,0,0,0,.54,3.05,1.6,1.6,0,0,0,.53-.09l10.71-3.88a1.57,1.57,0,0,0-1.07-3Z"/><path class="cls-29" d="M321.81,211.12l-8.11,4.33a1.57,1.57,0,0,0,.74,3,1.65,1.65,0,0,0,.74-.18l8.11-4.33a1.57,1.57,0,0,0-1.48-2.78Z"/><path class="cls-53" d="M327.52,194.84a.53.53,0,0,0-.39-.21l-14.23-1.06a.54.54,0,0,0-.53.3.55.55,0,0,0,.08.61l2.72,3.05a.54.54,0,0,0,.36.18l13.88,1.09h0a.55.55,0,0,0,.43-.88Zm-11.69,1.8-1.67-1.88,12.65.94,1.47,1.92Z"/><polygon class="cls-54" points="322.51 209.09 313.73 212.5 322.69 208.61 322.51 209.09"/><path class="cls-54" d="M324.06,211.93l0,.34s-8.63,3.27-8.55,3.21S324.06,211.93,324.06,211.93Z"/><path class="cls-29" d="M410,259.86l-.41-2.38c.12-1.13.58-5.08,1-6.64.31-1.27-.34-4.11-.77-5.72a4.82,4.82,0,0,1-2.79,0,13,13,0,0,1-3.62-1.77l-.55,2.95a26.65,26.65,0,0,0-1.13,3.31c-.37,1.75-.33,6.13-.42,7.14a1,1,0,0,0,.06.45h-.07l1.07,7.93,1.76,3.28c1.17-.49.83-2,.83-2l-.43-1.79,2.55,4.78a1.57,1.57,0,0,0,.9-1.95l-.07-.24.7,1.3c1.17-.49.84-2,.84-2l-.88-3.66,0-.56,2.57,3c1.05-.72.46-2.1.46-2.1Z"/><path class="cls-26" d="M410,259.86l-.41-2.38c.12-1.13.58-5.08,1-6.64.3-1.2-.27-3.8-.69-5.45a5.7,5.7,0,0,1-2.87,0,3.55,3.55,0,0,1-1-.38c-1.57,6.75-1.85,13.59,1.92,19.18a8.28,8.28,0,0,1,1.41,3.52,2.33,2.33,0,0,0,.06-1.13l-.88-3.66,0-.56,2.57,3c1.05-.72.46-2.1.46-2.1Z"/><path class="cls-29" d="M402.07,256s.26,5.32,1.3,6.21,1.58-.8,1.58-.8a16.25,16.25,0,0,1,.48-6.56,11.9,11.9,0,0,0,0-6.38Z"/><path class="cls-37" d="M404,205.45c-.63,10.75-1.42,39.58-1.42,39.58s8,1.37,8.59,0,9.16-32,9.16-32l2.8-28.89-14.91-17.45S405.55,178.86,404,205.45Z"/><path class="cls-26" d="M414.05,176.57c-.15,1.7-.27,3.39-.38,5.08-.23,3.51-.39,7-.52,10.53-.45,12.4-.52,24.84-1.8,37.19a118.92,118.92,0,0,1-2.66,16.27c1.26,0,2.26-.15,2.45-.61.59-1.36,9.16-32,9.16-32l2.8-28.89L414.37,174C414.27,174.88,414.12,175.79,414.05,176.57Z"/><path class="cls-22" d="M458.47,297.1c0-2.22,3.93-41.91,3.93-50,0-6.13-2-13.11-3-16.09l-20.6,4.27h0l-24.27,1.55c-.26,2-.63,14-.94,20.67-.33,7.31,3.81,49.81,3.81,49.81l6.45,72.06,8.95-.37s3.32-42.24,1.56-58.16c-.89-8-1.38-20.12-1.38-20.12l3.56-40.08,5.5,43.5,11.46,75.23,9.2-2.2s-1.74-50.72-2.15-54.87C459.86,315.28,458.47,302.22,458.47,297.1Z"/><path class="cls-26" d="M459.42,231.05l-20.6,4.27h0l-24.27,1.55c-.26,2-.63,14-.94,20.67-.33,7.31,3.81,49.81,3.81,49.81l6.06,67.7c.65-.09,1.29-.16,1.93-.23-.3-1.38-.54-2.77-.73-4.15-1.27-9.1-.75-18.23-1.41-27.37-.89-12.4-.91-24.83-.91-37.26a5.42,5.42,0,0,1,3.66-5.11,4,4,0,0,1,3.56-2.33,3.91,3.91,0,0,1,3.43,2l3.55-39.93,5.5,43.5,10.87,71.38c1.07,0,2.14,0,3.21,0-.42-2.48-.72-5-.93-7.52-.45-3.18-.83-6.36-1.19-9.54s-.73-6.58-1.12-9.86c-.09-.81-.19-1.61-.29-2.42-.05-.37-.1-.75-.14-1.12l0-.16c-.21-1.51-.42-3-.7-4.52-2.3-12.48-6.93-26.14-1.49-38.42a4.5,4.5,0,0,1,3.33-2.5,5.62,5.62,0,0,1,4.95-.09c0-.86-.06-1.63-.06-2.27,0-2.22,3.93-41.91,3.93-50C462.4,241,460.38,234,459.42,231.05Z"/><path class="cls-5" d="M462.72,375.63l-9.37.42-7.57,6.19a9.21,9.21,0,0,0-2.95,1,2.75,2.75,0,0,0,1.3,5.18h17.38c2,0,3.57-2.12,3.19-4.42A69.94,69.94,0,0,0,462.72,375.63Z"/><path class="cls-23" d="M432.74,375.12l-8.75.2-12.31,6.85a7.21,7.21,0,0,0-5.89,4.44,1.29,1.29,0,0,0,1.2,1.77H432.2c2.07,0,3.63-2.28,3.18-4.68A47.32,47.32,0,0,0,432.74,375.12Z"/><path class="cls-35" d="M463.28,377.59c-4.1.23-8.21.49-12.32.5h-.11l-5.07,4.15a9.21,9.21,0,0,0-2.95,1,2.75,2.75,0,0,0,1.3,5.18h17.38c2,0,3.57-2.12,3.19-4.42S463.71,379.17,463.28,377.59Z"/><path class="cls-35" d="M433.55,377.21a72.35,72.35,0,0,1-11.5-.19c-.31,0-.6-.08-.87-.13l-9.5,5.28a7.21,7.21,0,0,0-5.89,4.44,1.29,1.29,0,0,0,1.2,1.77H432.2c2.07,0,3.63-2.28,3.18-4.68A44.06,44.06,0,0,0,433.55,377.21Z"/><path class="cls-37" d="M458.05,155l-19.46-6.82a3.71,3.71,0,0,0-1.69,0l-19.71,8c-7.9,2.35-9.32,12.46-9.32,12.46a54.85,54.85,0,0,0,3.31,6.48,24.22,24.22,0,0,1,3.55,13.37c-.52,16.67,7.06,34.42,7.06,34.42s34.85,1.82,34.85.09c0-7.31,3.43-38.3,3.43-38.3,6.87-.86,6.07-22.36,6.07-22.36A12.31,12.31,0,0,0,458.05,155Z"/><path class="cls-5" d="M436.9,148.19l-10.52,3.69s1.55,3,2.32,3.47c12.09,7.94,19.82-2.77,20.11-3.1.09-.13.17-.26.25-.39l-10.47-3.67A3.71,3.71,0,0,0,436.9,148.19Z"/><path class="cls-55" d="M432.58,110c-7.07-.24-11.62-.56-11.27,12.39.53,19.33,7.48,21.22,18.79,20.59,9.06-.5,10.66-18.75,10.66-23.21C450.76,114,449.44,110.57,432.58,110Z"/><path class="cls-56" d="M436.23,120.62,424.9,121c-1.56.06-2,3.13-1.94,4.68l.19,7.35a17.25,17.25,0,0,0,6.78,13.44c7.2,5.34,12.65.08,15.17-6.51.57-1.48.22-6.47-.23-10.79C444.46,125.22,440.23,120.47,436.23,120.62Z"/><path class="cls-56" d="M429.76,138.78l.17,11.52a2.12,2.12,0,0,0,2.11,2.09h10.45a2.11,2.11,0,0,0,2.11-2.15l-.17-11.84Z"/><path class="cls-26" d="M429.87,146.44l0,1.32a8.51,8.51,0,0,0,10.17-2.32S434.51,149,429.87,146.44Z"/><path class="cls-56" d="M446.9,129.16c-1.32-.37-2.37,1.7-2.37,1.7s-2.66,5.3.41,5.82S448.85,129.71,446.9,129.16Z"/><path class="cls-36" d="M440.61,142c.08-1.64.27-4.44.79-8.06l3.89-4.18-.37-.09c-2.08,1.68-2,1.61-4.6,3.5-3.18-1.06-10.63-2.75-16.41.14h0a2.44,2.44,0,0,1-.81-2v2.46s.71,6.84,3.39,9.82c2.26,2.52,7.69,7,14.19.35a24.69,24.69,0,0,0,5-7.35h-.39A25.56,25.56,0,0,1,440.61,142Z"/><path class="cls-28" d="M440.61,142c.08-1.64.27-4.44.79-8.06l3.89-4.18-.37-.09c-2.08,1.68-2,1.61-4.6,3.5-.3-.1-.63-.21-1-.31-.58,4.29-2.84,8.64-7,10.23a7.85,7.85,0,0,1-6.85-.9,7.65,7.65,0,0,0,1,1.39c2.26,2.52,7.69,7,14.19.35a24.69,24.69,0,0,0,5-7.35h-.39A25.56,25.56,0,0,1,440.61,142Z"/><path class="cls-34" d="M429.76,106c-3.88.5-8.64,5.07-9.11,8a38.76,38.76,0,0,0,.64,13.62s.79-6.23,6-6.23c4.87,0,16.21-.42,19.43,4S445.1,140,445.1,140c7.49-1.29,5.5-9.4,7.14-17.07,1.25-5.82-3-12.12-4.78-14.1C444.29,105.24,439.41,104.73,429.76,106Z"/><path class="cls-26" d="M426,115.26c-1.46-1.92-1.43-4.84-.92-7.09v0c-2.27,1.71-4.12,4.08-4.4,5.86a38.76,38.76,0,0,0,.64,13.62s.79-6.23,6-6.23c1.17,0,2.71,0,4.43,0A37.54,37.54,0,0,1,426,115.26Z"/><path class="cls-26" d="M445.1,140c7.35-1.27,5.57-9.1,7-16.63a12,12,0,0,1-5,2.66C449.55,130.74,445.1,140,445.1,140Z"/><path class="cls-5" d="M436.9,148.19a16.26,16.26,0,0,1-7-1.68l-.76,4.39s.37,5.19,6.86,5.77,9.37-6.09,9.37-6.09l-.8-5.19S440.7,148.18,436.9,148.19Z"/><path class="cls-28" d="M432.48,216.54a18.31,18.31,0,0,1-8.88-4.73,15.63,15.63,0,0,1-3.78-6.45,25.33,25.33,0,0,1-.84-5.07c-.34-1.68-.91-3.3-1.38-4.95-.29-1-.54-2.09-.74-3.16s-.51-2.38-.71-3.59c-.6-2.19-1.23-4.38-2-6.52l-.1-.21a24.1,24.1,0,0,1,.72,6.62c-.52,16.67,7.06,34.42,7.06,34.42s34.85,1.82,34.85.09.18-4.35.44-7.66c-2,.4-4.08.79-6.14,1.08C444.77,217.3,438.64,217.91,432.48,216.54Z"/><path class="cls-37" d="M419.4,214.27l-.47.06s-8.67,30.89-8.4,81.08c0,0,18.27,4.68,57.66,0,0,0-.13-40.54-10.88-80C444.7,217,432,216.18,419.4,214.27Z"/><path class="cls-28" d="M418.88,214.53c-.74,2.72-8.6,33-8.35,80.88a56.9,56.9,0,0,0,6.12,1c-.14-2.28-.19-4.56-.16-6.8.07-5.71.61-11.4,1.18-17.07.51-5.14.92-10.25,1.16-15.4.15-3.32.38-6.64.76-10a67.65,67.65,0,0,1,1.16-12.59A28,28,0,0,1,425,224.18a23.06,23.06,0,0,1,5.9-6.08,18.88,18.88,0,0,1,5-2.38c-4.74-.07-9.48-.25-14.21-.75A9.14,9.14,0,0,1,418.88,214.53Z"/><path class="cls-26" d="M444.77,234.65l.06.13a.19.19,0,0,0,0,.07,1.13,1.13,0,0,0,.15.31,2.28,2.28,0,0,0-.31-.74Z"/><path class="cls-50" d="M420.85,147.22a8.13,8.13,0,0,0,8.13,8.13h10.4a8.13,8.13,0,0,0,8.13-8.13v-26.9H420.85Z"/><path class="cls-50" d="M420.85,147.22a8.13,8.13,0,0,0,3.48,6.67V120.32h-3.48Z"/><path class="cls-50" d="M435.28,155.35h4.1a8.2,8.2,0,0,0,2.9-.53v-34.5h-7Z"/><path class="cls-43" d="M420.49,147.22a8.5,8.5,0,0,0,8.49,8.49h10.4a8.49,8.49,0,0,0,8.48-8.49V120H420.49Zm.72-26.55h25.94v26.55a7.78,7.78,0,0,1-7.77,7.77H429a7.77,7.77,0,0,1-7.77-7.77Z"/><path class="cls-28" d="M457.71,183.23c-.2,3.4-.33,6.81-.68,10.2-.37,3.61-1.1,7.15-1.67,10.72-.55,3.4-1.72,6.85-4.37,9.2a14.62,14.62,0,0,1-5.1,2.91,31.83,31.83,0,0,0,4.58-.15,31.28,31.28,0,0,0,4.68-1.13c.65-.21,1.36-.42,2-.69.71-8.76,2-20.82,2.57-26.46l-.07-.08A13.63,13.63,0,0,1,457.71,183.23Z"/><polygon class="cls-29" points="446.1 121.14 452.13 123.45 452.46 121.77 447.45 119.85 446.1 121.14"/><path class="cls-29" d="M447.31,117.38H419.77v3.76h27.54a1.56,1.56,0,0,0,1.56-1.56v-.64A1.56,1.56,0,0,0,447.31,117.38Z"/><path class="cls-40" d="M418.93,214.33l-.17,1.6c19.27,3.75,38.73-.53,38.73-.53l-.36-2.32C447.67,217.36,418.93,214.33,418.93,214.33Z"/><path class="cls-29" d="M472,247.37a63.55,63.55,0,0,0-2.33,9.4,25,25,0,0,1-.78,2.55c-.2.46-.31,1.14.78,1,2-.19,1.71-3.67,3.52-4.55.76-.37,1.63,5.38,1.63,5.38l8.25-.07c.5-3.77-1.72-12.55-3.17-16.38C479,242.41,473.88,242.39,472,247.37Z"/><path class="cls-29" d="M480.76,258.41a20.45,20.45,0,0,1-.69,7.58c-.21.82-.76,1.23-.8,2.07-.1,2,1.2,2.21,1.66,1.15a27.48,27.48,0,0,0,2.21-8.38c.06-.95.21-3.17-.63-3.87S480.63,257.35,480.76,258.41Z"/><path class="cls-26" d="M480.88,257.58a1.56,1.56,0,0,0-.12.83,20.45,20.45,0,0,1-.69,7.58c-.21.82-.76,1.23-.8,2.07-.06,1.27.42,1.82.91,1.79a9.28,9.28,0,0,1,.55-2.65l.24-.64c.08-.31.18-.63.29-.94a23.65,23.65,0,0,0,.45-4.45C481.76,257.52,481,258.73,480.88,257.58Z"/><path class="cls-29" d="M481,256.86c-.84-.7-2,1.28-1.92,2.34a20.42,20.42,0,0,1-.69,7.58,12.72,12.72,0,0,0-.82,2.75c0,1.63,1.34,1.49,1.8.43a27.12,27.12,0,0,0,2.09-8.34C481.51,260.67,481.81,257.56,481,256.86Z"/><path class="cls-26" d="M479.45,258.17a1.18,1.18,0,0,0-.39,1,20.42,20.42,0,0,1-.69,7.58,12.72,12.72,0,0,0-.82,2.75,1.28,1.28,0,0,0,.44,1.12c.05-.16.11-.32.16-.49s0-.12.05-.18v0c.07-.33.16-.66.23-1a57.17,57.17,0,0,0,1.41-8.22,12.7,12.7,0,0,0-.24-1.94C479.55,258.58,479.49,258.37,479.45,258.17Z"/><path class="cls-29" d="M478.72,258.16a1.26,1.26,0,0,0-2,1.14,21.19,21.19,0,0,1-.72,7.92,13.45,13.45,0,0,0-.86,2.87c0,1.71,1.44,1.51,1.93.4a28.29,28.29,0,0,0,2.35-8.65C479.46,260.84,479.6,258.89,478.72,258.16Z"/><path class="cls-26" d="M476.69,259.3a21.19,21.19,0,0,1-.72,7.92,13.45,13.45,0,0,0-.86,2.87c0,.77.3,1.15.66,1.24,0-.16,0-.32,0-.49a24.91,24.91,0,0,1,1.18-5.57c0-.19.09-.38.14-.57.1-.39.18-.79.26-1.2a15.23,15.23,0,0,0,.2-1.92,26.88,26.88,0,0,0-.36-3.46A1.28,1.28,0,0,0,476.69,259.3Z"/><path class="cls-29" d="M477,256.52c-.79,0-1.53,4.06-2.25,3.75a25,25,0,0,1-.66,6.12,12.21,12.21,0,0,0-.83,2.75c0,1.63,1.44,1.63,1.9.57a27.76,27.76,0,0,0,2-8.48C477.17,261.15,477,256.61,477,256.52Z"/><path class="cls-37" d="M463.83,158.53c-5.83,1.55-7.59,22.77-7.59,22.77l16.21,63.87,9,.53c2.92-11.78-2.36-52.5-6.85-67.48S463.83,158.53,463.83,158.53Z"/><path class="cls-26" d="M470.14,227.3c-.34-1-.64-2.08-.9-3.14a28.77,28.77,0,0,1-.8-4c-.24-1.12-.47-2.24-.68-3.37-.32-1.68-.6-3.37-.87-5.06q-.31-1.44-.66-2.88c-1.08-4.5-2.34-8.94-3.47-13.42a83.88,83.88,0,0,0-2.72-9.34l-.14-.29c-.18-.38-.37-.75-.57-1.12s-.36-.64-.56-.94a.35.35,0,0,1,0-.08c-.25-.26-.7-.8-.75-.85l-.17-.15-.09,0-.25-.05a4.61,4.61,0,0,1-1-.37l16,62.94,3.36.2q-2.13-5.81-3.89-11.72C471.29,231.54,470.69,229.43,470.14,227.3Z"/><path class="cls-41" d="M458.36,384.15c.2.9.78,1.27,1.42-.57a6,6,0,0,0,.14-3.44S458.15,383.25,458.36,384.15Z"/><path class="cls-41" d="M460.55,380c0,.85,1.21,4.31,1.7,3.54S460.55,378.23,460.55,380Z"/><path class="cls-41" d="M418.75,380.51c-.37.84-.13,1.49,1.48.4a6.1,6.1,0,0,0,2.17-2.68S419.12,379.67,418.75,380.51Z"/><path class="cls-41" d="M423,378.48c-.51.67-1.62,4.17-.76,3.84S424.05,377.08,423,378.48Z"/><path class="cls-41" d="M430.22,378.68s.44,3.56,1.15,4.16,1.38.55.8-1.31A6.11,6.11,0,0,0,430.22,378.68Z"/><path class="cls-36" d="M433.47,376.47c-7.89.77-12-.28-12.1-.3a.74.74,0,0,0-.91.53.73.73,0,0,0,.52.9,28.89,28.89,0,0,0,6.94.64c1.62,0,3.52-.08,5.7-.29a.74.74,0,0,0-.15-1.48Z"/><path class="cls-36" d="M463.34,376.82c-7.9.88-12.06-.11-12.11-.13a.74.74,0,0,0-.36,1.44,28.15,28.15,0,0,0,6.25.54,57.27,57.27,0,0,0,6.39-.37.73.73,0,0,0,.65-.82A.74.74,0,0,0,463.34,376.82Z"/><path class="cls-36" d="M315.88,43.66H265.6c-7.07,0-12.92,5.21-12.92,11.61,0,0-.05,10.83,0,11.36A14,14,0,0,0,265.74,79c.31,0,28.62,0,28.62,0a15.55,15.55,0,0,0,15.53-15.54V53.81h-6.21v9.62a9.33,9.33,0,0,1-9.32,9.32H265.74a8.2,8.2,0,0,1-7.24-6.45v-11c0-3.54,3.18-6.43,7.1-6.43h50.28c3.91,0,7.09,2.89,7.09,6.43V84c0,3.63-3.29,6.43-7.09,6.43h-3.94l3.69,11-11-11H262.84c-1.82,0-3.3,1.16-3.3,2.59s1.48,2.6,3.3,2.6h40.48L317.5,109.9c4.82,4.84,7,3.5,4.82-3L318.46,95.4c5.83-1.08,10.24-5.77,10.24-11.38V55.27C328.7,48.87,323,43.66,315.88,43.66Z"/><path class="cls-37" d="M294.36,23.05H231.61a15.55,15.55,0,0,0-15.53,15.53V72.75A15.56,15.56,0,0,0,225.44,87L220,104c-2.11,6.5.07,7.82,4.84,2.92l18.12-18.59h8.19a3.11,3.11,0,1,0,0-6.22h-8.57l-16,16.38,5-16.38a9.35,9.35,0,0,1-9.32-9.32V38.58a9.33,9.33,0,0,1,9.32-9.32h62.75a9.35,9.35,0,0,1,9.32,9.79h6.21A15.55,15.55,0,0,0,294.36,23.05Z"/></g></g></g></svg>