<svg xmlns="http://www.w3.org/2000/svg" viewBox="0 0 543.45 450.84"><defs><style>.cls-1,.cls-2{fill:#fefefe;}.cls-1{opacity:0.5;}.cls-11,.cls-3{fill:#fff;}.cls-3{opacity:0.8;}.cls-12,.cls-15,.cls-19,.cls-20,.cls-22,.cls-23,.cls-26,.cls-28,.cls-3{isolation:isolate;}.cls-4{fill:#3caea4;}.cls-5{fill:#54c1b7;}.cls-6{fill:#11808a;}.cls-10,.cls-7,.cls-8{fill:none;stroke:#fff;}.cls-7{stroke-width:2px;}.cls-10,.cls-8{stroke-linecap:round;}.cls-8{stroke-linejoin:round;stroke-width:3px;}.cls-9{fill:#e94d38;}.cls-10{stroke-width:3px;}.cls-12{opacity:0.1;}.cls-13,.cls-22,.cls-23{fill:#ebeef0;}.cls-14{fill:#00808a;}.cls-15{fill:#1d1d1b;opacity:0.2;}.cls-16,.cls-19{fill:#d8dde2;}.cls-17{fill:#ced4db;}.cls-18{fill:#db9b74;}.cls-19,.cls-20,.cls-23,.cls-26{opacity:0.5;}.cls-20{fill:#7095af;}.cls-21{fill:#28597a;}.cls-22{opacity:0.3;}.cls-24{fill:#1586a3;}.cls-25{fill:#b3e1e4;}.cls-26,.cls-27{fill:#80cdd2;}.cls-28{opacity:0.05;}.cls-29{fill:#59b5a9;}.cls-30{fill:#ffcb96;}.cls-31{fill:#272727;}</style></defs><g id="Capa_2" data-name="Capa 2"><g id="Capa_1-2" data-name="Capa 1"><path class="cls-1" d="M97.08,228.27C122.46,324.69,300.28,474,399.63,447.82S482.21,230,456.84,133.6,330.36-19.79,231,6.35,71.71,131.85,97.08,228.27Z"/><path class="cls-1" d="M86.05,394c35.16,52.29,157,52.09,252.62,20.55S578.15,285.49,535.86,157.25C519.4,107.33,450.55,24,257.41,116.59,150.22,168,37.49,321.77,86.05,394Z"/><path class="cls-2" d="M14.59,234.6c15.54,98.16,209.2,177.39,306.67,162s185.2-139.23,169.66-237.39S423.72,1,291.58,98.26C212,156.83-1,136.44,14.59,234.6Z"/><path class="cls-1" d="M61.81,350.35c4-11.31-10.5-40.48-27.34-46.37S4.79,317.74.83,329.05s6.5,25.24,23.34,31.12S57.85,361.66,61.81,350.35Z"/><path class="cls-1" d="M428.81,23.06c-2.45,7,8.24,25.74,20,29.85s20.16-8,22.61-15-5.1-16-16.87-20.15S431.26,16,428.81,23.06Z"/><circle id="Elipse_529" data-name="Elipse 529" class="cls-3" cx="202.28" cy="118.45" r="32.25"/><path id="Trazado_1674" data-name="Trazado 1674" class="cls-4" d="M218.13,100.79h-31.7a1.58,1.58,0,0,0,0,3.16h.22v23.38a8.78,8.78,0,0,0,8.78,8.77h13.7a8.78,8.78,0,0,0,8.78-8.77V104h.22a1.58,1.58,0,1,0,0-3.16Zm-2,26.54a7,7,0,0,1-7,7H195.42a7,7,0,0,1-7-7v-12a8.48,8.48,0,0,0,.2.92,8,8,0,0,0,7.7,6.35h.18c3.19,0,4.43-2.4,5.26-4,.09-.16.17-.32.25-.48a.27.27,0,0,1,.36-.1l.1.1c.08.16.16.32.25.48.84,1.63,2.12,4.1,5.44,4a8,8,0,0,0,7.7-6.36,7.84,7.84,0,0,0,.2-.91Zm-2.38-11.65a5.86,5.86,0,0,1-5.58,4.68c-1.78,0-2.47-1-3.38-2.79l-.27-.51a2.52,2.52,0,0,0-3.41-1,2.54,2.54,0,0,0-1,1c-.09.17-.17.34-.27.51-.91,1.77-1.59,2.84-3.37,2.79a5.86,5.86,0,0,1-5.59-4.68c-.57-2.18-.11-4.08.47-4.43a5.62,5.62,0,0,1,3-.8h16a5.64,5.64,0,0,1,3,.8h0c.57.35,1,2.25.46,4.44Zm2.38-3.55a4.19,4.19,0,0,0-1.68-2.81h0a7.72,7.72,0,0,0-3.94-1.12h-16.4a7.73,7.73,0,0,0-4,1.12,4.14,4.14,0,0,0-1.67,2.81V104H216.1Z"/><circle id="Elipse_530" data-name="Elipse 530" class="cls-3" cx="125.35" cy="118.06" r="32.26"/><g id="Grupo_3056" data-name="Grupo 3056"><path id="Trazado_1675" data-name="Trazado 1675" class="cls-4" d="M138.51,111.71a53.26,53.26,0,0,0-4.7-3.75c-3.65-2.85-5.51-5.07-8.36-5.26v0h-.24v0c-2.86.19-4.72,2.41-8.37,5.26a54.62,54.62,0,0,0-4.69,3.75,9.85,9.85,0,1,0,4.15,18.79,16,16,0,0,0,8.91,2.95h.24a16,16,0,0,0,8.91-3,9.85,9.85,0,1,0,8.27-17.87,10.1,10.1,0,0,0-4.12-.91Zm-26.34,18a8.14,8.14,0,0,1-1.45-16.16,8.77,8.77,0,0,0-1.06,4.52,15.1,15.1,0,0,0,5.11,11.21A8.24,8.24,0,0,1,112.17,129.71Zm13.16-3.8a7.84,7.84,0,1,1,7.84-7.84h0a7.85,7.85,0,0,1-7.84,7.84Zm13.16,3.8a8.24,8.24,0,0,1-2.6-.43A15.1,15.1,0,0,0,141,118.07a8.77,8.77,0,0,0-1.06-4.52,8.14,8.14,0,0,1-1.44,16.16Z"/><circle id="Elipse_531" data-name="Elipse 531" class="cls-4" cx="125.33" cy="118.07" r="5.89"/></g><circle id="Elipse_529-2" data-name="Elipse 529-2" class="cls-3" cx="279.28" cy="118.45" r="32.25"/><g id="Grupo_3060" data-name="Grupo 3060"><g id="Grupo_3058" data-name="Grupo 3058"><path id="Trazado_1676" data-name="Trazado 1676" class="cls-4" d="M264,129.17a.41.41,0,0,1-.19,0l-7.21-2.79a5.43,5.43,0,0,1-3-4.9v-5a5.37,5.37,0,0,1,3.47-5.12,5.25,5.25,0,0,1,5.89,1.41l1.33,1.45a.42.42,0,0,1-.62.56h0l-1.32-1.46a4.47,4.47,0,0,0-5-1.19,4.56,4.56,0,0,0-2.94,4.35v5a4.64,4.64,0,0,0,2.52,4.16l7.22,2.78a.43.43,0,0,1,.18.56.41.41,0,0,1-.37.23Z"/></g><g id="Grupo_3059" data-name="Grupo 3059"><path id="Trazado_1677" data-name="Trazado 1677" class="cls-4" d="M294.7,129.17a.42.42,0,0,1-.19-.79l7.21-2.79a4.62,4.62,0,0,0,2.53-4.15v-5a4.57,4.57,0,0,0-2.95-4.34,4.42,4.42,0,0,0-5,1.19L295,114.72a.41.41,0,0,1-.59,0,.42.42,0,0,1,0-.59h0l1.32-1.45a5.24,5.24,0,0,1,5.89-1.4,5.34,5.34,0,0,1,3.48,5.11v5a5.48,5.48,0,0,1-3,4.9l-7.21,2.79A.65.65,0,0,1,294.7,129.17Z"/></g></g><path id="Unión_3" data-name="Unión 3" class="cls-4" d="M263.55,129.61V113.78a44.13,44.13,0,0,1,5.74-1.74c-.05.67-.07,1.32-.07,1.94,0-.62,0-1.27.07-1.94a44.64,44.64,0,0,1,10-1.14c.4,0,.84,0,1.3,0a44.6,44.6,0,0,1,14.48,2.86v15.83c-.49.18-1,.38-1.62.57h0c-.42.14-.86.29-1.33.43a44.72,44.72,0,0,1-28.62-1Z"/><g id="Grupo_3061" data-name="Grupo 3061"><path id="Trazado_1681" data-name="Trazado 1681" class="cls-5" d="M295.11,123.77v.84a76.28,76.28,0,0,1-31.56,0v-.84h.09a75.81,75.81,0,0,0,31.39,0Z"/></g><g id="Grupo_3062" data-name="Grupo 3062"><path id="Trazado_1682" data-name="Trazado 1682" class="cls-5" d="M295.11,118.78v.84H295a75.81,75.81,0,0,0-31.39,0h-.09v-.84A76.62,76.62,0,0,1,295.11,118.78Z"/></g><g id="Elipse_8" data-name="Elipse 8"><circle class="cls-6" cx="125.09" cy="61.99" r="13.5"/><circle class="cls-7" cx="125.09" cy="61.99" r="12.5"/></g><path id="Trazado_256" data-name="Trazado 256" class="cls-8" d="M118.79,62.65l3.31,3.65,8.63-7.93"/><g id="Grupo_3135" data-name="Grupo 3135"><g id="Elipse_532" data-name="Elipse 532"><circle class="cls-6" cx="202.09" cy="61.99" r="13.5"/><circle class="cls-7" cx="202.09" cy="61.99" r="12.5"/></g><path id="Trazado_1683" data-name="Trazado 1683" class="cls-8" d="M195.79,62.65l3.31,3.65,8.63-7.93"/></g><g id="Grupo_3083" data-name="Grupo 3083"><g id="Elipse_533" data-name="Elipse 533"><circle class="cls-9" cx="278.09" cy="61.99" r="13.5"/><circle class="cls-7" cx="278.09" cy="61.99" r="12.5"/></g><line id="Línea_2" data-name="Línea 2" class="cls-10" x1="273.14" y1="57.04" x2="283.04" y2="66.94"/><line id="Línea_3" data-name="Línea 3" class="cls-10" x1="273.14" y1="66.94" x2="283.04" y2="57.04"/></g><g id="Grupo_3051" data-name="Grupo 3051"><path id="Trazado_1602" data-name="Trazado 1602" class="cls-11" d="M399.81,349.61s-1.86,7.77-3.35,8.89-5.37,3.74-5.37,8.79h21.07s.94,0,.94-8c0-4.3-2.09-9.64-2.09-9.64Z"/><path id="Trazado_1603" data-name="Trazado 1603" class="cls-12" d="M396.45,358.5c-1.49,1.12-5.36,3.74-5.36,8.79H395a4.13,4.13,0,0,1,0-1.75c.8-3.11.46-5.13,4.77-6.49-.13-.63,2.14-7.08,2.15-8.78a3.68,3.68,0,0,1,.06-.66h-2.23S398,357.38,396.45,358.5Z"/><path id="Trazado_1604" data-name="Trazado 1604" class="cls-11" d="M445.88,358.5c-1.49-1.12-3.54-8.89-3.54-8.89h-11s-2.09,5.34-2.09,9.64c0,8,.93,8,.93,8h21.08C451.25,362.24,447.38,359.62,445.88,358.5Z"/><path id="Trazado_1605" data-name="Trazado 1605" class="cls-12" d="M432.65,359.32a27.83,27.83,0,0,1,1.07-9.69v0h-2.4s-2.09,5.34-2.09,9.64c0,8,.93,8,.93,8h4.75c-.1-.09-.21-.17-.31-.27C432.63,365.15,432.77,361.84,432.65,359.32Z"/><rect id="Rectángulo_860" data-name="Rectángulo 860" class="cls-13" x="391.09" y="367.29" width="21.18" height="2.04"/><rect id="Rectángulo_861" data-name="Rectángulo 861" class="cls-13" x="430.07" y="367.29" width="21.18" height="2.04"/><g id="Grupo_3050" data-name="Grupo 3050"><g id="Grupo_3042" data-name="Grupo 3042"><path id="Trazado_1606" data-name="Trazado 1606" class="cls-14" d="M462.36,225.48h-3.65a2.73,2.73,0,0,0-2.39,1.42,32.05,32.05,0,0,0-2.22,4.75,77.9,77.9,0,0,0-1.26,7.76c-.16.79-1.73,5.05-1.11,5.54.87.69,3.32-1.42,3.64-3.16s.95-3,1.74-2.85.8,3,.95,3.95-1,4.09-1.48,4.72-4.29,3.29-2.09,5.1l1.83-.8,1,.53c.3-.32,5.76-4.94,6.82-6.57,1.36-2.06.59-12.35.58-13.78C464.73,229.39,463.57,225.48,462.36,225.48Z"/><path id="Trazado_1607" data-name="Trazado 1607" class="cls-12" d="M462.36,225.48h-3.65a2.73,2.73,0,0,0-2.39,1.42,32.05,32.05,0,0,0-2.22,4.75,77.9,77.9,0,0,0-1.26,7.76c-.16.79-1.73,5.05-1.11,5.54.32.25.84.13,1.4-.21a50.29,50.29,0,0,1,2-5.69,13.28,13.28,0,0,1,8.42-6.84,5.22,5.22,0,0,1,1.24-.23C464.7,229.28,463.55,225.48,462.36,225.48Z"/><path id="Trazado_1608" data-name="Trazado 1608" class="cls-15" d="M462.5,244.91a17.21,17.21,0,0,1-.84,1.66l-5.34,5.34s5.15-4.43,5.54-5a8.63,8.63,0,0,0,1.19-2.06C463.15,244.33,462.69,244.32,462.5,244.91Z"/></g><g id="Grupo_3043" data-name="Grupo 3043"><path id="Trazado_1609" data-name="Trazado 1609" class="cls-14" d="M385.68,226.05c-.4-.52-6.67-.82-6.67-.82s-1,2.51-1.17,3.38c-1,4-1.88,12.78-.74,16.39.3.94,5.49,6.3,7.2,6.48,0,0,.56.93.64,1a.74.74,0,0,0,.55.2,1,1,0,0,0,1.06-.79,3.17,3.17,0,0,0,0-1.88c-1.73-3.95-2.67-6.43-2.63-7.24.26-5,1.86-3.94,1.9-3s.88,4.27,1.84,5.17,1.74.12,1.74.12-.66-11-.7-12.62C388.59,229.79,386.09,226.58,385.68,226.05Z"/><path id="Trazado_1610" data-name="Trazado 1610" class="cls-12" d="M379,225.23s-1,2.51-1.17,3.38c-1,4-1.88,12.78-.74,16.39a21,21,0,0,0,3.91,4.3,27.8,27.8,0,0,1-2-4.05c-1.87-4.61-.91-9.58,1.37-13.84a5.84,5.84,0,0,1,7.23-2.43,20.18,20.18,0,0,0-1.91-2.93C385.28,225.53,379,225.23,379,225.23Z"/><path id="Trazado_1611" data-name="Trazado 1611" class="cls-15" d="M381.17,245.42c-.6-.43-.32.54-.32.54l4.08,6.54-3.51-6.79A.79.79,0,0,0,381.17,245.42Z"/></g><path id="Trazado_1612" data-name="Trazado 1612" class="cls-13" d="M394.47,135.59a8.1,8.1,0,0,0-8,3.42,17.88,17.88,0,0,0-1.81,4.33c-.62,1.83-1.19,3.69-1.69,5.56-1.1,4-3.28,7.28-4.08,11.38-1.65,8.52-1.49,17-2,25.65-.25,4.28-1.23,9.73-1.29,14-.06,3.61.76,7,.86,10.65.08,2.69.21,4,.32,6.72,0,1,.06,1.95.1,2.92a8,8,0,0,0,1.2,3.58,6.35,6.35,0,0,0,2.89,2.88,5,5,0,0,0,4.25-.61,5.29,5.29,0,0,0,2.38-3.65c.09-.52.15-1,.24-1.55.66-4,1.34-6.58,2-10.55.34-2,.68-4.08,1-6.12.42-2.76.65-5.55,1-8.33.92-8.75,1.93-17.47,3.43-26.16q1.11-6.34,2.54-12.63c.87-3.78,1.75-7.6,2.95-11.3a7.82,7.82,0,0,0,.18-4.29A8,8,0,0,0,394.47,135.59Z"/><path id="Trazado_1613" data-name="Trazado 1613" class="cls-16" d="M386.52,139a17.88,17.88,0,0,0-1.81,4.33c-.62,1.83-1.19,3.69-1.7,5.56-1.09,4-3.27,7.28-4.07,11.38-1.66,8.52-1.49,17-2,25.64-.25,4.28-1.23,9.74-1.29,14-.06,3.61.76,7,.86,10.65.08,2.69.2,4,.31,6.72,0,1,.07,1.94.11,2.92a8,8,0,0,0,1.2,3.58,6.35,6.35,0,0,0,2.89,2.88,5,5,0,0,0,4.25-.61,5.27,5.27,0,0,0,2.38-3.64,5.74,5.74,0,0,1-2.54-.1,5.83,5.83,0,0,1-2.57-1.48,5.56,5.56,0,0,1-1.5-2.52,20.13,20.13,0,0,1-1.74-7.43c-.36-4.75,0-9.52,0-14.28,0-2.61-.22-5.24,0-7.85a24.2,24.2,0,0,1,.92-5.07,42.19,42.19,0,0,1,1.88-4.44c1.39-9.67-2.51-9.19-.83-19.28.77-4.66,3.67-8.67,5.61-12.94a20.76,20.76,0,0,0,1.15-3.77,11.8,11.8,0,0,0,0-1.88,6.29,6.29,0,0,1,.61-4.32q.1-.2.21-.36A7.65,7.65,0,0,0,386.52,139Z"/><path id="Trazado_1614" data-name="Trazado 1614" class="cls-17" d="M389.14,136.72l0-.15a7.8,7.8,0,0,0-.92.62A5,5,0,0,1,389.14,136.72Z"/><path id="Trazado_1615" data-name="Trazado 1615" class="cls-13" d="M463.44,161.48c-.71-3.82-2.81-7.44-3.82-11.19a87.12,87.12,0,0,0-3-9.44,7.91,7.91,0,0,0-2.55-3.36,8.18,8.18,0,0,0-8.38-.88,8,8,0,0,0-4.5,6.76,12.21,12.21,0,0,0,.76,4q.76,2.63,1.44,5.28c1,3.82,1.81,7.67,2.6,11.53,1.65,7.94,2.85,16,3.7,24.08.43,4.1.85,8.21,1.29,12.31.37,3.42.65,6.88,1.19,10.28.62,4,1.54,6.49,2.3,10.42a16.51,16.51,0,0,0,.44,2.33,5.26,5.26,0,0,0,2.8,3.05,5.38,5.38,0,0,0,7.12-2.73.36.36,0,0,0,0-.09,8.27,8.27,0,0,0,.44-2.41c.1-1.13.19-.88.27-2,.24-3.12,1.16-7.84,1.18-11,.06-8.08-.89-14.63-1.48-22.69S464.94,169.44,463.44,161.48Z"/><path id="Trazado_1616" data-name="Trazado 1616" class="cls-16" d="M462.88,222.52c-3.06-.74-5-2-5.93-4.78a19.56,19.56,0,0,1-.73-5.59,46.47,46.47,0,0,1,.23-4.72c.1-1.17.32-2.36.33-3.53a54.45,54.45,0,0,0-.26-6,31.84,31.84,0,0,0-1.88-6.55l.58,1.37a19.4,19.4,0,0,1-1.71-6.2,16.88,16.88,0,0,1,.33-4.54c.34-2,1.46-7.31,1.41-8.08-.47-2.09-1.58-4-2-6.1-.34-1.61-5.3-15-6.13-17.71a19.18,19.18,0,0,1-.18-8,34.83,34.83,0,0,1,1.43-6.2,7.9,7.9,0,0,0-7.2,7.49,12,12,0,0,0,.76,4c.51,1.75,1,3.51,1.44,5.27,1,3.82,1.8,7.68,2.6,11.54,1.65,7.94,2.85,16,3.7,24.08.43,4.1.85,8.21,1.29,12.31.37,3.42.65,6.88,1.18,10.28.63,4,1.55,6.49,2.31,10.42a16.78,16.78,0,0,0,.44,2.33,5.29,5.29,0,0,0,2.8,3.05,5.38,5.38,0,0,0,7.12-2.73l0-.09a4.79,4.79,0,0,0,.3-1.17A6.37,6.37,0,0,1,462.88,222.52Z"/><path id="Trazado_1617" data-name="Trazado 1617" class="cls-18" d="M433.77,108.39c-.55,0-1,.63-1.13.89v0l-.13.26.57-7.18-3.57-4.77-7.53-3h-2.48l-7.53,3-3.57,4.77.57,7.18-.14-.26v0c-.16-.26.49,9.33,1.48,9.33l.2,0,.09.35c.32,1.3.59,2.38.75,3.06a6.1,6.1,0,0,0,.84,2c.46.72,1.23.16,2.29,1.48a6.55,6.55,0,0,0,4.37,2.63h3.78a6.55,6.55,0,0,0,4.37-2.63c1.06-1.33,1.83-.76,2.29-1.48a6.1,6.1,0,0,0,.84-2c.16-.67.42-1.76.75-3.06l.09-.35.2,0h0c1,0,1.51-1.25,1.56-1.39S434,108.39,433.77,108.39Z"/><path id="Trazado_1618" data-name="Trazado 1618" class="cls-13" d="M453,136.07a28.14,28.14,0,0,0-10.42-5.81l-21.28-5.88v-.11l-.17,0-.17,0v.11l-21.54,5.87a30.28,30.28,0,0,0-11.13,6.63,5.44,5.44,0,0,0-2.07,4.56c.51,3.07,7.89,18.35,7.89,18.35l-2,59s-.14,9.19.37,50.14c0,3.61-1.38,9.32-1.31,12.53,0,1.34,3.72,19.18,3.76,20.45,0,1.51-1.67,4.2-1.63,5.61,1.59,47,7,43,7,43h11.2c2.88-6.49,4.3-19.34,5.65-29.13.49-3.58,1.6-4.9,1.87-8,.3-3.4-1.08-7.59-1-11,.05-1.66,1.06-4.5,1.1-6.11,0-1.09-.88-2.3-.85-3.36.18-7.92,1-14.12,1.38-18.83,1.18-14.19.27-16.76,1-19H422c.41,2.5.62,9.57,1.34,18.26.54,6.49.06,19.18.84,32.53.1,1.71,1.2,3.55,1.31,5.26.14,2.13-.71,4.11-.56,6.21,1.19,16.21,3.91,30.9,6.74,33.12H442s5.19-4.82,6.67-44.34c.06-1.59,1.36-4.1,1.41-5.79s-1.06-5.08-1-6.71a12.42,12.42,0,0,0,1.28-4.89c-2.5-41.34-.52-70-.52-70l-2-59s7.65-17.11,8.16-20.18A16,16,0,0,0,453,136.07Z"/><path id="Trazado_1619" data-name="Trazado 1619" class="cls-16" d="M407.73,128l-8.35,2.28a30.28,30.28,0,0,0-11.13,6.63,5.44,5.44,0,0,0-2.07,4.56,20.83,20.83,0,0,0,1.1,3.32,24.29,24.29,0,0,1,3.51-5.74,20,20,0,0,1,6.33-5.09c2.27-1.16,4.7-2,7.07-2.91a24.54,24.54,0,0,0,2.77-1.48,4.45,4.45,0,0,1,.81-.42c0-.19,0-.37,0-.55S407.72,128.17,407.73,128Z"/><path id="Trazado_1620" data-name="Trazado 1620" class="cls-16" d="M399.33,334.37a45.81,45.81,0,0,1-1.83-12,111.92,111.92,0,0,1,.18-11.29c.22-3.79.68-7.64.3-11.43-.39-2.39-1-4.73-1.55-7.08s-1-4.44-1.7-6.6c-.93-2.71-1.56-5.56-.66-8.38a12.81,12.81,0,0,1,1.78-3.59,25.15,25.15,0,0,0,1.45-2.19c.06-.21.12-.42.17-.64a11.78,11.78,0,0,0,0-1.68c-.34-2-.89-3.91-1.19-5.89a57.46,57.46,0,0,1-.36-8.5c0-9.51-.08-19-.61-28.54A60.93,60.93,0,0,1,395,220a52.26,52.26,0,0,1,1-7.37c.78-3.84-.34-13.44,4-6.81.22-2-1.3-8.7-1.49-10.71a37.66,37.66,0,0,0-2.1-6.72,26.63,26.63,0,0,1-1.77-8.22c-.16-3.39.29-6.77,0-10.15a13.12,13.12,0,0,0-.37-1.53l-.09-.13a4.51,4.51,0,0,1-.47-.4L392,218.76s-.14,9.19.36,50.14c.05,3.61-1.37,9.32-1.3,12.53,0,1.34,3.71,19.18,3.75,20.45,0,1.51-1.67,4.2-1.62,5.61,1.59,47,7,43,7,43h11.19q.54-1.26,1-2.55a18.11,18.11,0,0,1-6.71-3.49C402.49,341.93,400.54,338.12,399.33,334.37Z"/><path id="Trazado_1621" data-name="Trazado 1621" class="cls-16" d="M434.19,339.62a21.11,21.11,0,0,1,0-2.25q-.3-.14-.6-.3a8.41,8.41,0,0,1-3.81-5.68,20.39,20.39,0,0,1-.24-5.35,28.16,28.16,0,0,1,1.26-5c-.36-.75-.72-1.5-1-2.3a11.62,11.62,0,0,1-.58-3.41,24,24,0,0,1,.56-5.79c.57-3,1.55-5.84,2.07-8.82a15.64,15.64,0,0,0,0-2.56c-.07-.35-.15-.69-.25-1a13.58,13.58,0,0,1-1.89-1.4,7.82,7.82,0,0,1-2.22-3.8,20.57,20.57,0,0,1-.36-3.12,31,31,0,0,1-.06-7.7c.24-2.25.5-4.47.61-6.72a75.92,75.92,0,0,0-.15-12.25,30,30,0,0,0-1.67-6.38,22.65,22.65,0,0,0-1.17-2.24c-.3-.51-.62-1-1-1.49l-.19-.27-.14-.16c-.38-.46-.78-.92-1.2-1.36-.58,1.6-1,3.25-1.55,4.86H422c.41,2.49.62,9.57,1.34,18.26.54,6.49.06,19.17.84,32.53.1,1.71,1.2,3.55,1.31,5.26.13,2.13-.72,4.11-.56,6.21,1.18,16.21,3.9,30.9,6.73,33.12H442a1,1,0,0,0,.13-.16,5.55,5.55,0,0,1-2.79-.72C435.7,347.5,434.4,343.57,434.19,339.62Z"/><path id="Trazado_1622" data-name="Trazado 1622" class="cls-19" d="M405.93,288.73c3.4,7.31,12.56,18.42,10.92,13.55S405.93,288.73,405.93,288.73Z"/><path id="Trazado_1623" data-name="Trazado 1623" class="cls-19" d="M415.54,313.6c1.5,0-4.33-11.92-7.09-16.38C408.44,297.22,413.1,313.55,415.54,313.6Z"/><path id="Trazado_1624" data-name="Trazado 1624" class="cls-19" d="M443.16,194.53c-2.93-.13-12.31,24.54-12.31,24.54C437.48,212.61,446.09,194.66,443.16,194.53Z"/><path id="Trazado_1625" data-name="Trazado 1625" class="cls-19" d="M445.53,210.65c-2,.28-9.24,8.42-9.24,8.42C443.88,216.26,447.49,210.37,445.53,210.65Z"/><path id="Trazado_1626" data-name="Trazado 1626" class="cls-16" d="M395.72,196.72s5.55,13.86,10.91,20.32C406.63,217,398.8,186.21,395.72,196.72Z"/><path id="Trazado_1627" data-name="Trazado 1627" class="cls-16" d="M398,166c3.09-.84,11.22-5.33,10.91-7S393.36,167.29,398,166Z"/><path id="Trazado_1628" data-name="Trazado 1628" class="cls-16" d="M398,153.69c-2.53,1.41-2.24,10.1-2.24,10.1C398.37,157.71,400.5,152.29,398,153.69Z"/><path id="Trazado_1629" data-name="Trazado 1629" class="cls-11" d="M421.46,120.76v-.11l-.37,0-.37,0v.11l-6.71,1-1.48,8.57,1.22.93a12.07,12.07,0,0,0,15-.22l.87-.72-1.48-8.57Z"/><path id="Trazado_1630" data-name="Trazado 1630" class="cls-14" d="M427.21,113.68c-1.77,0-3.51,0-4.08-.55-.87-.77-1.5-1.27-2.11-1.27a4.76,4.76,0,0,0-2,1.27c-.57.51-2.31.55-4.08.55s-3.86,2-3.61,5.52,2.19,6.12,9.46,6h.54c7.28.11,9.22-2.58,9.47-6S429,113.68,427.21,113.68Z"/><path id="Trazado_1631" data-name="Trazado 1631" class="cls-13" d="M421.2,122.81H421c-5.56-.12-11.39-4.49-11.39-4.49l-3.69,10.94,14.75,4.28v.25l.45-.13.44.13v-.25l14.76-4.28-3.69-10.94S426.76,122.69,421.2,122.81Z"/><g id="Grupo_3044" data-name="Grupo 3044"><path id="Trazado_1632" data-name="Trazado 1632" class="cls-20" d="M431.66,105.33a6.07,6.07,0,0,0-3.17-.87H413.7a6,6,0,0,0-3.17.87c-2.28,1.38-1.53,10,5.18,10.24,2.65.07,3.46-2.06,4.26-3.56a1.28,1.28,0,0,1,1.73-.5,1.29,1.29,0,0,1,.51.5c.8,1.5,1.62,3.63,4.26,3.56C433.18,115.38,433.93,106.71,431.66,105.33Z"/><path id="Trazado_1633" data-name="Trazado 1633" class="cls-21" d="M431.92,104.9a6.58,6.58,0,0,0-3.39-1H413.65a6.58,6.58,0,0,0-3.39,1c-1.29.78-1.77,3.26-1.11,5.76a6.78,6.78,0,0,0,6.54,5.41c2.72.07,3.75-1.92,4.5-3.37.08-.15.16-.3.23-.45a.78.78,0,0,1,1-.3.86.86,0,0,1,.3.3c.07.15.15.29.23.45.74,1.43,1.75,3.37,4.35,3.37h.15a6.78,6.78,0,0,0,6.54-5.41C433.69,108.16,433.21,105.68,431.92,104.9Zm.13,5.5a5.84,5.84,0,0,1-5.59,4.65c-2.08.07-2.83-1.4-3.56-2.82-.09-.16-.16-.31-.24-.46a1.79,1.79,0,0,0-2.42-.71,1.82,1.82,0,0,0-.72.71c-.07.15-.15.3-.24.46-.73,1.42-1.49,2.88-3.56,2.82a5.84,5.84,0,0,1-5.59-4.65c-.58-2.19-.12-4.16.66-4.63a5.54,5.54,0,0,1,2.95-.81h14.7a5.54,5.54,0,0,1,2.95.81C432.17,106.24,432.62,108.21,432.05,110.4Z"/></g><path id="Trazado_1634" data-name="Trazado 1634" class="cls-13" d="M433.91,118.32c.27-6.46,5.81-28.5-13.12-28.5h-.23c-16.7.45-13,18.86-12.48,28.72.21,3.57-2.7,9.18-2.7,9.18,2.48,6,14.07,9,15.32,8.89,1.25.15,13.67-2.74,16.1-8.76C436.8,127.85,433.77,121.89,433.91,118.32ZM426,124.08c-3.5,2.84-8.1,1.36-10.33,0-5.8-3.55-6.88-15.59-6.45-19.63.23-2.25,7.19-4.33,11.8-4.39,3.1,0,11.47,2.65,11.71,4.9.43,4-.42,14-6.73,19.12Z"/><path id="Trazado_1635" data-name="Trazado 1635" class="cls-17" d="M433.91,125.37a20.6,20.6,0,0,1-9.23,6.53,11.23,11.23,0,0,1-11.42-2.54c-2.38-2.5-2.93-5.86-3-9.18,0-1.87-.09-3.75-.14-5.62a33.71,33.71,0,0,1-.92-10.11,2.53,2.53,0,0,1,1.27-1.61,27.55,27.55,0,0,1,4-11.76c-9.66,4.36-6.92,19-6.43,27.47.2,3.57-2.7,9.17-2.7,9.17,2.47,6,14.06,9.05,15.31,8.89,1.25.16,13.67-2.73,16.1-8.75a39.82,39.82,0,0,1-1.72-4A16.13,16.13,0,0,1,433.91,125.37Z"/><g id="Grupo_3045" data-name="Grupo 3045"><path id="Trazado_1636" data-name="Trazado 1636" class="cls-22" d="M431.85,99.2H410.47a1.78,1.78,0,0,0-1.78,1.78v23.18a3.07,3.07,0,0,0,3.07,3.08h18.79a3.08,3.08,0,0,0,3.08-3.08V101A1.78,1.78,0,0,0,431.85,99.2Z"/><path id="Trazado_1637" data-name="Trazado 1637" class="cls-23" d="M431.85,99.2h-1.61c0,.08,0,.17,0,.25v26.06a6.74,6.74,0,0,1-.23,1.73h.53a3.08,3.08,0,0,0,3.08-3.08V101a1.78,1.78,0,0,0-1.78-1.78Z"/><path id="Trazado_1638" data-name="Trazado 1638" class="cls-23" d="M413.71,99.23v28h6.91v-28h-6.91Z"/><rect id="Rectángulo_862" data-name="Rectángulo 862" class="cls-24" x="406.75" y="99.2" width="28.57" height="1.73"/></g><g id="Grupo_3046" data-name="Grupo 3046"><path id="Trazado_1639" data-name="Trazado 1639" class="cls-14" d="M419.56,234.33c0,.7.72,20.1,1,20.75H422c.26-.66.66-19.94.66-20.65V136.61h-3.06Z"/></g><g id="Grupo_3047" data-name="Grupo 3047"><path id="Trazado_1640" data-name="Trazado 1640" class="cls-14" d="M420.6,135.07c-8.92-.95-14.61-8.52-14.66-8.59l-2.47,1.81c.27.36,6.64,8.89,17.09,9.85l.24,0,.23,0c.48-.11,11.68-2.65,17.3-9.64L436,126.56C431.41,132.2,422.15,134.68,420.6,135.07Z"/></g><g id="Grupo_3048" data-name="Grupo 3048"><path id="Trazado_1641" data-name="Trazado 1641" class="cls-14" d="M393,191.2c0,1.06-.11,3-.13,3.11a165.09,165.09,0,0,0,19.27,2.94q6.66.62,12.66.61c9.33,0,17.59-1.12,24.32-3.33,0-.1-.18-2.35-.18-3.33C428.3,198.43,398.11,192.36,393,191.2Z"/></g><g id="Grupo_3049" data-name="Grupo 3049"><rect id="Rectángulo_863" data-name="Rectángulo 863" class="cls-14" x="419.15" y="89.82" width="3.06" height="9.39"/></g><path id="Trazado_1642" data-name="Trazado 1642" class="cls-13" d="M377.74,228.33l9.09-.45v-3.25l-8.53-.3Z"/><path id="Trazado_1643" data-name="Trazado 1643" class="cls-16" d="M378.3,224.34l-.56,4,3.4-.17a7.46,7.46,0,0,1-.11-.95,5.43,5.43,0,0,1,.65-2.76Z"/><path id="Trazado_1644" data-name="Trazado 1644" class="cls-13" d="M455.41,228.52h8.75V225h-8.57Z"/><path id="Trazado_1645" data-name="Trazado 1645" class="cls-16" d="M455.59,225l-.18,3.52h3.81A7,7,0,0,1,459,227a5.16,5.16,0,0,1,.32-2Z"/></g><path id="Trazado_1646" data-name="Trazado 1646" class="cls-19" d="M439.88,303.81s-1,1.6,1.27,7.73c.71,1.95,6,4.73,6,4.73S438.82,300,439.88,303.81Z"/><path id="Trazado_1647" data-name="Trazado 1647" class="cls-19" d="M448.42,303.28c-2.46-1.44-8.54-5.31-8.54-5.31C442.61,304.43,446.64,303.14,448.42,303.28Z"/><path id="Trazado_1648" data-name="Trazado 1648" class="cls-19" d="M449.07,303.47a1.23,1.23,0,0,0-.65-.19C449.38,303.84,449.79,304,449.07,303.47Z"/><path id="Trazado_1649" data-name="Trazado 1649" class="cls-25" d="M412.92,356.45c-.2.27-3.56.88-5.51,1.34-2.84.66-9.85-.38-9.42-2.09,0,0-4.79,3.24-5.84,4.55s-3.7,8.5-1.07,9.08,23.25,0,23.25,0,1.79-1.69,1.45-5.4C415.55,361.39,413,356.34,412.92,356.45Z"/><path id="Trazado_1650" data-name="Trazado 1650" class="cls-26" d="M393.8,360.94c-.16,1,.29,1.61,1.68,0a6.6,6.6,0,0,0,1.56-3.45S394,360,393.8,360.94Z"/><path id="Trazado_1651" data-name="Trazado 1651" class="cls-26" d="M408.74,363.89c.25,1.08.94,1.52,1.7-.67a7.27,7.27,0,0,0,.18-4.13S408.5,362.82,408.74,363.89Z"/><path id="Trazado_1652" data-name="Trazado 1652" class="cls-26" d="M411.37,358.89c0,1,1.45,5.16,2,4.24S411.37,356.81,411.37,358.89Z"/><path id="Trazado_1653" data-name="Trazado 1653" class="cls-27" d="M412.73,355.7c-.43-.23-5.14,1.67-9,1.43a8.91,8.91,0,0,1-5.57-1.89c-1-.29-.76.88-.76.88a6.44,6.44,0,0,0,4.34,2.08,30.59,30.59,0,0,0,11.38-1.5C413.33,356.54,413.16,355.93,412.73,355.7Z"/><path id="Trazado_1654" data-name="Trazado 1654" class="cls-28" d="M413.54,366.56a14.37,14.37,0,0,1-5.88,1.53,23,23,0,0,1-5.18-.4,20.14,20.14,0,0,1-3.16-.74,6,6,0,0,1-4.07-7.17,5.52,5.52,0,0,1,2.6-3.41c-.13-.1-.26-.2-.38-.31a38.35,38.35,0,0,0-5.31,4.19c-1.05,1.3-3.7,8.5-1.07,9.08s23.25,0,23.25,0a6.4,6.4,0,0,0,1.49-4.57A8.33,8.33,0,0,1,413.54,366.56Z"/><path id="Trazado_1655" data-name="Trazado 1655" class="cls-25" d="M445.08,357.15a35.39,35.39,0,0,1-7.57,1.3c-2.44.13-8.27-1.74-8.27-1.74a20.68,20.68,0,0,0-.89,5.17c.11,1.77-.38,7.33,1.72,7.45s21.7,0,22.28,0C454,369.33,453.15,360.25,445.08,357.15Z"/><path id="Trazado_1656" data-name="Trazado 1656" class="cls-27" d="M444.72,356.68a41.72,41.72,0,0,1-7.43,1.31c-3,.31-7.44-1.42-8.05-1.28s-.29,1.08-.29,1.08,5.89,1.8,8.33,1.67,8.08-1.71,8.33-2.12S445.71,356.16,444.72,356.68Z"/><path id="Trazado_1657" data-name="Trazado 1657" class="cls-26" d="M432.35,360.28s-1.16,3.26-1,4.07S433.28,359.82,432.35,360.28Z"/><path id="Trazado_1658" data-name="Trazado 1658" class="cls-26" d="M433.7,361a.19.19,0,0,0-.21-.11.17.17,0,0,0-.12.18c.08,1.69.18,3.27.5,3.41s.76-.93.35-2C434.05,362,433.86,361.45,433.7,361Z"/><path id="Trazado_1659" data-name="Trazado 1659" class="cls-28" d="M451,368.08c-3.53-.13-7.11,0-10.64.18a11.65,11.65,0,0,1-5.87-1.1,9.43,9.43,0,0,1-4.41-5.68,5,5,0,0,1,.18-3.65,5.53,5.53,0,0,1-1.2-.29,16.78,16.78,0,0,0-.67,4.34c.12,1.77-.38,7.33,1.73,7.45s21.69,0,22.28,0c.39,0,.68-.65.77-1.66A5.24,5.24,0,0,1,451,368.08Z"/></g><g id="Grupo_3052" data-name="Grupo 3052"><rect id="Rectángulo_864" data-name="Rectángulo 864" class="cls-11" x="135.31" y="292.96" width="4.73" height="0.04"/><path id="Trazado_1660" data-name="Trazado 1660" class="cls-29" d="M140.05,293H346.13a7.42,7.42,0,0,0,6.21-11.51,2.31,2.31,0,0,1-1.12.29H111.53l4.57,4.95A2.35,2.35,0,0,1,116,290l0,0-3.2,2.92Z"/><path id="Trazado_1661" data-name="Trazado 1661" class="cls-11" d="M351.22,281.75a2.43,2.43,0,0,0,1.12-.3h0a.25.25,0,0,0,0-.07,7.43,7.43,0,0,0-6.14-3.25H301.43a2.3,2.3,0,0,1-1,.22H108.38l3.14,3.4Z"/><path id="Trazado_1662" data-name="Trazado 1662" class="cls-30" d="M295.46,256.88v16.8H194.15a2.29,2.29,0,0,0-1.76-.82,6.09,6.09,0,0,1-.62-12.14l76.87-8a2.33,2.33,0,0,0-.47-4.64l-76.88,7.95a10.73,10.73,0,0,0-8.69,15.1,9.87,9.87,0,0,0,1,1.81c.16.24.34.47.52.69H104.08l-1.22-1.31.14-.17a13.91,13.91,0,0,0-1.34-18.71c0-.06-.14-.07-.2-.13,16.45-1.34,50.29-3.73,87.3-6.27.35,0,.69.09,1.05.09a10.13,10.13,0,0,0,2.62-.34c32.54-2.22,67.15-4.54,94.33-6.33a21.59,21.59,0,0,1,2.27,1.77,19.71,19.71,0,0,1,6.43,14.59Z"/><path id="Trazado_1663" data-name="Trazado 1663" class="cls-30" d="M87.68,256a8,8,0,0,0-2,3.83,6.79,6.79,0,0,0-.22,3.63,5.58,5.58,0,0,0,.51,1.3l3.41-3.41a2.2,2.2,0,0,1,1.69-.68,2.3,2.3,0,0,1,1.67.75l6.87,7.44a9.29,9.29,0,0,0-1.21-12,2.35,2.35,0,0,1-.58-1,2.32,2.32,0,0,1,.46-2.27c-4,.34-6.53.59-7.18.73A7.94,7.94,0,0,0,87.68,256Z"/><path id="Trazado_1664" data-name="Trazado 1664" class="cls-11" d="M188.68,242.36h-.11a6.06,6.06,0,0,0,3.24-.22h-.17Z"/><path id="Trazado_1665" data-name="Trazado 1665" class="cls-30" d="M340.19,239.84a17,17,0,0,0-9.73-4.27,15.55,15.55,0,0,0-8,1.59,15,15,0,0,0-7.17,8.13,14.4,14.4,0,0,0-.35,8.59c.79,2.79,2.32,4.54,5.11,7.72a45.11,45.11,0,0,0,5.84,5.56A17.56,17.56,0,0,0,346.24,253a17,17,0,0,0,.28-3.26v0A20.48,20.48,0,0,0,340.19,239.84Z"/><path id="Trazado_1666" data-name="Trazado 1666" class="cls-11" d="M324.09,271.73a2.28,2.28,0,0,0,2.28.28,22.59,22.59,0,0,1-2.46-.43Z"/><path id="Trazado_1668" data-name="Trazado 1668" class="cls-11" d="M320,261.61c-2.78-3.18-4.32-4.93-5.1-7.72a14.35,14.35,0,0,1,.34-8.6,15,15,0,0,1,7.17-8.13,15.55,15.55,0,0,1,8-1.59,17,17,0,0,1,9.73,4.27,20.48,20.48,0,0,1,6.33,9.88l0,.11v0a17.71,17.71,0,1,0-20.64,17.42l-.06,0A45.92,45.92,0,0,1,320,261.61Z"/><rect id="Rectángulo_865" data-name="Rectángulo 865" class="cls-11" x="327.05" y="297.66" width="4.52" height="66.88"/><path id="Trazado_1669" data-name="Trazado 1669" class="cls-11" d="M108.86,297.66h-1.22l-3.3,3v63.87h4.52Z"/><path id="Trazado_1670" data-name="Trazado 1670" class="cls-31" d="M326.37,272a22.41,22.41,0,0,0,24.71-19.84,23.74,23.74,0,0,0,.14-2.38c0-.24,0-.47,0-.71a22.36,22.36,0,1,0-27.27,22.5A22.59,22.59,0,0,0,326.37,272Zm2.48-4.52a17.7,17.7,0,1,1,17.7-17.7v0a17.72,17.72,0,0,1-17.7,17.66Z"/><path id="Trazado_1671" data-name="Trazado 1671" class="cls-31" d="M346.16,273.46h-46V256.88a24.48,24.48,0,0,0-24.49-24.46q-1,0-2.1.09l-73.14,5.65-69.7,5.56-39,2.82a15.19,15.19,0,0,0-11.26,23.88L58.87,291.94a2.34,2.34,0,0,0-.1,3.19l21.44,24.36a2.32,2.32,0,0,0,1.62.78H82a2.33,2.33,0,0,0,1.57-.6l16.12-14.73v62a2.34,2.34,0,0,0,2.34,2.34h9.22a2.33,2.33,0,0,0,2.33-2.34V297.66H322.39v69.26a2.33,2.33,0,0,0,2.33,2.34h9.21a2.34,2.34,0,0,0,2.34-2.34V297.66h9.89a12.1,12.1,0,0,0,0-24.2ZM92,251.2l87.63-6.34a2.17,2.17,0,0,0,.92-.27L198.31,243l75.61-5.84a19.61,19.61,0,0,1,12.85,3.36,21.47,21.47,0,0,1,2.26,1.77,19.67,19.67,0,0,1,6.43,14.59v16.8H194.15a2.29,2.29,0,0,0-1.76-.82,6.09,6.09,0,0,1-.62-12.14l76.87-8a2.33,2.33,0,0,0-.48-4.64l-76.87,7.95a10.73,10.73,0,0,0-8.69,15.1,10.43,10.43,0,0,0,1,1.81c.17.24.35.46.53.69H104.08l-1.22-1.31.14-.17a13.91,13.91,0,0,0-1.34-18.71c-.06-.06-.14-.07-.2-.13a2.32,2.32,0,0,0-3.1.19.43.43,0,0,1,0,.07,2.42,2.42,0,0,0,.11,3.24,9.29,9.29,0,0,1,1.22,12l-6.88-7.44a2.33,2.33,0,0,0-3.36-.07L86,264.8l-2.25,2.25a8.44,8.44,0,0,1-.62-1.24A10.49,10.49,0,0,1,88.64,252,10.22,10.22,0,0,1,92,251.2Zm16.89,113.39h-4.56V300.68l3.31-3h1.25Zm-26.75-50L63.71,293.69h0L91,266.41l20.07,21.73,0,0Zm249.46,50h-4.55V297.66h4.55ZM346.16,293H112.74l.05,0L116,290a2.32,2.32,0,0,0,.39-3,3.59,3.59,0,0,0-.25-.33l-4.61-5-3.14-3.39H300.46a2.24,2.24,0,0,0,1-.23h44.72a7.45,7.45,0,0,1,6.14,3.26l0,.07a7.42,7.42,0,0,1-2,10.29,7.5,7.5,0,0,1-4.15,1.26Z"/><path id="Trazado_1672" data-name="Trazado 1672" class="cls-11" d="M286.76,240.52c-27.18,1.79-61.79,4.11-94.33,6.33a10.07,10.07,0,0,1-2.62.34,9.3,9.3,0,0,1-1.05-.09c-37,2.55-70.85,4.94-87.3,6.27a2.31,2.31,0,0,0-3.1.2l0,.06c-4,.35-6.52.6-7.18.73a6.42,6.42,0,0,0-5.42,5.51,6.89,6.89,0,0,0-.23,3.63,5.61,5.61,0,0,0,.52,1.3l-2.25,2.25a9.63,9.63,0,0,1-.63-1.24A10.5,10.5,0,0,1,88.63,252,10.34,10.34,0,0,1,92,251.2l87.62-6.34a2.13,2.13,0,0,0,.92-.27L198.3,243l75.62-5.83A19.45,19.45,0,0,1,286.76,240.52Z"/></g><g id="Grupo_3065" data-name="Grupo 3065"><path id="Sustracción_1" data-name="Sustracción 1" class="cls-6" d="M144.92,231.41a5.86,5.86,0,1,1,4.14-1.72A5.78,5.78,0,0,1,144.92,231.41Zm1.32-2.64a1,1,0,0,0-.34,0c-.5.14-.81.56-.7.93a.74.74,0,0,0,.75.46,1.27,1.27,0,0,0,.34-.05c.5-.15.81-.57.7-.94a.72.72,0,0,0-.75-.45Zm-4.37-1a.62.62,0,0,0-.44.18.63.63,0,0,0-.15.54,1.16,1.16,0,0,0,.34.61,1.08,1.08,0,0,0,.72.31.55.55,0,0,0,.44-.18.85.85,0,0,0-.19-1.15A1.08,1.08,0,0,0,141.87,227.73ZM149,225.6a.9.9,0,0,0-.77.75.85.85,0,0,0,.46,1.08h.12a.9.9,0,0,0,.78-.75,1.19,1.19,0,0,0,0-.7.66.66,0,0,0-.42-.38Zm-4.09-1.2a1.17,1.17,0,0,0-1.15,1.16,1.18,1.18,0,0,0,.48.93,1.15,1.15,0,1,0,.67-2.09Zm-3.91-.73a.88.88,0,0,0-.77.76.83.83,0,0,0,.46,1.07l.12,0a.9.9,0,0,0,.77-.76.83.83,0,0,0-.46-1.07Zm6.51-1.93a.55.55,0,0,0-.44.17.84.84,0,0,0,.19,1.15,1.09,1.09,0,0,0,.72.32.6.6,0,0,0,.44-.18.84.84,0,0,0-.19-1.15A1,1,0,0,0,147.52,221.74Zm-3.65-.85a1.34,1.34,0,0,0-.35.05c-.49.15-.81.57-.69.94a.72.72,0,0,0,.74.45,1.34,1.34,0,0,0,.35-.05,1.16,1.16,0,0,0,.58-.39.6.6,0,0,0,.11-.55A.72.72,0,0,0,143.87,220.89Z"/><g id="Grupo_3064" data-name="Grupo 3064"><path id="Trazado_1684" data-name="Trazado 1684" class="cls-6" d="M143.68,216.88c-.09-.29-.72-.36-1.42-.15s-1.18.62-1.1.91.33.27.7.26a1,1,0,0,1,.38.1c.52.39.68,2.24.68,2.24l.7-.22s-.9-1.62-.67-2.23a.81.81,0,0,1,.25-.27C143.54,217.31,143.74,217.07,143.68,216.88Z"/><path id="Trazado_1685" data-name="Trazado 1685" class="cls-6" d="M140.67,219.2c-.12-.14-.49,0-.84.24s-.53.62-.41.76.25.09.45,0a.67.67,0,0,1,.24,0c.38.1.89,1.12.89,1.12l.35-.29s-.88-.71-.89-1.11a.6.6,0,0,1,.08-.21C140.69,219.48,140.74,219.3,140.67,219.2Z"/><path id="Trazado_1686" data-name="Trazado 1686" class="cls-6" d="M146.41,218.05c0-.18-.32-.37-.76-.42s-.82.06-.84.25.12.23.33.32a.52.52,0,0,1,.19.14c.2.34-.15,1.42-.15,1.42l.45.05s-.12-1.13.15-1.42a.5.5,0,0,1,.21-.09C146.23,218.26,146.39,218.17,146.41,218.05Z"/><path id="Trazado_1687" data-name="Trazado 1687" class="cls-6" d="M151.28,221.3c.14-.12,0-.49-.24-.84s-.62-.53-.76-.41-.09.25,0,.46a.59.59,0,0,1,0,.23c-.1.39-1.12.9-1.12.9l.29.35s.71-.89,1.11-.9a.9.9,0,0,1,.21.08C151,221.32,151.18,221.38,151.28,221.3Z"/><path id="Trazado_1688" data-name="Trazado 1688" class="cls-6" d="M152.43,227c.18,0,.37-.32.42-.76s-.06-.81-.25-.83-.23.12-.31.32a.75.75,0,0,1-.15.2c-.34.2-1.42-.16-1.42-.16l-.05.45s1.13-.12,1.42.15a.4.4,0,0,1,.09.21C152.22,226.86,152.31,227,152.43,227Z"/><path id="Trazado_1689" data-name="Trazado 1689" class="cls-6" d="M149.18,231.91c.12.15.49,0,.84-.24s.53-.62.41-.76-.25-.08-.46,0a.85.85,0,0,1-.23,0c-.39-.1-.9-1.11-.9-1.11l-.35.28s.89.71.9,1.11a.76.76,0,0,1-.08.21C149.16,231.63,149.1,231.82,149.18,231.91Z"/><path id="Trazado_1690" data-name="Trazado 1690" class="cls-6" d="M143.44,233.06c0,.18.32.37.76.42s.81-.06.83-.25-.11-.23-.32-.31a.58.58,0,0,1-.19-.15c-.2-.34.15-1.42.15-1.42l-.45,0s.12,1.14-.15,1.42a.51.51,0,0,1-.21.1C143.62,232.85,143.45,232.94,143.44,233.06Z"/><path id="Trazado_1691" data-name="Trazado 1691" class="cls-6" d="M138.57,229.81c-.15.12,0,.49.24.84s.62.53.76.41.08-.25,0-.45a1,1,0,0,1,0-.24c.1-.38,1.11-.89,1.11-.89l-.28-.35s-.71.88-1.11.89a.54.54,0,0,1-.21-.08C138.85,229.79,138.66,229.74,138.57,229.81Z"/><path id="Trazado_1692" data-name="Trazado 1692" class="cls-6" d="M137.42,224.07c-.18,0-.37.32-.42.76s.06.82.25.84.23-.12.31-.33a.7.7,0,0,1,.15-.19c.34-.2,1.42.15,1.42.15l.05-.45s-1.14.12-1.42-.15a.51.51,0,0,1-.1-.21C137.63,224.25,137.54,224.08,137.42,224.07Z"/><path id="Trazado_1693" data-name="Trazado 1693" class="cls-6" d="M150.18,218.54c.15-.27-.26-.76-.9-1.11s-1.27-.4-1.41-.13,0,.43.3.68a.9.9,0,0,1,.2.34c.1.64-1.1,2.06-1.1,2.06l.65.34s.51-1.79,1.1-2.05a.93.93,0,0,1,.37,0C149.78,218.75,150.09,218.72,150.18,218.54Z"/><path id="Trazado_1694" data-name="Trazado 1694" class="cls-6" d="M153.6,224.31c.29-.09.36-.72.15-1.42s-.62-1.18-.91-1.09-.27.32-.26.69a1,1,0,0,1-.1.38c-.39.52-2.24.68-2.24.68l.22.7s1.62-.9,2.23-.67a.93.93,0,0,1,.27.25C153.17,224.17,153.41,224.37,153.6,224.31Z"/><path id="Trazado_1695" data-name="Trazado 1695" class="cls-6" d="M151.94,230.81c.27.15.76-.26,1.11-.89s.4-1.28.13-1.42-.42,0-.68.3a.94.94,0,0,1-.33.2c-.65.1-2.06-1.1-2.06-1.1l-.35.65s1.79.51,2.06,1.1a1.16,1.16,0,0,1,0,.37C151.73,230.41,151.76,230.72,151.94,230.81Z"/><path id="Trazado_1696" data-name="Trazado 1696" class="cls-6" d="M146.17,234.24c.09.29.72.35,1.42.14s1.18-.61,1.09-.9-.32-.28-.69-.27a1,1,0,0,1-.38-.1c-.52-.38-.68-2.23-.68-2.23l-.7.21s.9,1.63.67,2.24a1.06,1.06,0,0,1-.25.27C146.31,233.8,146.11,234,146.17,234.24Z"/><path id="Trazado_1697" data-name="Trazado 1697" class="cls-6" d="M139.67,232.57c-.15.27.26.77.89,1.11s1.28.4,1.42.14,0-.43-.3-.69a.94.94,0,0,1-.2-.33c-.1-.64,1.1-2.06,1.1-2.06l-.65-.35s-.51,1.79-1.1,2.06a.93.93,0,0,1-.37,0C140.07,232.37,139.76,232.4,139.67,232.57Z"/><path id="Trazado_1698" data-name="Trazado 1698" class="cls-6" d="M136.24,226.8c-.29.09-.35.72-.14,1.41s.61,1.19.9,1.1.28-.33.27-.7a.93.93,0,0,1,.1-.37c.38-.53,2.23-.68,2.23-.68l-.21-.71s-1.63.91-2.24.68a1.27,1.27,0,0,1-.27-.25C136.68,226.94,136.44,226.74,136.24,226.8Z"/><path id="Trazado_1699" data-name="Trazado 1699" class="cls-6" d="M137.91,220.3c-.27-.15-.77.26-1.11.9s-.4,1.27-.14,1.41.43,0,.69-.3a.94.94,0,0,1,.33-.2c.64-.1,2.06,1.1,2.06,1.1l.35-.65s-1.79-.51-2.06-1.1a.92.92,0,0,1,0-.37C138.12,220.71,138.08,220.39,137.91,220.3Z"/></g></g><g id="Grupo_3066" data-name="Grupo 3066"><path id="Sustracción_1-2" data-name="Sustracción 1-2" class="cls-6" d="M241.3,331.57a9,9,0,1,1,6.4-2.72l-.1.1A8.89,8.89,0,0,1,241.3,331.57Zm2-4a1.82,1.82,0,0,0-.52.08c-.75.22-1.23.86-1.06,1.42a1.1,1.1,0,0,0,1.14.69,1.81,1.81,0,0,0,.52-.07c.75-.23,1.23-.86,1.07-1.42a1.11,1.11,0,0,0-1.15-.7ZM236.65,326a.9.9,0,0,0-.68.27,1,1,0,0,0-.22.84,1.71,1.71,0,0,0,.52.91,1.66,1.66,0,0,0,1.09.48.92.92,0,0,0,.68-.27,1.29,1.29,0,0,0-.3-1.75A1.66,1.66,0,0,0,236.65,326Zm10.88-3.25a1.37,1.37,0,0,0-1.18,1.16,1.28,1.28,0,0,0,.7,1.63.58.58,0,0,0,.19,0,1.37,1.37,0,0,0,1.18-1.15,1.64,1.64,0,0,0-.07-1.05,1,1,0,0,0-.63-.59Zm-6.23-1.82a1.76,1.76,0,1,0,1,.34A1.74,1.74,0,0,0,241.3,320.89Zm-6-1.11a1.37,1.37,0,0,0-1.18,1.16,1.28,1.28,0,0,0,.71,1.63l.19,0a1.38,1.38,0,0,0,1.17-1.16,1.28,1.28,0,0,0-.7-1.63A.65.65,0,0,0,235.33,319.78Zm9.91-2.95a.85.85,0,0,0-.66.26,1.28,1.28,0,0,0,.28,1.75,1.64,1.64,0,0,0,1.1.49.94.94,0,0,0,.67-.27,1.28,1.28,0,0,0-.29-1.75A1.61,1.61,0,0,0,245.24,316.83Zm-5.55-1.29a1.89,1.89,0,0,0-.53.08c-.76.22-1.23.86-1.06,1.43a1.14,1.14,0,0,0,1.14.69,1.89,1.89,0,0,0,.53-.08,1.7,1.7,0,0,0,.87-.59,1,1,0,0,0,.19-.84A1.11,1.11,0,0,0,239.69,315.54Z"/><g id="Grupo_3064-2" data-name="Grupo 3064-2"><path id="Trazado_1684-2" data-name="Trazado 1684-2" class="cls-6" d="M239.4,309.43c-.13-.45-1.1-.55-2.16-.23s-1.81.94-1.67,1.38c.08.28.5.42,1.06.41a1.65,1.65,0,0,1,.58.14c.79.59,1,3.41,1,3.41l1.07-.32s-1.38-2.48-1-3.41a1.49,1.49,0,0,1,.38-.41C239.19,310.09,239.48,309.72,239.4,309.43Z"/><path id="Trazado_1685-2" data-name="Trazado 1685-2" class="cls-6" d="M234.81,313c-.18-.22-.75-.06-1.27.36s-.81.95-.64,1.17.38.12.7,0a1.49,1.49,0,0,1,.36-.05c.58.16,1.36,1.7,1.36,1.7l.54-.43s-1.35-1.09-1.37-1.7a1.27,1.27,0,0,1,.13-.32C234.84,313.39,234.93,313.11,234.81,313Z"/><path id="Trazado_1686-2" data-name="Trazado 1686-2" class="cls-6" d="M243.56,311.22c0-.28-.49-.57-1.16-.64s-1.24.09-1.27.37.18.36.5.49a1,1,0,0,1,.29.21c.3.52-.24,2.16-.24,2.16l.68.08s-.18-1.73.24-2.17a1.09,1.09,0,0,1,.31-.14C243.28,311.54,243.54,311.4,243.56,311.22Z"/><path id="Trazado_1687-2" data-name="Trazado 1687-2" class="cls-6" d="M251,316.16c.21-.17.05-.74-.37-1.27s-.94-.81-1.16-.63-.13.38,0,.69a.92.92,0,0,1,0,.37c-.15.58-1.69,1.36-1.69,1.36l.43.53s1.08-1.35,1.69-1.36a1,1,0,0,1,.32.12C250.55,316.19,250.83,316.28,251,316.16Z"/><path id="Trazado_1688-2" data-name="Trazado 1688-2" class="cls-6" d="M252.73,324.91c.28,0,.56-.49.64-1.16s-.1-1.24-.38-1.27-.35.18-.48.5a1.06,1.06,0,0,1-.22.29c-.52.31-2.16-.23-2.16-.23l-.07.68s1.72-.19,2.16.23a.92.92,0,0,1,.14.32C252.4,324.63,252.54,324.89,252.73,324.91Z"/><path id="Trazado_1689-2" data-name="Trazado 1689-2" class="cls-6" d="M247.78,332.33c.18.22.75.06,1.27-.36s.81-1,.64-1.17-.39-.12-.7,0a1.13,1.13,0,0,1-.36.06c-.59-.16-1.36-1.7-1.36-1.7l-.54.43s1.35,1.09,1.36,1.7a1,1,0,0,1-.12.32C247.75,331.91,247.66,332.19,247.78,332.33Z"/><path id="Trazado_1690-2" data-name="Trazado 1690-2" class="cls-6" d="M239,334.08c0,.28.49.57,1.16.64s1.24-.09,1.27-.37-.18-.36-.5-.49a1,1,0,0,1-.29-.21c-.3-.52.24-2.16.24-2.16l-.68-.08s.18,1.73-.24,2.16a.73.73,0,0,1-.31.14C239.31,333.76,239.05,333.9,239,334.08Z"/><path id="Trazado_1691-2" data-name="Trazado 1691-2" class="cls-6" d="M231.61,329.13c-.22.18-.05.75.37,1.28s.94.81,1.16.63.13-.38,0-.7a.85.85,0,0,1,0-.36c.15-.58,1.69-1.36,1.69-1.36l-.43-.53s-1.08,1.34-1.69,1.36a1,1,0,0,1-.32-.12C232,329.1,231.76,329,231.61,329.13Z"/><path id="Trazado_1692-2" data-name="Trazado 1692-2" class="cls-6" d="M229.86,320.39c-.28,0-.56.49-.64,1.16s.1,1.24.38,1.27.35-.18.48-.5a.89.89,0,0,1,.22-.29c.52-.31,2.16.23,2.16.23l.07-.68s-1.72.18-2.16-.23a.92.92,0,0,1-.14-.32C230.18,320.67,230.05,320.41,229.86,320.39Z"/><path id="Trazado_1693-2" data-name="Trazado 1693-2" class="cls-6" d="M249.3,312c.22-.41-.39-1.16-1.37-1.68s-1.94-.62-2.16-.21c-.13.25.06.64.47,1a1.63,1.63,0,0,1,.3.51c.15,1-1.68,3.13-1.68,3.13l1,.54s.78-2.73,1.68-3.14a1.52,1.52,0,0,1,.56,0C248.69,312.28,249.16,312.23,249.3,312Z"/><path id="Trazado_1694-2" data-name="Trazado 1694-2" class="cls-6" d="M254.52,320.75c.44-.13.54-1.1.22-2.15s-.94-1.81-1.38-1.68c-.28.08-.42.5-.4,1.06a1.91,1.91,0,0,1-.15.58c-.59.8-3.41,1-3.41,1l.33,1.07s2.48-1.37,3.4-1a1.69,1.69,0,0,1,.42.38C253.86,320.54,254.23,320.84,254.52,320.75Z"/><path id="Trazado_1695-2" data-name="Trazado 1695-2" class="cls-6" d="M252,330.66c.4.22,1.16-.39,1.68-1.37s.62-1.94.21-2.16c-.26-.14-.65.05-1,.46a1.49,1.49,0,0,1-.51.31c-1,.14-3.14-1.68-3.14-1.68l-.53,1s2.73.78,3.14,1.69a1.5,1.5,0,0,1,0,.56C251.67,330,251.72,330.52,252,330.66Z"/><path id="Trazado_1696-2" data-name="Trazado 1696-2" class="cls-6" d="M243.19,335.87c.13.45,1.1.54,2.16.23s1.81-.94,1.67-1.38c-.08-.28-.5-.42-1.06-.41a1.47,1.47,0,0,1-.58-.15c-.79-.59-1-3.4-1-3.4l-1.07.32s1.38,2.48,1,3.41a1.49,1.49,0,0,1-.38.41C243.4,335.21,243.1,335.58,243.19,335.87Z"/><path id="Trazado_1697-2" data-name="Trazado 1697-2" class="cls-6" d="M233.28,333.34c-.21.41.4,1.16,1.38,1.68s1.94.62,2.16.21c.13-.25-.06-.65-.47-1a1.66,1.66,0,0,1-.31-.51c-.14-1,1.69-3.14,1.69-3.14l-1-.53s-.78,2.73-1.68,3.14a1.56,1.56,0,0,1-.57,0C233.9,333,233.43,333.07,233.28,333.34Z"/><path id="Trazado_1698-2" data-name="Trazado 1698-2" class="cls-6" d="M228.07,324.55c-.44.13-.54,1.09-.22,2.15s.94,1.81,1.38,1.68c.28-.09.42-.5.41-1.07a1.59,1.59,0,0,1,.14-.57c.59-.8,3.41-1,3.41-1l-.33-1.08s-2.48,1.38-3.4,1a1.69,1.69,0,0,1-.42-.38C228.73,324.76,228.36,324.46,228.07,324.55Z"/><path id="Trazado_1699-2" data-name="Trazado 1699-2" class="cls-6" d="M230.6,314.64c-.4-.22-1.16.39-1.68,1.37s-.62,1.94-.21,2.16c.26.14.65-.06,1-.46a1.49,1.49,0,0,1,.51-.31c1-.14,3.14,1.68,3.14,1.68l.53-1s-2.73-.78-3.14-1.68a1.5,1.5,0,0,1,0-.56C230.92,315.26,230.87,314.78,230.6,314.64Z"/></g></g><g id="Grupo_3067" data-name="Grupo 3067"><path id="Sustracción_1-3" data-name="Sustracción 1-3" class="cls-6" d="M300.57,231a5.19,5.19,0,1,1,3.67-1.52h0A5.11,5.11,0,0,1,300.57,231Zm1.16-2.34a1,1,0,0,0-.3,0,.75.75,0,0,0-.62.83.67.67,0,0,0,.67.41,1,1,0,0,0,.3-.05c.44-.13.72-.5.62-.83A.65.65,0,0,0,301.73,228.68Zm-3.87-.92a.54.54,0,0,0-.39.16.55.55,0,0,0-.12.48.94.94,0,0,0,.3.54.93.93,0,0,0,.63.27.51.51,0,0,0,.39-.15.74.74,0,0,0-.17-1A1,1,0,0,0,297.86,227.76Zm6.34-1.89a.8.8,0,0,0-.69.67.75.75,0,0,0,.41,1l.11,0a.8.8,0,0,0,.68-.68,1,1,0,0,0,0-.61.57.57,0,0,0-.37-.34Zm-3.63-1.06a1,1,0,1,0,.83,1.62,1,1,0,0,0-.23-1.42A1,1,0,0,0,300.57,224.81Zm-3.47-.65a.8.8,0,0,0-.69.68.76.76,0,0,0,.42.95h.1a.8.8,0,0,0,.69-.68.75.75,0,0,0-.41-1Zm5.77-1.71a.51.51,0,0,0-.39.15.74.74,0,0,0,.17,1,.94.94,0,0,0,.63.28.54.54,0,0,0,.39-.15.74.74,0,0,0-.17-1,.94.94,0,0,0-.63-.28Zm-3.23-.75a1.06,1.06,0,0,0-.31,0c-.44.13-.72.51-.62.83a.66.66,0,0,0,.66.41,1.54,1.54,0,0,0,.31,0,1,1,0,0,0,.51-.34.54.54,0,0,0,.1-.49A.62.62,0,0,0,299.64,221.7Z"/><g id="Grupo_3064-3" data-name="Grupo 3064-3"><path id="Trazado_1684-3" data-name="Trazado 1684-3" class="cls-6" d="M299.47,218.14c-.08-.26-.64-.32-1.26-.13s-1,.54-1,.8.28.25.62.24a.94.94,0,0,1,.33.08c.46.35.6,2,.6,2l.63-.19s-.8-1.44-.6-2a.73.73,0,0,1,.22-.24C299.34,218.53,299.52,218.31,299.47,218.14Z"/><path id="Trazado_1685-3" data-name="Trazado 1685-3" class="cls-6" d="M296.8,220.2c-.11-.13-.44,0-.74.22s-.48.55-.37.67.22.08.4,0a.39.39,0,0,1,.21,0c.34.08.8,1,.8,1l.31-.25s-.79-.63-.8-1a.64.64,0,0,1,.08-.19C296.81,220.45,296.86,220.28,296.8,220.2Z"/><path id="Trazado_1686-3" data-name="Trazado 1686-3" class="cls-6" d="M301.89,219.18c0-.16-.29-.33-.68-.37s-.72.06-.74.22.11.21.29.28a.52.52,0,0,1,.17.13c.18.3-.14,1.26-.14,1.26l.4,0s-.11-1,.14-1.26a.37.37,0,0,1,.18-.08C301.72,219.37,301.88,219.29,301.89,219.18Z"/><path id="Trazado_1687-3" data-name="Trazado 1687-3" class="cls-6" d="M306.2,222.06c.13-.1,0-.43-.21-.74s-.55-.47-.68-.37-.07.22,0,.41a.66.66,0,0,1,0,.21c-.09.34-1,.79-1,.79l.25.31s.64-.78,1-.79a.4.4,0,0,1,.18.07C306,222.08,306.12,222.13,306.2,222.06Z"/><path id="Trazado_1688-3" data-name="Trazado 1688-3" class="cls-6" d="M307.22,227.15c.17,0,.33-.28.38-.67s-.06-.73-.22-.74-.21.1-.28.28a.45.45,0,0,1-.13.17c-.3.18-1.26-.13-1.26-.13l0,.39s1-.1,1.26.14a1,1,0,0,1,.08.18C307,227,307.11,227.14,307.22,227.15Z"/><path id="Trazado_1689-3" data-name="Trazado 1689-3" class="cls-6" d="M304.34,231.47c.11.13.44,0,.74-.22s.48-.55.37-.68-.22-.07-.4,0a.76.76,0,0,1-.21,0c-.34-.09-.8-1-.8-1l-.31.25s.79.63.8,1a.64.64,0,0,1-.08.19C304.32,231.22,304.28,231.38,304.34,231.47Z"/><path id="Trazado_1690-3" data-name="Trazado 1690-3" class="cls-6" d="M299.25,232.49c0,.16.29.33.68.37s.72-.06.74-.22-.11-.21-.29-.28a.52.52,0,0,1-.17-.13c-.18-.3.14-1.25.14-1.25l-.4,0s.11,1-.14,1.26a.37.37,0,0,1-.18.08C299.41,232.3,299.27,232.38,299.25,232.49Z"/><path id="Trazado_1691-3" data-name="Trazado 1691-3" class="cls-6" d="M294.94,229.61c-.13.1,0,.43.21.74s.55.47.68.37.07-.23,0-.41a.76.76,0,0,1,0-.21c.09-.34,1-.79,1-.79l-.25-.31s-.64.78-1,.79a.56.56,0,0,1-.18-.07C295.18,229.59,295,229.54,294.94,229.61Z"/><path id="Trazado_1692-3" data-name="Trazado 1692-3" class="cls-6" d="M293.92,224.52c-.17,0-.33.28-.38.67s.06.72.22.74.21-.1.28-.29a.7.7,0,0,1,.13-.17c.3-.17,1.26.14,1.26.14l0-.4s-1,.11-1.26-.13a.71.71,0,0,1-.08-.18C294.1,224.68,294,224.53,293.92,224.52Z"/><path id="Trazado_1693-3" data-name="Trazado 1693-3" class="cls-6" d="M305.23,219.61c.13-.23-.23-.67-.79-1s-1.13-.36-1.26-.12,0,.38.27.61a.79.79,0,0,1,.18.29c.08.57-1,1.83-1,1.83l.58.31s.45-1.59,1-1.83a.86.86,0,0,1,.32,0C304.87,219.8,305.15,219.77,305.23,219.61Z"/><path id="Trazado_1694-3" data-name="Trazado 1694-3" class="cls-6" d="M308.26,224.73c.26-.08.32-.64.13-1.26s-.54-1.05-.8-1-.24.29-.24.62a.81.81,0,0,1-.08.34c-.34.46-2,.59-2,.59l.18.63s1.45-.8,2-.6a1.26,1.26,0,0,1,.24.22C307.88,224.61,308.09,224.78,308.26,224.73Z"/><path id="Trazado_1695-3" data-name="Trazado 1695-3" class="cls-6" d="M306.79,230.49c.24.13.68-.23,1-.79s.36-1.13.12-1.26-.38,0-.6.27a.92.92,0,0,1-.3.18c-.57.09-1.83-1-1.83-1l-.31.58s1.59.45,1.83,1a.74.74,0,0,1,0,.33C306.61,230.13,306.63,230.41,306.79,230.49Z"/><path id="Trazado_1696-3" data-name="Trazado 1696-3" class="cls-6" d="M301.67,233.53c.08.26.64.31,1.26.13s1.05-.55,1-.8-.28-.25-.62-.24a1,1,0,0,1-.33-.09c-.46-.34-.6-2-.6-2l-.63.19s.81,1.44.6,2a.73.73,0,0,1-.22.24C301.8,233.14,301.62,233.36,301.67,233.53Z"/><path id="Trazado_1697-3" data-name="Trazado 1697-3" class="cls-6" d="M295.91,232.05c-.13.24.23.68.79,1s1.13.37,1.26.13,0-.38-.27-.61a.92.92,0,0,1-.18-.3c-.08-.57,1-1.82,1-1.82l-.58-.31s-.45,1.59-1,1.82a.85.85,0,0,1-.32,0C296.27,231.87,296,231.9,295.91,232.05Z"/><path id="Trazado_1698-3" data-name="Trazado 1698-3" class="cls-6" d="M292.87,226.93c-.25.08-.31.64-.12,1.26s.54,1.05.8,1,.24-.29.24-.62a.81.81,0,0,1,.08-.34c.34-.46,2-.6,2-.6l-.18-.63s-1.45.81-2,.6a1,1,0,0,1-.24-.22C293.26,227.06,293.05,226.89,292.87,226.93Z"/><path id="Trazado_1699-3" data-name="Trazado 1699-3" class="cls-6" d="M294.35,221.17c-.24-.12-.68.23-1,.8s-.36,1.13-.12,1.25.38,0,.6-.27a1.49,1.49,0,0,1,.3-.18c.57-.08,1.83,1,1.83,1l.3-.57s-1.58-.46-1.82-1a.74.74,0,0,1,0-.33C294.53,221.53,294.51,221.25,294.35,221.17Z"/></g></g></g></g></svg>